%TF.GenerationSoftware,KiCad,Pcbnew,(6.0.2-0)*%
%TF.CreationDate,2022-06-16T14:33:15-07:00*%
%TF.ProjectId,delta,64656c74-612e-46b6-9963-61645f706362,v1*%
%TF.SameCoordinates,Original*%
%TF.FileFunction,Copper,L1,Top*%
%TF.FilePolarity,Positive*%
%FSLAX46Y46*%
G04 Gerber Fmt 4.6, Leading zero omitted, Abs format (unit mm)*
G04 Created by KiCad (PCBNEW (6.0.2-0)) date 2022-06-16 14:33:15*
%MOMM*%
%LPD*%
G01*
G04 APERTURE LIST*
G04 Aperture macros list*
%AMRoundRect*
0 Rectangle with rounded corners*
0 $1 Rounding radius*
0 $2 $3 $4 $5 $6 $7 $8 $9 X,Y pos of 4 corners*
0 Add a 4 corners polygon primitive as box body*
4,1,4,$2,$3,$4,$5,$6,$7,$8,$9,$2,$3,0*
0 Add four circle primitives for the rounded corners*
1,1,$1+$1,$2,$3*
1,1,$1+$1,$4,$5*
1,1,$1+$1,$6,$7*
1,1,$1+$1,$8,$9*
0 Add four rect primitives between the rounded corners*
20,1,$1+$1,$2,$3,$4,$5,0*
20,1,$1+$1,$4,$5,$6,$7,0*
20,1,$1+$1,$6,$7,$8,$9,0*
20,1,$1+$1,$8,$9,$2,$3,0*%
G04 Aperture macros list end*
%TA.AperFunction,SMDPad,CuDef*%
%ADD10RoundRect,0.200000X-0.200000X-0.275000X0.200000X-0.275000X0.200000X0.275000X-0.200000X0.275000X0*%
%TD*%
%TA.AperFunction,SMDPad,CuDef*%
%ADD11RoundRect,0.225000X-0.225000X-0.250000X0.225000X-0.250000X0.225000X0.250000X-0.225000X0.250000X0*%
%TD*%
%TA.AperFunction,SMDPad,CuDef*%
%ADD12RoundRect,0.225000X0.225000X0.250000X-0.225000X0.250000X-0.225000X-0.250000X0.225000X-0.250000X0*%
%TD*%
%TA.AperFunction,ComponentPad*%
%ADD13C,2.200000*%
%TD*%
%TA.AperFunction,ComponentPad*%
%ADD14R,2.200000X2.200000*%
%TD*%
%TA.AperFunction,SMDPad,CuDef*%
%ADD15RoundRect,0.200000X-0.275000X0.200000X-0.275000X-0.200000X0.275000X-0.200000X0.275000X0.200000X0*%
%TD*%
%TA.AperFunction,SMDPad,CuDef*%
%ADD16RoundRect,0.200000X0.275000X-0.200000X0.275000X0.200000X-0.275000X0.200000X-0.275000X-0.200000X0*%
%TD*%
%TA.AperFunction,SMDPad,CuDef*%
%ADD17R,0.500000X0.500000*%
%TD*%
%TA.AperFunction,SMDPad,CuDef*%
%ADD18R,0.660000X0.280000*%
%TD*%
%TA.AperFunction,SMDPad,CuDef*%
%ADD19R,0.280000X0.660000*%
%TD*%
%TA.AperFunction,SMDPad,CuDef*%
%ADD20RoundRect,0.250000X0.475000X-0.250000X0.475000X0.250000X-0.475000X0.250000X-0.475000X-0.250000X0*%
%TD*%
%TA.AperFunction,SMDPad,CuDef*%
%ADD21RoundRect,0.250000X0.262500X0.450000X-0.262500X0.450000X-0.262500X-0.450000X0.262500X-0.450000X0*%
%TD*%
%TA.AperFunction,SMDPad,CuDef*%
%ADD22RoundRect,0.250000X0.250000X0.475000X-0.250000X0.475000X-0.250000X-0.475000X0.250000X-0.475000X0*%
%TD*%
%TA.AperFunction,ComponentPad*%
%ADD23C,4.400000*%
%TD*%
%TA.AperFunction,SMDPad,CuDef*%
%ADD24RoundRect,0.243750X-0.456250X0.243750X-0.456250X-0.243750X0.456250X-0.243750X0.456250X0.243750X0*%
%TD*%
%TA.AperFunction,SMDPad,CuDef*%
%ADD25RoundRect,0.008200X0.196800X-0.976800X0.196800X0.976800X-0.196800X0.976800X-0.196800X-0.976800X0*%
%TD*%
%TA.AperFunction,SMDPad,CuDef*%
%ADD26RoundRect,0.008200X-0.196800X0.976800X-0.196800X-0.976800X0.196800X-0.976800X0.196800X0.976800X0*%
%TD*%
%TA.AperFunction,SMDPad,CuDef*%
%ADD27RoundRect,0.250000X-0.450000X0.262500X-0.450000X-0.262500X0.450000X-0.262500X0.450000X0.262500X0*%
%TD*%
%TA.AperFunction,SMDPad,CuDef*%
%ADD28C,1.000000*%
%TD*%
%TA.AperFunction,SMDPad,CuDef*%
%ADD29RoundRect,0.250000X-0.475000X0.250000X-0.475000X-0.250000X0.475000X-0.250000X0.475000X0.250000X0*%
%TD*%
%TA.AperFunction,SMDPad,CuDef*%
%ADD30RoundRect,0.243750X0.456250X-0.243750X0.456250X0.243750X-0.456250X0.243750X-0.456250X-0.243750X0*%
%TD*%
%TA.AperFunction,ComponentPad*%
%ADD31C,0.700000*%
%TD*%
%TA.AperFunction,ComponentPad*%
%ADD32O,0.900000X1.700000*%
%TD*%
%TA.AperFunction,ComponentPad*%
%ADD33O,0.900000X2.400000*%
%TD*%
%TA.AperFunction,SMDPad,CuDef*%
%ADD34RoundRect,0.250000X0.450000X-0.262500X0.450000X0.262500X-0.450000X0.262500X-0.450000X-0.262500X0*%
%TD*%
%TA.AperFunction,SMDPad,CuDef*%
%ADD35C,0.240000*%
%TD*%
%TA.AperFunction,SMDPad,CuDef*%
%ADD36RoundRect,0.250000X-0.250000X-0.475000X0.250000X-0.475000X0.250000X0.475000X-0.250000X0.475000X0*%
%TD*%
%TA.AperFunction,SMDPad,CuDef*%
%ADD37R,0.812800X0.406400*%
%TD*%
%TA.AperFunction,SMDPad,CuDef*%
%ADD38R,0.406400X0.812800*%
%TD*%
%TA.AperFunction,SMDPad,CuDef*%
%ADD39R,1.193800X1.193800*%
%TD*%
%TA.AperFunction,SMDPad,CuDef*%
%ADD40R,0.812800X0.812800*%
%TD*%
%TA.AperFunction,SMDPad,CuDef*%
%ADD41R,1.160000X0.490000*%
%TD*%
%TA.AperFunction,SMDPad,CuDef*%
%ADD42R,1.180000X0.490000*%
%TD*%
%TA.AperFunction,SMDPad,CuDef*%
%ADD43R,0.700000X0.250000*%
%TD*%
%TA.AperFunction,SMDPad,CuDef*%
%ADD44R,1.100000X1.800000*%
%TD*%
%TA.AperFunction,ViaPad*%
%ADD45C,0.800000*%
%TD*%
%TA.AperFunction,Conductor*%
%ADD46C,0.250000*%
%TD*%
%TA.AperFunction,Conductor*%
%ADD47C,0.127000*%
%TD*%
%TA.AperFunction,Conductor*%
%ADD48C,0.500000*%
%TD*%
G04 APERTURE END LIST*
D10*
X113855000Y-88138000D03*
X112205000Y-88138000D03*
X115126000Y-109982000D03*
X116776000Y-109982000D03*
D11*
X136004000Y-123444000D03*
X137554000Y-123444000D03*
D12*
X137554000Y-121412000D03*
X136004000Y-121412000D03*
D11*
X115163000Y-111887000D03*
X116713000Y-111887000D03*
D13*
X117566000Y-96924000D03*
X117566000Y-90424000D03*
X113066000Y-90424000D03*
D14*
X113066000Y-96924000D03*
X113066000Y-106628000D03*
D13*
X113066000Y-100128000D03*
X117566000Y-100128000D03*
X117566000Y-106628000D03*
D11*
X112255000Y-85598000D03*
X113805000Y-85598000D03*
D15*
X136582000Y-100775000D03*
X136582000Y-102425000D03*
D16*
X136582000Y-98869000D03*
X136582000Y-97219000D03*
D15*
X130048000Y-96203000D03*
X130048000Y-97853000D03*
D16*
X130048000Y-94678000D03*
X130048000Y-93028000D03*
D15*
X130048000Y-107822000D03*
X130048000Y-106172000D03*
D16*
X130048000Y-104711000D03*
X130048000Y-103061000D03*
D17*
X126226000Y-104902000D03*
D18*
X127786000Y-104152000D03*
X127786000Y-104652000D03*
X127786000Y-105152000D03*
X127786000Y-105652000D03*
D19*
X126976000Y-106462000D03*
X126476000Y-106462000D03*
X125976000Y-106462000D03*
X125476000Y-106462000D03*
D18*
X124666000Y-105652000D03*
X124666000Y-105152000D03*
X124666000Y-104652000D03*
X124666000Y-104152000D03*
D19*
X125476000Y-103342000D03*
X125976000Y-103342000D03*
X126476000Y-103342000D03*
X126976000Y-103342000D03*
D20*
X131572000Y-81468000D03*
X131572000Y-79568000D03*
D21*
X119022500Y-79502000D03*
X117197500Y-79502000D03*
D22*
X127176000Y-101346000D03*
X125276000Y-101346000D03*
D23*
X113600000Y-72600000D03*
D24*
X138176000Y-80596500D03*
X138176000Y-82471500D03*
D25*
X122872500Y-90100000D03*
X123507500Y-90100000D03*
X124142500Y-90100000D03*
X124777500Y-90100000D03*
X125412500Y-90100000D03*
X126047500Y-90100000D03*
X126682500Y-90100000D03*
X127317500Y-90100000D03*
X127952500Y-90100000D03*
X128587500Y-90100000D03*
D26*
X128587500Y-85160000D03*
X127952500Y-85160000D03*
X127317500Y-85160000D03*
X126682500Y-85160000D03*
X126047500Y-85160000D03*
X125412500Y-85160000D03*
X124777500Y-85160000D03*
X124142500Y-85160000D03*
X123507500Y-85160000D03*
X122872500Y-85160000D03*
D27*
X133604000Y-75795500D03*
X133604000Y-77620500D03*
D28*
X132715000Y-73025000D03*
D22*
X127188000Y-99060000D03*
X125288000Y-99060000D03*
D29*
X122809000Y-97470000D03*
X122809000Y-95570000D03*
D30*
X138176000Y-90581000D03*
X138176000Y-88706000D03*
D31*
X128705000Y-76415000D03*
X127855000Y-76415000D03*
X127005000Y-76415000D03*
X126155000Y-76415000D03*
X125305000Y-76415000D03*
X124455000Y-76415000D03*
X123605000Y-76415000D03*
X122755000Y-76415000D03*
X122755000Y-75065000D03*
X123605000Y-75065000D03*
X124455000Y-75065000D03*
X125305000Y-75065000D03*
X126155000Y-75065000D03*
X127005000Y-75065000D03*
X127855000Y-75065000D03*
X128705000Y-75065000D03*
D32*
X121405000Y-72055000D03*
X130055000Y-72055000D03*
D33*
X130055000Y-75435000D03*
X121405000Y-75435000D03*
D34*
X135890000Y-86510500D03*
X135890000Y-84685500D03*
D20*
X130302000Y-101280000D03*
X130302000Y-99380000D03*
D34*
X135890000Y-82446500D03*
X135890000Y-80621500D03*
D20*
X124841000Y-81468000D03*
X124841000Y-79568000D03*
X118745000Y-77465000D03*
X118745000Y-75565000D03*
D24*
X135890000Y-75770500D03*
X135890000Y-77645500D03*
D28*
X113030000Y-76835000D03*
D23*
X138400000Y-127400000D03*
D30*
X138176000Y-86487000D03*
X138176000Y-84612000D03*
D20*
X121412000Y-82484000D03*
X121412000Y-80584000D03*
D35*
X125584000Y-96374000D03*
X125984000Y-96374000D03*
X126384000Y-96374000D03*
X125584000Y-96774000D03*
X126384000Y-96774000D03*
X125584000Y-97174000D03*
X125984000Y-97174000D03*
X126384000Y-97174000D03*
D34*
X127225000Y-82827500D03*
X127225000Y-81002500D03*
D36*
X117293511Y-86800511D03*
X119193511Y-86800511D03*
D34*
X129286000Y-82827500D03*
X129286000Y-81002500D03*
D29*
X122858000Y-105852000D03*
X122858000Y-103952000D03*
D23*
X138400000Y-72600000D03*
X113600000Y-127400000D03*
D22*
X126934000Y-92710000D03*
X125034000Y-92710000D03*
D37*
X133237999Y-122838486D03*
X133237999Y-121988485D03*
X133237999Y-121138485D03*
X133237999Y-120288486D03*
X133237999Y-119438485D03*
X133237999Y-118588485D03*
X133237999Y-117738486D03*
X133237999Y-116888485D03*
X133237999Y-116038485D03*
X133237999Y-115188486D03*
X133237999Y-114338485D03*
X133237999Y-113488485D03*
X133237999Y-112638486D03*
X133237999Y-111788485D03*
X133237999Y-110938485D03*
D38*
X132188001Y-109888487D03*
X131338000Y-109888487D03*
X130487999Y-109888487D03*
X129638001Y-109888487D03*
X128788000Y-109888487D03*
X127937999Y-109888487D03*
X127088001Y-109888487D03*
X126238000Y-109888487D03*
X125387999Y-109888487D03*
X124538001Y-109888487D03*
X123688000Y-109888487D03*
X122837999Y-109888487D03*
X121988001Y-109888487D03*
X121138000Y-109888487D03*
X120287999Y-109888487D03*
D37*
X119238001Y-110938485D03*
X119238001Y-111788485D03*
X119238001Y-112638486D03*
X119238001Y-113488485D03*
X119238001Y-114338485D03*
X119238001Y-115188486D03*
X119238001Y-116038485D03*
X119238001Y-116888485D03*
X119238001Y-117738486D03*
X119238001Y-118588485D03*
X119238001Y-119438485D03*
X119238001Y-120288486D03*
X119238001Y-121138485D03*
X119238001Y-121988485D03*
X119238001Y-122838486D03*
D38*
X120287999Y-123888484D03*
X121138000Y-123888484D03*
X121988001Y-123888484D03*
X122837999Y-123888484D03*
X123688000Y-123888484D03*
X124538001Y-123888484D03*
X125387999Y-123888484D03*
X126238000Y-123888484D03*
X127088001Y-123888484D03*
X127937999Y-123888484D03*
X128788000Y-123888484D03*
X129638001Y-123888484D03*
X130487999Y-123888484D03*
X131338000Y-123888484D03*
X132188001Y-123888484D03*
D39*
X126238000Y-116888485D03*
D40*
X133237999Y-123888484D03*
X133237999Y-109888484D03*
X119238001Y-109888484D03*
X119238001Y-123888484D03*
D39*
X127888000Y-118538485D03*
X126238000Y-118538485D03*
X124588000Y-118538485D03*
X127888000Y-116888485D03*
X124588000Y-116888485D03*
X127888000Y-115238485D03*
X126238000Y-115238485D03*
X124588000Y-115238485D03*
D34*
X135890000Y-90574500D03*
X135890000Y-88749500D03*
D41*
X119393511Y-84448511D03*
X119393511Y-83498511D03*
X119393511Y-82548511D03*
D42*
X117093511Y-82548511D03*
X117093511Y-84448511D03*
D28*
X118745000Y-72898000D03*
D43*
X135058000Y-100572000D03*
X135058000Y-100072000D03*
X135058000Y-99572000D03*
X135058000Y-99072000D03*
X132658000Y-99072000D03*
X132658000Y-99572000D03*
X132658000Y-100072000D03*
X132658000Y-100572000D03*
D44*
X133858000Y-99822000D03*
D28*
X139065000Y-76835000D03*
D45*
X135382000Y-107188000D03*
X135382000Y-108712000D03*
X135382000Y-113284000D03*
X135382000Y-111760000D03*
X135382000Y-110236000D03*
X113792000Y-110363000D03*
X138684000Y-123444000D03*
X138684000Y-121412000D03*
X116078000Y-88138000D03*
X111760000Y-86868000D03*
X111760000Y-84582000D03*
X136652000Y-103798500D03*
X135128000Y-103798500D03*
X137160000Y-119634000D03*
X137414000Y-115316000D03*
X123190000Y-102870000D03*
X123190000Y-83312000D03*
X134366000Y-115062000D03*
X126365000Y-94742000D03*
X128524000Y-99060000D03*
X133604000Y-102870000D03*
X133096000Y-103798500D03*
X134366000Y-83058000D03*
X131445000Y-93345000D03*
X131445000Y-97536000D03*
X128651000Y-100330000D03*
X123190000Y-98806000D03*
X123063000Y-94488000D03*
X121666000Y-128016000D03*
X123190000Y-128016000D03*
X129286000Y-128016000D03*
X130810000Y-128016000D03*
X129286000Y-125984000D03*
X130810000Y-125984000D03*
X131572000Y-127000000D03*
X130048000Y-127000000D03*
X127762000Y-125984000D03*
X125476000Y-127000000D03*
X126238000Y-125984000D03*
X127000000Y-127000000D03*
X128524000Y-127000000D03*
X124714000Y-125984000D03*
X123952000Y-127000000D03*
X123190000Y-125984000D03*
X122428000Y-127000000D03*
X121666000Y-125984000D03*
X120904000Y-127000000D03*
X137922000Y-99060000D03*
X139954000Y-103886000D03*
X137922000Y-100838000D03*
X138938000Y-103886000D03*
X128778000Y-106680000D03*
X128778000Y-104394000D03*
X131318000Y-104648000D03*
X131318000Y-106172000D03*
X138938000Y-108204000D03*
X139954000Y-108204000D03*
X131318000Y-107442000D03*
X131318000Y-103378000D03*
X128524000Y-102870000D03*
X124206000Y-102616000D03*
X121200162Y-84027409D03*
X117602000Y-81026000D03*
X130302000Y-79756000D03*
X122880500Y-77724000D03*
X128270000Y-71755000D03*
X128143000Y-92964000D03*
X120529511Y-86546511D03*
X123190000Y-71755000D03*
X131572000Y-76200000D03*
X139700000Y-79502000D03*
X119888000Y-81026000D03*
X126238000Y-79756000D03*
X139954000Y-75438000D03*
X126242299Y-87117701D03*
X127762000Y-87122000D03*
X120529511Y-84768511D03*
X135382000Y-102362000D03*
X139700000Y-87630000D03*
X123825000Y-92964000D03*
X139700000Y-83566000D03*
X128524000Y-78232000D03*
X122174000Y-78486000D03*
X121666000Y-117856000D03*
X121683344Y-90975000D03*
X120650000Y-117094000D03*
X120650000Y-90932000D03*
D46*
X113066000Y-96924000D02*
X113066000Y-93690000D01*
X115062000Y-91694000D02*
X115062000Y-88392000D01*
X113066000Y-93690000D02*
X115062000Y-91694000D01*
X122880500Y-77724000D02*
X122755000Y-77598500D01*
X116713000Y-111887000D02*
X116713000Y-122047000D01*
X116713000Y-122047000D02*
X117504486Y-122838486D01*
X117504486Y-122838486D02*
X119238001Y-122838486D01*
X114046000Y-110109000D02*
X113792000Y-110363000D01*
X115126000Y-109982000D02*
X114173000Y-109982000D01*
X114173000Y-109982000D02*
X114046000Y-110109000D01*
X116776000Y-109982000D02*
X116776000Y-111824000D01*
X116776000Y-111824000D02*
X116713000Y-111887000D01*
X117566000Y-106628000D02*
X117400000Y-106628000D01*
X116776000Y-107252000D02*
X116776000Y-109982000D01*
X117400000Y-106628000D02*
X116776000Y-107252000D01*
X137554000Y-123444000D02*
X138684000Y-123444000D01*
X137554000Y-121412000D02*
X138684000Y-121412000D01*
X134874000Y-121539000D02*
X134874000Y-123190000D01*
X134473485Y-121138485D02*
X134874000Y-121539000D01*
X133237999Y-121138485D02*
X134473485Y-121138485D01*
X134473485Y-121138485D02*
X135730485Y-121138485D01*
X134874000Y-123190000D02*
X135128000Y-123444000D01*
X135128000Y-123444000D02*
X136004000Y-123444000D01*
X135730485Y-121138485D02*
X136004000Y-121412000D01*
X115570000Y-88138000D02*
X116078000Y-88138000D01*
X115062000Y-88392000D02*
X115316000Y-88138000D01*
X115316000Y-88138000D02*
X115570000Y-88138000D01*
X114808000Y-88138000D02*
X113855000Y-88138000D01*
X115062000Y-88392000D02*
X114808000Y-88138000D01*
X115062000Y-86106000D02*
X114554000Y-85598000D01*
X114554000Y-85598000D02*
X113805000Y-85598000D01*
X111760000Y-87884000D02*
X111760000Y-86868000D01*
X112014000Y-88138000D02*
X111760000Y-87884000D01*
X112205000Y-88138000D02*
X112014000Y-88138000D01*
X111760000Y-85344000D02*
X111760000Y-84582000D01*
X112014000Y-85598000D02*
X111760000Y-85344000D01*
X112255000Y-85598000D02*
X112014000Y-85598000D01*
X115062000Y-88392000D02*
X115062000Y-86106000D01*
X137414000Y-109982000D02*
X137414000Y-115316000D01*
X137414000Y-106084500D02*
X137414000Y-109982000D01*
X136652000Y-103798500D02*
X135977500Y-103124000D01*
X135977500Y-103124000D02*
X134864860Y-103124000D01*
X134366000Y-103622860D02*
X134366000Y-103632000D01*
X134864860Y-103124000D02*
X134366000Y-103622860D01*
X135128000Y-103798500D02*
X137414000Y-106084500D01*
X137160000Y-119634000D02*
X136505514Y-120288486D01*
X136505514Y-120288486D02*
X133237999Y-120288486D01*
X122858000Y-105852000D02*
X122108000Y-105852000D01*
X122108000Y-105852000D02*
X121158000Y-104902000D01*
X119888000Y-92202000D02*
X119888000Y-88900000D01*
X121158000Y-93472000D02*
X119888000Y-92202000D01*
X121158000Y-104902000D02*
X121158000Y-93472000D01*
X119888000Y-88900000D02*
X119380000Y-88392000D01*
X119380000Y-88392000D02*
X117602000Y-88392000D01*
X117602000Y-88392000D02*
X117293511Y-88083511D01*
X117293511Y-88083511D02*
X117293511Y-86800511D01*
X122858000Y-103952000D02*
X122858000Y-103202000D01*
X122858000Y-103202000D02*
X123190000Y-102870000D01*
X124666000Y-104152000D02*
X123058000Y-104152000D01*
X123058000Y-104152000D02*
X122858000Y-103952000D01*
X134366000Y-115062000D02*
X133364485Y-115062000D01*
X133364485Y-115062000D02*
X133237999Y-115188486D01*
X123444000Y-83566000D02*
X123190000Y-83312000D01*
X125034520Y-83632520D02*
X124968000Y-83632520D01*
X124968000Y-83632520D02*
X123510520Y-83632520D01*
X125412500Y-85160000D02*
X125412500Y-84010500D01*
X123510520Y-83632520D02*
X123444000Y-83566000D01*
X125412500Y-84010500D02*
X125034520Y-83632520D01*
D47*
X125984000Y-95123000D02*
X126365000Y-94742000D01*
X125984000Y-96374000D02*
X125984000Y-95123000D01*
X126384000Y-96774000D02*
X126705256Y-96774000D01*
X126705256Y-96774000D02*
X127000000Y-96479256D01*
X127000000Y-96479256D02*
X127000000Y-96327705D01*
D46*
X127188000Y-99060000D02*
X128524000Y-99060000D01*
X134366000Y-103632000D02*
X133350000Y-104648000D01*
X133350000Y-104648000D02*
X132842000Y-104648000D01*
X132842000Y-104648000D02*
X132637521Y-104852479D01*
X132637521Y-104852479D02*
X132637521Y-108028197D01*
X132637521Y-108028197D02*
X132188001Y-108477717D01*
X132188001Y-108477717D02*
X132188001Y-109888487D01*
X133096000Y-102870000D02*
X133604000Y-102870000D01*
X132658000Y-100572000D02*
X132600000Y-100572000D01*
X132600000Y-100572000D02*
X132334000Y-100838000D01*
X132334000Y-100838000D02*
X132334000Y-102108000D01*
X132334000Y-102108000D02*
X133096000Y-102870000D01*
X133096000Y-103495668D02*
X133096000Y-103798500D01*
X132402166Y-102801834D02*
X133096000Y-103495668D01*
X132193718Y-100072000D02*
X132134859Y-100130859D01*
X131951520Y-100314198D02*
X131951520Y-101346000D01*
X131951520Y-101346000D02*
X131951520Y-102351188D01*
X132134859Y-100130859D02*
X131951520Y-100314198D01*
X132658000Y-100072000D02*
X132193718Y-100072000D01*
X131951520Y-102351188D02*
X132402166Y-102801834D01*
X131338000Y-108986000D02*
X131338000Y-109888487D01*
X131318000Y-108966000D02*
X131338000Y-108986000D01*
X132188001Y-107841999D02*
X131318000Y-108712000D01*
X132188001Y-103223387D02*
X132188001Y-107841999D01*
X132058000Y-99572000D02*
X131502000Y-100128000D01*
X131502000Y-102537386D02*
X132188001Y-103223387D01*
X131318000Y-108712000D02*
X131318000Y-108966000D01*
X131502000Y-100128000D02*
X131502000Y-102537386D01*
X132658000Y-99572000D02*
X132058000Y-99572000D01*
X135890000Y-82446500D02*
X134977500Y-82446500D01*
X134977500Y-82446500D02*
X134366000Y-83058000D01*
X135058000Y-99072000D02*
X136466500Y-99072000D01*
X136466500Y-99072000D02*
X136582000Y-98956500D01*
D48*
X137922000Y-99060000D02*
X136685500Y-99060000D01*
X136685500Y-99060000D02*
X136582000Y-98956500D01*
X138938000Y-103886000D02*
X138938000Y-96774000D01*
X138938000Y-96774000D02*
X137668000Y-95504000D01*
X137668000Y-95504000D02*
X130747000Y-95504000D01*
X130747000Y-95504000D02*
X130048000Y-96203000D01*
X130048000Y-94678000D02*
X138366000Y-94678000D01*
X138366000Y-94678000D02*
X139954000Y-96266000D01*
X139954000Y-96266000D02*
X139954000Y-103886000D01*
D46*
X131128000Y-93028000D02*
X131445000Y-93345000D01*
X130048000Y-93028000D02*
X131128000Y-93028000D01*
X131128000Y-97853000D02*
X131445000Y-97536000D01*
X130048000Y-97853000D02*
X131128000Y-97853000D01*
X127000000Y-96327705D02*
X127000000Y-96139000D01*
X127000000Y-96139000D02*
X127385520Y-95753480D01*
X130048000Y-94742000D02*
X130048000Y-94678000D01*
X127385520Y-95753480D02*
X129036520Y-95753480D01*
X129036520Y-95753480D02*
X130048000Y-94742000D01*
X127000000Y-97028000D02*
X127825000Y-96203000D01*
X127825000Y-96203000D02*
X130048000Y-96203000D01*
D47*
X126854000Y-97174000D02*
X127000000Y-97028000D01*
X126384000Y-97174000D02*
X126854000Y-97174000D01*
D46*
X128651000Y-100838000D02*
X128651000Y-100330000D01*
X128905000Y-101092000D02*
X128651000Y-100838000D01*
X130302000Y-101280000D02*
X129093000Y-101280000D01*
X129093000Y-101280000D02*
X128905000Y-101092000D01*
X122809000Y-98425000D02*
X123190000Y-98806000D01*
X122809000Y-97470000D02*
X122809000Y-98425000D01*
X122809000Y-94742000D02*
X123063000Y-94488000D01*
X122809000Y-95570000D02*
X122809000Y-94742000D01*
X125222000Y-96901000D02*
X124460000Y-97663000D01*
X124460000Y-97663000D02*
X123002000Y-97663000D01*
X123002000Y-97663000D02*
X122809000Y-97470000D01*
X125222000Y-96266000D02*
X124526000Y-95570000D01*
X124526000Y-95570000D02*
X122809000Y-95570000D01*
D47*
X125330000Y-96374000D02*
X125222000Y-96266000D01*
X125584000Y-96374000D02*
X125330000Y-96374000D01*
X125349000Y-96774000D02*
X125222000Y-96901000D01*
X125584000Y-96774000D02*
X125349000Y-96774000D01*
D46*
X125476000Y-97663000D02*
X125288000Y-97851000D01*
X125288000Y-97851000D02*
X125288000Y-99060000D01*
D47*
X125584000Y-97555000D02*
X125476000Y-97663000D01*
X125584000Y-97174000D02*
X125584000Y-97555000D01*
D48*
X139954000Y-108204000D02*
X139954000Y-103886000D01*
X137922000Y-100838000D02*
X136732500Y-100838000D01*
X136732500Y-100838000D02*
X136582000Y-100687500D01*
X138938000Y-108204000D02*
X138938000Y-103886000D01*
D46*
X127786000Y-104152000D02*
X128536000Y-104152000D01*
X128536000Y-104152000D02*
X128778000Y-104394000D01*
X128778000Y-106680000D02*
X128788000Y-106690000D01*
X128788000Y-106690000D02*
X128788000Y-109888487D01*
X127786000Y-105652000D02*
X129528000Y-105652000D01*
X129528000Y-105652000D02*
X130048000Y-106172000D01*
X127786000Y-105152000D02*
X129607000Y-105152000D01*
X129607000Y-105152000D02*
X130048000Y-104711000D01*
D48*
X131318000Y-104648000D02*
X130111000Y-104648000D01*
X130111000Y-104648000D02*
X130048000Y-104711000D01*
X131318000Y-106172000D02*
X130048000Y-106172000D01*
X138938000Y-116586000D02*
X138938000Y-108204000D01*
X133237999Y-116888485D02*
X138635515Y-116888485D01*
X138635515Y-116888485D02*
X138938000Y-116586000D01*
X133237999Y-117738486D02*
X139055514Y-117738486D01*
X139055514Y-117738486D02*
X139954000Y-116840000D01*
X139954000Y-116840000D02*
X139954000Y-108204000D01*
D46*
X130938000Y-107822000D02*
X131318000Y-107442000D01*
X130048000Y-107822000D02*
X130938000Y-107822000D01*
X131001000Y-103061000D02*
X131318000Y-103378000D01*
X130048000Y-103061000D02*
X131001000Y-103061000D01*
X126476000Y-106462000D02*
X126476000Y-107394141D01*
X126476000Y-107394141D02*
X125387999Y-108482142D01*
X125387999Y-108482142D02*
X125387999Y-109888487D01*
X126976000Y-106462000D02*
X126976000Y-107720000D01*
X126976000Y-107720000D02*
X126238000Y-108458000D01*
X126238000Y-108458000D02*
X126238000Y-109888487D01*
X125976000Y-106462000D02*
X125976000Y-106942000D01*
X125976000Y-106942000D02*
X124538001Y-108379999D01*
X124538001Y-108379999D02*
X124538001Y-109888487D01*
X128270000Y-102616000D02*
X128524000Y-102870000D01*
X126976000Y-103342000D02*
X126976000Y-102894000D01*
X127254000Y-102616000D02*
X128270000Y-102616000D01*
X126976000Y-102894000D02*
X127254000Y-102616000D01*
X125222000Y-102616000D02*
X124206000Y-102616000D01*
X125476000Y-103342000D02*
X125476000Y-102870000D01*
X125476000Y-102870000D02*
X125222000Y-102616000D01*
X125976000Y-103342000D02*
X125976000Y-102046000D01*
X125976000Y-102046000D02*
X125276000Y-101346000D01*
X126476000Y-103342000D02*
X126476000Y-102046000D01*
X126476000Y-102046000D02*
X127176000Y-101346000D01*
X124666000Y-105652000D02*
X123058000Y-105652000D01*
X123058000Y-105652000D02*
X122858000Y-105852000D01*
X125476000Y-106462000D02*
X125464000Y-106450000D01*
X125464000Y-106450000D02*
X125464000Y-105918000D01*
X125464000Y-105918000D02*
X125198000Y-105652000D01*
X125198000Y-105652000D02*
X124666000Y-105652000D01*
D48*
X130055000Y-72055000D02*
X131745000Y-72055000D01*
D46*
X126934000Y-92710000D02*
X127889000Y-92710000D01*
X120909000Y-77465000D02*
X121405000Y-76969000D01*
X126050000Y-79568000D02*
X126238000Y-79756000D01*
X119393511Y-83498511D02*
X120671264Y-83498511D01*
X138176000Y-80596500D02*
X139367500Y-80596500D01*
X130055000Y-75435000D02*
X130810000Y-74680000D01*
X139446000Y-80518000D02*
X139700000Y-80264000D01*
X120142000Y-80772000D02*
X119888000Y-81026000D01*
X126047500Y-91823500D02*
X126934000Y-92710000D01*
X130055000Y-75953000D02*
X130556000Y-76454000D01*
X130490000Y-79568000D02*
X130302000Y-79756000D01*
X121405000Y-72055000D02*
X122890000Y-72055000D01*
X118745000Y-77465000D02*
X120909000Y-77465000D01*
X131572000Y-79568000D02*
X130490000Y-79568000D01*
X126047500Y-90100000D02*
X126047500Y-91823500D01*
D48*
X131745000Y-72055000D02*
X132715000Y-73025000D01*
D46*
X117197500Y-80621500D02*
X117602000Y-81026000D01*
X127889000Y-92710000D02*
X128143000Y-92964000D01*
X135382000Y-74676000D02*
X135890000Y-75184000D01*
X117197500Y-79502000D02*
X117197500Y-80621500D01*
X130055000Y-75435000D02*
X130055000Y-74429000D01*
X131318000Y-76454000D02*
X131572000Y-76200000D01*
X130055000Y-75435000D02*
X130055000Y-75953000D01*
X130810000Y-74680000D02*
X130810000Y-74676000D01*
X122755000Y-76415000D02*
X122755000Y-77598500D01*
X120671264Y-83498511D02*
X121200162Y-84027409D01*
X130556000Y-76454000D02*
X131318000Y-76454000D01*
X135890000Y-75184000D02*
X135890000Y-75770500D01*
X139700000Y-80264000D02*
X139700000Y-79502000D01*
X139367500Y-80596500D02*
X139446000Y-80518000D01*
X128570000Y-72055000D02*
X128270000Y-71755000D01*
X130810000Y-74676000D02*
X135382000Y-74676000D01*
X121412000Y-80584000D02*
X120330000Y-80584000D01*
X121405000Y-76969000D02*
X121405000Y-75435000D01*
X124841000Y-79568000D02*
X126050000Y-79568000D01*
X119193511Y-86800511D02*
X120275511Y-86800511D01*
X120330000Y-80584000D02*
X120142000Y-80772000D01*
X130055000Y-72055000D02*
X128570000Y-72055000D01*
X122890000Y-72055000D02*
X123190000Y-71755000D01*
X120275511Y-86800511D02*
X120529511Y-86546511D01*
D48*
X118745000Y-75565000D02*
X120399520Y-73910480D01*
X127855000Y-73626000D02*
X127855000Y-75065000D01*
X129436500Y-77620500D02*
X129030511Y-77214511D01*
X118745000Y-72009000D02*
X120142000Y-70612000D01*
X126047500Y-83629500D02*
X125476000Y-83058000D01*
X124206000Y-83058000D02*
X123190000Y-82042000D01*
X123190000Y-82042000D02*
X123190000Y-78439114D01*
X129030511Y-77214511D02*
X128319005Y-77214511D01*
X133604000Y-77620500D02*
X129436500Y-77620500D01*
X124841000Y-70612000D02*
X127855000Y-73626000D01*
X125476000Y-83058000D02*
X124206000Y-83058000D01*
X120399520Y-73910480D02*
X122760969Y-73910480D01*
X123190000Y-78439114D02*
X123605000Y-78024114D01*
X118745000Y-72898000D02*
X118745000Y-72009000D01*
X123605000Y-74754511D02*
X123605000Y-75065000D01*
X127855000Y-76750506D02*
X127855000Y-76415000D01*
X122760969Y-73910480D02*
X123605000Y-74754511D01*
X123605000Y-78024114D02*
X123605000Y-76415000D01*
X126047500Y-85160000D02*
X126047500Y-83629500D01*
X120142000Y-70612000D02*
X124841000Y-70612000D01*
X128319005Y-77214511D02*
X127855000Y-76750506D01*
D46*
X124142500Y-90100000D02*
X124142500Y-91818500D01*
X139700000Y-88392000D02*
X139700000Y-87630000D01*
D48*
X140462000Y-76454000D02*
X140462000Y-75692000D01*
D46*
X138176000Y-88706000D02*
X139386000Y-88706000D01*
X119393511Y-82548511D02*
X121347489Y-82548511D01*
X125034000Y-92710000D02*
X124079000Y-92710000D01*
X124079000Y-92710000D02*
X123825000Y-92964000D01*
D48*
X118619489Y-82548511D02*
X118364000Y-82804000D01*
X139065000Y-76835000D02*
X140081000Y-76835000D01*
D46*
X119393511Y-84448511D02*
X120209511Y-84448511D01*
D48*
X140208000Y-75438000D02*
X139954000Y-75438000D01*
D46*
X138176000Y-84612000D02*
X138206000Y-84582000D01*
D48*
X140081000Y-76835000D02*
X140462000Y-76454000D01*
X140462000Y-75692000D02*
X140208000Y-75438000D01*
D46*
X135532500Y-102512500D02*
X135382000Y-102362000D01*
X127317500Y-86677500D02*
X127762000Y-87122000D01*
X127317500Y-85160000D02*
X127317500Y-86677500D01*
X136582000Y-102512500D02*
X135532500Y-102512500D01*
X131814000Y-99072000D02*
X131318000Y-99568000D01*
X132658000Y-99072000D02*
X131814000Y-99072000D01*
X121347489Y-82548511D02*
X121412000Y-82484000D01*
X126682500Y-86677500D02*
X126242299Y-87117701D01*
X131318000Y-99568000D02*
X130490000Y-99568000D01*
X126682500Y-85160000D02*
X126682500Y-86677500D01*
X139386000Y-88706000D02*
X139700000Y-88392000D01*
X139700000Y-84328000D02*
X139700000Y-83820000D01*
D48*
X118364000Y-82804000D02*
X118364000Y-84193022D01*
D46*
X139700000Y-83820000D02*
X139700000Y-83566000D01*
X138206000Y-84582000D02*
X139446000Y-84582000D01*
X139446000Y-84582000D02*
X139700000Y-84328000D01*
X120209511Y-84448511D02*
X120529511Y-84768511D01*
X124142500Y-91818500D02*
X125034000Y-92710000D01*
D48*
X119393511Y-82548511D02*
X118619489Y-82548511D01*
X118619489Y-84448511D02*
X119393511Y-84448511D01*
X118364000Y-84193022D02*
X118619489Y-84448511D01*
X127225000Y-81002500D02*
X127225000Y-79506506D01*
D46*
X124841000Y-81661000D02*
X124968000Y-81788000D01*
X126746000Y-81788000D02*
X127225000Y-81309000D01*
D48*
X125305000Y-77586506D02*
X125305000Y-76415000D01*
X127225000Y-79506506D02*
X125305000Y-77586506D01*
D46*
X124968000Y-81788000D02*
X126746000Y-81788000D01*
X127225000Y-81309000D02*
X127225000Y-81002500D01*
X124841000Y-81468000D02*
X124841000Y-81661000D01*
D48*
X129286000Y-80264000D02*
X126155000Y-77133000D01*
D46*
X129286000Y-81534000D02*
X129540000Y-81788000D01*
X129286000Y-81002500D02*
X129286000Y-81534000D01*
D48*
X126155000Y-77133000D02*
X126155000Y-76415000D01*
D46*
X131252000Y-81788000D02*
X131572000Y-81468000D01*
D48*
X129286000Y-81002500D02*
X129286000Y-80264000D01*
D46*
X129540000Y-81788000D02*
X131252000Y-81788000D01*
D48*
X116452511Y-84448511D02*
X115824000Y-83820000D01*
X115189000Y-76835000D02*
X113030000Y-76835000D01*
X117093511Y-86600511D02*
X117293511Y-86800511D01*
X117093511Y-84448511D02*
X117093511Y-86600511D01*
X115824000Y-77470000D02*
X115189000Y-76835000D01*
X117093511Y-84448511D02*
X116452511Y-84448511D01*
X115824000Y-83820000D02*
X115824000Y-77470000D01*
D46*
X136247500Y-80621500D02*
X138097500Y-82471500D01*
X138097500Y-82471500D02*
X138176000Y-82471500D01*
X135890000Y-80621500D02*
X136247500Y-80621500D01*
X134366000Y-87376000D02*
X133858000Y-87884000D01*
X134770500Y-84685500D02*
X134366000Y-85090000D01*
X134366000Y-85090000D02*
X134366000Y-87376000D01*
X125476000Y-87884000D02*
X124777500Y-87185500D01*
X135890000Y-84685500D02*
X134770500Y-84685500D01*
X124777500Y-87185500D02*
X124777500Y-85160000D01*
X133858000Y-87884000D02*
X125476000Y-87884000D01*
X135811500Y-77645500D02*
X135890000Y-77645500D01*
X133604000Y-75795500D02*
X133961500Y-75795500D01*
X133961500Y-75795500D02*
X135811500Y-77645500D01*
X135786500Y-88646000D02*
X135890000Y-88749500D01*
X128587500Y-90100000D02*
X128587500Y-89090500D01*
X128587500Y-89090500D02*
X129032000Y-88646000D01*
X129032000Y-88646000D02*
X135786500Y-88646000D01*
X138152500Y-86510500D02*
X138176000Y-86487000D01*
X135890000Y-86510500D02*
X138152500Y-86510500D01*
X135890000Y-90574500D02*
X138169500Y-90574500D01*
X138169500Y-90574500D02*
X138176000Y-90581000D01*
X124635515Y-75740489D02*
X126540489Y-75740489D01*
X119888000Y-78486000D02*
X122174000Y-78486000D01*
X126540489Y-75740489D02*
X127005000Y-76205000D01*
X127005000Y-76415000D02*
X127005000Y-76713000D01*
X127005000Y-76713000D02*
X128524000Y-78232000D01*
X124455000Y-75065000D02*
X124455000Y-75559974D01*
X119022500Y-79351500D02*
X119888000Y-78486000D01*
X124455000Y-75559974D02*
X124635515Y-75740489D01*
X127005000Y-76205000D02*
X127005000Y-76415000D01*
X119022500Y-79502000D02*
X119022500Y-79351500D01*
D48*
X128587500Y-84264500D02*
X129286000Y-83566000D01*
X129286000Y-83566000D02*
X129286000Y-82827500D01*
X128587500Y-85160000D02*
X128587500Y-84264500D01*
X127225000Y-83423363D02*
X127225000Y-82827500D01*
X127952500Y-85160000D02*
X127952500Y-84150863D01*
X127952500Y-84150863D02*
X127225000Y-83423363D01*
X122682000Y-88392000D02*
X121683344Y-89390656D01*
X120933515Y-118588485D02*
X119238001Y-118588485D01*
X124460000Y-88392000D02*
X122682000Y-88392000D01*
X121666000Y-117856000D02*
X120933515Y-118588485D01*
X124777500Y-88709500D02*
X124460000Y-88392000D01*
X121683344Y-89390656D02*
X121683344Y-90975000D01*
X124777500Y-90100000D02*
X124777500Y-88709500D01*
X120650000Y-117094000D02*
X120005514Y-117738486D01*
X122872500Y-85160000D02*
X122872500Y-87185500D01*
X120650000Y-89408000D02*
X120650000Y-90932000D01*
X122872500Y-87185500D02*
X120650000Y-89408000D01*
X120005514Y-117738486D02*
X119238001Y-117738486D01*
D46*
X135058000Y-100572000D02*
X136466500Y-100572000D01*
X136466500Y-100572000D02*
X136582000Y-100687500D01*
%TA.AperFunction,Conductor*%
G36*
X120466621Y-94000002D02*
G01*
X120513114Y-94053658D01*
X120524500Y-94106000D01*
X120524500Y-104823233D01*
X120523973Y-104834416D01*
X120522298Y-104841909D01*
X120522547Y-104849835D01*
X120522547Y-104849836D01*
X120524438Y-104909986D01*
X120524500Y-104913945D01*
X120524500Y-104941856D01*
X120524997Y-104945790D01*
X120524997Y-104945791D01*
X120525005Y-104945856D01*
X120525938Y-104957693D01*
X120527327Y-105001889D01*
X120532978Y-105021339D01*
X120536987Y-105040700D01*
X120539526Y-105060797D01*
X120542445Y-105068168D01*
X120542445Y-105068170D01*
X120555804Y-105101912D01*
X120559649Y-105113142D01*
X120569771Y-105147983D01*
X120571982Y-105155593D01*
X120576015Y-105162412D01*
X120576017Y-105162417D01*
X120582293Y-105173028D01*
X120590988Y-105190776D01*
X120598448Y-105209617D01*
X120603110Y-105216033D01*
X120603110Y-105216034D01*
X120624436Y-105245387D01*
X120630952Y-105255307D01*
X120646443Y-105281500D01*
X120653458Y-105293362D01*
X120667779Y-105307683D01*
X120680619Y-105322716D01*
X120692528Y-105339107D01*
X120698633Y-105344158D01*
X120698638Y-105344163D01*
X120726604Y-105367299D01*
X120735382Y-105375287D01*
X121604348Y-106244253D01*
X121611886Y-106252536D01*
X121616000Y-106259018D01*
X121621781Y-106264447D01*
X121626832Y-106270552D01*
X121626030Y-106271216D01*
X121654845Y-106316225D01*
X121691450Y-106425946D01*
X121784522Y-106576348D01*
X121909697Y-106701305D01*
X121915927Y-106705145D01*
X121915928Y-106705146D01*
X122053090Y-106789694D01*
X122060262Y-106794115D01*
X122140005Y-106820564D01*
X122221611Y-106847632D01*
X122221613Y-106847632D01*
X122228139Y-106849797D01*
X122234975Y-106850497D01*
X122234978Y-106850498D01*
X122278031Y-106854909D01*
X122332600Y-106860500D01*
X123383400Y-106860500D01*
X123386646Y-106860163D01*
X123386650Y-106860163D01*
X123482308Y-106850238D01*
X123482312Y-106850237D01*
X123489166Y-106849526D01*
X123495702Y-106847345D01*
X123495704Y-106847345D01*
X123635164Y-106800817D01*
X123656946Y-106793550D01*
X123807348Y-106700478D01*
X123932305Y-106575303D01*
X123980797Y-106496635D01*
X124021275Y-106430968D01*
X124021276Y-106430966D01*
X124025115Y-106424738D01*
X124042663Y-106371832D01*
X124083094Y-106313473D01*
X124148658Y-106286236D01*
X124162256Y-106285500D01*
X124180848Y-106285500D01*
X124210202Y-106290818D01*
X124210600Y-106289144D01*
X124218285Y-106290971D01*
X124225684Y-106293745D01*
X124287866Y-106300500D01*
X124701500Y-106300500D01*
X124769621Y-106320502D01*
X124816114Y-106374158D01*
X124827500Y-106426500D01*
X124827500Y-106840134D01*
X124834255Y-106902316D01*
X124837029Y-106909715D01*
X124883631Y-107034026D01*
X124888814Y-107104834D01*
X124854744Y-107167351D01*
X124145748Y-107876347D01*
X124137462Y-107883887D01*
X124130983Y-107887999D01*
X124125558Y-107893776D01*
X124084358Y-107937650D01*
X124081603Y-107940492D01*
X124061866Y-107960229D01*
X124059386Y-107963426D01*
X124051683Y-107972446D01*
X124021415Y-108004678D01*
X124017596Y-108011624D01*
X124017594Y-108011627D01*
X124011653Y-108022433D01*
X124000802Y-108038952D01*
X123988387Y-108054958D01*
X123985242Y-108062227D01*
X123985239Y-108062231D01*
X123970827Y-108095536D01*
X123965610Y-108106186D01*
X123944306Y-108144939D01*
X123942335Y-108152614D01*
X123942335Y-108152615D01*
X123939268Y-108164561D01*
X123932864Y-108183265D01*
X123924820Y-108201854D01*
X123923581Y-108209677D01*
X123923578Y-108209687D01*
X123917902Y-108245523D01*
X123915496Y-108257143D01*
X123906473Y-108292288D01*
X123904501Y-108299969D01*
X123904501Y-108320223D01*
X123902950Y-108339933D01*
X123899781Y-108359942D01*
X123900527Y-108367834D01*
X123903942Y-108403960D01*
X123904501Y-108415818D01*
X123904501Y-108847587D01*
X123884499Y-108915708D01*
X123830843Y-108962201D01*
X123778501Y-108973587D01*
X123436666Y-108973587D01*
X123374484Y-108980342D01*
X123307229Y-109005555D01*
X123236423Y-109010738D01*
X123218770Y-109005555D01*
X123151515Y-108980342D01*
X123089333Y-108973587D01*
X122586665Y-108973587D01*
X122583268Y-108973956D01*
X122532333Y-108979489D01*
X122532331Y-108979489D01*
X122524483Y-108980342D01*
X122517090Y-108983114D01*
X122517088Y-108983114D01*
X122457229Y-109005554D01*
X122386422Y-109010737D01*
X122368771Y-109005554D01*
X122308912Y-108983114D01*
X122308910Y-108983114D01*
X122301517Y-108980342D01*
X122293669Y-108979489D01*
X122293667Y-108979489D01*
X122242732Y-108973956D01*
X122239335Y-108973587D01*
X121736667Y-108973587D01*
X121674485Y-108980342D01*
X121607230Y-109005555D01*
X121536424Y-109010738D01*
X121518771Y-109005555D01*
X121451516Y-108980342D01*
X121389334Y-108973587D01*
X120886666Y-108973587D01*
X120824484Y-108980342D01*
X120756516Y-109005822D01*
X120685710Y-109011005D01*
X120668057Y-109005822D01*
X120608804Y-108983609D01*
X120593550Y-108979982D01*
X120542685Y-108974456D01*
X120535871Y-108974087D01*
X120509314Y-108974087D01*
X120494075Y-108978562D01*
X120492870Y-108979952D01*
X120491199Y-108987635D01*
X120491199Y-109193830D01*
X120483181Y-109238059D01*
X120435829Y-109364369D01*
X120435827Y-109364375D01*
X120433055Y-109371771D01*
X120426300Y-109433953D01*
X120426300Y-110343021D01*
X120433055Y-110405203D01*
X120435827Y-110412599D01*
X120435829Y-110412605D01*
X120483181Y-110538915D01*
X120491199Y-110583144D01*
X120491199Y-110784771D01*
X120495674Y-110800010D01*
X120497064Y-110801215D01*
X120504747Y-110802886D01*
X120535868Y-110802886D01*
X120542689Y-110802516D01*
X120593551Y-110796992D01*
X120608802Y-110793366D01*
X120668057Y-110771152D01*
X120738864Y-110765969D01*
X120756513Y-110771151D01*
X120824484Y-110796632D01*
X120886666Y-110803387D01*
X121389334Y-110803387D01*
X121451516Y-110796632D01*
X121518771Y-110771419D01*
X121589578Y-110766236D01*
X121607227Y-110771418D01*
X121674485Y-110796632D01*
X121736667Y-110803387D01*
X122239335Y-110803387D01*
X122243947Y-110802886D01*
X122293667Y-110797485D01*
X122293669Y-110797485D01*
X122301517Y-110796632D01*
X122308910Y-110793860D01*
X122308912Y-110793860D01*
X122368771Y-110771420D01*
X122439578Y-110766237D01*
X122457229Y-110771420D01*
X122517088Y-110793860D01*
X122517090Y-110793860D01*
X122524483Y-110796632D01*
X122532331Y-110797485D01*
X122532333Y-110797485D01*
X122582053Y-110802886D01*
X122586665Y-110803387D01*
X123089333Y-110803387D01*
X123151515Y-110796632D01*
X123218770Y-110771419D01*
X123289577Y-110766236D01*
X123307226Y-110771418D01*
X123374484Y-110796632D01*
X123436666Y-110803387D01*
X123939334Y-110803387D01*
X124001516Y-110796632D01*
X124068771Y-110771419D01*
X124139578Y-110766236D01*
X124157227Y-110771418D01*
X124224485Y-110796632D01*
X124286667Y-110803387D01*
X124789335Y-110803387D01*
X124793947Y-110802886D01*
X124843667Y-110797485D01*
X124843669Y-110797485D01*
X124851517Y-110796632D01*
X124858910Y-110793860D01*
X124858912Y-110793860D01*
X124918771Y-110771420D01*
X124989578Y-110766237D01*
X125007229Y-110771420D01*
X125067088Y-110793860D01*
X125067090Y-110793860D01*
X125074483Y-110796632D01*
X125082331Y-110797485D01*
X125082333Y-110797485D01*
X125132053Y-110802886D01*
X125136665Y-110803387D01*
X125639333Y-110803387D01*
X125701515Y-110796632D01*
X125768770Y-110771419D01*
X125839577Y-110766236D01*
X125857226Y-110771418D01*
X125924484Y-110796632D01*
X125986666Y-110803387D01*
X126489334Y-110803387D01*
X126551516Y-110796632D01*
X126618771Y-110771419D01*
X126689578Y-110766236D01*
X126707227Y-110771418D01*
X126774485Y-110796632D01*
X126836667Y-110803387D01*
X127339335Y-110803387D01*
X127343947Y-110802886D01*
X127393667Y-110797485D01*
X127393669Y-110797485D01*
X127401517Y-110796632D01*
X127408910Y-110793860D01*
X127408912Y-110793860D01*
X127469483Y-110771153D01*
X127540290Y-110765970D01*
X127557941Y-110771153D01*
X127617197Y-110793367D01*
X127632442Y-110796992D01*
X127683313Y-110802518D01*
X127690127Y-110802887D01*
X127716684Y-110802887D01*
X127731923Y-110798412D01*
X127733128Y-110797022D01*
X127734799Y-110789339D01*
X127734799Y-110583152D01*
X127742817Y-110538923D01*
X127790172Y-110412605D01*
X127790174Y-110412599D01*
X127792946Y-110405203D01*
X127799701Y-110343021D01*
X127799701Y-109433953D01*
X127792946Y-109371771D01*
X127790174Y-109364375D01*
X127790172Y-109364369D01*
X127742817Y-109238051D01*
X127734799Y-109193822D01*
X127734799Y-108992203D01*
X127730324Y-108976964D01*
X127728934Y-108975759D01*
X127721251Y-108974088D01*
X127690130Y-108974088D01*
X127683309Y-108974458D01*
X127632449Y-108979982D01*
X127617192Y-108983609D01*
X127557941Y-109005821D01*
X127487134Y-109011004D01*
X127469483Y-109005821D01*
X127408912Y-108983114D01*
X127408910Y-108983114D01*
X127401517Y-108980342D01*
X127393669Y-108979489D01*
X127393667Y-108979489D01*
X127342732Y-108973956D01*
X127339335Y-108973587D01*
X126997500Y-108973587D01*
X126929379Y-108953585D01*
X126882886Y-108899929D01*
X126871500Y-108847587D01*
X126871500Y-108772594D01*
X126891502Y-108704473D01*
X126908405Y-108683499D01*
X127368247Y-108223657D01*
X127376537Y-108216113D01*
X127383018Y-108212000D01*
X127429659Y-108162332D01*
X127432413Y-108159491D01*
X127452135Y-108139769D01*
X127454612Y-108136576D01*
X127462317Y-108127555D01*
X127487159Y-108101100D01*
X127492586Y-108095321D01*
X127496407Y-108088371D01*
X127502346Y-108077568D01*
X127513202Y-108061041D01*
X127520757Y-108051302D01*
X127520758Y-108051300D01*
X127525614Y-108045040D01*
X127543174Y-108004460D01*
X127548391Y-107993812D01*
X127565875Y-107962009D01*
X127565876Y-107962007D01*
X127569695Y-107955060D01*
X127573436Y-107940492D01*
X127574733Y-107935438D01*
X127581137Y-107916734D01*
X127586033Y-107905420D01*
X127586033Y-107905419D01*
X127589181Y-107898145D01*
X127590420Y-107890322D01*
X127590423Y-107890312D01*
X127596099Y-107854476D01*
X127598505Y-107842856D01*
X127607528Y-107807711D01*
X127607528Y-107807710D01*
X127609500Y-107800030D01*
X127609500Y-107779776D01*
X127611051Y-107760065D01*
X127612980Y-107747886D01*
X127614220Y-107740057D01*
X127610059Y-107696038D01*
X127609500Y-107684181D01*
X127609500Y-106947152D01*
X127614818Y-106917798D01*
X127613144Y-106917400D01*
X127614971Y-106909715D01*
X127617745Y-106902316D01*
X127624500Y-106840134D01*
X127624500Y-106800817D01*
X127644502Y-106732696D01*
X127698158Y-106686203D01*
X127736405Y-106680704D01*
X127719630Y-106681343D01*
X127658486Y-106645261D01*
X127626556Y-106581850D01*
X127624500Y-106559183D01*
X127624500Y-106426500D01*
X127644502Y-106358379D01*
X127698158Y-106311886D01*
X127750500Y-106300500D01*
X127772630Y-106300500D01*
X127840751Y-106320502D01*
X127887244Y-106374158D01*
X127897348Y-106444432D01*
X127892464Y-106465431D01*
X127884458Y-106490072D01*
X127883768Y-106496633D01*
X127883768Y-106496635D01*
X127875810Y-106572353D01*
X127848797Y-106638010D01*
X127790575Y-106678640D01*
X127775272Y-106679223D01*
X127833012Y-106705593D01*
X127871396Y-106765319D01*
X127875810Y-106787647D01*
X127883433Y-106860172D01*
X127884458Y-106869928D01*
X127943473Y-107051556D01*
X127946776Y-107057278D01*
X127946777Y-107057279D01*
X127989435Y-107131164D01*
X128038960Y-107216944D01*
X128043378Y-107221851D01*
X128043379Y-107221852D01*
X128122136Y-107309320D01*
X128152853Y-107373328D01*
X128154500Y-107393631D01*
X128154500Y-108919535D01*
X128146210Y-108947768D01*
X128149706Y-108948528D01*
X128141199Y-108987635D01*
X128141199Y-109193830D01*
X128133181Y-109238059D01*
X128085829Y-109364369D01*
X128085827Y-109364375D01*
X128083055Y-109371771D01*
X128076300Y-109433953D01*
X128076300Y-110343021D01*
X128083055Y-110405203D01*
X128085827Y-110412599D01*
X128085829Y-110412605D01*
X128133181Y-110538915D01*
X128141199Y-110583144D01*
X128141199Y-110784771D01*
X128145674Y-110800010D01*
X128147064Y-110801215D01*
X128154747Y-110802886D01*
X128185868Y-110802886D01*
X128192689Y-110802516D01*
X128243551Y-110796992D01*
X128258802Y-110793366D01*
X128318057Y-110771152D01*
X128388864Y-110765969D01*
X128406513Y-110771151D01*
X128474484Y-110796632D01*
X128536666Y-110803387D01*
X129039334Y-110803387D01*
X129101516Y-110796632D01*
X129168771Y-110771419D01*
X129239578Y-110766236D01*
X129257227Y-110771418D01*
X129324485Y-110796632D01*
X129386667Y-110803387D01*
X129889335Y-110803387D01*
X129893947Y-110802886D01*
X129943667Y-110797485D01*
X129943669Y-110797485D01*
X129951517Y-110796632D01*
X129958910Y-110793860D01*
X129958912Y-110793860D01*
X130018771Y-110771420D01*
X130089578Y-110766237D01*
X130107229Y-110771420D01*
X130167088Y-110793860D01*
X130167090Y-110793860D01*
X130174483Y-110796632D01*
X130182331Y-110797485D01*
X130182333Y-110797485D01*
X130232053Y-110802886D01*
X130236665Y-110803387D01*
X130739333Y-110803387D01*
X130801515Y-110796632D01*
X130868770Y-110771419D01*
X130939577Y-110766236D01*
X130957226Y-110771418D01*
X131024484Y-110796632D01*
X131086666Y-110803387D01*
X131589334Y-110803387D01*
X131651516Y-110796632D01*
X131718771Y-110771419D01*
X131789578Y-110766236D01*
X131807227Y-110771418D01*
X131874485Y-110796632D01*
X131936667Y-110803387D01*
X132197099Y-110803387D01*
X132265220Y-110823389D01*
X132311713Y-110877045D01*
X132323099Y-110929387D01*
X132323099Y-111189819D01*
X132329854Y-111252001D01*
X132355067Y-111319255D01*
X132360250Y-111390062D01*
X132355068Y-111407711D01*
X132329854Y-111474969D01*
X132323099Y-111537151D01*
X132323099Y-112039819D01*
X132329854Y-112102001D01*
X132355067Y-112169255D01*
X132360250Y-112240062D01*
X132355068Y-112257713D01*
X132329854Y-112324970D01*
X132323099Y-112387152D01*
X132323099Y-112889820D01*
X132329854Y-112952002D01*
X132332626Y-112959397D01*
X132332627Y-112959400D01*
X132355066Y-113019258D01*
X132360249Y-113090065D01*
X132355066Y-113107715D01*
X132329854Y-113174969D01*
X132323099Y-113237151D01*
X132323099Y-113739819D01*
X132329854Y-113802001D01*
X132355067Y-113869255D01*
X132360250Y-113940062D01*
X132355068Y-113957711D01*
X132329854Y-114024969D01*
X132323099Y-114087151D01*
X132323099Y-114589819D01*
X132329854Y-114652001D01*
X132344266Y-114690444D01*
X132355067Y-114719255D01*
X132360250Y-114790062D01*
X132355068Y-114807713D01*
X132329854Y-114874970D01*
X132323099Y-114937152D01*
X132323099Y-115439820D01*
X132329854Y-115502002D01*
X132332626Y-115509397D01*
X132332627Y-115509400D01*
X132355333Y-115569970D01*
X132360516Y-115640777D01*
X132355333Y-115658427D01*
X132333119Y-115717683D01*
X132329494Y-115732928D01*
X132323968Y-115783799D01*
X132323599Y-115790613D01*
X132323599Y-115817170D01*
X132328074Y-115832409D01*
X132329464Y-115833614D01*
X132337147Y-115835285D01*
X132543337Y-115835285D01*
X132587567Y-115843303D01*
X132721283Y-115893431D01*
X132783465Y-115900186D01*
X133022194Y-115900186D01*
X133090315Y-115920188D01*
X133136808Y-115973844D01*
X133146912Y-116044118D01*
X133117418Y-116108698D01*
X133061354Y-116142647D01*
X133062318Y-116145303D01*
X132996418Y-116169224D01*
X132953426Y-116176785D01*
X132783465Y-116176785D01*
X132721283Y-116183540D01*
X132713887Y-116186312D01*
X132713881Y-116186314D01*
X132587568Y-116233667D01*
X132543339Y-116241685D01*
X132341715Y-116241685D01*
X132326476Y-116246160D01*
X132325271Y-116247550D01*
X132323600Y-116255233D01*
X132323600Y-116286354D01*
X132323970Y-116293175D01*
X132329494Y-116344037D01*
X132333120Y-116359288D01*
X132355334Y-116418543D01*
X132360517Y-116489350D01*
X132355338Y-116506991D01*
X132329854Y-116574969D01*
X132323099Y-116637151D01*
X132323099Y-117139819D01*
X132329854Y-117202001D01*
X132332628Y-117209400D01*
X132355067Y-117269256D01*
X132360250Y-117340063D01*
X132355068Y-117357712D01*
X132329854Y-117424970D01*
X132323099Y-117487152D01*
X132323099Y-117989820D01*
X132329854Y-118052002D01*
X132332626Y-118059397D01*
X132332627Y-118059400D01*
X132355333Y-118119970D01*
X132360516Y-118190777D01*
X132355333Y-118208427D01*
X132333119Y-118267683D01*
X132329494Y-118282928D01*
X132323968Y-118333799D01*
X132323599Y-118340613D01*
X132323599Y-118367170D01*
X132328074Y-118382409D01*
X132329464Y-118383614D01*
X132337147Y-118385285D01*
X132543337Y-118385285D01*
X132587567Y-118393303D01*
X132721283Y-118443431D01*
X132783465Y-118450186D01*
X132940627Y-118450186D01*
X132971446Y-118455729D01*
X132971807Y-118454255D01*
X133070465Y-118478396D01*
X133131879Y-118514016D01*
X133164287Y-118577184D01*
X133157398Y-118647846D01*
X133113401Y-118703566D01*
X133040517Y-118726785D01*
X132783465Y-118726785D01*
X132721283Y-118733540D01*
X132713887Y-118736312D01*
X132713881Y-118736314D01*
X132587568Y-118783667D01*
X132543339Y-118791685D01*
X132341715Y-118791685D01*
X132326476Y-118796160D01*
X132325271Y-118797550D01*
X132323600Y-118805233D01*
X132323600Y-118836354D01*
X132323970Y-118843175D01*
X132329494Y-118894037D01*
X132333120Y-118909288D01*
X132355334Y-118968543D01*
X132360517Y-119039350D01*
X132355338Y-119056991D01*
X132329854Y-119124969D01*
X132323099Y-119187151D01*
X132323099Y-119689819D01*
X132329854Y-119752001D01*
X132332628Y-119759400D01*
X132355067Y-119819256D01*
X132360250Y-119890063D01*
X132355068Y-119907712D01*
X132329854Y-119974970D01*
X132323099Y-120037152D01*
X132323099Y-120539820D01*
X132329854Y-120602002D01*
X132332626Y-120609397D01*
X132332627Y-120609400D01*
X132355066Y-120669258D01*
X132360249Y-120740065D01*
X132355066Y-120757715D01*
X132329854Y-120824969D01*
X132329001Y-120832817D01*
X132329001Y-120832819D01*
X132326495Y-120855893D01*
X132323099Y-120887151D01*
X132323099Y-121389819D01*
X132329854Y-121452001D01*
X132355334Y-121519969D01*
X132360517Y-121590774D01*
X132355334Y-121608427D01*
X132333121Y-121667680D01*
X132329494Y-121682934D01*
X132323968Y-121733799D01*
X132323599Y-121740613D01*
X132323599Y-121767170D01*
X132328074Y-121782409D01*
X132329464Y-121783614D01*
X132337147Y-121785285D01*
X132543339Y-121785285D01*
X132587568Y-121793303D01*
X132713881Y-121840656D01*
X132713887Y-121840658D01*
X132721283Y-121843430D01*
X132783465Y-121850185D01*
X133315199Y-121850185D01*
X133383320Y-121870187D01*
X133429813Y-121923843D01*
X133441199Y-121976185D01*
X133441199Y-122915969D01*
X133445674Y-122931209D01*
X133448512Y-122933668D01*
X133486895Y-122993395D01*
X133491999Y-123028892D01*
X133491999Y-123616369D01*
X133496474Y-123631608D01*
X133497864Y-123632813D01*
X133505547Y-123634484D01*
X134134283Y-123634484D01*
X134149522Y-123630009D01*
X134155344Y-123623290D01*
X134183621Y-123571505D01*
X134245933Y-123537480D01*
X134316749Y-123542544D01*
X134369394Y-123581254D01*
X134369458Y-123581362D01*
X134383779Y-123595683D01*
X134396619Y-123610716D01*
X134408528Y-123627107D01*
X134442605Y-123655298D01*
X134451384Y-123663288D01*
X134624343Y-123836247D01*
X134631887Y-123844537D01*
X134636000Y-123851018D01*
X134641777Y-123856443D01*
X134685667Y-123897658D01*
X134688509Y-123900413D01*
X134708230Y-123920134D01*
X134711425Y-123922612D01*
X134720447Y-123930318D01*
X134752679Y-123960586D01*
X134759628Y-123964406D01*
X134770432Y-123970346D01*
X134786956Y-123981199D01*
X134802959Y-123993613D01*
X134843543Y-124011176D01*
X134854173Y-124016383D01*
X134892940Y-124037695D01*
X134900617Y-124039666D01*
X134900622Y-124039668D01*
X134912558Y-124042732D01*
X134931266Y-124049137D01*
X134949855Y-124057181D01*
X134957683Y-124058421D01*
X134957690Y-124058423D01*
X134993524Y-124064099D01*
X135005144Y-124066505D01*
X135040289Y-124075528D01*
X135047970Y-124077500D01*
X135068224Y-124077500D01*
X135087933Y-124079051D01*
X135104875Y-124081734D01*
X135169027Y-124112147D01*
X135192305Y-124139877D01*
X135200248Y-124152713D01*
X135321298Y-124273552D01*
X135327528Y-124277392D01*
X135327529Y-124277393D01*
X135459020Y-124358445D01*
X135466899Y-124363302D01*
X135629243Y-124417149D01*
X135636080Y-124417849D01*
X135636082Y-124417850D01*
X135677401Y-124422083D01*
X135730268Y-124427500D01*
X136277732Y-124427500D01*
X136280978Y-124427163D01*
X136280982Y-124427163D01*
X136315083Y-124423625D01*
X136380019Y-124416887D01*
X136533726Y-124365606D01*
X136535324Y-124365073D01*
X136535326Y-124365072D01*
X136542268Y-124362756D01*
X136687713Y-124272752D01*
X136692886Y-124267570D01*
X136698623Y-124263023D01*
X136700055Y-124264830D01*
X136752575Y-124236098D01*
X136823395Y-124241108D01*
X136859853Y-124264499D01*
X136860683Y-124263448D01*
X136877840Y-124276998D01*
X137010880Y-124359004D01*
X137024061Y-124365151D01*
X137172814Y-124414491D01*
X137186190Y-124417358D01*
X137277097Y-124426672D01*
X137282126Y-124426929D01*
X137297124Y-124422525D01*
X137298329Y-124421135D01*
X137300000Y-124413452D01*
X137300000Y-124408885D01*
X137808000Y-124408885D01*
X137812475Y-124424124D01*
X137813865Y-124425329D01*
X137821548Y-124427000D01*
X137824438Y-124427000D01*
X137830953Y-124426663D01*
X137923057Y-124417106D01*
X137936456Y-124414212D01*
X138085107Y-124364619D01*
X138098286Y-124358445D01*
X138231173Y-124276212D01*
X138242574Y-124267176D01*
X138352986Y-124156571D01*
X138361998Y-124145160D01*
X138444004Y-124012120D01*
X138450151Y-123998939D01*
X138499491Y-123850186D01*
X138502358Y-123836810D01*
X138511672Y-123745903D01*
X138512000Y-123739487D01*
X138512000Y-123716115D01*
X138507525Y-123700876D01*
X138506135Y-123699671D01*
X138498452Y-123698000D01*
X137826115Y-123698000D01*
X137810876Y-123702475D01*
X137809671Y-123703865D01*
X137808000Y-123711548D01*
X137808000Y-124408885D01*
X137300000Y-124408885D01*
X137300000Y-123171885D01*
X137808000Y-123171885D01*
X137812475Y-123187124D01*
X137813865Y-123188329D01*
X137821548Y-123190000D01*
X138493885Y-123190000D01*
X138509124Y-123185525D01*
X138510329Y-123184135D01*
X138512000Y-123176452D01*
X138512000Y-123148562D01*
X138511663Y-123142047D01*
X138502106Y-123049943D01*
X138499212Y-123036544D01*
X138449619Y-122887893D01*
X138443445Y-122874714D01*
X138361212Y-122741827D01*
X138352176Y-122730426D01*
X138241571Y-122620014D01*
X138230157Y-122611000D01*
X138107395Y-122535329D01*
X138059901Y-122482557D01*
X138048477Y-122412486D01*
X138076751Y-122347362D01*
X138107207Y-122320925D01*
X138231173Y-122244212D01*
X138242574Y-122235176D01*
X138352986Y-122124571D01*
X138361998Y-122113160D01*
X138444004Y-121980120D01*
X138450151Y-121966939D01*
X138499491Y-121818186D01*
X138502358Y-121804810D01*
X138511672Y-121713903D01*
X138512000Y-121707487D01*
X138512000Y-121684115D01*
X138507525Y-121668876D01*
X138506135Y-121667671D01*
X138498452Y-121666000D01*
X137826115Y-121666000D01*
X137810876Y-121670475D01*
X137809671Y-121671865D01*
X137808000Y-121679548D01*
X137808000Y-122376885D01*
X137811143Y-122387589D01*
X137813368Y-122449869D01*
X137808000Y-122474547D01*
X137808000Y-123171885D01*
X137300000Y-123171885D01*
X137300000Y-122479115D01*
X137296857Y-122468411D01*
X137294632Y-122406131D01*
X137300000Y-122381453D01*
X137300000Y-121284000D01*
X137320002Y-121215879D01*
X137373658Y-121169386D01*
X137426000Y-121158000D01*
X138493885Y-121158000D01*
X138509124Y-121153525D01*
X138510329Y-121152135D01*
X138512000Y-121144452D01*
X138512000Y-121116562D01*
X138511663Y-121110047D01*
X138502106Y-121017943D01*
X138499212Y-121004544D01*
X138449619Y-120855893D01*
X138443445Y-120842714D01*
X138361212Y-120709827D01*
X138352176Y-120698426D01*
X138241571Y-120588014D01*
X138230160Y-120579002D01*
X138097120Y-120496996D01*
X138083939Y-120490849D01*
X137935186Y-120441509D01*
X137915085Y-120437200D01*
X137915660Y-120434519D01*
X137861348Y-120412334D01*
X137820572Y-120354215D01*
X137817689Y-120283277D01*
X137846291Y-120229528D01*
X137894621Y-120175852D01*
X137894622Y-120175851D01*
X137899040Y-120170944D01*
X137958953Y-120067171D01*
X137991223Y-120011279D01*
X137991224Y-120011278D01*
X137994527Y-120005556D01*
X138053542Y-119823928D01*
X138061928Y-119744145D01*
X138072814Y-119640565D01*
X138073504Y-119634000D01*
X138053542Y-119444072D01*
X137994527Y-119262444D01*
X137980263Y-119237737D01*
X137949054Y-119183682D01*
X137899040Y-119097056D01*
X137847723Y-119040062D01*
X137775675Y-118960045D01*
X137775674Y-118960044D01*
X137771253Y-118955134D01*
X137616752Y-118842882D01*
X137610724Y-118840198D01*
X137610722Y-118840197D01*
X137448319Y-118767891D01*
X137448318Y-118767891D01*
X137442288Y-118765206D01*
X137353028Y-118746233D01*
X137290554Y-118712504D01*
X137256233Y-118650355D01*
X137260961Y-118579516D01*
X137303237Y-118522478D01*
X137369638Y-118497351D01*
X137379225Y-118496986D01*
X138988444Y-118496986D01*
X139007394Y-118498419D01*
X139021629Y-118500585D01*
X139021633Y-118500585D01*
X139028863Y-118501685D01*
X139036155Y-118501092D01*
X139036158Y-118501092D01*
X139081532Y-118497401D01*
X139091747Y-118496986D01*
X139099807Y-118496986D01*
X139113097Y-118495437D01*
X139128021Y-118493697D01*
X139132396Y-118493264D01*
X139197853Y-118487940D01*
X139197856Y-118487939D01*
X139205151Y-118487346D01*
X139212115Y-118485090D01*
X139218074Y-118483899D01*
X139223929Y-118482515D01*
X139231195Y-118481668D01*
X139299841Y-118456751D01*
X139303969Y-118455334D01*
X139366450Y-118435093D01*
X139366452Y-118435092D01*
X139373413Y-118432837D01*
X139379668Y-118429041D01*
X139385142Y-118426535D01*
X139390572Y-118423816D01*
X139397451Y-118421319D01*
X139440730Y-118392944D01*
X139458490Y-118381300D01*
X139462194Y-118378963D01*
X139524621Y-118341081D01*
X139532998Y-118333683D01*
X139533022Y-118333710D01*
X139536014Y-118331057D01*
X139539247Y-118328354D01*
X139545366Y-118324342D01*
X139598642Y-118268103D01*
X139601020Y-118265661D01*
X140286956Y-117579725D01*
X140349268Y-117545699D01*
X140420083Y-117550764D01*
X140476919Y-117593311D01*
X140501730Y-117659831D01*
X140502051Y-117668820D01*
X140502051Y-125367254D01*
X140482049Y-125435375D01*
X140428393Y-125481868D01*
X140358119Y-125491972D01*
X140293539Y-125462478D01*
X140286741Y-125456134D01*
X140205070Y-125374034D01*
X139948603Y-125171852D01*
X139669705Y-125001945D01*
X139666261Y-125000379D01*
X139666257Y-125000377D01*
X139555667Y-124950095D01*
X139372414Y-124866775D01*
X139061037Y-124768300D01*
X138843492Y-124727390D01*
X138743809Y-124708645D01*
X138743807Y-124708645D01*
X138740086Y-124707945D01*
X138414208Y-124686586D01*
X138410428Y-124686794D01*
X138410427Y-124686794D01*
X138312897Y-124692162D01*
X138088124Y-124704532D01*
X138084397Y-124705193D01*
X138084393Y-124705193D01*
X137927340Y-124733027D01*
X137766557Y-124761522D01*
X137762941Y-124762624D01*
X137762933Y-124762626D01*
X137457789Y-124855627D01*
X137454167Y-124856731D01*
X137155477Y-124988781D01*
X137130041Y-125003914D01*
X136878074Y-125153817D01*
X136878068Y-125153821D01*
X136874814Y-125155757D01*
X136616244Y-125355243D01*
X136383513Y-125584347D01*
X136381149Y-125587314D01*
X136381146Y-125587317D01*
X136298494Y-125691039D01*
X136179991Y-125839751D01*
X136008626Y-126117757D01*
X135871902Y-126414336D01*
X135870741Y-126417940D01*
X135870741Y-126417941D01*
X135862196Y-126444477D01*
X135771797Y-126725192D01*
X135771079Y-126728903D01*
X135771078Y-126728907D01*
X135710482Y-127042105D01*
X135710481Y-127042114D01*
X135709763Y-127045824D01*
X135686698Y-127371585D01*
X135702936Y-127697759D01*
X135703577Y-127701490D01*
X135703578Y-127701498D01*
X135718109Y-127786060D01*
X135758241Y-128019619D01*
X135851814Y-128332504D01*
X135982297Y-128631881D01*
X135984220Y-128635152D01*
X135984222Y-128635156D01*
X136026584Y-128707215D01*
X136147802Y-128913414D01*
X136150103Y-128916429D01*
X136343631Y-129170012D01*
X136343636Y-129170017D01*
X136345931Y-129173025D01*
X136454672Y-129284650D01*
X136456894Y-129286931D01*
X136490100Y-129349683D01*
X136484109Y-129420427D01*
X136440823Y-129476701D01*
X136373983Y-129500639D01*
X136366593Y-129500853D01*
X115643462Y-129493198D01*
X115575349Y-129473171D01*
X115528876Y-129419498D01*
X115518798Y-129349220D01*
X115548315Y-129284650D01*
X115556061Y-129276485D01*
X115594632Y-129239303D01*
X115594635Y-129239300D01*
X115597363Y-129236670D01*
X115704610Y-129104938D01*
X115801155Y-128986351D01*
X115801158Y-128986347D01*
X115803549Y-128983410D01*
X115977815Y-128707215D01*
X116117638Y-128412084D01*
X116144188Y-128332504D01*
X116219790Y-128105897D01*
X116219792Y-128105891D01*
X116220992Y-128102293D01*
X116286381Y-127782329D01*
X116292956Y-127701498D01*
X116312674Y-127459061D01*
X116312856Y-127456826D01*
X116313451Y-127400000D01*
X116311510Y-127367796D01*
X116294026Y-127077793D01*
X116294026Y-127077789D01*
X116293798Y-127074015D01*
X116288650Y-127045824D01*
X116235805Y-126756473D01*
X116235804Y-126756469D01*
X116235125Y-126752751D01*
X116227722Y-126728907D01*
X116139404Y-126444477D01*
X116138282Y-126440863D01*
X116004670Y-126142869D01*
X115836226Y-125863084D01*
X115833899Y-125860100D01*
X115833894Y-125860093D01*
X115637726Y-125608558D01*
X115637724Y-125608556D01*
X115635390Y-125605563D01*
X115405070Y-125374034D01*
X115148603Y-125171852D01*
X114869705Y-125001945D01*
X114866261Y-125000379D01*
X114866257Y-125000377D01*
X114755667Y-124950095D01*
X114572414Y-124866775D01*
X114261037Y-124768300D01*
X114043492Y-124727390D01*
X113943809Y-124708645D01*
X113943807Y-124708645D01*
X113940086Y-124707945D01*
X113614208Y-124686586D01*
X113610428Y-124686794D01*
X113610427Y-124686794D01*
X113512897Y-124692162D01*
X113288124Y-124704532D01*
X113284397Y-124705193D01*
X113284393Y-124705193D01*
X113127340Y-124733027D01*
X112966557Y-124761522D01*
X112962941Y-124762624D01*
X112962933Y-124762626D01*
X112657789Y-124855627D01*
X112654167Y-124856731D01*
X112355477Y-124988781D01*
X112330041Y-125003914D01*
X112078074Y-125153817D01*
X112078068Y-125153821D01*
X112074814Y-125155757D01*
X111816244Y-125355243D01*
X111734844Y-125435375D01*
X111721824Y-125448192D01*
X111659247Y-125481727D01*
X111588473Y-125476106D01*
X111531973Y-125433115D01*
X111507685Y-125366402D01*
X111507431Y-125358422D01*
X111507252Y-124339553D01*
X118323602Y-124339553D01*
X118323972Y-124346374D01*
X118329496Y-124397236D01*
X118333122Y-124412488D01*
X118378277Y-124532938D01*
X118386815Y-124548533D01*
X118463316Y-124650608D01*
X118475877Y-124663169D01*
X118577952Y-124739670D01*
X118593547Y-124748208D01*
X118713995Y-124793362D01*
X118729250Y-124796989D01*
X118780115Y-124802515D01*
X118786929Y-124802884D01*
X118965886Y-124802884D01*
X118981125Y-124798409D01*
X118982330Y-124797019D01*
X118984001Y-124789336D01*
X118984001Y-124784768D01*
X119492001Y-124784768D01*
X119496476Y-124800007D01*
X119497866Y-124801212D01*
X119505549Y-124802883D01*
X119689070Y-124802883D01*
X119695891Y-124802513D01*
X119746751Y-124796989D01*
X119762008Y-124793362D01*
X119820371Y-124771483D01*
X119891178Y-124766300D01*
X119908829Y-124771483D01*
X119967197Y-124793364D01*
X119982442Y-124796989D01*
X120033313Y-124802515D01*
X120040127Y-124802884D01*
X120066684Y-124802884D01*
X120081923Y-124798409D01*
X120083128Y-124797019D01*
X120084799Y-124789336D01*
X120084799Y-124784768D01*
X120491199Y-124784768D01*
X120495674Y-124800007D01*
X120497064Y-124801212D01*
X120504747Y-124802883D01*
X120535868Y-124802883D01*
X120542689Y-124802513D01*
X120593551Y-124796989D01*
X120608802Y-124793363D01*
X120668770Y-124770882D01*
X120739577Y-124765699D01*
X120757231Y-124770882D01*
X120817198Y-124793363D01*
X120832449Y-124796989D01*
X120883314Y-124802515D01*
X120890128Y-124802884D01*
X120916685Y-124802884D01*
X120931924Y-124798409D01*
X120933129Y-124797019D01*
X120934800Y-124789336D01*
X120934800Y-124784768D01*
X121341200Y-124784768D01*
X121345675Y-124800007D01*
X121347065Y-124801212D01*
X121354748Y-124802883D01*
X121385869Y-124802883D01*
X121392690Y-124802513D01*
X121443552Y-124796989D01*
X121458803Y-124793363D01*
X121518771Y-124770882D01*
X121589578Y-124765699D01*
X121607232Y-124770882D01*
X121667199Y-124793363D01*
X121682450Y-124796989D01*
X121733315Y-124802515D01*
X121740129Y-124802884D01*
X121766686Y-124802884D01*
X121781925Y-124798409D01*
X121783130Y-124797019D01*
X121784801Y-124789336D01*
X121784801Y-124784768D01*
X122191201Y-124784768D01*
X122195676Y-124800007D01*
X122197066Y-124801212D01*
X122204749Y-124802883D01*
X122235870Y-124802883D01*
X122242691Y-124802513D01*
X122293553Y-124796989D01*
X122308805Y-124793363D01*
X122368770Y-124770883D01*
X122439577Y-124765700D01*
X122457230Y-124770883D01*
X122517193Y-124793362D01*
X122532448Y-124796989D01*
X122583313Y-124802515D01*
X122590127Y-124802884D01*
X122616684Y-124802884D01*
X122631923Y-124798409D01*
X122633128Y-124797019D01*
X122634799Y-124789336D01*
X122634799Y-124784768D01*
X123041199Y-124784768D01*
X123045674Y-124800007D01*
X123047064Y-124801212D01*
X123054747Y-124802883D01*
X123085868Y-124802883D01*
X123092689Y-124802513D01*
X123143551Y-124796989D01*
X123158802Y-124793363D01*
X123218770Y-124770882D01*
X123289577Y-124765699D01*
X123307231Y-124770882D01*
X123367198Y-124793363D01*
X123382449Y-124796989D01*
X123433314Y-124802515D01*
X123440128Y-124802884D01*
X123466685Y-124802884D01*
X123481924Y-124798409D01*
X123483129Y-124797019D01*
X123484800Y-124789336D01*
X123484800Y-124784768D01*
X123891200Y-124784768D01*
X123895675Y-124800007D01*
X123897065Y-124801212D01*
X123904748Y-124802883D01*
X123935869Y-124802883D01*
X123942690Y-124802513D01*
X123993552Y-124796989D01*
X124008803Y-124793363D01*
X124068771Y-124770882D01*
X124139578Y-124765699D01*
X124157232Y-124770882D01*
X124217199Y-124793363D01*
X124232450Y-124796989D01*
X124283315Y-124802515D01*
X124290129Y-124802884D01*
X124316686Y-124802884D01*
X124331925Y-124798409D01*
X124333130Y-124797019D01*
X124334801Y-124789336D01*
X124334801Y-124784768D01*
X124741201Y-124784768D01*
X124745676Y-124800007D01*
X124747066Y-124801212D01*
X124754749Y-124802883D01*
X124785870Y-124802883D01*
X124792691Y-124802513D01*
X124843553Y-124796989D01*
X124858805Y-124793363D01*
X124918770Y-124770883D01*
X124989577Y-124765700D01*
X125007230Y-124770883D01*
X125067193Y-124793362D01*
X125082448Y-124796989D01*
X125133313Y-124802515D01*
X125140127Y-124802884D01*
X125166684Y-124802884D01*
X125181923Y-124798409D01*
X125183128Y-124797019D01*
X125184799Y-124789336D01*
X125184799Y-124784768D01*
X125591199Y-124784768D01*
X125595674Y-124800007D01*
X125597064Y-124801212D01*
X125604747Y-124802883D01*
X125635868Y-124802883D01*
X125642689Y-124802513D01*
X125693551Y-124796989D01*
X125708802Y-124793363D01*
X125768770Y-124770882D01*
X125839577Y-124765699D01*
X125857231Y-124770882D01*
X125917198Y-124793363D01*
X125932449Y-124796989D01*
X125983314Y-124802515D01*
X125990128Y-124802884D01*
X126016685Y-124802884D01*
X126031924Y-124798409D01*
X126033129Y-124797019D01*
X126034800Y-124789336D01*
X126034800Y-124784768D01*
X126441200Y-124784768D01*
X126445675Y-124800007D01*
X126447065Y-124801212D01*
X126454748Y-124802883D01*
X126485869Y-124802883D01*
X126492690Y-124802513D01*
X126543552Y-124796989D01*
X126558803Y-124793363D01*
X126618771Y-124770882D01*
X126689578Y-124765699D01*
X126707232Y-124770882D01*
X126767199Y-124793363D01*
X126782450Y-124796989D01*
X126833315Y-124802515D01*
X126840129Y-124802884D01*
X126866686Y-124802884D01*
X126881925Y-124798409D01*
X126883130Y-124797019D01*
X126884801Y-124789336D01*
X126884801Y-124784768D01*
X127291201Y-124784768D01*
X127295676Y-124800007D01*
X127297066Y-124801212D01*
X127304749Y-124802883D01*
X127335870Y-124802883D01*
X127342691Y-124802513D01*
X127393553Y-124796989D01*
X127408805Y-124793363D01*
X127468770Y-124770883D01*
X127539577Y-124765700D01*
X127557230Y-124770883D01*
X127617193Y-124793362D01*
X127632448Y-124796989D01*
X127683313Y-124802515D01*
X127690127Y-124802884D01*
X127716684Y-124802884D01*
X127731923Y-124798409D01*
X127733128Y-124797019D01*
X127734799Y-124789336D01*
X127734799Y-124784768D01*
X128141199Y-124784768D01*
X128145674Y-124800007D01*
X128147064Y-124801212D01*
X128154747Y-124802883D01*
X128185868Y-124802883D01*
X128192689Y-124802513D01*
X128243551Y-124796989D01*
X128258802Y-124793363D01*
X128318770Y-124770882D01*
X128389577Y-124765699D01*
X128407231Y-124770882D01*
X128467198Y-124793363D01*
X128482449Y-124796989D01*
X128533314Y-124802515D01*
X128540128Y-124802884D01*
X128566685Y-124802884D01*
X128581924Y-124798409D01*
X128583129Y-124797019D01*
X128584800Y-124789336D01*
X128584800Y-124784768D01*
X128991200Y-124784768D01*
X128995675Y-124800007D01*
X128997065Y-124801212D01*
X129004748Y-124802883D01*
X129035869Y-124802883D01*
X129042690Y-124802513D01*
X129093552Y-124796989D01*
X129108803Y-124793363D01*
X129168771Y-124770882D01*
X129239578Y-124765699D01*
X129257232Y-124770882D01*
X129317199Y-124793363D01*
X129332450Y-124796989D01*
X129383315Y-124802515D01*
X129390129Y-124802884D01*
X129416686Y-124802884D01*
X129431925Y-124798409D01*
X129433130Y-124797019D01*
X129434801Y-124789336D01*
X129434801Y-124784768D01*
X129841201Y-124784768D01*
X129845676Y-124800007D01*
X129847066Y-124801212D01*
X129854749Y-124802883D01*
X129885870Y-124802883D01*
X129892691Y-124802513D01*
X129943553Y-124796989D01*
X129958805Y-124793363D01*
X130018770Y-124770883D01*
X130089577Y-124765700D01*
X130107230Y-124770883D01*
X130167193Y-124793362D01*
X130182448Y-124796989D01*
X130233313Y-124802515D01*
X130240127Y-124802884D01*
X130266684Y-124802884D01*
X130281923Y-124798409D01*
X130283128Y-124797019D01*
X130284799Y-124789336D01*
X130284799Y-124784768D01*
X130691199Y-124784768D01*
X130695674Y-124800007D01*
X130697064Y-124801212D01*
X130704747Y-124802883D01*
X130735868Y-124802883D01*
X130742689Y-124802513D01*
X130793551Y-124796989D01*
X130808802Y-124793363D01*
X130868770Y-124770882D01*
X130939577Y-124765699D01*
X130957231Y-124770882D01*
X131017198Y-124793363D01*
X131032449Y-124796989D01*
X131083314Y-124802515D01*
X131090128Y-124802884D01*
X131116685Y-124802884D01*
X131131924Y-124798409D01*
X131133129Y-124797019D01*
X131134800Y-124789336D01*
X131134800Y-124784768D01*
X131541200Y-124784768D01*
X131545675Y-124800007D01*
X131547065Y-124801212D01*
X131554748Y-124802883D01*
X131585869Y-124802883D01*
X131592690Y-124802513D01*
X131643552Y-124796989D01*
X131658803Y-124793363D01*
X131718771Y-124770882D01*
X131789578Y-124765699D01*
X131807232Y-124770882D01*
X131867199Y-124793363D01*
X131882450Y-124796989D01*
X131933315Y-124802515D01*
X131940129Y-124802884D01*
X131966686Y-124802884D01*
X131981925Y-124798409D01*
X131983130Y-124797019D01*
X131984801Y-124789336D01*
X131984801Y-124784768D01*
X132391201Y-124784768D01*
X132395676Y-124800007D01*
X132397066Y-124801212D01*
X132404749Y-124802883D01*
X132435870Y-124802883D01*
X132442691Y-124802513D01*
X132493551Y-124796989D01*
X132508808Y-124793362D01*
X132567171Y-124771483D01*
X132637978Y-124766300D01*
X132655629Y-124771483D01*
X132713997Y-124793364D01*
X132729242Y-124796989D01*
X132780113Y-124802515D01*
X132786927Y-124802884D01*
X132965884Y-124802884D01*
X132981123Y-124798409D01*
X132982328Y-124797019D01*
X132983999Y-124789336D01*
X132983999Y-124784768D01*
X133491999Y-124784768D01*
X133496474Y-124800007D01*
X133497864Y-124801212D01*
X133505547Y-124802883D01*
X133689068Y-124802883D01*
X133695889Y-124802513D01*
X133746751Y-124796989D01*
X133762003Y-124793363D01*
X133882453Y-124748208D01*
X133898048Y-124739670D01*
X134000123Y-124663169D01*
X134012684Y-124650608D01*
X134089185Y-124548533D01*
X134097723Y-124532938D01*
X134142877Y-124412490D01*
X134146504Y-124397235D01*
X134152030Y-124346370D01*
X134152399Y-124339556D01*
X134152399Y-124160599D01*
X134147924Y-124145360D01*
X134146534Y-124144155D01*
X134138851Y-124142484D01*
X133510114Y-124142484D01*
X133494875Y-124146959D01*
X133493670Y-124148349D01*
X133491999Y-124156032D01*
X133491999Y-124784768D01*
X132983999Y-124784768D01*
X132983999Y-124160599D01*
X132979524Y-124145360D01*
X132978134Y-124144155D01*
X132970451Y-124142484D01*
X132409316Y-124142484D01*
X132394077Y-124146959D01*
X132392872Y-124148349D01*
X132391201Y-124156032D01*
X132391201Y-124784768D01*
X131984801Y-124784768D01*
X131984801Y-124109799D01*
X131980326Y-124094560D01*
X131978936Y-124093355D01*
X131971253Y-124091684D01*
X131559315Y-124091684D01*
X131544076Y-124096159D01*
X131542871Y-124097549D01*
X131541200Y-124105232D01*
X131541200Y-124784768D01*
X131134800Y-124784768D01*
X131134800Y-124109799D01*
X131130325Y-124094560D01*
X131128935Y-124093355D01*
X131121252Y-124091684D01*
X130709314Y-124091684D01*
X130694075Y-124096159D01*
X130692870Y-124097549D01*
X130691199Y-124105232D01*
X130691199Y-124784768D01*
X130284799Y-124784768D01*
X130284799Y-124109799D01*
X130280324Y-124094560D01*
X130278934Y-124093355D01*
X130271251Y-124091684D01*
X129859316Y-124091684D01*
X129844077Y-124096159D01*
X129842872Y-124097549D01*
X129841201Y-124105232D01*
X129841201Y-124784768D01*
X129434801Y-124784768D01*
X129434801Y-124109799D01*
X129430326Y-124094560D01*
X129428936Y-124093355D01*
X129421253Y-124091684D01*
X129009315Y-124091684D01*
X128994076Y-124096159D01*
X128992871Y-124097549D01*
X128991200Y-124105232D01*
X128991200Y-124784768D01*
X128584800Y-124784768D01*
X128584800Y-124109799D01*
X128580325Y-124094560D01*
X128578935Y-124093355D01*
X128571252Y-124091684D01*
X128159314Y-124091684D01*
X128144075Y-124096159D01*
X128142870Y-124097549D01*
X128141199Y-124105232D01*
X128141199Y-124784768D01*
X127734799Y-124784768D01*
X127734799Y-124109799D01*
X127730324Y-124094560D01*
X127728934Y-124093355D01*
X127721251Y-124091684D01*
X127309316Y-124091684D01*
X127294077Y-124096159D01*
X127292872Y-124097549D01*
X127291201Y-124105232D01*
X127291201Y-124784768D01*
X126884801Y-124784768D01*
X126884801Y-124109799D01*
X126880326Y-124094560D01*
X126878936Y-124093355D01*
X126871253Y-124091684D01*
X126459315Y-124091684D01*
X126444076Y-124096159D01*
X126442871Y-124097549D01*
X126441200Y-124105232D01*
X126441200Y-124784768D01*
X126034800Y-124784768D01*
X126034800Y-124109799D01*
X126030325Y-124094560D01*
X126028935Y-124093355D01*
X126021252Y-124091684D01*
X125609314Y-124091684D01*
X125594075Y-124096159D01*
X125592870Y-124097549D01*
X125591199Y-124105232D01*
X125591199Y-124784768D01*
X125184799Y-124784768D01*
X125184799Y-124109799D01*
X125180324Y-124094560D01*
X125178934Y-124093355D01*
X125171251Y-124091684D01*
X124759316Y-124091684D01*
X124744077Y-124096159D01*
X124742872Y-124097549D01*
X124741201Y-124105232D01*
X124741201Y-124784768D01*
X124334801Y-124784768D01*
X124334801Y-124109799D01*
X124330326Y-124094560D01*
X124328936Y-124093355D01*
X124321253Y-124091684D01*
X123909315Y-124091684D01*
X123894076Y-124096159D01*
X123892871Y-124097549D01*
X123891200Y-124105232D01*
X123891200Y-124784768D01*
X123484800Y-124784768D01*
X123484800Y-124109799D01*
X123480325Y-124094560D01*
X123478935Y-124093355D01*
X123471252Y-124091684D01*
X123059314Y-124091684D01*
X123044075Y-124096159D01*
X123042870Y-124097549D01*
X123041199Y-124105232D01*
X123041199Y-124784768D01*
X122634799Y-124784768D01*
X122634799Y-124109799D01*
X122630324Y-124094560D01*
X122628934Y-124093355D01*
X122621251Y-124091684D01*
X122209316Y-124091684D01*
X122194077Y-124096159D01*
X122192872Y-124097549D01*
X122191201Y-124105232D01*
X122191201Y-124784768D01*
X121784801Y-124784768D01*
X121784801Y-124109799D01*
X121780326Y-124094560D01*
X121778936Y-124093355D01*
X121771253Y-124091684D01*
X121359315Y-124091684D01*
X121344076Y-124096159D01*
X121342871Y-124097549D01*
X121341200Y-124105232D01*
X121341200Y-124784768D01*
X120934800Y-124784768D01*
X120934800Y-124109799D01*
X120930325Y-124094560D01*
X120928935Y-124093355D01*
X120921252Y-124091684D01*
X120509314Y-124091684D01*
X120494075Y-124096159D01*
X120492870Y-124097549D01*
X120491199Y-124105232D01*
X120491199Y-124784768D01*
X120084799Y-124784768D01*
X120084799Y-124160599D01*
X120080324Y-124145360D01*
X120078934Y-124144155D01*
X120071251Y-124142484D01*
X119510116Y-124142484D01*
X119494877Y-124146959D01*
X119493672Y-124148349D01*
X119492001Y-124156032D01*
X119492001Y-124784768D01*
X118984001Y-124784768D01*
X118984001Y-124160599D01*
X118979526Y-124145360D01*
X118978136Y-124144155D01*
X118970453Y-124142484D01*
X118341717Y-124142484D01*
X118326478Y-124146959D01*
X118325273Y-124148349D01*
X118323602Y-124156032D01*
X118323602Y-124339553D01*
X111507252Y-124339553D01*
X111507134Y-123667169D01*
X120491199Y-123667169D01*
X120495674Y-123682408D01*
X120497064Y-123683613D01*
X120504747Y-123685284D01*
X120916685Y-123685284D01*
X120931924Y-123680809D01*
X120933129Y-123679419D01*
X120934800Y-123671736D01*
X120934800Y-123667169D01*
X121341200Y-123667169D01*
X121345675Y-123682408D01*
X121347065Y-123683613D01*
X121354748Y-123685284D01*
X121766686Y-123685284D01*
X121781925Y-123680809D01*
X121783130Y-123679419D01*
X121784801Y-123671736D01*
X121784801Y-123667169D01*
X122191201Y-123667169D01*
X122195676Y-123682408D01*
X122197066Y-123683613D01*
X122204749Y-123685284D01*
X122616684Y-123685284D01*
X122631923Y-123680809D01*
X122633128Y-123679419D01*
X122634799Y-123671736D01*
X122634799Y-123667169D01*
X123041199Y-123667169D01*
X123045674Y-123682408D01*
X123047064Y-123683613D01*
X123054747Y-123685284D01*
X123466685Y-123685284D01*
X123481924Y-123680809D01*
X123483129Y-123679419D01*
X123484800Y-123671736D01*
X123484800Y-123667169D01*
X123891200Y-123667169D01*
X123895675Y-123682408D01*
X123897065Y-123683613D01*
X123904748Y-123685284D01*
X124316686Y-123685284D01*
X124331925Y-123680809D01*
X124333130Y-123679419D01*
X124334801Y-123671736D01*
X124334801Y-123667169D01*
X124741201Y-123667169D01*
X124745676Y-123682408D01*
X124747066Y-123683613D01*
X124754749Y-123685284D01*
X125166684Y-123685284D01*
X125181923Y-123680809D01*
X125183128Y-123679419D01*
X125184799Y-123671736D01*
X125184799Y-123667169D01*
X125591199Y-123667169D01*
X125595674Y-123682408D01*
X125597064Y-123683613D01*
X125604747Y-123685284D01*
X126016685Y-123685284D01*
X126031924Y-123680809D01*
X126033129Y-123679419D01*
X126034800Y-123671736D01*
X126034800Y-123667169D01*
X126441200Y-123667169D01*
X126445675Y-123682408D01*
X126447065Y-123683613D01*
X126454748Y-123685284D01*
X126866686Y-123685284D01*
X126881925Y-123680809D01*
X126883130Y-123679419D01*
X126884801Y-123671736D01*
X126884801Y-123667169D01*
X127291201Y-123667169D01*
X127295676Y-123682408D01*
X127297066Y-123683613D01*
X127304749Y-123685284D01*
X127716684Y-123685284D01*
X127731923Y-123680809D01*
X127733128Y-123679419D01*
X127734799Y-123671736D01*
X127734799Y-123667169D01*
X128141199Y-123667169D01*
X128145674Y-123682408D01*
X128147064Y-123683613D01*
X128154747Y-123685284D01*
X128566685Y-123685284D01*
X128581924Y-123680809D01*
X128583129Y-123679419D01*
X128584800Y-123671736D01*
X128584800Y-123667169D01*
X128991200Y-123667169D01*
X128995675Y-123682408D01*
X128997065Y-123683613D01*
X129004748Y-123685284D01*
X129416686Y-123685284D01*
X129431925Y-123680809D01*
X129433130Y-123679419D01*
X129434801Y-123671736D01*
X129434801Y-123667169D01*
X129841201Y-123667169D01*
X129845676Y-123682408D01*
X129847066Y-123683613D01*
X129854749Y-123685284D01*
X130266684Y-123685284D01*
X130281923Y-123680809D01*
X130283128Y-123679419D01*
X130284799Y-123671736D01*
X130284799Y-123667169D01*
X130691199Y-123667169D01*
X130695674Y-123682408D01*
X130697064Y-123683613D01*
X130704747Y-123685284D01*
X131116685Y-123685284D01*
X131131924Y-123680809D01*
X131133129Y-123679419D01*
X131134800Y-123671736D01*
X131134800Y-123667169D01*
X131541200Y-123667169D01*
X131545675Y-123682408D01*
X131547065Y-123683613D01*
X131554748Y-123685284D01*
X131966686Y-123685284D01*
X131981925Y-123680809D01*
X131983130Y-123679419D01*
X131984801Y-123671736D01*
X131984801Y-123616369D01*
X132391201Y-123616369D01*
X132395676Y-123631608D01*
X132397066Y-123632813D01*
X132404749Y-123634484D01*
X132965884Y-123634484D01*
X132981123Y-123630009D01*
X132982328Y-123628619D01*
X132983999Y-123620936D01*
X132983999Y-123059801D01*
X132979524Y-123044562D01*
X132978134Y-123043357D01*
X132970451Y-123041686D01*
X132409316Y-123041686D01*
X132394077Y-123046161D01*
X132392872Y-123047551D01*
X132391201Y-123055234D01*
X132391201Y-123616369D01*
X131984801Y-123616369D01*
X131984801Y-122992200D01*
X131980326Y-122976961D01*
X131978936Y-122975756D01*
X131971253Y-122974085D01*
X131940132Y-122974085D01*
X131933311Y-122974455D01*
X131882449Y-122979979D01*
X131867201Y-122983604D01*
X131807232Y-123006086D01*
X131736425Y-123011269D01*
X131718771Y-123006086D01*
X131658806Y-122983606D01*
X131643551Y-122979979D01*
X131592686Y-122974453D01*
X131585872Y-122974084D01*
X131559315Y-122974084D01*
X131544076Y-122978559D01*
X131542871Y-122979949D01*
X131541200Y-122987632D01*
X131541200Y-123667169D01*
X131134800Y-123667169D01*
X131134800Y-122992200D01*
X131130325Y-122976961D01*
X131128935Y-122975756D01*
X131121252Y-122974085D01*
X131090131Y-122974085D01*
X131083310Y-122974455D01*
X131032448Y-122979979D01*
X131017200Y-122983604D01*
X130957231Y-123006086D01*
X130886424Y-123011269D01*
X130868770Y-123006086D01*
X130808805Y-122983606D01*
X130793550Y-122979979D01*
X130742685Y-122974453D01*
X130735871Y-122974084D01*
X130709314Y-122974084D01*
X130694075Y-122978559D01*
X130692870Y-122979949D01*
X130691199Y-122987632D01*
X130691199Y-123667169D01*
X130284799Y-123667169D01*
X130284799Y-122992200D01*
X130280324Y-122976961D01*
X130278934Y-122975756D01*
X130271251Y-122974085D01*
X130240130Y-122974085D01*
X130233309Y-122974455D01*
X130182447Y-122979979D01*
X130167195Y-122983605D01*
X130107230Y-123006085D01*
X130036423Y-123011268D01*
X130018770Y-123006085D01*
X129958807Y-122983606D01*
X129943552Y-122979979D01*
X129892687Y-122974453D01*
X129885873Y-122974084D01*
X129859316Y-122974084D01*
X129844077Y-122978559D01*
X129842872Y-122979949D01*
X129841201Y-122987632D01*
X129841201Y-123667169D01*
X129434801Y-123667169D01*
X129434801Y-122992200D01*
X129430326Y-122976961D01*
X129428936Y-122975756D01*
X129421253Y-122974085D01*
X129390132Y-122974085D01*
X129383311Y-122974455D01*
X129332449Y-122979979D01*
X129317201Y-122983604D01*
X129257232Y-123006086D01*
X129186425Y-123011269D01*
X129168771Y-123006086D01*
X129108806Y-122983606D01*
X129093551Y-122979979D01*
X129042686Y-122974453D01*
X129035872Y-122974084D01*
X129009315Y-122974084D01*
X128994076Y-122978559D01*
X128992871Y-122979949D01*
X128991200Y-122987632D01*
X128991200Y-123667169D01*
X128584800Y-123667169D01*
X128584800Y-122992200D01*
X128580325Y-122976961D01*
X128578935Y-122975756D01*
X128571252Y-122974085D01*
X128540131Y-122974085D01*
X128533310Y-122974455D01*
X128482448Y-122979979D01*
X128467200Y-122983604D01*
X128407231Y-123006086D01*
X128336424Y-123011269D01*
X128318770Y-123006086D01*
X128258805Y-122983606D01*
X128243550Y-122979979D01*
X128192685Y-122974453D01*
X128185871Y-122974084D01*
X128159314Y-122974084D01*
X128144075Y-122978559D01*
X128142870Y-122979949D01*
X128141199Y-122987632D01*
X128141199Y-123667169D01*
X127734799Y-123667169D01*
X127734799Y-122992200D01*
X127730324Y-122976961D01*
X127728934Y-122975756D01*
X127721251Y-122974085D01*
X127690130Y-122974085D01*
X127683309Y-122974455D01*
X127632447Y-122979979D01*
X127617195Y-122983605D01*
X127557230Y-123006085D01*
X127486423Y-123011268D01*
X127468770Y-123006085D01*
X127408807Y-122983606D01*
X127393552Y-122979979D01*
X127342687Y-122974453D01*
X127335873Y-122974084D01*
X127309316Y-122974084D01*
X127294077Y-122978559D01*
X127292872Y-122979949D01*
X127291201Y-122987632D01*
X127291201Y-123667169D01*
X126884801Y-123667169D01*
X126884801Y-122992200D01*
X126880326Y-122976961D01*
X126878936Y-122975756D01*
X126871253Y-122974085D01*
X126840132Y-122974085D01*
X126833311Y-122974455D01*
X126782449Y-122979979D01*
X126767201Y-122983604D01*
X126707232Y-123006086D01*
X126636425Y-123011269D01*
X126618771Y-123006086D01*
X126558806Y-122983606D01*
X126543551Y-122979979D01*
X126492686Y-122974453D01*
X126485872Y-122974084D01*
X126459315Y-122974084D01*
X126444076Y-122978559D01*
X126442871Y-122979949D01*
X126441200Y-122987632D01*
X126441200Y-123667169D01*
X126034800Y-123667169D01*
X126034800Y-122992200D01*
X126030325Y-122976961D01*
X126028935Y-122975756D01*
X126021252Y-122974085D01*
X125990131Y-122974085D01*
X125983310Y-122974455D01*
X125932448Y-122979979D01*
X125917200Y-122983604D01*
X125857231Y-123006086D01*
X125786424Y-123011269D01*
X125768770Y-123006086D01*
X125708805Y-122983606D01*
X125693550Y-122979979D01*
X125642685Y-122974453D01*
X125635871Y-122974084D01*
X125609314Y-122974084D01*
X125594075Y-122978559D01*
X125592870Y-122979949D01*
X125591199Y-122987632D01*
X125591199Y-123667169D01*
X125184799Y-123667169D01*
X125184799Y-122992200D01*
X125180324Y-122976961D01*
X125178934Y-122975756D01*
X125171251Y-122974085D01*
X125140130Y-122974085D01*
X125133309Y-122974455D01*
X125082447Y-122979979D01*
X125067195Y-122983605D01*
X125007230Y-123006085D01*
X124936423Y-123011268D01*
X124918770Y-123006085D01*
X124858807Y-122983606D01*
X124843552Y-122979979D01*
X124792687Y-122974453D01*
X124785873Y-122974084D01*
X124759316Y-122974084D01*
X124744077Y-122978559D01*
X124742872Y-122979949D01*
X124741201Y-122987632D01*
X124741201Y-123667169D01*
X124334801Y-123667169D01*
X124334801Y-122992200D01*
X124330326Y-122976961D01*
X124328936Y-122975756D01*
X124321253Y-122974085D01*
X124290132Y-122974085D01*
X124283311Y-122974455D01*
X124232449Y-122979979D01*
X124217201Y-122983604D01*
X124157232Y-123006086D01*
X124086425Y-123011269D01*
X124068771Y-123006086D01*
X124008806Y-122983606D01*
X123993551Y-122979979D01*
X123942686Y-122974453D01*
X123935872Y-122974084D01*
X123909315Y-122974084D01*
X123894076Y-122978559D01*
X123892871Y-122979949D01*
X123891200Y-122987632D01*
X123891200Y-123667169D01*
X123484800Y-123667169D01*
X123484800Y-122992200D01*
X123480325Y-122976961D01*
X123478935Y-122975756D01*
X123471252Y-122974085D01*
X123440131Y-122974085D01*
X123433310Y-122974455D01*
X123382448Y-122979979D01*
X123367200Y-122983604D01*
X123307231Y-123006086D01*
X123236424Y-123011269D01*
X123218770Y-123006086D01*
X123158805Y-122983606D01*
X123143550Y-122979979D01*
X123092685Y-122974453D01*
X123085871Y-122974084D01*
X123059314Y-122974084D01*
X123044075Y-122978559D01*
X123042870Y-122979949D01*
X123041199Y-122987632D01*
X123041199Y-123667169D01*
X122634799Y-123667169D01*
X122634799Y-122992200D01*
X122630324Y-122976961D01*
X122628934Y-122975756D01*
X122621251Y-122974085D01*
X122590130Y-122974085D01*
X122583309Y-122974455D01*
X122532447Y-122979979D01*
X122517195Y-122983605D01*
X122457230Y-123006085D01*
X122386423Y-123011268D01*
X122368770Y-123006085D01*
X122308807Y-122983606D01*
X122293552Y-122979979D01*
X122242687Y-122974453D01*
X122235873Y-122974084D01*
X122209316Y-122974084D01*
X122194077Y-122978559D01*
X122192872Y-122979949D01*
X122191201Y-122987632D01*
X122191201Y-123667169D01*
X121784801Y-123667169D01*
X121784801Y-122992200D01*
X121780326Y-122976961D01*
X121778936Y-122975756D01*
X121771253Y-122974085D01*
X121740132Y-122974085D01*
X121733311Y-122974455D01*
X121682449Y-122979979D01*
X121667201Y-122983604D01*
X121607232Y-123006086D01*
X121536425Y-123011269D01*
X121518771Y-123006086D01*
X121458806Y-122983606D01*
X121443551Y-122979979D01*
X121392686Y-122974453D01*
X121385872Y-122974084D01*
X121359315Y-122974084D01*
X121344076Y-122978559D01*
X121342871Y-122979949D01*
X121341200Y-122987632D01*
X121341200Y-123667169D01*
X120934800Y-123667169D01*
X120934800Y-122992200D01*
X120930325Y-122976961D01*
X120928935Y-122975756D01*
X120921252Y-122974085D01*
X120890131Y-122974085D01*
X120883310Y-122974455D01*
X120832448Y-122979979D01*
X120817200Y-122983604D01*
X120757231Y-123006086D01*
X120686424Y-123011269D01*
X120668770Y-123006086D01*
X120608805Y-122983606D01*
X120593550Y-122979979D01*
X120542685Y-122974453D01*
X120535871Y-122974084D01*
X120509314Y-122974084D01*
X120494075Y-122978559D01*
X120492870Y-122979949D01*
X120491199Y-122987632D01*
X120491199Y-123667169D01*
X111507134Y-123667169D01*
X111505688Y-115439279D01*
X111505116Y-112182438D01*
X114205000Y-112182438D01*
X114205337Y-112188953D01*
X114214894Y-112281057D01*
X114217788Y-112294456D01*
X114267381Y-112443107D01*
X114273555Y-112456286D01*
X114355788Y-112589173D01*
X114364824Y-112600574D01*
X114475429Y-112710986D01*
X114486840Y-112719998D01*
X114619880Y-112802004D01*
X114633061Y-112808151D01*
X114781814Y-112857491D01*
X114795190Y-112860358D01*
X114886097Y-112869672D01*
X114891126Y-112869929D01*
X114906124Y-112865525D01*
X114907329Y-112864135D01*
X114909000Y-112856452D01*
X114909000Y-112159115D01*
X114904525Y-112143876D01*
X114903135Y-112142671D01*
X114895452Y-112141000D01*
X114223115Y-112141000D01*
X114207876Y-112145475D01*
X114206671Y-112146865D01*
X114205000Y-112154548D01*
X114205000Y-112182438D01*
X111505116Y-112182438D01*
X111504796Y-110363000D01*
X112878496Y-110363000D01*
X112879186Y-110369565D01*
X112897267Y-110541592D01*
X112898458Y-110552928D01*
X112957473Y-110734556D01*
X113052960Y-110899944D01*
X113057378Y-110904851D01*
X113057379Y-110904852D01*
X113105912Y-110958753D01*
X113180747Y-111041866D01*
X113335248Y-111154118D01*
X113341276Y-111156802D01*
X113341278Y-111156803D01*
X113503681Y-111229109D01*
X113509712Y-111231794D01*
X113567819Y-111244145D01*
X113690056Y-111270128D01*
X113690061Y-111270128D01*
X113696513Y-111271500D01*
X113887487Y-111271500D01*
X113893939Y-111270128D01*
X113893944Y-111270128D01*
X114016181Y-111244145D01*
X114074288Y-111231794D01*
X114080320Y-111229108D01*
X114086600Y-111227068D01*
X114087144Y-111228741D01*
X114148928Y-111220459D01*
X114213225Y-111250567D01*
X114251036Y-111310657D01*
X114249400Y-111384668D01*
X114217509Y-111480814D01*
X114214642Y-111494190D01*
X114205328Y-111585097D01*
X114205000Y-111591514D01*
X114205000Y-111614885D01*
X114209475Y-111630124D01*
X114210865Y-111631329D01*
X114218548Y-111633000D01*
X115291000Y-111633000D01*
X115359121Y-111653002D01*
X115405614Y-111706658D01*
X115417000Y-111759000D01*
X115417000Y-112851885D01*
X115421475Y-112867124D01*
X115422865Y-112868329D01*
X115430548Y-112870000D01*
X115433438Y-112870000D01*
X115439953Y-112869663D01*
X115532057Y-112860106D01*
X115545456Y-112857212D01*
X115694107Y-112807619D01*
X115707286Y-112801445D01*
X115840173Y-112719212D01*
X115857311Y-112705629D01*
X115858841Y-112707559D01*
X115910880Y-112679097D01*
X115981699Y-112684113D01*
X116018618Y-112707799D01*
X116019373Y-112706844D01*
X116025119Y-112711382D01*
X116030298Y-112716552D01*
X116032670Y-112718014D01*
X116072655Y-112774412D01*
X116079500Y-112815376D01*
X116079500Y-121968233D01*
X116078973Y-121979416D01*
X116077298Y-121986909D01*
X116077547Y-121994835D01*
X116077547Y-121994836D01*
X116079438Y-122054986D01*
X116079500Y-122058945D01*
X116079500Y-122086856D01*
X116079997Y-122090790D01*
X116079997Y-122090791D01*
X116080005Y-122090856D01*
X116080938Y-122102693D01*
X116082327Y-122146889D01*
X116087978Y-122166339D01*
X116091987Y-122185700D01*
X116094526Y-122205797D01*
X116097445Y-122213168D01*
X116097445Y-122213170D01*
X116110804Y-122246912D01*
X116114649Y-122258142D01*
X116126982Y-122300593D01*
X116131015Y-122307412D01*
X116131017Y-122307417D01*
X116137293Y-122318028D01*
X116145988Y-122335776D01*
X116153448Y-122354617D01*
X116158110Y-122361033D01*
X116158110Y-122361034D01*
X116179436Y-122390387D01*
X116185952Y-122400307D01*
X116193746Y-122413485D01*
X116208458Y-122438362D01*
X116222779Y-122452683D01*
X116235619Y-122467716D01*
X116247528Y-122484107D01*
X116281605Y-122512298D01*
X116290384Y-122520288D01*
X117000829Y-123230733D01*
X117008373Y-123239023D01*
X117012486Y-123245504D01*
X117018263Y-123250929D01*
X117062153Y-123292144D01*
X117064995Y-123294899D01*
X117084716Y-123314620D01*
X117087911Y-123317098D01*
X117096933Y-123324804D01*
X117129165Y-123355072D01*
X117136114Y-123358892D01*
X117146918Y-123364832D01*
X117163442Y-123375685D01*
X117179445Y-123388099D01*
X117220029Y-123405662D01*
X117230659Y-123410869D01*
X117269426Y-123432181D01*
X117277103Y-123434152D01*
X117277108Y-123434154D01*
X117289044Y-123437218D01*
X117307752Y-123443623D01*
X117326341Y-123451667D01*
X117334169Y-123452907D01*
X117334176Y-123452909D01*
X117370010Y-123458585D01*
X117381630Y-123460991D01*
X117416775Y-123470014D01*
X117424456Y-123471986D01*
X117444710Y-123471986D01*
X117464420Y-123473537D01*
X117484429Y-123476706D01*
X117492321Y-123475960D01*
X117528447Y-123472545D01*
X117540305Y-123471986D01*
X118197601Y-123471986D01*
X118265722Y-123491988D01*
X118312215Y-123545644D01*
X118323601Y-123597986D01*
X118323601Y-123616369D01*
X118328076Y-123631608D01*
X118329466Y-123632813D01*
X118337149Y-123634484D01*
X120066684Y-123634484D01*
X120081923Y-123630009D01*
X120083128Y-123628619D01*
X120084799Y-123620936D01*
X120084799Y-123336637D01*
X120096957Y-123289119D01*
X120095016Y-123288391D01*
X120131901Y-123190000D01*
X120146146Y-123152002D01*
X120152901Y-123089820D01*
X120152901Y-122617171D01*
X132323599Y-122617171D01*
X132328074Y-122632410D01*
X132329464Y-122633615D01*
X132337147Y-122635286D01*
X133016684Y-122635286D01*
X133031923Y-122630811D01*
X133033128Y-122629421D01*
X133034799Y-122621738D01*
X133034799Y-122209800D01*
X133030324Y-122194561D01*
X133028934Y-122193356D01*
X133021251Y-122191685D01*
X132341715Y-122191685D01*
X132326476Y-122196160D01*
X132325271Y-122197550D01*
X132323600Y-122205233D01*
X132323600Y-122236354D01*
X132323970Y-122243175D01*
X132329494Y-122294037D01*
X132333119Y-122309285D01*
X132355601Y-122369254D01*
X132360784Y-122440061D01*
X132355601Y-122457715D01*
X132333121Y-122517680D01*
X132329494Y-122532935D01*
X132323968Y-122583800D01*
X132323599Y-122590614D01*
X132323599Y-122617171D01*
X120152901Y-122617171D01*
X120152901Y-122587152D01*
X120146146Y-122524970D01*
X120120933Y-122457715D01*
X120115750Y-122386908D01*
X120120933Y-122369255D01*
X120146146Y-122302001D01*
X120152901Y-122239819D01*
X120152901Y-121737151D01*
X120146146Y-121674969D01*
X120120666Y-121607001D01*
X120115483Y-121536196D01*
X120120666Y-121518543D01*
X120142879Y-121459290D01*
X120146506Y-121444036D01*
X120152032Y-121393171D01*
X120152401Y-121386357D01*
X120152401Y-121359800D01*
X120147926Y-121344561D01*
X120146536Y-121343356D01*
X120138853Y-121341685D01*
X119932661Y-121341685D01*
X119888432Y-121333667D01*
X119762119Y-121286314D01*
X119762113Y-121286312D01*
X119754717Y-121283540D01*
X119692535Y-121276785D01*
X118783467Y-121276785D01*
X118721285Y-121283540D01*
X118713889Y-121286312D01*
X118713883Y-121286314D01*
X118587570Y-121333667D01*
X118543341Y-121341685D01*
X118341717Y-121341685D01*
X118326478Y-121346160D01*
X118325273Y-121347550D01*
X118323602Y-121355233D01*
X118323602Y-121386354D01*
X118323972Y-121393175D01*
X118329496Y-121444037D01*
X118333122Y-121459288D01*
X118355336Y-121518543D01*
X118360519Y-121589350D01*
X118355340Y-121606991D01*
X118329856Y-121674969D01*
X118323101Y-121737151D01*
X118323101Y-122078986D01*
X118303099Y-122147107D01*
X118249443Y-122193600D01*
X118197101Y-122204986D01*
X117819081Y-122204986D01*
X117750960Y-122184984D01*
X117729986Y-122168081D01*
X117383405Y-121821500D01*
X117349379Y-121759188D01*
X117346500Y-121732405D01*
X117346500Y-120917170D01*
X118323601Y-120917170D01*
X118328076Y-120932409D01*
X118329466Y-120933614D01*
X118337149Y-120935285D01*
X119016686Y-120935285D01*
X119031925Y-120930810D01*
X119033130Y-120929420D01*
X119034801Y-120921737D01*
X119034801Y-120917170D01*
X119441201Y-120917170D01*
X119445676Y-120932409D01*
X119447066Y-120933614D01*
X119454749Y-120935285D01*
X120134285Y-120935285D01*
X120149524Y-120930810D01*
X120150729Y-120929420D01*
X120152400Y-120921737D01*
X120152400Y-120890616D01*
X120152030Y-120883795D01*
X120146506Y-120832935D01*
X120142879Y-120817678D01*
X120120400Y-120757714D01*
X120115217Y-120686906D01*
X120120400Y-120669255D01*
X120142879Y-120609292D01*
X120146506Y-120594037D01*
X120152032Y-120543172D01*
X120152401Y-120536358D01*
X120152401Y-120509801D01*
X120147926Y-120494562D01*
X120146536Y-120493357D01*
X120138853Y-120491686D01*
X119459316Y-120491686D01*
X119444077Y-120496161D01*
X119442872Y-120497551D01*
X119441201Y-120505234D01*
X119441201Y-120917170D01*
X119034801Y-120917170D01*
X119034801Y-120509801D01*
X119030326Y-120494562D01*
X119028936Y-120493357D01*
X119021253Y-120491686D01*
X118341717Y-120491686D01*
X118326478Y-120496161D01*
X118325273Y-120497551D01*
X118323602Y-120505234D01*
X118323602Y-120536355D01*
X118323972Y-120543176D01*
X118329496Y-120594038D01*
X118333122Y-120609290D01*
X118355602Y-120669255D01*
X118360785Y-120740062D01*
X118355602Y-120757714D01*
X118333121Y-120817683D01*
X118329496Y-120832928D01*
X118323970Y-120883799D01*
X118323601Y-120890613D01*
X118323601Y-120917170D01*
X117346500Y-120917170D01*
X117346500Y-119689819D01*
X118323101Y-119689819D01*
X118329856Y-119752001D01*
X118332630Y-119759400D01*
X118355336Y-119819968D01*
X118360519Y-119890775D01*
X118355336Y-119908428D01*
X118333123Y-119967681D01*
X118329496Y-119982935D01*
X118323970Y-120033800D01*
X118323601Y-120040614D01*
X118323601Y-120067171D01*
X118328076Y-120082410D01*
X118329466Y-120083615D01*
X118337149Y-120085286D01*
X118543344Y-120085286D01*
X118587573Y-120093304D01*
X118713883Y-120140656D01*
X118713889Y-120140658D01*
X118721285Y-120143430D01*
X118783467Y-120150185D01*
X119692535Y-120150185D01*
X119754717Y-120143430D01*
X119762113Y-120140658D01*
X119762119Y-120140656D01*
X119888429Y-120093304D01*
X119932658Y-120085286D01*
X120134285Y-120085286D01*
X120149524Y-120080811D01*
X120150729Y-120079421D01*
X120152400Y-120071738D01*
X120152400Y-120040617D01*
X120152030Y-120033796D01*
X120146506Y-119982934D01*
X120142880Y-119967683D01*
X120120666Y-119908428D01*
X120115483Y-119837621D01*
X120120666Y-119819968D01*
X120143372Y-119759400D01*
X120146146Y-119752001D01*
X120152901Y-119689819D01*
X120152901Y-119472985D01*
X120172903Y-119404864D01*
X120226559Y-119358371D01*
X120278901Y-119346985D01*
X120866445Y-119346985D01*
X120885395Y-119348418D01*
X120899630Y-119350584D01*
X120899634Y-119350584D01*
X120906864Y-119351684D01*
X120914156Y-119351091D01*
X120914159Y-119351091D01*
X120959533Y-119347400D01*
X120969748Y-119346985D01*
X120977808Y-119346985D01*
X120991098Y-119345436D01*
X121006022Y-119343696D01*
X121010397Y-119343263D01*
X121075854Y-119337939D01*
X121075857Y-119337938D01*
X121083152Y-119337345D01*
X121090116Y-119335089D01*
X121096075Y-119333898D01*
X121101930Y-119332514D01*
X121109196Y-119331667D01*
X121177842Y-119306750D01*
X121181970Y-119305333D01*
X121244451Y-119285092D01*
X121244453Y-119285091D01*
X121251414Y-119282836D01*
X121257669Y-119279040D01*
X121263143Y-119276534D01*
X121268573Y-119273815D01*
X121275452Y-119271318D01*
X121336491Y-119231299D01*
X121340195Y-119228962D01*
X121402622Y-119191080D01*
X121407384Y-119186875D01*
X121410999Y-119183682D01*
X121411023Y-119183709D01*
X121414015Y-119181056D01*
X121415213Y-119180054D01*
X123483101Y-119180054D01*
X123483471Y-119186875D01*
X123488995Y-119237737D01*
X123492621Y-119252989D01*
X123537776Y-119373439D01*
X123546314Y-119389034D01*
X123622815Y-119491109D01*
X123635376Y-119503670D01*
X123737451Y-119580171D01*
X123753046Y-119588709D01*
X123873494Y-119633863D01*
X123888749Y-119637490D01*
X123939614Y-119643016D01*
X123946428Y-119643385D01*
X124315885Y-119643385D01*
X124331124Y-119638910D01*
X124332329Y-119637520D01*
X124334000Y-119629837D01*
X124334000Y-119625269D01*
X124842000Y-119625269D01*
X124846475Y-119640508D01*
X124847865Y-119641713D01*
X124855548Y-119643384D01*
X125229569Y-119643384D01*
X125236390Y-119643014D01*
X125287250Y-119637490D01*
X125302507Y-119633863D01*
X125368771Y-119609022D01*
X125439578Y-119603839D01*
X125457229Y-119609022D01*
X125523498Y-119633865D01*
X125538743Y-119637490D01*
X125589614Y-119643016D01*
X125596428Y-119643385D01*
X125965885Y-119643385D01*
X125981124Y-119638910D01*
X125982329Y-119637520D01*
X125984000Y-119629837D01*
X125984000Y-119625269D01*
X126492000Y-119625269D01*
X126496475Y-119640508D01*
X126497865Y-119641713D01*
X126505548Y-119643384D01*
X126879569Y-119643384D01*
X126886390Y-119643014D01*
X126937250Y-119637490D01*
X126952507Y-119633863D01*
X127018771Y-119609022D01*
X127089578Y-119603839D01*
X127107229Y-119609022D01*
X127173498Y-119633865D01*
X127188743Y-119637490D01*
X127239614Y-119643016D01*
X127246428Y-119643385D01*
X127615885Y-119643385D01*
X127631124Y-119638910D01*
X127632329Y-119637520D01*
X127634000Y-119629837D01*
X127634000Y-119625269D01*
X128142000Y-119625269D01*
X128146475Y-119640508D01*
X128147865Y-119641713D01*
X128155548Y-119643384D01*
X128529569Y-119643384D01*
X128536390Y-119643014D01*
X128587252Y-119637490D01*
X128602504Y-119633864D01*
X128722954Y-119588709D01*
X128738549Y-119580171D01*
X128840624Y-119503670D01*
X128853185Y-119491109D01*
X128929686Y-119389034D01*
X128938224Y-119373439D01*
X128983378Y-119252991D01*
X128987005Y-119237736D01*
X128992531Y-119186871D01*
X128992900Y-119180057D01*
X128992900Y-118810600D01*
X128988425Y-118795361D01*
X128987035Y-118794156D01*
X128979352Y-118792485D01*
X128160115Y-118792485D01*
X128144876Y-118796960D01*
X128143671Y-118798350D01*
X128142000Y-118806033D01*
X128142000Y-119625269D01*
X127634000Y-119625269D01*
X127634000Y-118810600D01*
X127629525Y-118795361D01*
X127628135Y-118794156D01*
X127620452Y-118792485D01*
X126510115Y-118792485D01*
X126494876Y-118796960D01*
X126493671Y-118798350D01*
X126492000Y-118806033D01*
X126492000Y-119625269D01*
X125984000Y-119625269D01*
X125984000Y-118810600D01*
X125979525Y-118795361D01*
X125978135Y-118794156D01*
X125970452Y-118792485D01*
X124860115Y-118792485D01*
X124844876Y-118796960D01*
X124843671Y-118798350D01*
X124842000Y-118806033D01*
X124842000Y-119625269D01*
X124334000Y-119625269D01*
X124334000Y-118810600D01*
X124329525Y-118795361D01*
X124328135Y-118794156D01*
X124320452Y-118792485D01*
X123501216Y-118792485D01*
X123485977Y-118796960D01*
X123484772Y-118798350D01*
X123483101Y-118806033D01*
X123483101Y-119180054D01*
X121415213Y-119180054D01*
X121417248Y-119178353D01*
X121423367Y-119174341D01*
X121476643Y-119118102D01*
X121479021Y-119115660D01*
X121822331Y-118772350D01*
X121885228Y-118738199D01*
X121941824Y-118726169D01*
X121941833Y-118726166D01*
X121948288Y-118724794D01*
X121991628Y-118705498D01*
X122116722Y-118649803D01*
X122116724Y-118649802D01*
X122122752Y-118647118D01*
X122277253Y-118534866D01*
X122288407Y-118522478D01*
X122400621Y-118397852D01*
X122400622Y-118397851D01*
X122405040Y-118392944D01*
X122478118Y-118266370D01*
X123483100Y-118266370D01*
X123487575Y-118281609D01*
X123488965Y-118282814D01*
X123496648Y-118284485D01*
X124315885Y-118284485D01*
X124331124Y-118280010D01*
X124332329Y-118278620D01*
X124334000Y-118270937D01*
X124334000Y-118266370D01*
X124842000Y-118266370D01*
X124846475Y-118281609D01*
X124847865Y-118282814D01*
X124855548Y-118284485D01*
X125965885Y-118284485D01*
X125981124Y-118280010D01*
X125982329Y-118278620D01*
X125984000Y-118270937D01*
X125984000Y-118266370D01*
X126492000Y-118266370D01*
X126496475Y-118281609D01*
X126497865Y-118282814D01*
X126505548Y-118284485D01*
X127615885Y-118284485D01*
X127631124Y-118280010D01*
X127632329Y-118278620D01*
X127634000Y-118270937D01*
X127634000Y-118266370D01*
X128142000Y-118266370D01*
X128146475Y-118281609D01*
X128147865Y-118282814D01*
X128155548Y-118284485D01*
X128974784Y-118284485D01*
X128990023Y-118280010D01*
X128991228Y-118278620D01*
X128992899Y-118270937D01*
X128992899Y-117896916D01*
X128992529Y-117890095D01*
X128987005Y-117839235D01*
X128983378Y-117823978D01*
X128958537Y-117757714D01*
X128953354Y-117686907D01*
X128958537Y-117669256D01*
X128983380Y-117602987D01*
X128987005Y-117587742D01*
X128992531Y-117536871D01*
X128992900Y-117530057D01*
X128992900Y-117160600D01*
X128988425Y-117145361D01*
X128987035Y-117144156D01*
X128979352Y-117142485D01*
X128160115Y-117142485D01*
X128144876Y-117146960D01*
X128143671Y-117148350D01*
X128142000Y-117156033D01*
X128142000Y-118266370D01*
X127634000Y-118266370D01*
X127634000Y-117160600D01*
X127629525Y-117145361D01*
X127628135Y-117144156D01*
X127620452Y-117142485D01*
X126510115Y-117142485D01*
X126494876Y-117146960D01*
X126493671Y-117148350D01*
X126492000Y-117156033D01*
X126492000Y-118266370D01*
X125984000Y-118266370D01*
X125984000Y-117160600D01*
X125979525Y-117145361D01*
X125978135Y-117144156D01*
X125970452Y-117142485D01*
X124860115Y-117142485D01*
X124844876Y-117146960D01*
X124843671Y-117148350D01*
X124842000Y-117156033D01*
X124842000Y-118266370D01*
X124334000Y-118266370D01*
X124334000Y-117160600D01*
X124329525Y-117145361D01*
X124328135Y-117144156D01*
X124320452Y-117142485D01*
X123501216Y-117142485D01*
X123485977Y-117146960D01*
X123484772Y-117148350D01*
X123483101Y-117156033D01*
X123483101Y-117530054D01*
X123483471Y-117536875D01*
X123488995Y-117587735D01*
X123492622Y-117602992D01*
X123517463Y-117669256D01*
X123522646Y-117740063D01*
X123517463Y-117757714D01*
X123492620Y-117823983D01*
X123488995Y-117839228D01*
X123483469Y-117890099D01*
X123483100Y-117896913D01*
X123483100Y-118266370D01*
X122478118Y-118266370D01*
X122500527Y-118227556D01*
X122559542Y-118045928D01*
X122579504Y-117856000D01*
X122559542Y-117666072D01*
X122500527Y-117484444D01*
X122405040Y-117319056D01*
X122306306Y-117209400D01*
X122281675Y-117182045D01*
X122281674Y-117182044D01*
X122277253Y-117177134D01*
X122122752Y-117064882D01*
X122116724Y-117062198D01*
X122116722Y-117062197D01*
X121954319Y-116989891D01*
X121954318Y-116989891D01*
X121948288Y-116987206D01*
X121854888Y-116967353D01*
X121767944Y-116948872D01*
X121767939Y-116948872D01*
X121761487Y-116947500D01*
X121649197Y-116947500D01*
X121581076Y-116927498D01*
X121534583Y-116873842D01*
X121529364Y-116860437D01*
X121486568Y-116728726D01*
X121484527Y-116722444D01*
X121423285Y-116616370D01*
X123483100Y-116616370D01*
X123487575Y-116631609D01*
X123488965Y-116632814D01*
X123496648Y-116634485D01*
X124315885Y-116634485D01*
X124331124Y-116630010D01*
X124332329Y-116628620D01*
X124334000Y-116620937D01*
X124334000Y-116616370D01*
X124842000Y-116616370D01*
X124846475Y-116631609D01*
X124847865Y-116632814D01*
X124855548Y-116634485D01*
X125965885Y-116634485D01*
X125981124Y-116630010D01*
X125982329Y-116628620D01*
X125984000Y-116620937D01*
X125984000Y-116616370D01*
X126492000Y-116616370D01*
X126496475Y-116631609D01*
X126497865Y-116632814D01*
X126505548Y-116634485D01*
X127615885Y-116634485D01*
X127631124Y-116630010D01*
X127632329Y-116628620D01*
X127634000Y-116620937D01*
X127634000Y-116616370D01*
X128142000Y-116616370D01*
X128146475Y-116631609D01*
X128147865Y-116632814D01*
X128155548Y-116634485D01*
X128974784Y-116634485D01*
X128990023Y-116630010D01*
X128991228Y-116628620D01*
X128992899Y-116620937D01*
X128992899Y-116246916D01*
X128992529Y-116240095D01*
X128987005Y-116189235D01*
X128983378Y-116173978D01*
X128958537Y-116107714D01*
X128953354Y-116036907D01*
X128958537Y-116019256D01*
X128983380Y-115952987D01*
X128987005Y-115937742D01*
X128992531Y-115886871D01*
X128992900Y-115880057D01*
X128992900Y-115510600D01*
X128988425Y-115495361D01*
X128987035Y-115494156D01*
X128979352Y-115492485D01*
X128160115Y-115492485D01*
X128144876Y-115496960D01*
X128143671Y-115498350D01*
X128142000Y-115506033D01*
X128142000Y-116616370D01*
X127634000Y-116616370D01*
X127634000Y-115510600D01*
X127629525Y-115495361D01*
X127628135Y-115494156D01*
X127620452Y-115492485D01*
X126510115Y-115492485D01*
X126494876Y-115496960D01*
X126493671Y-115498350D01*
X126492000Y-115506033D01*
X126492000Y-116616370D01*
X125984000Y-116616370D01*
X125984000Y-115510600D01*
X125979525Y-115495361D01*
X125978135Y-115494156D01*
X125970452Y-115492485D01*
X124860115Y-115492485D01*
X124844876Y-115496960D01*
X124843671Y-115498350D01*
X124842000Y-115506033D01*
X124842000Y-116616370D01*
X124334000Y-116616370D01*
X124334000Y-115510600D01*
X124329525Y-115495361D01*
X124328135Y-115494156D01*
X124320452Y-115492485D01*
X123501216Y-115492485D01*
X123485977Y-115496960D01*
X123484772Y-115498350D01*
X123483101Y-115506033D01*
X123483101Y-115880054D01*
X123483471Y-115886875D01*
X123488995Y-115937735D01*
X123492622Y-115952992D01*
X123517463Y-116019256D01*
X123522646Y-116090063D01*
X123517463Y-116107714D01*
X123492620Y-116173983D01*
X123488995Y-116189228D01*
X123483469Y-116240099D01*
X123483100Y-116246913D01*
X123483100Y-116616370D01*
X121423285Y-116616370D01*
X121389040Y-116557056D01*
X121328719Y-116490062D01*
X121265675Y-116420045D01*
X121265674Y-116420044D01*
X121261253Y-116415134D01*
X121106752Y-116302882D01*
X121100724Y-116300198D01*
X121100722Y-116300197D01*
X120938319Y-116227891D01*
X120938318Y-116227891D01*
X120932288Y-116225206D01*
X120838887Y-116205353D01*
X120751944Y-116186872D01*
X120751939Y-116186872D01*
X120745487Y-116185500D01*
X120554513Y-116185500D01*
X120548061Y-116186872D01*
X120548056Y-116186872D01*
X120461113Y-116205353D01*
X120367712Y-116225206D01*
X120361685Y-116227889D01*
X120361677Y-116227892D01*
X120330151Y-116241929D01*
X120259784Y-116251364D01*
X120195486Y-116221258D01*
X120157673Y-116161170D01*
X120152901Y-116126823D01*
X120152901Y-115787151D01*
X120147873Y-115740866D01*
X120146999Y-115732819D01*
X120146999Y-115732817D01*
X120146146Y-115724969D01*
X120132121Y-115687556D01*
X120120934Y-115657715D01*
X120115751Y-115586908D01*
X120120934Y-115569258D01*
X120143373Y-115509400D01*
X120143374Y-115509397D01*
X120146146Y-115502002D01*
X120152901Y-115439820D01*
X120152901Y-114966370D01*
X123483100Y-114966370D01*
X123487575Y-114981609D01*
X123488965Y-114982814D01*
X123496648Y-114984485D01*
X124315885Y-114984485D01*
X124331124Y-114980010D01*
X124332329Y-114978620D01*
X124334000Y-114970937D01*
X124334000Y-114966370D01*
X124842000Y-114966370D01*
X124846475Y-114981609D01*
X124847865Y-114982814D01*
X124855548Y-114984485D01*
X125965885Y-114984485D01*
X125981124Y-114980010D01*
X125982329Y-114978620D01*
X125984000Y-114970937D01*
X125984000Y-114966370D01*
X126492000Y-114966370D01*
X126496475Y-114981609D01*
X126497865Y-114982814D01*
X126505548Y-114984485D01*
X127615885Y-114984485D01*
X127631124Y-114980010D01*
X127632329Y-114978620D01*
X127634000Y-114970937D01*
X127634000Y-114966370D01*
X128142000Y-114966370D01*
X128146475Y-114981609D01*
X128147865Y-114982814D01*
X128155548Y-114984485D01*
X128974784Y-114984485D01*
X128990023Y-114980010D01*
X128991228Y-114978620D01*
X128992899Y-114970937D01*
X128992899Y-114596916D01*
X128992529Y-114590095D01*
X128987005Y-114539233D01*
X128983379Y-114523981D01*
X128938224Y-114403531D01*
X128929686Y-114387936D01*
X128853185Y-114285861D01*
X128840624Y-114273300D01*
X128738549Y-114196799D01*
X128722954Y-114188261D01*
X128602506Y-114143107D01*
X128587251Y-114139480D01*
X128536386Y-114133954D01*
X128529572Y-114133585D01*
X128160115Y-114133585D01*
X128144876Y-114138060D01*
X128143671Y-114139450D01*
X128142000Y-114147133D01*
X128142000Y-114966370D01*
X127634000Y-114966370D01*
X127634000Y-114151701D01*
X127629525Y-114136462D01*
X127628135Y-114135257D01*
X127620452Y-114133586D01*
X127246431Y-114133586D01*
X127239610Y-114133956D01*
X127188750Y-114139480D01*
X127173493Y-114143107D01*
X127107229Y-114167948D01*
X127036422Y-114173131D01*
X127018771Y-114167948D01*
X126952502Y-114143105D01*
X126937257Y-114139480D01*
X126886386Y-114133954D01*
X126879572Y-114133585D01*
X126510115Y-114133585D01*
X126494876Y-114138060D01*
X126493671Y-114139450D01*
X126492000Y-114147133D01*
X126492000Y-114966370D01*
X125984000Y-114966370D01*
X125984000Y-114151701D01*
X125979525Y-114136462D01*
X125978135Y-114135257D01*
X125970452Y-114133586D01*
X125596431Y-114133586D01*
X125589610Y-114133956D01*
X125538750Y-114139480D01*
X125523493Y-114143107D01*
X125457229Y-114167948D01*
X125386422Y-114173131D01*
X125368771Y-114167948D01*
X125302502Y-114143105D01*
X125287257Y-114139480D01*
X125236386Y-114133954D01*
X125229572Y-114133585D01*
X124860115Y-114133585D01*
X124844876Y-114138060D01*
X124843671Y-114139450D01*
X124842000Y-114147133D01*
X124842000Y-114966370D01*
X124334000Y-114966370D01*
X124334000Y-114151701D01*
X124329525Y-114136462D01*
X124328135Y-114135257D01*
X124320452Y-114133586D01*
X123946431Y-114133586D01*
X123939610Y-114133956D01*
X123888748Y-114139480D01*
X123873496Y-114143106D01*
X123753046Y-114188261D01*
X123737451Y-114196799D01*
X123635376Y-114273300D01*
X123622815Y-114285861D01*
X123546314Y-114387936D01*
X123537776Y-114403531D01*
X123492622Y-114523979D01*
X123488995Y-114539234D01*
X123483469Y-114590099D01*
X123483100Y-114596913D01*
X123483100Y-114966370D01*
X120152901Y-114966370D01*
X120152901Y-114937152D01*
X120146146Y-114874970D01*
X120120933Y-114807715D01*
X120115750Y-114736908D01*
X120120933Y-114719255D01*
X120131734Y-114690444D01*
X120146146Y-114652001D01*
X120152901Y-114589819D01*
X120152901Y-114087151D01*
X120146146Y-114024969D01*
X120120933Y-113957714D01*
X120115750Y-113886908D01*
X120120933Y-113869255D01*
X120146146Y-113802001D01*
X120152901Y-113739819D01*
X120152901Y-113237151D01*
X120146146Y-113174969D01*
X120120934Y-113107715D01*
X120115751Y-113036908D01*
X120120934Y-113019258D01*
X120143373Y-112959400D01*
X120143374Y-112959397D01*
X120146146Y-112952002D01*
X120152901Y-112889820D01*
X120152901Y-112387152D01*
X120146146Y-112324970D01*
X120120933Y-112257715D01*
X120115750Y-112186909D01*
X120120933Y-112169256D01*
X120146146Y-112102001D01*
X120152901Y-112039819D01*
X120152901Y-111537151D01*
X120146146Y-111474969D01*
X120120933Y-111407714D01*
X120115750Y-111336908D01*
X120120933Y-111319255D01*
X120146146Y-111252001D01*
X120152901Y-111189819D01*
X120152901Y-110687151D01*
X120146146Y-110624969D01*
X120095016Y-110488580D01*
X120096957Y-110487852D01*
X120084799Y-110440334D01*
X120084799Y-110160599D01*
X120080324Y-110145360D01*
X120078934Y-110144155D01*
X120071251Y-110142484D01*
X118341717Y-110142484D01*
X118326478Y-110146959D01*
X118325273Y-110148349D01*
X118323602Y-110156032D01*
X118323602Y-110339553D01*
X118323972Y-110346374D01*
X118329496Y-110397236D01*
X118333122Y-110412487D01*
X118354736Y-110470142D01*
X118359919Y-110540949D01*
X118354736Y-110558601D01*
X118329856Y-110624969D01*
X118323101Y-110687151D01*
X118323101Y-111189819D01*
X118329856Y-111252001D01*
X118355069Y-111319255D01*
X118360252Y-111390062D01*
X118355070Y-111407711D01*
X118329856Y-111474969D01*
X118323101Y-111537151D01*
X118323101Y-112039819D01*
X118329856Y-112102001D01*
X118355069Y-112169255D01*
X118360252Y-112240062D01*
X118355070Y-112257713D01*
X118329856Y-112324970D01*
X118323101Y-112387152D01*
X118323101Y-112889820D01*
X118329856Y-112952002D01*
X118332628Y-112959397D01*
X118332629Y-112959400D01*
X118355068Y-113019258D01*
X118360251Y-113090065D01*
X118355068Y-113107715D01*
X118329856Y-113174969D01*
X118323101Y-113237151D01*
X118323101Y-113739819D01*
X118329856Y-113802001D01*
X118355069Y-113869255D01*
X118360252Y-113940062D01*
X118355070Y-113957711D01*
X118329856Y-114024969D01*
X118323101Y-114087151D01*
X118323101Y-114589819D01*
X118329856Y-114652001D01*
X118344268Y-114690444D01*
X118355069Y-114719255D01*
X118360252Y-114790062D01*
X118355070Y-114807713D01*
X118329856Y-114874970D01*
X118323101Y-114937152D01*
X118323101Y-115439820D01*
X118329856Y-115502002D01*
X118332628Y-115509397D01*
X118332629Y-115509400D01*
X118355068Y-115569258D01*
X118360251Y-115640065D01*
X118355068Y-115657715D01*
X118343881Y-115687556D01*
X118329856Y-115724969D01*
X118329003Y-115732817D01*
X118329003Y-115732819D01*
X118328129Y-115740866D01*
X118323101Y-115787151D01*
X118323101Y-116289819D01*
X118329856Y-116352001D01*
X118352068Y-116411251D01*
X118355069Y-116419255D01*
X118360252Y-116490062D01*
X118355070Y-116507711D01*
X118329856Y-116574969D01*
X118323101Y-116637151D01*
X118323101Y-117139819D01*
X118329856Y-117202001D01*
X118332630Y-117209400D01*
X118355069Y-117269256D01*
X118360252Y-117340063D01*
X118355070Y-117357712D01*
X118329856Y-117424970D01*
X118323101Y-117487152D01*
X118323101Y-117989820D01*
X118329856Y-118052002D01*
X118332628Y-118059395D01*
X118332628Y-118059397D01*
X118355068Y-118119256D01*
X118360251Y-118190063D01*
X118355068Y-118207713D01*
X118332885Y-118266888D01*
X118329856Y-118274969D01*
X118329004Y-118282814D01*
X118329003Y-118282819D01*
X118324492Y-118324342D01*
X118323101Y-118337151D01*
X118323101Y-118839819D01*
X118329856Y-118902001D01*
X118349775Y-118955134D01*
X118355069Y-118969255D01*
X118360252Y-119040062D01*
X118355070Y-119057711D01*
X118329856Y-119124969D01*
X118323101Y-119187151D01*
X118323101Y-119689819D01*
X117346500Y-119689819D01*
X117346500Y-112815379D01*
X117366502Y-112747258D01*
X117392894Y-112718116D01*
X117396713Y-112715752D01*
X117405606Y-112706844D01*
X117512381Y-112599882D01*
X117517552Y-112594702D01*
X117607302Y-112449101D01*
X117661149Y-112286757D01*
X117671500Y-112185732D01*
X117671500Y-111588268D01*
X117660887Y-111485981D01*
X117606756Y-111323732D01*
X117516752Y-111178287D01*
X117511570Y-111173114D01*
X117511566Y-111173109D01*
X117446483Y-111108140D01*
X117412403Y-111045858D01*
X117409500Y-111018967D01*
X117409500Y-110877710D01*
X117429502Y-110809589D01*
X117446405Y-110788615D01*
X117537639Y-110697381D01*
X117626472Y-110550699D01*
X117629528Y-110540949D01*
X117669748Y-110412605D01*
X117677753Y-110387062D01*
X117684500Y-110313635D01*
X117684499Y-109650366D01*
X117682887Y-109632813D01*
X117681376Y-109616369D01*
X118323601Y-109616369D01*
X118328076Y-109631608D01*
X118329466Y-109632813D01*
X118337149Y-109634484D01*
X118965886Y-109634484D01*
X118981125Y-109630009D01*
X118982330Y-109628619D01*
X118984001Y-109620936D01*
X118984001Y-109616369D01*
X119492001Y-109616369D01*
X119496476Y-109631608D01*
X119497866Y-109632813D01*
X119505549Y-109634484D01*
X120066684Y-109634484D01*
X120081923Y-109630009D01*
X120083128Y-109628619D01*
X120084799Y-109620936D01*
X120084799Y-108992203D01*
X120080324Y-108976964D01*
X120078934Y-108975759D01*
X120071251Y-108974088D01*
X120040130Y-108974088D01*
X120033309Y-108974458D01*
X119982447Y-108979982D01*
X119967196Y-108983608D01*
X119908834Y-109005487D01*
X119838027Y-109010670D01*
X119820374Y-109005487D01*
X119762006Y-108983606D01*
X119746752Y-108979979D01*
X119695887Y-108974453D01*
X119689073Y-108974084D01*
X119510116Y-108974084D01*
X119494877Y-108978559D01*
X119493672Y-108979949D01*
X119492001Y-108987632D01*
X119492001Y-109616369D01*
X118984001Y-109616369D01*
X118984001Y-108992200D01*
X118979526Y-108976961D01*
X118978136Y-108975756D01*
X118970453Y-108974085D01*
X118786932Y-108974085D01*
X118780111Y-108974455D01*
X118729249Y-108979979D01*
X118713997Y-108983605D01*
X118593547Y-109028760D01*
X118577952Y-109037298D01*
X118475877Y-109113799D01*
X118463316Y-109126360D01*
X118386815Y-109228435D01*
X118378277Y-109244030D01*
X118333123Y-109364478D01*
X118329496Y-109379733D01*
X118323970Y-109430598D01*
X118323601Y-109437412D01*
X118323601Y-109616369D01*
X117681376Y-109616369D01*
X117678364Y-109583592D01*
X117677753Y-109576938D01*
X117631893Y-109430598D01*
X117628744Y-109420550D01*
X117628743Y-109420548D01*
X117626472Y-109413301D01*
X117537639Y-109266619D01*
X117446405Y-109175385D01*
X117412379Y-109113073D01*
X117409500Y-109086290D01*
X117409500Y-108365464D01*
X117429502Y-108297343D01*
X117483158Y-108250850D01*
X117545384Y-108239852D01*
X117561067Y-108241086D01*
X117561070Y-108241086D01*
X117566000Y-108241474D01*
X117818403Y-108221609D01*
X117823210Y-108220455D01*
X117823216Y-108220454D01*
X117979968Y-108182821D01*
X118064591Y-108162505D01*
X118069164Y-108160611D01*
X118293928Y-108067511D01*
X118293932Y-108067509D01*
X118298502Y-108065616D01*
X118514376Y-107933328D01*
X118706898Y-107768898D01*
X118871328Y-107576376D01*
X119003616Y-107360502D01*
X119005513Y-107355924D01*
X119098611Y-107131164D01*
X119098612Y-107131162D01*
X119100505Y-107126591D01*
X119143584Y-106947152D01*
X119158454Y-106885216D01*
X119158455Y-106885210D01*
X119159609Y-106880403D01*
X119179474Y-106628000D01*
X119159609Y-106375597D01*
X119158152Y-106369525D01*
X119101660Y-106134221D01*
X119100505Y-106129409D01*
X119098611Y-106124836D01*
X119005511Y-105900072D01*
X119005509Y-105900068D01*
X119003616Y-105895498D01*
X118871328Y-105679624D01*
X118706898Y-105487102D01*
X118514376Y-105322672D01*
X118298502Y-105190384D01*
X118293932Y-105188491D01*
X118293928Y-105188489D01*
X118069164Y-105095389D01*
X118069162Y-105095388D01*
X118064591Y-105093495D01*
X117959104Y-105068170D01*
X117823216Y-105035546D01*
X117823210Y-105035545D01*
X117818403Y-105034391D01*
X117566000Y-105014526D01*
X117313597Y-105034391D01*
X117308790Y-105035545D01*
X117308784Y-105035546D01*
X117172896Y-105068170D01*
X117067409Y-105093495D01*
X117062838Y-105095388D01*
X117062836Y-105095389D01*
X116838072Y-105188489D01*
X116838068Y-105188491D01*
X116833498Y-105190384D01*
X116617624Y-105322672D01*
X116425102Y-105487102D01*
X116260672Y-105679624D01*
X116128384Y-105895498D01*
X116126491Y-105900068D01*
X116126489Y-105900072D01*
X116033389Y-106124836D01*
X116031495Y-106129409D01*
X116030340Y-106134221D01*
X115973849Y-106369525D01*
X115972391Y-106375597D01*
X115952526Y-106628000D01*
X115972391Y-106880403D01*
X115973545Y-106885210D01*
X115973546Y-106885216D01*
X115988416Y-106947152D01*
X116031495Y-107126591D01*
X116128384Y-107360502D01*
X116129053Y-107361594D01*
X116142500Y-107417600D01*
X116142500Y-109086290D01*
X116122498Y-109154411D01*
X116105595Y-109175385D01*
X116040095Y-109240885D01*
X115977783Y-109274911D01*
X115906968Y-109269846D01*
X115861905Y-109240885D01*
X115766381Y-109145361D01*
X115619699Y-109056528D01*
X115612452Y-109054257D01*
X115612450Y-109054256D01*
X115539746Y-109031472D01*
X115456062Y-109005247D01*
X115382635Y-108998500D01*
X115379737Y-108998500D01*
X115125335Y-108998501D01*
X114869366Y-108998501D01*
X114866508Y-108998764D01*
X114866499Y-108998764D01*
X114830996Y-109002026D01*
X114795938Y-109005247D01*
X114789560Y-109007246D01*
X114789559Y-109007246D01*
X114639550Y-109054256D01*
X114639548Y-109054257D01*
X114632301Y-109056528D01*
X114485619Y-109145361D01*
X114364361Y-109266619D01*
X114360424Y-109273120D01*
X114351984Y-109287056D01*
X114299587Y-109334963D01*
X114235045Y-109346735D01*
X114233091Y-109346298D01*
X114225168Y-109346547D01*
X114165014Y-109348438D01*
X114161055Y-109348500D01*
X114133144Y-109348500D01*
X114129210Y-109348997D01*
X114129209Y-109348997D01*
X114129144Y-109349005D01*
X114117307Y-109349938D01*
X114085490Y-109350938D01*
X114081029Y-109351078D01*
X114073110Y-109351327D01*
X114055454Y-109356456D01*
X114053658Y-109356978D01*
X114034306Y-109360986D01*
X114027235Y-109361880D01*
X114014203Y-109363526D01*
X114006834Y-109366443D01*
X114006832Y-109366444D01*
X113973097Y-109379800D01*
X113961869Y-109383645D01*
X113919407Y-109395982D01*
X113912584Y-109400017D01*
X113912582Y-109400018D01*
X113901972Y-109406293D01*
X113884224Y-109414988D01*
X113865383Y-109422448D01*
X113858967Y-109427109D01*
X113858964Y-109427111D01*
X113854388Y-109430436D01*
X113780327Y-109454500D01*
X113696513Y-109454500D01*
X113690061Y-109455872D01*
X113690056Y-109455872D01*
X113603113Y-109474353D01*
X113509712Y-109494206D01*
X113503682Y-109496891D01*
X113503681Y-109496891D01*
X113341278Y-109569197D01*
X113341276Y-109569198D01*
X113335248Y-109571882D01*
X113329907Y-109575762D01*
X113329906Y-109575763D01*
X113279843Y-109612136D01*
X113180747Y-109684134D01*
X113052960Y-109826056D01*
X112957473Y-109991444D01*
X112898458Y-110173072D01*
X112897768Y-110179633D01*
X112897768Y-110179635D01*
X112886729Y-110284670D01*
X112878496Y-110363000D01*
X111504796Y-110363000D01*
X111504428Y-108268868D01*
X111524418Y-108200745D01*
X111578066Y-108154243D01*
X111648338Y-108144126D01*
X111705991Y-108168019D01*
X111712353Y-108172787D01*
X111727946Y-108181324D01*
X111848394Y-108226478D01*
X111863649Y-108230105D01*
X111914514Y-108235631D01*
X111921328Y-108236000D01*
X112793885Y-108236000D01*
X112809124Y-108231525D01*
X112810329Y-108230135D01*
X112812000Y-108222452D01*
X112812000Y-108217884D01*
X113320000Y-108217884D01*
X113324475Y-108233123D01*
X113325865Y-108234328D01*
X113333548Y-108235999D01*
X114210669Y-108235999D01*
X114217490Y-108235629D01*
X114268352Y-108230105D01*
X114283604Y-108226479D01*
X114404054Y-108181324D01*
X114419649Y-108172786D01*
X114521724Y-108096285D01*
X114534285Y-108083724D01*
X114610786Y-107981649D01*
X114619324Y-107966054D01*
X114664478Y-107845606D01*
X114668105Y-107830351D01*
X114673631Y-107779486D01*
X114674000Y-107772672D01*
X114674000Y-106900115D01*
X114669525Y-106884876D01*
X114668135Y-106883671D01*
X114660452Y-106882000D01*
X113338115Y-106882000D01*
X113322876Y-106886475D01*
X113321671Y-106887865D01*
X113320000Y-106895548D01*
X113320000Y-108217884D01*
X112812000Y-108217884D01*
X112812000Y-106355885D01*
X113320000Y-106355885D01*
X113324475Y-106371124D01*
X113325865Y-106372329D01*
X113333548Y-106374000D01*
X114655884Y-106374000D01*
X114671123Y-106369525D01*
X114672328Y-106368135D01*
X114673999Y-106360452D01*
X114673999Y-105483331D01*
X114673629Y-105476510D01*
X114668105Y-105425648D01*
X114664479Y-105410396D01*
X114619324Y-105289946D01*
X114610786Y-105274351D01*
X114534285Y-105172276D01*
X114521724Y-105159715D01*
X114419649Y-105083214D01*
X114404054Y-105074676D01*
X114283606Y-105029522D01*
X114268351Y-105025895D01*
X114217486Y-105020369D01*
X114210672Y-105020000D01*
X113338115Y-105020000D01*
X113322876Y-105024475D01*
X113321671Y-105025865D01*
X113320000Y-105033548D01*
X113320000Y-106355885D01*
X112812000Y-106355885D01*
X112812000Y-105038116D01*
X112807525Y-105022877D01*
X112806135Y-105021672D01*
X112798452Y-105020001D01*
X111921331Y-105020001D01*
X111914510Y-105020371D01*
X111863648Y-105025895D01*
X111848396Y-105029521D01*
X111727946Y-105074676D01*
X111712356Y-105083211D01*
X111705417Y-105088412D01*
X111638910Y-105113259D01*
X111569528Y-105098206D01*
X111519298Y-105048031D01*
X111503852Y-104987607D01*
X111503676Y-103988428D01*
X111503169Y-101102953D01*
X111523159Y-101034831D01*
X111576807Y-100988329D01*
X111647079Y-100978212D01*
X111711665Y-101007694D01*
X111736601Y-101037097D01*
X111758087Y-101072158D01*
X111760672Y-101076376D01*
X111925102Y-101268898D01*
X112117624Y-101433328D01*
X112333498Y-101565616D01*
X112338068Y-101567509D01*
X112338072Y-101567511D01*
X112498881Y-101634120D01*
X112567409Y-101662505D01*
X112636974Y-101679206D01*
X112808784Y-101720454D01*
X112808790Y-101720455D01*
X112813597Y-101721609D01*
X113066000Y-101741474D01*
X113318403Y-101721609D01*
X113323210Y-101720455D01*
X113323216Y-101720454D01*
X113495026Y-101679206D01*
X113564591Y-101662505D01*
X113633119Y-101634120D01*
X113793928Y-101567511D01*
X113793932Y-101567509D01*
X113798502Y-101565616D01*
X114014376Y-101433328D01*
X114206898Y-101268898D01*
X114371328Y-101076376D01*
X114503616Y-100860502D01*
X114564124Y-100714424D01*
X114598611Y-100631164D01*
X114598612Y-100631162D01*
X114600505Y-100626591D01*
X114652401Y-100410428D01*
X114658454Y-100385216D01*
X114658455Y-100385210D01*
X114659609Y-100380403D01*
X114679474Y-100128000D01*
X115952526Y-100128000D01*
X115972391Y-100380403D01*
X115973545Y-100385210D01*
X115973546Y-100385216D01*
X115979599Y-100410428D01*
X116031495Y-100626591D01*
X116033388Y-100631162D01*
X116033389Y-100631164D01*
X116067877Y-100714424D01*
X116128384Y-100860502D01*
X116260672Y-101076376D01*
X116425102Y-101268898D01*
X116617624Y-101433328D01*
X116833498Y-101565616D01*
X116838068Y-101567509D01*
X116838072Y-101567511D01*
X116998881Y-101634120D01*
X117067409Y-101662505D01*
X117136974Y-101679206D01*
X117308784Y-101720454D01*
X117308790Y-101720455D01*
X117313597Y-101721609D01*
X117566000Y-101741474D01*
X117818403Y-101721609D01*
X117823210Y-101720455D01*
X117823216Y-101720454D01*
X117995026Y-101679206D01*
X118064591Y-101662505D01*
X118133119Y-101634120D01*
X118293928Y-101567511D01*
X118293932Y-101567509D01*
X118298502Y-101565616D01*
X118514376Y-101433328D01*
X118706898Y-101268898D01*
X118871328Y-101076376D01*
X119003616Y-100860502D01*
X119064124Y-100714424D01*
X119098611Y-100631164D01*
X119098612Y-100631162D01*
X119100505Y-100626591D01*
X119152401Y-100410428D01*
X119158454Y-100385216D01*
X119158455Y-100385210D01*
X119159609Y-100380403D01*
X119179474Y-100128000D01*
X119159609Y-99875597D01*
X119157426Y-99866501D01*
X119101660Y-99634221D01*
X119100505Y-99629409D01*
X119003616Y-99395498D01*
X118871328Y-99179624D01*
X118706898Y-98987102D01*
X118514376Y-98822672D01*
X118298502Y-98690384D01*
X118264819Y-98676432D01*
X118182026Y-98642138D01*
X118126746Y-98597589D01*
X118104325Y-98530226D01*
X118121883Y-98461435D01*
X118173846Y-98413056D01*
X118182027Y-98409320D01*
X118293700Y-98363064D01*
X118302494Y-98358583D01*
X118497167Y-98239287D01*
X118506627Y-98228830D01*
X118502844Y-98220054D01*
X117578812Y-97296022D01*
X117564868Y-97288408D01*
X117563035Y-97288539D01*
X117556420Y-97292790D01*
X116632200Y-98217010D01*
X116625440Y-98229390D01*
X116631167Y-98237040D01*
X116829506Y-98358583D01*
X116838300Y-98363064D01*
X116949973Y-98409320D01*
X117005254Y-98453868D01*
X117027675Y-98521232D01*
X117010117Y-98590023D01*
X116958155Y-98638401D01*
X116949974Y-98642138D01*
X116867181Y-98676432D01*
X116833498Y-98690384D01*
X116617624Y-98822672D01*
X116425102Y-98987102D01*
X116260672Y-99179624D01*
X116128384Y-99395498D01*
X116031495Y-99629409D01*
X116030340Y-99634221D01*
X115974575Y-99866501D01*
X115972391Y-99875597D01*
X115952526Y-100128000D01*
X114679474Y-100128000D01*
X114659609Y-99875597D01*
X114657426Y-99866501D01*
X114601660Y-99634221D01*
X114600505Y-99629409D01*
X114503616Y-99395498D01*
X114371328Y-99179624D01*
X114206898Y-98987102D01*
X114014376Y-98822672D01*
X114010163Y-98820090D01*
X114010153Y-98820083D01*
X113921787Y-98765932D01*
X113874156Y-98713285D01*
X113862549Y-98643243D01*
X113890652Y-98578046D01*
X113949543Y-98538392D01*
X113987622Y-98532500D01*
X114214134Y-98532500D01*
X114276316Y-98525745D01*
X114412705Y-98474615D01*
X114529261Y-98387261D01*
X114616615Y-98270705D01*
X114667745Y-98134316D01*
X114674500Y-98072134D01*
X114674500Y-96928930D01*
X115953416Y-96928930D01*
X115972498Y-97171390D01*
X115974041Y-97181137D01*
X116030817Y-97417624D01*
X116033866Y-97427009D01*
X116126936Y-97651700D01*
X116131417Y-97660494D01*
X116250713Y-97855167D01*
X116261170Y-97864627D01*
X116269946Y-97860844D01*
X117193978Y-96936812D01*
X117200356Y-96925132D01*
X117930408Y-96925132D01*
X117930539Y-96926965D01*
X117934790Y-96933580D01*
X118859010Y-97857800D01*
X118871390Y-97864560D01*
X118879040Y-97858833D01*
X119000583Y-97660494D01*
X119005064Y-97651700D01*
X119098134Y-97427009D01*
X119101183Y-97417624D01*
X119157959Y-97181137D01*
X119159502Y-97171390D01*
X119178584Y-96928930D01*
X119178584Y-96919070D01*
X119159502Y-96676610D01*
X119157959Y-96666863D01*
X119101183Y-96430376D01*
X119098134Y-96420991D01*
X119005064Y-96196300D01*
X119000583Y-96187506D01*
X118881287Y-95992833D01*
X118870830Y-95983373D01*
X118862054Y-95987156D01*
X117938022Y-96911188D01*
X117930408Y-96925132D01*
X117200356Y-96925132D01*
X117201592Y-96922868D01*
X117201461Y-96921035D01*
X117197210Y-96914420D01*
X116272990Y-95990200D01*
X116260610Y-95983440D01*
X116252960Y-95989167D01*
X116131417Y-96187506D01*
X116126936Y-96196300D01*
X116033866Y-96420991D01*
X116030817Y-96430376D01*
X115974041Y-96666863D01*
X115972498Y-96676610D01*
X115953416Y-96919070D01*
X115953416Y-96928930D01*
X114674500Y-96928930D01*
X114674500Y-95775866D01*
X114667745Y-95713684D01*
X114632313Y-95619170D01*
X116625373Y-95619170D01*
X116629156Y-95627946D01*
X117553188Y-96551978D01*
X117567132Y-96559592D01*
X117568965Y-96559461D01*
X117575580Y-96555210D01*
X118499800Y-95630990D01*
X118506560Y-95618610D01*
X118500833Y-95610960D01*
X118302494Y-95489417D01*
X118293700Y-95484936D01*
X118069009Y-95391866D01*
X118059624Y-95388817D01*
X117823137Y-95332041D01*
X117813390Y-95330498D01*
X117570930Y-95311416D01*
X117561070Y-95311416D01*
X117318610Y-95330498D01*
X117308863Y-95332041D01*
X117072376Y-95388817D01*
X117062991Y-95391866D01*
X116838300Y-95484936D01*
X116829506Y-95489417D01*
X116634833Y-95608713D01*
X116625373Y-95619170D01*
X114632313Y-95619170D01*
X114616615Y-95577295D01*
X114529261Y-95460739D01*
X114412705Y-95373385D01*
X114276316Y-95322255D01*
X114214134Y-95315500D01*
X113825500Y-95315500D01*
X113757379Y-95295498D01*
X113710886Y-95241842D01*
X113699500Y-95189500D01*
X113699500Y-94106000D01*
X113719502Y-94037879D01*
X113773158Y-93991386D01*
X113825500Y-93980000D01*
X120398500Y-93980000D01*
X120466621Y-94000002D01*
G37*
%TD.AperFunction*%
%TA.AperFunction,Conductor*%
G36*
X134515741Y-104482332D02*
G01*
X134545769Y-104498452D01*
X134605273Y-104541684D01*
X134671248Y-104589618D01*
X134677276Y-104592302D01*
X134677278Y-104592303D01*
X134811361Y-104652000D01*
X134845712Y-104667294D01*
X134939112Y-104687147D01*
X135026056Y-104705628D01*
X135026061Y-104705628D01*
X135032513Y-104707000D01*
X135088406Y-104707000D01*
X135156527Y-104727002D01*
X135177501Y-104743905D01*
X136743595Y-106309999D01*
X136777621Y-106372311D01*
X136780500Y-106399094D01*
X136780500Y-114613476D01*
X136760498Y-114681597D01*
X136748142Y-114697779D01*
X136674960Y-114779056D01*
X136579473Y-114944444D01*
X136520458Y-115126072D01*
X136500496Y-115316000D01*
X136501186Y-115322565D01*
X136519662Y-115498350D01*
X136520458Y-115505928D01*
X136579473Y-115687556D01*
X136674960Y-115852944D01*
X136735046Y-115919677D01*
X136765762Y-115983682D01*
X136756998Y-116054136D01*
X136711536Y-116108667D01*
X136641409Y-116129985D01*
X134793682Y-116129985D01*
X134725561Y-116109983D01*
X134679068Y-116056327D01*
X134668964Y-115986053D01*
X134698458Y-115921473D01*
X134742434Y-115888878D01*
X134816719Y-115855805D01*
X134816726Y-115855801D01*
X134822752Y-115853118D01*
X134839294Y-115841100D01*
X134957872Y-115754947D01*
X134977253Y-115740866D01*
X134981675Y-115735955D01*
X135100621Y-115603852D01*
X135100622Y-115603851D01*
X135105040Y-115598944D01*
X135194949Y-115443217D01*
X135197223Y-115439279D01*
X135197224Y-115439278D01*
X135200527Y-115433556D01*
X135259542Y-115251928D01*
X135279504Y-115062000D01*
X135259542Y-114872072D01*
X135200527Y-114690444D01*
X135105040Y-114525056D01*
X134977253Y-114383134D01*
X134822752Y-114270882D01*
X134816724Y-114268198D01*
X134816722Y-114268197D01*
X134654319Y-114195891D01*
X134654318Y-114195891D01*
X134648288Y-114193206D01*
X134553843Y-114173131D01*
X134467944Y-114154872D01*
X134467939Y-114154872D01*
X134461487Y-114153500D01*
X134273160Y-114153500D01*
X134205039Y-114133498D01*
X134158546Y-114079842D01*
X134147897Y-114041106D01*
X134146998Y-114032826D01*
X134146997Y-114032822D01*
X134146144Y-114024969D01*
X134120931Y-113957714D01*
X134115748Y-113886908D01*
X134120931Y-113869255D01*
X134146144Y-113802001D01*
X134152899Y-113739819D01*
X134152899Y-113237151D01*
X134146144Y-113174969D01*
X134120932Y-113107715D01*
X134115749Y-113036908D01*
X134120932Y-113019258D01*
X134143371Y-112959400D01*
X134143372Y-112959397D01*
X134146144Y-112952002D01*
X134152899Y-112889820D01*
X134152899Y-112387152D01*
X134146144Y-112324970D01*
X134120931Y-112257715D01*
X134115748Y-112186909D01*
X134120931Y-112169256D01*
X134146144Y-112102001D01*
X134152899Y-112039819D01*
X134152899Y-111537151D01*
X134146144Y-111474969D01*
X134120931Y-111407714D01*
X134115748Y-111336908D01*
X134120931Y-111319255D01*
X134146144Y-111252001D01*
X134152899Y-111189819D01*
X134152899Y-110687151D01*
X134146144Y-110624969D01*
X134121264Y-110558602D01*
X134116081Y-110487795D01*
X134121264Y-110470142D01*
X134142877Y-110412489D01*
X134146504Y-110397235D01*
X134152030Y-110346370D01*
X134152399Y-110339556D01*
X134152399Y-110160599D01*
X134147924Y-110145360D01*
X134146534Y-110144155D01*
X134138851Y-110142484D01*
X133109999Y-110142484D01*
X133041878Y-110122482D01*
X132995385Y-110068826D01*
X132983999Y-110016484D01*
X132983999Y-109616369D01*
X133491999Y-109616369D01*
X133496474Y-109631608D01*
X133497864Y-109632813D01*
X133505547Y-109634484D01*
X134134283Y-109634484D01*
X134149522Y-109630009D01*
X134150727Y-109628619D01*
X134152398Y-109620936D01*
X134152398Y-109437415D01*
X134152028Y-109430594D01*
X134146504Y-109379732D01*
X134142878Y-109364480D01*
X134097723Y-109244030D01*
X134089185Y-109228435D01*
X134012684Y-109126360D01*
X134000123Y-109113799D01*
X133898048Y-109037298D01*
X133882453Y-109028760D01*
X133762005Y-108983606D01*
X133746750Y-108979979D01*
X133695885Y-108974453D01*
X133689071Y-108974084D01*
X133510114Y-108974084D01*
X133494875Y-108978559D01*
X133493670Y-108979949D01*
X133491999Y-108987632D01*
X133491999Y-109616369D01*
X132983999Y-109616369D01*
X132983999Y-108992200D01*
X132979524Y-108976961D01*
X132978134Y-108975756D01*
X132970451Y-108974085D01*
X132947501Y-108974085D01*
X132879380Y-108954083D01*
X132832887Y-108900427D01*
X132821501Y-108848085D01*
X132821501Y-108792311D01*
X132841503Y-108724190D01*
X132858406Y-108703216D01*
X133029768Y-108531854D01*
X133038058Y-108524310D01*
X133044539Y-108520197D01*
X133091180Y-108470529D01*
X133093934Y-108467688D01*
X133113655Y-108447967D01*
X133116133Y-108444772D01*
X133123839Y-108435750D01*
X133148679Y-108409298D01*
X133154107Y-108403518D01*
X133163867Y-108385765D01*
X133174720Y-108369242D01*
X133177650Y-108365464D01*
X133187134Y-108353238D01*
X133204697Y-108312654D01*
X133209904Y-108302024D01*
X133231216Y-108263257D01*
X133233187Y-108255580D01*
X133233189Y-108255575D01*
X133236253Y-108243639D01*
X133242659Y-108224927D01*
X133247554Y-108213616D01*
X133250702Y-108206342D01*
X133251942Y-108198514D01*
X133251944Y-108198507D01*
X133257620Y-108162673D01*
X133260026Y-108151053D01*
X133269049Y-108115908D01*
X133269049Y-108115907D01*
X133271021Y-108108227D01*
X133271021Y-108087973D01*
X133272572Y-108068262D01*
X133274501Y-108056083D01*
X133275741Y-108048254D01*
X133271580Y-108004235D01*
X133271021Y-107992378D01*
X133271021Y-105407049D01*
X133291023Y-105338928D01*
X133344679Y-105292435D01*
X133388309Y-105281500D01*
X133389856Y-105281500D01*
X133393778Y-105281005D01*
X133393788Y-105281004D01*
X133393856Y-105280995D01*
X133405693Y-105280062D01*
X133437951Y-105279048D01*
X133441970Y-105278922D01*
X133449889Y-105278673D01*
X133469343Y-105273021D01*
X133488700Y-105269013D01*
X133500930Y-105267468D01*
X133500931Y-105267468D01*
X133508797Y-105266474D01*
X133516168Y-105263555D01*
X133516170Y-105263555D01*
X133549912Y-105250196D01*
X133561142Y-105246351D01*
X133595983Y-105236229D01*
X133595984Y-105236229D01*
X133603593Y-105234018D01*
X133610412Y-105229985D01*
X133610417Y-105229983D01*
X133621028Y-105223707D01*
X133638776Y-105215012D01*
X133657617Y-105207552D01*
X133680693Y-105190787D01*
X133693387Y-105181564D01*
X133703307Y-105175048D01*
X133734535Y-105156580D01*
X133734538Y-105156578D01*
X133741362Y-105152542D01*
X133755683Y-105138221D01*
X133770717Y-105125380D01*
X133780694Y-105118131D01*
X133787107Y-105113472D01*
X133792157Y-105107368D01*
X133792162Y-105107363D01*
X133815293Y-105079402D01*
X133823283Y-105070621D01*
X134382613Y-104511292D01*
X134444925Y-104477267D01*
X134515741Y-104482332D01*
G37*
%TD.AperFunction*%
%TA.AperFunction,Conductor*%
G36*
X124279527Y-96223502D02*
G01*
X124300501Y-96240405D01*
X124802231Y-96742135D01*
X124896960Y-96815614D01*
X124904229Y-96818760D01*
X124906597Y-96820160D01*
X124955050Y-96872053D01*
X124964436Y-96903772D01*
X124965534Y-96903514D01*
X124970711Y-96925588D01*
X124971583Y-96927971D01*
X124971667Y-96929666D01*
X124972447Y-96932990D01*
X124971840Y-96933132D01*
X124975298Y-97002604D01*
X124973535Y-97009472D01*
X124970775Y-97016550D01*
X124969783Y-97024083D01*
X124969783Y-97024084D01*
X124952058Y-97158721D01*
X124950919Y-97167370D01*
X124956689Y-97219630D01*
X124944284Y-97289533D01*
X124920545Y-97322551D01*
X124895749Y-97347347D01*
X124887463Y-97354887D01*
X124880982Y-97359000D01*
X124875555Y-97364779D01*
X124875554Y-97364780D01*
X124834356Y-97408652D01*
X124831601Y-97411494D01*
X124811865Y-97431230D01*
X124809385Y-97434427D01*
X124801682Y-97443447D01*
X124771414Y-97475679D01*
X124767595Y-97482625D01*
X124767593Y-97482628D01*
X124761652Y-97493434D01*
X124750801Y-97509953D01*
X124738386Y-97525959D01*
X124735241Y-97533228D01*
X124735238Y-97533232D01*
X124720826Y-97566537D01*
X124715609Y-97577187D01*
X124694305Y-97615940D01*
X124692334Y-97623615D01*
X124692334Y-97623616D01*
X124689267Y-97635562D01*
X124682863Y-97654266D01*
X124674819Y-97672855D01*
X124673580Y-97680678D01*
X124673577Y-97680688D01*
X124667901Y-97716524D01*
X124665495Y-97728144D01*
X124663081Y-97737548D01*
X124654500Y-97770970D01*
X124654500Y-97791224D01*
X124652949Y-97810934D01*
X124649780Y-97830943D01*
X124650526Y-97838834D01*
X124651555Y-97849720D01*
X124638052Y-97919421D01*
X124592418Y-97968721D01*
X124563652Y-97986522D01*
X124438695Y-98111697D01*
X124434855Y-98117927D01*
X124434854Y-98117928D01*
X124362311Y-98235615D01*
X124345885Y-98262262D01*
X124343581Y-98269209D01*
X124297799Y-98407239D01*
X124290203Y-98430139D01*
X124289503Y-98436975D01*
X124289502Y-98436978D01*
X124285334Y-98477662D01*
X124279500Y-98534600D01*
X124279500Y-99585400D01*
X124279837Y-99588646D01*
X124279837Y-99588650D01*
X124289618Y-99682914D01*
X124290474Y-99691166D01*
X124292655Y-99697702D01*
X124292655Y-99697704D01*
X124321653Y-99784622D01*
X124346450Y-99858946D01*
X124439522Y-100009348D01*
X124444704Y-100014521D01*
X124444708Y-100014526D01*
X124538452Y-100108106D01*
X124572532Y-100170388D01*
X124567529Y-100241208D01*
X124538608Y-100286297D01*
X124432261Y-100392829D01*
X124423249Y-100404240D01*
X124338184Y-100542243D01*
X124332037Y-100555424D01*
X124280862Y-100709710D01*
X124277995Y-100723086D01*
X124268328Y-100817438D01*
X124268000Y-100823855D01*
X124268000Y-101073885D01*
X124272475Y-101089124D01*
X124273865Y-101090329D01*
X124281548Y-101092000D01*
X125404000Y-101092000D01*
X125472121Y-101112002D01*
X125518614Y-101165658D01*
X125530000Y-101218000D01*
X125530000Y-101474000D01*
X125509998Y-101542121D01*
X125456342Y-101588614D01*
X125404000Y-101600000D01*
X124286116Y-101600000D01*
X124270877Y-101604475D01*
X124269672Y-101605865D01*
X124268001Y-101613548D01*
X124268001Y-101868095D01*
X124268338Y-101874614D01*
X124278257Y-101970206D01*
X124281149Y-101983600D01*
X124332588Y-102137784D01*
X124338761Y-102150962D01*
X124424063Y-102288807D01*
X124433099Y-102300208D01*
X124547829Y-102414739D01*
X124559240Y-102423751D01*
X124697243Y-102508816D01*
X124710424Y-102514963D01*
X124835188Y-102556346D01*
X124893548Y-102596777D01*
X124920784Y-102662341D01*
X124908250Y-102732223D01*
X124896346Y-102751505D01*
X124891212Y-102758356D01*
X124882676Y-102773946D01*
X124837522Y-102894394D01*
X124833895Y-102909649D01*
X124828369Y-102960514D01*
X124828000Y-102967328D01*
X124828000Y-103183885D01*
X124832475Y-103199124D01*
X124833865Y-103200329D01*
X124841548Y-103202000D01*
X125317885Y-103202000D01*
X125333124Y-103197525D01*
X125334329Y-103196135D01*
X125336000Y-103188452D01*
X125336000Y-102590000D01*
X125356002Y-102521879D01*
X125409658Y-102475386D01*
X125462000Y-102464000D01*
X125490000Y-102464000D01*
X125558121Y-102484002D01*
X125604614Y-102537658D01*
X125616000Y-102590000D01*
X125616000Y-103183885D01*
X125620475Y-103199124D01*
X125621865Y-103200329D01*
X125629548Y-103202000D01*
X125701500Y-103202000D01*
X125769621Y-103222002D01*
X125816114Y-103275658D01*
X125827500Y-103328000D01*
X125827500Y-103356000D01*
X125807498Y-103424121D01*
X125753842Y-103470614D01*
X125701500Y-103482000D01*
X125634115Y-103482000D01*
X125618876Y-103486475D01*
X125617671Y-103487865D01*
X125616000Y-103495548D01*
X125616000Y-104113087D01*
X125595998Y-104181208D01*
X125542342Y-104227701D01*
X125472068Y-104237805D01*
X125407488Y-104208311D01*
X125389174Y-104188652D01*
X125364642Y-104155919D01*
X125359261Y-104148739D01*
X125359328Y-104148689D01*
X125327608Y-104090599D01*
X125327608Y-104037035D01*
X125336000Y-103998455D01*
X125336000Y-103500115D01*
X125331525Y-103484876D01*
X125330135Y-103483671D01*
X125322452Y-103482000D01*
X124846116Y-103482000D01*
X124826937Y-103487632D01*
X124807671Y-103509865D01*
X124806000Y-103517548D01*
X124806000Y-103877500D01*
X124785998Y-103945621D01*
X124732342Y-103992114D01*
X124680000Y-104003500D01*
X124652000Y-104003500D01*
X124583879Y-103983498D01*
X124537386Y-103929842D01*
X124526000Y-103877500D01*
X124526000Y-103522116D01*
X124521525Y-103506877D01*
X124520135Y-103505672D01*
X124512452Y-103504001D01*
X124291331Y-103504001D01*
X124284510Y-103504371D01*
X124233648Y-103509895D01*
X124218393Y-103513522D01*
X124208189Y-103517347D01*
X124137382Y-103522530D01*
X124075013Y-103488609D01*
X124044436Y-103439241D01*
X124026412Y-103385216D01*
X124020239Y-103372038D01*
X123934937Y-103234193D01*
X123925901Y-103222792D01*
X123811171Y-103108261D01*
X123799760Y-103099249D01*
X123661757Y-103014184D01*
X123648576Y-103008037D01*
X123494290Y-102956862D01*
X123480914Y-102953995D01*
X123386562Y-102944328D01*
X123380145Y-102944000D01*
X123130115Y-102944000D01*
X123114876Y-102948475D01*
X123113671Y-102949865D01*
X123112000Y-102957548D01*
X123112000Y-104080000D01*
X123091998Y-104148121D01*
X123038342Y-104194614D01*
X122986000Y-104206000D01*
X122730000Y-104206000D01*
X122661879Y-104185998D01*
X122615386Y-104132342D01*
X122604000Y-104080000D01*
X122604000Y-102962116D01*
X122599525Y-102946877D01*
X122598135Y-102945672D01*
X122590452Y-102944001D01*
X122335905Y-102944001D01*
X122329386Y-102944338D01*
X122233794Y-102954257D01*
X122220400Y-102957149D01*
X122066216Y-103008588D01*
X122053042Y-103014759D01*
X121983804Y-103057606D01*
X121915352Y-103076444D01*
X121847582Y-103055283D01*
X121802011Y-103000843D01*
X121791500Y-102950462D01*
X121791500Y-98501746D01*
X121811502Y-98433625D01*
X121865158Y-98387132D01*
X121935432Y-98377028D01*
X121983614Y-98394485D01*
X122005240Y-98407815D01*
X122018424Y-98413963D01*
X122172710Y-98465138D01*
X122186086Y-98468005D01*
X122280438Y-98477672D01*
X122286854Y-98478000D01*
X122536885Y-98478000D01*
X122552124Y-98473525D01*
X122553329Y-98472135D01*
X122555000Y-98464452D01*
X122555000Y-98459884D01*
X123063000Y-98459884D01*
X123067475Y-98475123D01*
X123068865Y-98476328D01*
X123076548Y-98477999D01*
X123331095Y-98477999D01*
X123337614Y-98477662D01*
X123433206Y-98467743D01*
X123446600Y-98464851D01*
X123600784Y-98413412D01*
X123613962Y-98407239D01*
X123751807Y-98321937D01*
X123763208Y-98312901D01*
X123877739Y-98198171D01*
X123886751Y-98186760D01*
X123971816Y-98048757D01*
X123977963Y-98035576D01*
X124029138Y-97881290D01*
X124032005Y-97867914D01*
X124041672Y-97773562D01*
X124042000Y-97767146D01*
X124042000Y-97742115D01*
X124037525Y-97726876D01*
X124036135Y-97725671D01*
X124028452Y-97724000D01*
X123081115Y-97724000D01*
X123065876Y-97728475D01*
X123064671Y-97729865D01*
X123063000Y-97737548D01*
X123063000Y-98459884D01*
X122555000Y-98459884D01*
X122555000Y-97342000D01*
X122575002Y-97273879D01*
X122628658Y-97227386D01*
X122681000Y-97216000D01*
X124023884Y-97216000D01*
X124039123Y-97211525D01*
X124040328Y-97210135D01*
X124041999Y-97202452D01*
X124041999Y-97172905D01*
X124041662Y-97166386D01*
X124031743Y-97070794D01*
X124028851Y-97057400D01*
X123977412Y-96903216D01*
X123971239Y-96890038D01*
X123885937Y-96752193D01*
X123876901Y-96740792D01*
X123762172Y-96626262D01*
X123753238Y-96619206D01*
X123712177Y-96561288D01*
X123708947Y-96490365D01*
X123744574Y-96428954D01*
X123752407Y-96422154D01*
X123758348Y-96418478D01*
X123883305Y-96293303D01*
X123901749Y-96263382D01*
X123954522Y-96215890D01*
X124009008Y-96203500D01*
X124211406Y-96203500D01*
X124279527Y-96223502D01*
G37*
%TD.AperFunction*%
%TA.AperFunction,Conductor*%
G36*
X133155153Y-101207802D02*
G01*
X133190279Y-101220970D01*
X133190286Y-101220972D01*
X133197684Y-101223745D01*
X133259866Y-101230500D01*
X134456134Y-101230500D01*
X134518316Y-101223745D01*
X134525712Y-101220973D01*
X134525718Y-101220971D01*
X134559800Y-101208194D01*
X134617635Y-101200913D01*
X134656464Y-101205131D01*
X134656474Y-101205132D01*
X134659866Y-101205500D01*
X135254449Y-101205500D01*
X135322570Y-101225502D01*
X135369063Y-101279158D01*
X135379167Y-101349432D01*
X135349673Y-101414012D01*
X135289947Y-101452396D01*
X135280644Y-101454747D01*
X135099712Y-101493206D01*
X135093682Y-101495891D01*
X135093681Y-101495891D01*
X134931278Y-101568197D01*
X134931276Y-101568198D01*
X134925248Y-101570882D01*
X134919907Y-101574762D01*
X134919906Y-101574763D01*
X134907724Y-101583614D01*
X134770747Y-101683134D01*
X134766326Y-101688044D01*
X134766325Y-101688045D01*
X134679370Y-101784619D01*
X134642960Y-101825056D01*
X134618061Y-101868183D01*
X134552124Y-101982389D01*
X134547473Y-101990444D01*
X134488458Y-102172072D01*
X134487768Y-102178633D01*
X134487768Y-102178635D01*
X134474793Y-102302090D01*
X134468496Y-102362000D01*
X134486957Y-102537644D01*
X134474185Y-102607481D01*
X134439642Y-102648119D01*
X134439945Y-102648442D01*
X134437083Y-102651130D01*
X134435705Y-102652750D01*
X134427753Y-102658528D01*
X134406246Y-102684526D01*
X134399572Y-102692593D01*
X134391582Y-102701374D01*
X133973742Y-103119213D01*
X133965463Y-103126747D01*
X133958982Y-103130860D01*
X133924389Y-103167698D01*
X133912357Y-103180511D01*
X133909602Y-103183353D01*
X133889865Y-103203090D01*
X133887385Y-103206287D01*
X133879682Y-103215307D01*
X133849414Y-103247539D01*
X133845746Y-103254212D01*
X133833229Y-103268867D01*
X133124499Y-103977596D01*
X133062187Y-104011621D01*
X133035404Y-104014500D01*
X132947501Y-104014500D01*
X132879380Y-103994498D01*
X132832887Y-103940842D01*
X132821501Y-103888500D01*
X132821501Y-103302154D01*
X132822028Y-103290971D01*
X132823703Y-103283478D01*
X132822933Y-103258961D01*
X132821563Y-103215388D01*
X132821501Y-103211430D01*
X132821501Y-103183531D01*
X132820997Y-103179540D01*
X132820064Y-103167698D01*
X132818924Y-103131423D01*
X132818675Y-103123498D01*
X132816463Y-103115884D01*
X132816462Y-103115879D01*
X132813024Y-103104046D01*
X132809013Y-103084682D01*
X132807468Y-103072451D01*
X132806475Y-103064590D01*
X132803558Y-103057223D01*
X132803557Y-103057218D01*
X132790199Y-103023479D01*
X132786355Y-103012252D01*
X132776231Y-102977409D01*
X132774019Y-102969794D01*
X132764830Y-102954257D01*
X132763708Y-102952359D01*
X132755013Y-102934611D01*
X132747553Y-102915770D01*
X132721565Y-102880000D01*
X132715049Y-102870080D01*
X132696581Y-102838852D01*
X132696579Y-102838849D01*
X132692543Y-102832025D01*
X132678222Y-102817704D01*
X132665381Y-102802670D01*
X132658133Y-102792694D01*
X132653473Y-102786280D01*
X132619408Y-102758099D01*
X132610627Y-102750109D01*
X132172404Y-102311885D01*
X132138379Y-102249573D01*
X132135500Y-102222790D01*
X132135500Y-101331000D01*
X132155502Y-101262879D01*
X132209158Y-101216386D01*
X132261500Y-101205000D01*
X133052669Y-101204999D01*
X133059493Y-101204629D01*
X133097321Y-101200521D01*
X133155153Y-101207802D01*
G37*
%TD.AperFunction*%
%TA.AperFunction,Conductor*%
G36*
X129220411Y-96856502D02*
G01*
X129241385Y-96873405D01*
X129306885Y-96938905D01*
X129340911Y-97001217D01*
X129335846Y-97072032D01*
X129306885Y-97117095D01*
X129211361Y-97212619D01*
X129122528Y-97359301D01*
X129071247Y-97522938D01*
X129064500Y-97596365D01*
X129064501Y-98109634D01*
X129064764Y-98112492D01*
X129064764Y-98112501D01*
X129067448Y-98141715D01*
X129071247Y-98183062D01*
X129073246Y-98189440D01*
X129073246Y-98189441D01*
X129116392Y-98327118D01*
X129122528Y-98346699D01*
X129211361Y-98493381D01*
X129216737Y-98498757D01*
X129221419Y-98504728D01*
X129219526Y-98506212D01*
X129247940Y-98558246D01*
X129242875Y-98629061D01*
X129227416Y-98656525D01*
X129227695Y-98656697D01*
X129192814Y-98713285D01*
X129134885Y-98807262D01*
X129079203Y-98975139D01*
X129068500Y-99079600D01*
X129068500Y-99680400D01*
X129068837Y-99683646D01*
X129068837Y-99683650D01*
X129078726Y-99778953D01*
X129079474Y-99786166D01*
X129081655Y-99792702D01*
X129081655Y-99792704D01*
X129090975Y-99820640D01*
X129135450Y-99953946D01*
X129228522Y-100104348D01*
X129353697Y-100229305D01*
X129358235Y-100232102D01*
X129398824Y-100289353D01*
X129402054Y-100360276D01*
X129366428Y-100421687D01*
X129357932Y-100429062D01*
X129347793Y-100437098D01*
X129233261Y-100551829D01*
X129224249Y-100563240D01*
X129139184Y-100701243D01*
X129133037Y-100714424D01*
X129081862Y-100868710D01*
X129078995Y-100882086D01*
X129069328Y-100976438D01*
X129069000Y-100982855D01*
X129069000Y-101007885D01*
X129073475Y-101023124D01*
X129074865Y-101024329D01*
X129082548Y-101026000D01*
X130430000Y-101026000D01*
X130498121Y-101046002D01*
X130544614Y-101099658D01*
X130556000Y-101152000D01*
X130556000Y-101408000D01*
X130535998Y-101476121D01*
X130482342Y-101522614D01*
X130430000Y-101534000D01*
X129087116Y-101534000D01*
X129071877Y-101538475D01*
X129070672Y-101539865D01*
X129069001Y-101547548D01*
X129069001Y-101577095D01*
X129069338Y-101583614D01*
X129079257Y-101679206D01*
X129082149Y-101692600D01*
X129133588Y-101846784D01*
X129139761Y-101859962D01*
X129225063Y-101997807D01*
X129234099Y-102009208D01*
X129340179Y-102115104D01*
X129374258Y-102177387D01*
X129369255Y-102248207D01*
X129332194Y-102298936D01*
X129332619Y-102299361D01*
X129211361Y-102420619D01*
X129122528Y-102567301D01*
X129120257Y-102574548D01*
X129120256Y-102574550D01*
X129113291Y-102596777D01*
X129071247Y-102730938D01*
X129064500Y-102804365D01*
X129064501Y-103317634D01*
X129066121Y-103335268D01*
X129068385Y-103359916D01*
X129054698Y-103429581D01*
X129005520Y-103480787D01*
X128936465Y-103497277D01*
X128916715Y-103494688D01*
X128879951Y-103486873D01*
X128879942Y-103486872D01*
X128873487Y-103485500D01*
X128682513Y-103485500D01*
X128676061Y-103486872D01*
X128676056Y-103486872D01*
X128551293Y-103513392D01*
X128536953Y-103515586D01*
X128516197Y-103517548D01*
X128512039Y-103517941D01*
X128500182Y-103518500D01*
X128271152Y-103518500D01*
X128241798Y-103513182D01*
X128241400Y-103514856D01*
X128233715Y-103513029D01*
X128226316Y-103510255D01*
X128164134Y-103503500D01*
X127688014Y-103503500D01*
X127627196Y-103485642D01*
X127610452Y-103482000D01*
X127250500Y-103482000D01*
X127182379Y-103461998D01*
X127135886Y-103408342D01*
X127124500Y-103356000D01*
X127124500Y-103328000D01*
X127144502Y-103259879D01*
X127198158Y-103213386D01*
X127250500Y-103202000D01*
X127605884Y-103202000D01*
X127621123Y-103197525D01*
X127622328Y-103196135D01*
X127623999Y-103188452D01*
X127623999Y-102967331D01*
X127623629Y-102960510D01*
X127618105Y-102909648D01*
X127614479Y-102894396D01*
X127569324Y-102773946D01*
X127560787Y-102758353D01*
X127556025Y-102751999D01*
X127531179Y-102685492D01*
X127546233Y-102616110D01*
X127596408Y-102565881D01*
X127616977Y-102556912D01*
X127742998Y-102514868D01*
X127749946Y-102512550D01*
X127900348Y-102419478D01*
X128025305Y-102294303D01*
X128053719Y-102248207D01*
X128114275Y-102149968D01*
X128114276Y-102149966D01*
X128118115Y-102143738D01*
X128157186Y-102025943D01*
X128171632Y-101982389D01*
X128171632Y-101982387D01*
X128173797Y-101975861D01*
X128174811Y-101965970D01*
X128182881Y-101887197D01*
X128184500Y-101871400D01*
X128184500Y-100820600D01*
X128179264Y-100770134D01*
X128174238Y-100721692D01*
X128174237Y-100721688D01*
X128173526Y-100714834D01*
X128145612Y-100631164D01*
X128119868Y-100554002D01*
X128117550Y-100547054D01*
X128024478Y-100396652D01*
X128019296Y-100391479D01*
X128019292Y-100391474D01*
X127925548Y-100297894D01*
X127891468Y-100235612D01*
X127896471Y-100164792D01*
X127925392Y-100119703D01*
X128031739Y-100013171D01*
X128040751Y-100001760D01*
X128125816Y-99863757D01*
X128131963Y-99850576D01*
X128183138Y-99696290D01*
X128186005Y-99682914D01*
X128195672Y-99588562D01*
X128196000Y-99582146D01*
X128196000Y-99332115D01*
X128191525Y-99316876D01*
X128190135Y-99315671D01*
X128182452Y-99314000D01*
X127060000Y-99314000D01*
X126991879Y-99293998D01*
X126945386Y-99240342D01*
X126934000Y-99188000D01*
X126934000Y-98932000D01*
X126954002Y-98863879D01*
X127007658Y-98817386D01*
X127060000Y-98806000D01*
X128177884Y-98806000D01*
X128193123Y-98801525D01*
X128194328Y-98800135D01*
X128195999Y-98792452D01*
X128195999Y-98537905D01*
X128195662Y-98531386D01*
X128185743Y-98435794D01*
X128182851Y-98422400D01*
X128131412Y-98268216D01*
X128125239Y-98255038D01*
X128039937Y-98117193D01*
X128030901Y-98105792D01*
X127916171Y-97991261D01*
X127904760Y-97982249D01*
X127766757Y-97897184D01*
X127753576Y-97891037D01*
X127599290Y-97839862D01*
X127585914Y-97836995D01*
X127491562Y-97827328D01*
X127485145Y-97827000D01*
X127354039Y-97827000D01*
X127285918Y-97806998D01*
X127239425Y-97753342D01*
X127229321Y-97683068D01*
X127258815Y-97618488D01*
X127289900Y-97592546D01*
X127384541Y-97536576D01*
X127391362Y-97532542D01*
X128050499Y-96873405D01*
X128112811Y-96839379D01*
X128139594Y-96836500D01*
X129152290Y-96836500D01*
X129220411Y-96856502D01*
G37*
%TD.AperFunction*%
M02*
