M48
; DRILL file {KiCad (6.0.2-0)} date Thursday, June 16, 2022 at 02:33:18 PM
; FORMAT={-:-/ absolute / metric / decimal}
; #@! TF.CreationDate,2022-06-16T14:33:18-07:00
; #@! TF.GenerationSoftware,Kicad,Pcbnew,(6.0.2-0)
; #@! TF.FileFunction,Plated,1,4,PTH
FMAT,2
METRIC
; #@! TA.AperFunction,Plated,PTH,ViaDrill
T1C0.400
; #@! TA.AperFunction,Plated,PTH,ComponentDrill
T2C0.400
; #@! TA.AperFunction,Plated,PTH,ComponentDrill
T3C0.600
; #@! TA.AperFunction,Plated,PTH,ComponentDrill
T4C1.200
; #@! TA.AperFunction,Plated,PTH,ComponentDrill
T5C2.200
%
G90
G05
T1
X111.76Y-84.582
X111.76Y-86.868
X113.792Y-110.363
X116.078Y-88.138
X117.602Y-81.026
X119.888Y-81.026
X120.53Y-84.769
X120.53Y-86.547
X120.65Y-90.932
X120.65Y-117.094
X120.904Y-127.0
X121.2Y-84.027
X121.666Y-117.856
X121.666Y-125.984
X121.666Y-128.016
X121.683Y-90.975
X122.174Y-78.486
X122.428Y-127.0
X122.88Y-77.724
X123.063Y-94.488
X123.19Y-71.755
X123.19Y-83.312
X123.19Y-98.806
X123.19Y-102.87
X123.19Y-125.984
X123.19Y-128.016
X123.825Y-92.964
X123.952Y-127.0
X124.206Y-102.616
X124.714Y-125.984
X125.476Y-127.0
X126.238Y-79.756
X126.238Y-125.984
X126.242Y-87.118
X126.365Y-94.742
X127.0Y-127.0
X127.762Y-87.122
X127.762Y-125.984
X128.143Y-92.964
X128.27Y-71.755
X128.524Y-78.232
X128.524Y-99.06
X128.524Y-102.87
X128.524Y-127.0
X128.651Y-100.33
X128.778Y-104.394
X128.778Y-106.68
X129.286Y-125.984
X129.286Y-128.016
X130.048Y-127.0
X130.302Y-79.756
X130.81Y-125.984
X130.81Y-128.016
X131.318Y-103.378
X131.318Y-104.648
X131.318Y-106.172
X131.318Y-107.442
X131.445Y-93.345
X131.445Y-97.536
X131.572Y-76.2
X131.572Y-127.0
X133.096Y-103.798
X133.604Y-102.87
X134.366Y-83.058
X134.366Y-115.062
X135.128Y-103.798
X135.382Y-102.362
X135.382Y-107.188
X135.382Y-108.712
X135.382Y-110.236
X135.382Y-111.76
X135.382Y-113.284
X136.652Y-103.798
X137.16Y-119.634
X137.414Y-115.316
X137.922Y-99.06
X137.922Y-100.838
X138.684Y-121.412
X138.684Y-123.444
X138.938Y-103.886
X138.938Y-108.204
X139.7Y-79.502
X139.7Y-83.566
X139.7Y-87.63
X139.954Y-75.438
X139.954Y-103.886
X139.954Y-108.204
T2
X122.755Y-75.065
X122.755Y-76.415
X123.605Y-75.065
X123.605Y-76.415
X124.455Y-75.065
X124.455Y-76.415
X125.305Y-75.065
X125.305Y-76.415
X126.155Y-75.065
X126.155Y-76.415
X127.005Y-75.065
X127.005Y-76.415
X127.855Y-75.065
X127.855Y-76.415
X128.705Y-75.065
X128.705Y-76.415
T4
X113.066Y-90.424
X113.066Y-96.924
X113.066Y-100.128
X113.066Y-106.628
X117.566Y-90.424
X117.566Y-96.924
X117.566Y-100.128
X117.566Y-106.628
T5
X113.6Y-72.6
X113.6Y-127.4
X138.4Y-72.6
X138.4Y-127.4
T3
X121.405Y-72.455G85X121.405Y-71.655
G05
X121.405Y-76.185G85X121.405Y-74.685
G05
X130.055Y-72.455G85X130.055Y-71.655
G05
X130.055Y-76.185G85X130.055Y-74.685
G05
T0
M30
