%TF.GenerationSoftware,KiCad,Pcbnew,(6.0.2-0)*%
%TF.CreationDate,2022-06-16T14:33:15-07:00*%
%TF.ProjectId,delta,64656c74-612e-46b6-9963-61645f706362,v1*%
%TF.SameCoordinates,Original*%
%TF.FileFunction,Legend,Top*%
%TF.FilePolarity,Positive*%
%FSLAX46Y46*%
G04 Gerber Fmt 4.6, Leading zero omitted, Abs format (unit mm)*
G04 Created by KiCad (PCBNEW (6.0.2-0)) date 2022-06-16 14:33:15*
%MOMM*%
%LPD*%
G01*
G04 APERTURE LIST*
G04 Aperture macros list*
%AMRoundRect*
0 Rectangle with rounded corners*
0 $1 Rounding radius*
0 $2 $3 $4 $5 $6 $7 $8 $9 X,Y pos of 4 corners*
0 Add a 4 corners polygon primitive as box body*
4,1,4,$2,$3,$4,$5,$6,$7,$8,$9,$2,$3,0*
0 Add four circle primitives for the rounded corners*
1,1,$1+$1,$2,$3*
1,1,$1+$1,$4,$5*
1,1,$1+$1,$6,$7*
1,1,$1+$1,$8,$9*
0 Add four rect primitives between the rounded corners*
20,1,$1+$1,$2,$3,$4,$5,0*
20,1,$1+$1,$4,$5,$6,$7,0*
20,1,$1+$1,$6,$7,$8,$9,0*
20,1,$1+$1,$8,$9,$2,$3,0*%
G04 Aperture macros list end*
%ADD10C,0.100000*%
%ADD11C,0.150000*%
%ADD12C,0.120000*%
%ADD13C,0.127000*%
%ADD14C,0.200000*%
%ADD15C,0.300000*%
%ADD16RoundRect,0.200000X-0.200000X-0.275000X0.200000X-0.275000X0.200000X0.275000X-0.200000X0.275000X0*%
%ADD17RoundRect,0.225000X-0.225000X-0.250000X0.225000X-0.250000X0.225000X0.250000X-0.225000X0.250000X0*%
%ADD18RoundRect,0.225000X0.225000X0.250000X-0.225000X0.250000X-0.225000X-0.250000X0.225000X-0.250000X0*%
%ADD19C,2.200000*%
%ADD20R,2.200000X2.200000*%
%ADD21RoundRect,0.200000X-0.275000X0.200000X-0.275000X-0.200000X0.275000X-0.200000X0.275000X0.200000X0*%
%ADD22RoundRect,0.200000X0.275000X-0.200000X0.275000X0.200000X-0.275000X0.200000X-0.275000X-0.200000X0*%
%ADD23R,0.500000X0.500000*%
%ADD24R,0.660000X0.280000*%
%ADD25R,0.280000X0.660000*%
%ADD26RoundRect,0.250000X0.475000X-0.250000X0.475000X0.250000X-0.475000X0.250000X-0.475000X-0.250000X0*%
%ADD27RoundRect,0.250000X0.262500X0.450000X-0.262500X0.450000X-0.262500X-0.450000X0.262500X-0.450000X0*%
%ADD28RoundRect,0.250000X0.250000X0.475000X-0.250000X0.475000X-0.250000X-0.475000X0.250000X-0.475000X0*%
%ADD29C,4.400000*%
%ADD30RoundRect,0.243750X-0.456250X0.243750X-0.456250X-0.243750X0.456250X-0.243750X0.456250X0.243750X0*%
%ADD31RoundRect,0.008200X0.196800X-0.976800X0.196800X0.976800X-0.196800X0.976800X-0.196800X-0.976800X0*%
%ADD32RoundRect,0.008200X-0.196800X0.976800X-0.196800X-0.976800X0.196800X-0.976800X0.196800X0.976800X0*%
%ADD33RoundRect,0.250000X-0.450000X0.262500X-0.450000X-0.262500X0.450000X-0.262500X0.450000X0.262500X0*%
%ADD34C,1.000000*%
%ADD35RoundRect,0.250000X-0.475000X0.250000X-0.475000X-0.250000X0.475000X-0.250000X0.475000X0.250000X0*%
%ADD36RoundRect,0.243750X0.456250X-0.243750X0.456250X0.243750X-0.456250X0.243750X-0.456250X-0.243750X0*%
%ADD37C,0.700000*%
%ADD38O,0.900000X1.700000*%
%ADD39O,0.900000X2.400000*%
%ADD40RoundRect,0.250000X0.450000X-0.262500X0.450000X0.262500X-0.450000X0.262500X-0.450000X-0.262500X0*%
%ADD41C,0.240000*%
%ADD42RoundRect,0.250000X-0.250000X-0.475000X0.250000X-0.475000X0.250000X0.475000X-0.250000X0.475000X0*%
%ADD43R,0.812800X0.406400*%
%ADD44R,0.406400X0.812800*%
%ADD45R,1.193800X1.193800*%
%ADD46R,0.812800X0.812800*%
%ADD47R,1.160000X0.490000*%
%ADD48R,1.180000X0.490000*%
%ADD49R,0.700000X0.250000*%
%ADD50R,1.100000X1.800000*%
G04 APERTURE END LIST*
D10*
X119669714Y-93047428D02*
X119645904Y-93118857D01*
X119622095Y-93142666D01*
X119574476Y-93166476D01*
X119503047Y-93166476D01*
X119455428Y-93142666D01*
X119431619Y-93118857D01*
X119407809Y-93071238D01*
X119407809Y-92880761D01*
X119907809Y-92880761D01*
X119907809Y-93047428D01*
X119884000Y-93095047D01*
X119860190Y-93118857D01*
X119812571Y-93142666D01*
X119764952Y-93142666D01*
X119717333Y-93118857D01*
X119693523Y-93095047D01*
X119669714Y-93047428D01*
X119669714Y-92880761D01*
X119907809Y-93476000D02*
X119907809Y-93571238D01*
X119884000Y-93618857D01*
X119836380Y-93666476D01*
X119741142Y-93690285D01*
X119574476Y-93690285D01*
X119479238Y-93666476D01*
X119431619Y-93618857D01*
X119407809Y-93571238D01*
X119407809Y-93476000D01*
X119431619Y-93428380D01*
X119479238Y-93380761D01*
X119574476Y-93356952D01*
X119741142Y-93356952D01*
X119836380Y-93380761D01*
X119884000Y-93428380D01*
X119907809Y-93476000D01*
X119907809Y-93999809D02*
X119907809Y-94095047D01*
X119884000Y-94142666D01*
X119836380Y-94190285D01*
X119741142Y-94214095D01*
X119574476Y-94214095D01*
X119479238Y-94190285D01*
X119431619Y-94142666D01*
X119407809Y-94095047D01*
X119407809Y-93999809D01*
X119431619Y-93952190D01*
X119479238Y-93904571D01*
X119574476Y-93880761D01*
X119741142Y-93880761D01*
X119836380Y-93904571D01*
X119884000Y-93952190D01*
X119907809Y-93999809D01*
X119907809Y-94356952D02*
X119907809Y-94642666D01*
X119407809Y-94499809D02*
X119907809Y-94499809D01*
X119407809Y-102651809D02*
X119645904Y-102485142D01*
X119407809Y-102366095D02*
X119907809Y-102366095D01*
X119907809Y-102556571D01*
X119884000Y-102604190D01*
X119860190Y-102628000D01*
X119812571Y-102651809D01*
X119741142Y-102651809D01*
X119693523Y-102628000D01*
X119669714Y-102604190D01*
X119645904Y-102556571D01*
X119645904Y-102366095D01*
X119669714Y-102866095D02*
X119669714Y-103032761D01*
X119407809Y-103104190D02*
X119407809Y-102866095D01*
X119907809Y-102866095D01*
X119907809Y-103104190D01*
X119431619Y-103294666D02*
X119407809Y-103366095D01*
X119407809Y-103485142D01*
X119431619Y-103532761D01*
X119455428Y-103556571D01*
X119503047Y-103580380D01*
X119550666Y-103580380D01*
X119598285Y-103556571D01*
X119622095Y-103532761D01*
X119645904Y-103485142D01*
X119669714Y-103389904D01*
X119693523Y-103342285D01*
X119717333Y-103318476D01*
X119764952Y-103294666D01*
X119812571Y-103294666D01*
X119860190Y-103318476D01*
X119884000Y-103342285D01*
X119907809Y-103389904D01*
X119907809Y-103508952D01*
X119884000Y-103580380D01*
X119669714Y-103794666D02*
X119669714Y-103961333D01*
X119407809Y-104032761D02*
X119407809Y-103794666D01*
X119907809Y-103794666D01*
X119907809Y-104032761D01*
X119907809Y-104175619D02*
X119907809Y-104461333D01*
X119407809Y-104318476D02*
X119907809Y-104318476D01*
D11*
X127762000Y-108267500D02*
X127889000Y-108140500D01*
X127762000Y-107569000D02*
X127762000Y-108267500D01*
X127762000Y-108267500D02*
X127635000Y-108140500D01*
X127889000Y-107569000D02*
G75*
G03*
X127889000Y-107569000I-127000J0D01*
G01*
D10*
X128273952Y-108358809D02*
X128012047Y-108692142D01*
X128273952Y-108692142D02*
X128012047Y-108358809D01*
D11*
X128460500Y-107569000D02*
X128333500Y-107442000D01*
X127762000Y-107569000D02*
X128460500Y-107569000D01*
X128460500Y-107569000D02*
X128333500Y-107696000D01*
D10*
X128658952Y-107715857D02*
X128778000Y-108049190D01*
X128897047Y-107715857D02*
X128778000Y-108049190D01*
X128730380Y-108168238D01*
X128706571Y-108192047D01*
X128658952Y-108215857D01*
X127384952Y-107422142D02*
X127123047Y-107422142D01*
X127384952Y-107088809D01*
X127123047Y-107088809D01*
D11*
X127762000Y-96647000D02*
G75*
G03*
X127762000Y-96647000I-127000J0D01*
G01*
D10*
X128146952Y-97436809D02*
X127885047Y-97770142D01*
X128146952Y-97770142D02*
X127885047Y-97436809D01*
D11*
X128333500Y-96647000D02*
X128206500Y-96774000D01*
X128333500Y-96647000D02*
X128206500Y-96520000D01*
X127635000Y-96647000D02*
X128333500Y-96647000D01*
D10*
X128531952Y-96793857D02*
X128651000Y-97127190D01*
X128770047Y-96793857D02*
X128651000Y-97127190D01*
X128603380Y-97246238D01*
X128579571Y-97270047D01*
X128531952Y-97293857D01*
D11*
X127635000Y-97345500D02*
X127508000Y-97218500D01*
X127635000Y-96647000D02*
X127635000Y-97345500D01*
X127635000Y-97345500D02*
X127762000Y-97218500D01*
D10*
X127257952Y-96500142D02*
X126996047Y-96500142D01*
X127257952Y-96166809D01*
X126996047Y-96166809D01*
X139426190Y-82248285D02*
X139830952Y-82248285D01*
X139878571Y-82224476D01*
X139902380Y-82200666D01*
X139926190Y-82153047D01*
X139926190Y-82057809D01*
X139902380Y-82010190D01*
X139878571Y-81986380D01*
X139830952Y-81962571D01*
X139426190Y-81962571D01*
X139902380Y-81748285D02*
X139926190Y-81700666D01*
X139926190Y-81605428D01*
X139902380Y-81557809D01*
X139854761Y-81534000D01*
X139830952Y-81534000D01*
X139783333Y-81557809D01*
X139759523Y-81605428D01*
X139759523Y-81676857D01*
X139735714Y-81724476D01*
X139688095Y-81748285D01*
X139664285Y-81748285D01*
X139616666Y-81724476D01*
X139592857Y-81676857D01*
X139592857Y-81605428D01*
X139616666Y-81557809D01*
X139902380Y-81129238D02*
X139926190Y-81176857D01*
X139926190Y-81272095D01*
X139902380Y-81319714D01*
X139854761Y-81343523D01*
X139664285Y-81343523D01*
X139616666Y-81319714D01*
X139592857Y-81272095D01*
X139592857Y-81176857D01*
X139616666Y-81129238D01*
X139664285Y-81105428D01*
X139711904Y-81105428D01*
X139759523Y-81343523D01*
X139926190Y-80891142D02*
X139592857Y-80891142D01*
X139688095Y-80891142D02*
X139640476Y-80867333D01*
X139616666Y-80843523D01*
X139592857Y-80795904D01*
X139592857Y-80748285D01*
X124428380Y-107779333D02*
X124666476Y-107779333D01*
X124380761Y-107922190D02*
X124547428Y-107422190D01*
X124714095Y-107922190D01*
X125166476Y-107874571D02*
X125142666Y-107898380D01*
X125071238Y-107922190D01*
X125023619Y-107922190D01*
X124952190Y-107898380D01*
X124904571Y-107850761D01*
X124880761Y-107803142D01*
X124856952Y-107707904D01*
X124856952Y-107636476D01*
X124880761Y-107541238D01*
X124904571Y-107493619D01*
X124952190Y-107446000D01*
X125023619Y-107422190D01*
X125071238Y-107422190D01*
X125142666Y-107446000D01*
X125166476Y-107469809D01*
X125666476Y-107874571D02*
X125642666Y-107898380D01*
X125571238Y-107922190D01*
X125523619Y-107922190D01*
X125452190Y-107898380D01*
X125404571Y-107850761D01*
X125380761Y-107803142D01*
X125356952Y-107707904D01*
X125356952Y-107636476D01*
X125380761Y-107541238D01*
X125404571Y-107493619D01*
X125452190Y-107446000D01*
X125523619Y-107422190D01*
X125571238Y-107422190D01*
X125642666Y-107446000D01*
X125666476Y-107469809D01*
X125880761Y-107660285D02*
X126047428Y-107660285D01*
X126118857Y-107922190D02*
X125880761Y-107922190D01*
X125880761Y-107422190D01*
X126118857Y-107422190D01*
X126571238Y-107922190D02*
X126333142Y-107922190D01*
X126333142Y-107422190D01*
X133080238Y-101580190D02*
X133365952Y-101580190D01*
X133223095Y-102080190D02*
X133223095Y-101580190D01*
X133532619Y-101818285D02*
X133699285Y-101818285D01*
X133770714Y-102080190D02*
X133532619Y-102080190D01*
X133532619Y-101580190D01*
X133770714Y-101580190D01*
X133985000Y-102080190D02*
X133985000Y-101580190D01*
X134151666Y-101937333D01*
X134318333Y-101580190D01*
X134318333Y-102080190D01*
X134556428Y-102080190D02*
X134556428Y-101580190D01*
X134746904Y-101580190D01*
X134794523Y-101604000D01*
X134818333Y-101627809D01*
X134842142Y-101675428D01*
X134842142Y-101746857D01*
X134818333Y-101794476D01*
X134794523Y-101818285D01*
X134746904Y-101842095D01*
X134556428Y-101842095D01*
X129036047Y-77704190D02*
X129036047Y-78108952D01*
X129059857Y-78156571D01*
X129083666Y-78180380D01*
X129131285Y-78204190D01*
X129226523Y-78204190D01*
X129274142Y-78180380D01*
X129297952Y-78156571D01*
X129321761Y-78108952D01*
X129321761Y-77704190D01*
X129536047Y-78180380D02*
X129607476Y-78204190D01*
X129726523Y-78204190D01*
X129774142Y-78180380D01*
X129797952Y-78156571D01*
X129821761Y-78108952D01*
X129821761Y-78061333D01*
X129797952Y-78013714D01*
X129774142Y-77989904D01*
X129726523Y-77966095D01*
X129631285Y-77942285D01*
X129583666Y-77918476D01*
X129559857Y-77894666D01*
X129536047Y-77847047D01*
X129536047Y-77799428D01*
X129559857Y-77751809D01*
X129583666Y-77728000D01*
X129631285Y-77704190D01*
X129750333Y-77704190D01*
X129821761Y-77728000D01*
X130202714Y-77942285D02*
X130274142Y-77966095D01*
X130297952Y-77989904D01*
X130321761Y-78037523D01*
X130321761Y-78108952D01*
X130297952Y-78156571D01*
X130274142Y-78180380D01*
X130226523Y-78204190D01*
X130036047Y-78204190D01*
X130036047Y-77704190D01*
X130202714Y-77704190D01*
X130250333Y-77728000D01*
X130274142Y-77751809D01*
X130297952Y-77799428D01*
X130297952Y-77847047D01*
X130274142Y-77894666D01*
X130250333Y-77918476D01*
X130202714Y-77942285D01*
X130036047Y-77942285D01*
X132024571Y-108422285D02*
X132191238Y-108422285D01*
X132262666Y-108684190D02*
X132024571Y-108684190D01*
X132024571Y-108184190D01*
X132262666Y-108184190D01*
X132453142Y-108660380D02*
X132524571Y-108684190D01*
X132643619Y-108684190D01*
X132691238Y-108660380D01*
X132715047Y-108636571D01*
X132738857Y-108588952D01*
X132738857Y-108541333D01*
X132715047Y-108493714D01*
X132691238Y-108469904D01*
X132643619Y-108446095D01*
X132548380Y-108422285D01*
X132500761Y-108398476D01*
X132476952Y-108374666D01*
X132453142Y-108327047D01*
X132453142Y-108279428D01*
X132476952Y-108231809D01*
X132500761Y-108208000D01*
X132548380Y-108184190D01*
X132667428Y-108184190D01*
X132738857Y-108208000D01*
X132953142Y-108684190D02*
X132953142Y-108184190D01*
X133143619Y-108184190D01*
X133191238Y-108208000D01*
X133215047Y-108231809D01*
X133238857Y-108279428D01*
X133238857Y-108350857D01*
X133215047Y-108398476D01*
X133191238Y-108422285D01*
X133143619Y-108446095D01*
X132953142Y-108446095D01*
X133405523Y-108184190D02*
X133715047Y-108184190D01*
X133548380Y-108374666D01*
X133619809Y-108374666D01*
X133667428Y-108398476D01*
X133691238Y-108422285D01*
X133715047Y-108469904D01*
X133715047Y-108588952D01*
X133691238Y-108636571D01*
X133667428Y-108660380D01*
X133619809Y-108684190D01*
X133476952Y-108684190D01*
X133429333Y-108660380D01*
X133405523Y-108636571D01*
X133905523Y-108231809D02*
X133929333Y-108208000D01*
X133976952Y-108184190D01*
X134096000Y-108184190D01*
X134143619Y-108208000D01*
X134167428Y-108231809D01*
X134191238Y-108279428D01*
X134191238Y-108327047D01*
X134167428Y-108398476D01*
X133881714Y-108684190D01*
X134191238Y-108684190D01*
X137640190Y-77374666D02*
X137140190Y-77374666D01*
X137140190Y-77184190D01*
X137164000Y-77136571D01*
X137187809Y-77112761D01*
X137235428Y-77088952D01*
X137306857Y-77088952D01*
X137354476Y-77112761D01*
X137378285Y-77136571D01*
X137402095Y-77184190D01*
X137402095Y-77374666D01*
X137140190Y-76922285D02*
X137640190Y-76803238D01*
X137283047Y-76708000D01*
X137640190Y-76612761D01*
X137140190Y-76493714D01*
X137640190Y-76017523D02*
X137402095Y-76184190D01*
X137640190Y-76303238D02*
X137140190Y-76303238D01*
X137140190Y-76112761D01*
X137164000Y-76065142D01*
X137187809Y-76041333D01*
X137235428Y-76017523D01*
X137306857Y-76017523D01*
X137354476Y-76041333D01*
X137378285Y-76065142D01*
X137402095Y-76112761D01*
X137402095Y-76303238D01*
X124650666Y-95682571D02*
X124626857Y-95706380D01*
X124555428Y-95730190D01*
X124507809Y-95730190D01*
X124436380Y-95706380D01*
X124388761Y-95658761D01*
X124364952Y-95611142D01*
X124341142Y-95515904D01*
X124341142Y-95444476D01*
X124364952Y-95349238D01*
X124388761Y-95301619D01*
X124436380Y-95254000D01*
X124507809Y-95230190D01*
X124555428Y-95230190D01*
X124626857Y-95254000D01*
X124650666Y-95277809D01*
X124960190Y-95230190D02*
X125055428Y-95230190D01*
X125103047Y-95254000D01*
X125150666Y-95301619D01*
X125174476Y-95396857D01*
X125174476Y-95563523D01*
X125150666Y-95658761D01*
X125103047Y-95706380D01*
X125055428Y-95730190D01*
X124960190Y-95730190D01*
X124912571Y-95706380D01*
X124864952Y-95658761D01*
X124841142Y-95563523D01*
X124841142Y-95396857D01*
X124864952Y-95301619D01*
X124912571Y-95254000D01*
X124960190Y-95230190D01*
X125388761Y-95730190D02*
X125388761Y-95230190D01*
X125555428Y-95587333D01*
X125722095Y-95230190D01*
X125722095Y-95730190D01*
X125960190Y-95730190D02*
X125960190Y-95230190D01*
X126150666Y-95230190D01*
X126198285Y-95254000D01*
X126222095Y-95277809D01*
X126245904Y-95325428D01*
X126245904Y-95396857D01*
X126222095Y-95444476D01*
X126198285Y-95468285D01*
X126150666Y-95492095D01*
X125960190Y-95492095D01*
X126436380Y-95587333D02*
X126674476Y-95587333D01*
X126388761Y-95730190D02*
X126555428Y-95230190D01*
X126722095Y-95730190D01*
X126864952Y-95706380D02*
X126936380Y-95730190D01*
X127055428Y-95730190D01*
X127103047Y-95706380D01*
X127126857Y-95682571D01*
X127150666Y-95634952D01*
X127150666Y-95587333D01*
X127126857Y-95539714D01*
X127103047Y-95515904D01*
X127055428Y-95492095D01*
X126960190Y-95468285D01*
X126912571Y-95444476D01*
X126888761Y-95420666D01*
X126864952Y-95373047D01*
X126864952Y-95325428D01*
X126888761Y-95277809D01*
X126912571Y-95254000D01*
X126960190Y-95230190D01*
X127079238Y-95230190D01*
X127150666Y-95254000D01*
X127341142Y-95706380D02*
X127412571Y-95730190D01*
X127531619Y-95730190D01*
X127579238Y-95706380D01*
X127603047Y-95682571D01*
X127626857Y-95634952D01*
X127626857Y-95587333D01*
X127603047Y-95539714D01*
X127579238Y-95515904D01*
X127531619Y-95492095D01*
X127436380Y-95468285D01*
X127388761Y-95444476D01*
X127364952Y-95420666D01*
X127341142Y-95373047D01*
X127341142Y-95325428D01*
X127364952Y-95277809D01*
X127388761Y-95254000D01*
X127436380Y-95230190D01*
X127555428Y-95230190D01*
X127626857Y-95254000D01*
X139426190Y-90085738D02*
X139426190Y-89800023D01*
X139926190Y-89942880D02*
X139426190Y-89942880D01*
X139926190Y-89680976D02*
X139592857Y-89419071D01*
X139592857Y-89680976D02*
X139926190Y-89419071D01*
X139926190Y-85597119D02*
X139688095Y-85763785D01*
X139926190Y-85882833D02*
X139426190Y-85882833D01*
X139426190Y-85692357D01*
X139450000Y-85644738D01*
X139473809Y-85620928D01*
X139521428Y-85597119D01*
X139592857Y-85597119D01*
X139640476Y-85620928D01*
X139664285Y-85644738D01*
X139688095Y-85692357D01*
X139688095Y-85882833D01*
X139926190Y-85430452D02*
X139592857Y-85168547D01*
X139592857Y-85430452D02*
X139926190Y-85168547D01*
D12*
X112792742Y-87615500D02*
X113267258Y-87615500D01*
X112792742Y-88660500D02*
X113267258Y-88660500D01*
X115713742Y-110504500D02*
X116188258Y-110504500D01*
X115713742Y-109459500D02*
X116188258Y-109459500D01*
X136638420Y-123954000D02*
X136919580Y-123954000D01*
X136638420Y-122934000D02*
X136919580Y-122934000D01*
X136919580Y-120902000D02*
X136638420Y-120902000D01*
X136919580Y-121922000D02*
X136638420Y-121922000D01*
X115797420Y-112397000D02*
X116078580Y-112397000D01*
X115797420Y-111377000D02*
X116078580Y-111377000D01*
D10*
X112024600Y-95724000D02*
X112024600Y-91056600D01*
X114259800Y-96720800D02*
X116368000Y-96720800D01*
X114270800Y-90614800D02*
X116366000Y-90614800D01*
X118628600Y-91031200D02*
X118618800Y-96324000D01*
X114266400Y-96720800D02*
X114266400Y-96970800D01*
X114266400Y-106424800D02*
X114266400Y-106674800D01*
X118628600Y-100735200D02*
X118618800Y-106028000D01*
X114270800Y-100318800D02*
X116366000Y-100318800D01*
X114259800Y-106424800D02*
X116368000Y-106424800D01*
X112024600Y-105428000D02*
X112024600Y-100760600D01*
D12*
X112889420Y-86108000D02*
X113170580Y-86108000D01*
X112889420Y-85088000D02*
X113170580Y-85088000D01*
X136059500Y-101362742D02*
X136059500Y-101837258D01*
X137104500Y-101362742D02*
X137104500Y-101837258D01*
X137104500Y-98281258D02*
X137104500Y-97806742D01*
X136059500Y-98281258D02*
X136059500Y-97806742D01*
X129525500Y-96790742D02*
X129525500Y-97265258D01*
X130570500Y-96790742D02*
X130570500Y-97265258D01*
X130570500Y-94090258D02*
X130570500Y-93615742D01*
X129525500Y-94090258D02*
X129525500Y-93615742D01*
X130570500Y-106759742D02*
X130570500Y-107234258D01*
X129525500Y-106759742D02*
X129525500Y-107234258D01*
X130570500Y-104123258D02*
X130570500Y-103648742D01*
X129525500Y-104123258D02*
X129525500Y-103648742D01*
D11*
X127056000Y-102742000D02*
G75*
G03*
X127056000Y-102742000I-70000J0D01*
G01*
X127956000Y-103172000D02*
X127306000Y-103172000D01*
X124496000Y-106632000D02*
X125146000Y-106632000D01*
X127956000Y-105982000D02*
X127956000Y-106632000D01*
X124496000Y-103172000D02*
X125146000Y-103172000D01*
X127956000Y-106632000D02*
X127306000Y-106632000D01*
X124496000Y-103822000D02*
X124496000Y-103172000D01*
X127956000Y-103822000D02*
X127956000Y-103172000D01*
X124496000Y-105982000D02*
X124496000Y-106632000D01*
D12*
X130837000Y-80779252D02*
X130837000Y-80256748D01*
X132307000Y-80779252D02*
X132307000Y-80256748D01*
X118337064Y-78767000D02*
X117882936Y-78767000D01*
X118337064Y-80237000D02*
X117882936Y-80237000D01*
X126487252Y-102081000D02*
X125964748Y-102081000D01*
X126487252Y-100611000D02*
X125964748Y-100611000D01*
X137216000Y-79849000D02*
X137216000Y-82534000D01*
X139136000Y-79849000D02*
X137216000Y-79849000D01*
X139136000Y-82534000D02*
X139136000Y-79849000D01*
D13*
X128970000Y-89620000D02*
X130100000Y-89620000D01*
X121360000Y-85640000D02*
X122490000Y-85640000D01*
X130100000Y-85640000D02*
X128970000Y-85640000D01*
X130100000Y-89620000D02*
X130100000Y-85640000D01*
X121360000Y-89620000D02*
X121360000Y-85640000D01*
X122490000Y-89620000D02*
X121360000Y-89620000D01*
D14*
X122930000Y-91630000D02*
G75*
G03*
X122930000Y-91630000I-100000J0D01*
G01*
D12*
X132869000Y-76480936D02*
X132869000Y-76935064D01*
X134339000Y-76480936D02*
X134339000Y-76935064D01*
X133415000Y-73025000D02*
G75*
G03*
X133415000Y-73025000I-700000J0D01*
G01*
X126499252Y-99795000D02*
X125976748Y-99795000D01*
X126499252Y-98325000D02*
X125976748Y-98325000D01*
X123544000Y-96258748D02*
X123544000Y-96781252D01*
X122074000Y-96258748D02*
X122074000Y-96781252D01*
X139136000Y-91328500D02*
X139136000Y-88643500D01*
X137216000Y-88643500D02*
X137216000Y-91328500D01*
X137216000Y-91328500D02*
X139136000Y-91328500D01*
X130325000Y-70415000D02*
X130325000Y-67685000D01*
X130325000Y-67685000D02*
X121135000Y-67685000D01*
X130205000Y-77095000D02*
X121255000Y-77095000D01*
X130325000Y-74015000D02*
X130325000Y-73115000D01*
X121135000Y-70415000D02*
X121135000Y-67685000D01*
X121135000Y-74015000D02*
X121135000Y-73115000D01*
X136625000Y-85825064D02*
X136625000Y-85370936D01*
X135155000Y-85825064D02*
X135155000Y-85370936D01*
X129567000Y-100591252D02*
X129567000Y-100068748D01*
X131037000Y-100591252D02*
X131037000Y-100068748D01*
X135155000Y-81761064D02*
X135155000Y-81306936D01*
X136625000Y-81761064D02*
X136625000Y-81306936D01*
X124106000Y-80779252D02*
X124106000Y-80256748D01*
X125576000Y-80779252D02*
X125576000Y-80256748D01*
X119480000Y-76776252D02*
X119480000Y-76253748D01*
X118010000Y-76776252D02*
X118010000Y-76253748D01*
X134930000Y-75023000D02*
X134930000Y-77708000D01*
X136850000Y-75023000D02*
X134930000Y-75023000D01*
X136850000Y-77708000D02*
X136850000Y-75023000D01*
X113730000Y-76835000D02*
G75*
G03*
X113730000Y-76835000I-700000J0D01*
G01*
X139136000Y-87234500D02*
X139136000Y-84549500D01*
X137216000Y-87234500D02*
X139136000Y-87234500D01*
X137216000Y-84549500D02*
X137216000Y-87234500D01*
X122147000Y-81795252D02*
X122147000Y-81272748D01*
X120677000Y-81795252D02*
X120677000Y-81272748D01*
D11*
X125304000Y-96094000D02*
X126664000Y-96094000D01*
X125304000Y-97454000D02*
X125304000Y-96094000D01*
X126664000Y-97454000D02*
X125304000Y-97454000D01*
X126664000Y-96094000D02*
X126664000Y-97454000D01*
D10*
X125274000Y-96014000D02*
G75*
G03*
X125274000Y-96014000I-50000J0D01*
G01*
D12*
X126490000Y-82142064D02*
X126490000Y-81687936D01*
X127960000Y-82142064D02*
X127960000Y-81687936D01*
X117982259Y-87535511D02*
X118504763Y-87535511D01*
X117982259Y-86065511D02*
X118504763Y-86065511D01*
X130021000Y-82142064D02*
X130021000Y-81687936D01*
X128551000Y-82142064D02*
X128551000Y-81687936D01*
X122123000Y-104640748D02*
X122123000Y-105163252D01*
X123593000Y-104640748D02*
X123593000Y-105163252D01*
X126245252Y-93445000D02*
X125722748Y-93445000D01*
X126245252Y-91975000D02*
X125722748Y-91975000D01*
X118414800Y-129298900D02*
X134061200Y-129298900D01*
X118414800Y-109055100D02*
X118414800Y-129298900D01*
X134061200Y-109055100D02*
X118414800Y-109055100D01*
X134061200Y-129298900D02*
X134061200Y-109055100D01*
X136220200Y-122838486D02*
G75*
G03*
X136220200Y-122838486I-381000J0D01*
G01*
X136625000Y-89889064D02*
X136625000Y-89434936D01*
X135155000Y-89889064D02*
X135155000Y-89434936D01*
D11*
X117393511Y-83018511D02*
X117393511Y-83978511D01*
X119093511Y-85028511D02*
X117393511Y-85028511D01*
X119093511Y-81968511D02*
X117393511Y-81968511D01*
D15*
X119533511Y-85148511D02*
G75*
G03*
X119533511Y-85148511I-150000J0D01*
G01*
D12*
X119445000Y-72898000D02*
G75*
G03*
X119445000Y-72898000I-700000J0D01*
G01*
D14*
X135158000Y-101122000D02*
X132558000Y-101122000D01*
X135158000Y-98522000D02*
X132558000Y-98522000D01*
D15*
X135368000Y-101082000D02*
G75*
G03*
X135368000Y-101082000I0J0D01*
G01*
D12*
X139765000Y-76835000D02*
G75*
G03*
X139765000Y-76835000I-700000J0D01*
G01*
%LPC*%
D16*
X113855000Y-88138000D03*
X112205000Y-88138000D03*
X115126000Y-109982000D03*
X116776000Y-109982000D03*
D17*
X136004000Y-123444000D03*
X137554000Y-123444000D03*
D18*
X137554000Y-121412000D03*
X136004000Y-121412000D03*
D17*
X115163000Y-111887000D03*
X116713000Y-111887000D03*
D19*
X117566000Y-96924000D03*
X117566000Y-90424000D03*
X113066000Y-90424000D03*
D20*
X113066000Y-96924000D03*
X113066000Y-106628000D03*
D19*
X113066000Y-100128000D03*
X117566000Y-100128000D03*
X117566000Y-106628000D03*
D17*
X112255000Y-85598000D03*
X113805000Y-85598000D03*
D21*
X136582000Y-100775000D03*
X136582000Y-102425000D03*
D22*
X136582000Y-98869000D03*
X136582000Y-97219000D03*
D21*
X130048000Y-96203000D03*
X130048000Y-97853000D03*
D22*
X130048000Y-94678000D03*
X130048000Y-93028000D03*
D21*
X130048000Y-107822000D03*
X130048000Y-106172000D03*
D22*
X130048000Y-104711000D03*
X130048000Y-103061000D03*
D23*
X126226000Y-104902000D03*
D24*
X127786000Y-104152000D03*
X127786000Y-104652000D03*
X127786000Y-105152000D03*
X127786000Y-105652000D03*
D25*
X126976000Y-106462000D03*
X126476000Y-106462000D03*
X125976000Y-106462000D03*
X125476000Y-106462000D03*
D24*
X124666000Y-105652000D03*
X124666000Y-105152000D03*
X124666000Y-104652000D03*
X124666000Y-104152000D03*
D25*
X125476000Y-103342000D03*
X125976000Y-103342000D03*
X126476000Y-103342000D03*
X126976000Y-103342000D03*
D26*
X131572000Y-81468000D03*
X131572000Y-79568000D03*
D27*
X119022500Y-79502000D03*
X117197500Y-79502000D03*
D28*
X127176000Y-101346000D03*
X125276000Y-101346000D03*
D29*
X113600000Y-72600000D03*
D30*
X138176000Y-80596500D03*
X138176000Y-82471500D03*
D31*
X122872500Y-90100000D03*
X123507500Y-90100000D03*
X124142500Y-90100000D03*
X124777500Y-90100000D03*
X125412500Y-90100000D03*
X126047500Y-90100000D03*
X126682500Y-90100000D03*
X127317500Y-90100000D03*
X127952500Y-90100000D03*
X128587500Y-90100000D03*
D32*
X128587500Y-85160000D03*
X127952500Y-85160000D03*
X127317500Y-85160000D03*
X126682500Y-85160000D03*
X126047500Y-85160000D03*
X125412500Y-85160000D03*
X124777500Y-85160000D03*
X124142500Y-85160000D03*
X123507500Y-85160000D03*
X122872500Y-85160000D03*
D33*
X133604000Y-75795500D03*
X133604000Y-77620500D03*
D34*
X132715000Y-73025000D03*
D28*
X127188000Y-99060000D03*
X125288000Y-99060000D03*
D35*
X122809000Y-97470000D03*
X122809000Y-95570000D03*
D36*
X138176000Y-90581000D03*
X138176000Y-88706000D03*
D37*
X128705000Y-76415000D03*
X127855000Y-76415000D03*
X127005000Y-76415000D03*
X126155000Y-76415000D03*
X125305000Y-76415000D03*
X124455000Y-76415000D03*
X123605000Y-76415000D03*
X122755000Y-76415000D03*
X122755000Y-75065000D03*
X123605000Y-75065000D03*
X124455000Y-75065000D03*
X125305000Y-75065000D03*
X126155000Y-75065000D03*
X127005000Y-75065000D03*
X127855000Y-75065000D03*
X128705000Y-75065000D03*
D38*
X121405000Y-72055000D03*
X130055000Y-72055000D03*
D39*
X130055000Y-75435000D03*
X121405000Y-75435000D03*
D40*
X135890000Y-86510500D03*
X135890000Y-84685500D03*
D26*
X130302000Y-101280000D03*
X130302000Y-99380000D03*
D40*
X135890000Y-82446500D03*
X135890000Y-80621500D03*
D26*
X124841000Y-81468000D03*
X124841000Y-79568000D03*
X118745000Y-77465000D03*
X118745000Y-75565000D03*
D30*
X135890000Y-75770500D03*
X135890000Y-77645500D03*
D34*
X113030000Y-76835000D03*
D29*
X138400000Y-127400000D03*
D36*
X138176000Y-86487000D03*
X138176000Y-84612000D03*
D26*
X121412000Y-82484000D03*
X121412000Y-80584000D03*
D41*
X125584000Y-96374000D03*
X125984000Y-96374000D03*
X126384000Y-96374000D03*
X125584000Y-96774000D03*
X126384000Y-96774000D03*
X125584000Y-97174000D03*
X125984000Y-97174000D03*
X126384000Y-97174000D03*
D40*
X127225000Y-82827500D03*
X127225000Y-81002500D03*
D42*
X117293511Y-86800511D03*
X119193511Y-86800511D03*
D40*
X129286000Y-82827500D03*
X129286000Y-81002500D03*
D35*
X122858000Y-105852000D03*
X122858000Y-103952000D03*
D29*
X138400000Y-72600000D03*
X113600000Y-127400000D03*
D28*
X126934000Y-92710000D03*
X125034000Y-92710000D03*
D43*
X133237999Y-122838486D03*
X133237999Y-121988485D03*
X133237999Y-121138485D03*
X133237999Y-120288486D03*
X133237999Y-119438485D03*
X133237999Y-118588485D03*
X133237999Y-117738486D03*
X133237999Y-116888485D03*
X133237999Y-116038485D03*
X133237999Y-115188486D03*
X133237999Y-114338485D03*
X133237999Y-113488485D03*
X133237999Y-112638486D03*
X133237999Y-111788485D03*
X133237999Y-110938485D03*
D44*
X132188001Y-109888487D03*
X131338000Y-109888487D03*
X130487999Y-109888487D03*
X129638001Y-109888487D03*
X128788000Y-109888487D03*
X127937999Y-109888487D03*
X127088001Y-109888487D03*
X126238000Y-109888487D03*
X125387999Y-109888487D03*
X124538001Y-109888487D03*
X123688000Y-109888487D03*
X122837999Y-109888487D03*
X121988001Y-109888487D03*
X121138000Y-109888487D03*
X120287999Y-109888487D03*
D43*
X119238001Y-110938485D03*
X119238001Y-111788485D03*
X119238001Y-112638486D03*
X119238001Y-113488485D03*
X119238001Y-114338485D03*
X119238001Y-115188486D03*
X119238001Y-116038485D03*
X119238001Y-116888485D03*
X119238001Y-117738486D03*
X119238001Y-118588485D03*
X119238001Y-119438485D03*
X119238001Y-120288486D03*
X119238001Y-121138485D03*
X119238001Y-121988485D03*
X119238001Y-122838486D03*
D44*
X120287999Y-123888484D03*
X121138000Y-123888484D03*
X121988001Y-123888484D03*
X122837999Y-123888484D03*
X123688000Y-123888484D03*
X124538001Y-123888484D03*
X125387999Y-123888484D03*
X126238000Y-123888484D03*
X127088001Y-123888484D03*
X127937999Y-123888484D03*
X128788000Y-123888484D03*
X129638001Y-123888484D03*
X130487999Y-123888484D03*
X131338000Y-123888484D03*
X132188001Y-123888484D03*
D45*
X126238000Y-116888485D03*
D46*
X133237999Y-123888484D03*
X133237999Y-109888484D03*
X119238001Y-109888484D03*
X119238001Y-123888484D03*
D45*
X127888000Y-118538485D03*
X126238000Y-118538485D03*
X124588000Y-118538485D03*
X127888000Y-116888485D03*
X124588000Y-116888485D03*
X127888000Y-115238485D03*
X126238000Y-115238485D03*
X124588000Y-115238485D03*
D40*
X135890000Y-90574500D03*
X135890000Y-88749500D03*
D47*
X119393511Y-84448511D03*
X119393511Y-83498511D03*
X119393511Y-82548511D03*
D48*
X117093511Y-82548511D03*
X117093511Y-84448511D03*
D34*
X118745000Y-72898000D03*
D49*
X135058000Y-100572000D03*
X135058000Y-100072000D03*
X135058000Y-99572000D03*
X135058000Y-99072000D03*
X132658000Y-99072000D03*
X132658000Y-99572000D03*
X132658000Y-100072000D03*
X132658000Y-100572000D03*
D50*
X133858000Y-99822000D03*
D34*
X139065000Y-76835000D03*
M02*
