%TF.GenerationSoftware,KiCad,Pcbnew,(6.0.2-0)*%
%TF.CreationDate,2022-06-16T14:33:15-07:00*%
%TF.ProjectId,delta,64656c74-612e-46b6-9963-61645f706362,v1*%
%TF.SameCoordinates,Original*%
%TF.FileFunction,Paste,Top*%
%TF.FilePolarity,Positive*%
%FSLAX46Y46*%
G04 Gerber Fmt 4.6, Leading zero omitted, Abs format (unit mm)*
G04 Created by KiCad (PCBNEW (6.0.2-0)) date 2022-06-16 14:33:15*
%MOMM*%
%LPD*%
G01*
G04 APERTURE LIST*
G04 Aperture macros list*
%AMRoundRect*
0 Rectangle with rounded corners*
0 $1 Rounding radius*
0 $2 $3 $4 $5 $6 $7 $8 $9 X,Y pos of 4 corners*
0 Add a 4 corners polygon primitive as box body*
4,1,4,$2,$3,$4,$5,$6,$7,$8,$9,$2,$3,0*
0 Add four circle primitives for the rounded corners*
1,1,$1+$1,$2,$3*
1,1,$1+$1,$4,$5*
1,1,$1+$1,$6,$7*
1,1,$1+$1,$8,$9*
0 Add four rect primitives between the rounded corners*
20,1,$1+$1,$2,$3,$4,$5,0*
20,1,$1+$1,$4,$5,$6,$7,0*
20,1,$1+$1,$6,$7,$8,$9,0*
20,1,$1+$1,$8,$9,$2,$3,0*%
G04 Aperture macros list end*
%ADD10RoundRect,0.200000X-0.200000X-0.275000X0.200000X-0.275000X0.200000X0.275000X-0.200000X0.275000X0*%
%ADD11RoundRect,0.225000X-0.225000X-0.250000X0.225000X-0.250000X0.225000X0.250000X-0.225000X0.250000X0*%
%ADD12RoundRect,0.225000X0.225000X0.250000X-0.225000X0.250000X-0.225000X-0.250000X0.225000X-0.250000X0*%
%ADD13RoundRect,0.200000X-0.275000X0.200000X-0.275000X-0.200000X0.275000X-0.200000X0.275000X0.200000X0*%
%ADD14RoundRect,0.200000X0.275000X-0.200000X0.275000X0.200000X-0.275000X0.200000X-0.275000X-0.200000X0*%
%ADD15R,0.500000X0.500000*%
%ADD16R,0.660000X0.280000*%
%ADD17R,0.280000X0.660000*%
%ADD18RoundRect,0.250000X0.475000X-0.250000X0.475000X0.250000X-0.475000X0.250000X-0.475000X-0.250000X0*%
%ADD19RoundRect,0.250000X0.262500X0.450000X-0.262500X0.450000X-0.262500X-0.450000X0.262500X-0.450000X0*%
%ADD20RoundRect,0.250000X0.250000X0.475000X-0.250000X0.475000X-0.250000X-0.475000X0.250000X-0.475000X0*%
%ADD21RoundRect,0.243750X-0.456250X0.243750X-0.456250X-0.243750X0.456250X-0.243750X0.456250X0.243750X0*%
%ADD22RoundRect,0.008200X0.196800X-0.976800X0.196800X0.976800X-0.196800X0.976800X-0.196800X-0.976800X0*%
%ADD23RoundRect,0.008200X-0.196800X0.976800X-0.196800X-0.976800X0.196800X-0.976800X0.196800X0.976800X0*%
%ADD24RoundRect,0.250000X-0.450000X0.262500X-0.450000X-0.262500X0.450000X-0.262500X0.450000X0.262500X0*%
%ADD25RoundRect,0.250000X-0.475000X0.250000X-0.475000X-0.250000X0.475000X-0.250000X0.475000X0.250000X0*%
%ADD26RoundRect,0.243750X0.456250X-0.243750X0.456250X0.243750X-0.456250X0.243750X-0.456250X-0.243750X0*%
%ADD27RoundRect,0.250000X0.450000X-0.262500X0.450000X0.262500X-0.450000X0.262500X-0.450000X-0.262500X0*%
%ADD28C,0.240000*%
%ADD29RoundRect,0.250000X-0.250000X-0.475000X0.250000X-0.475000X0.250000X0.475000X-0.250000X0.475000X0*%
%ADD30R,0.812800X0.406400*%
%ADD31R,0.406400X0.812800*%
%ADD32R,1.193800X1.193800*%
%ADD33R,0.812800X0.812800*%
%ADD34R,1.160000X0.490000*%
%ADD35R,1.180000X0.490000*%
%ADD36R,0.700000X0.250000*%
%ADD37R,1.100000X1.800000*%
G04 APERTURE END LIST*
D10*
X113855000Y-88138000D03*
X112205000Y-88138000D03*
X115126000Y-109982000D03*
X116776000Y-109982000D03*
D11*
X136004000Y-123444000D03*
X137554000Y-123444000D03*
D12*
X137554000Y-121412000D03*
X136004000Y-121412000D03*
D11*
X115163000Y-111887000D03*
X116713000Y-111887000D03*
X112255000Y-85598000D03*
X113805000Y-85598000D03*
D13*
X136582000Y-100775000D03*
X136582000Y-102425000D03*
D14*
X136582000Y-98869000D03*
X136582000Y-97219000D03*
D13*
X130048000Y-96203000D03*
X130048000Y-97853000D03*
D14*
X130048000Y-94678000D03*
X130048000Y-93028000D03*
D13*
X130048000Y-107822000D03*
X130048000Y-106172000D03*
D14*
X130048000Y-104711000D03*
X130048000Y-103061000D03*
D15*
X126226000Y-104902000D03*
D16*
X127786000Y-104152000D03*
X127786000Y-104652000D03*
X127786000Y-105152000D03*
X127786000Y-105652000D03*
D17*
X126976000Y-106462000D03*
X126476000Y-106462000D03*
X125976000Y-106462000D03*
X125476000Y-106462000D03*
D16*
X124666000Y-105652000D03*
X124666000Y-105152000D03*
X124666000Y-104652000D03*
X124666000Y-104152000D03*
D17*
X125476000Y-103342000D03*
X125976000Y-103342000D03*
X126476000Y-103342000D03*
X126976000Y-103342000D03*
D18*
X131572000Y-81468000D03*
X131572000Y-79568000D03*
D19*
X119022500Y-79502000D03*
X117197500Y-79502000D03*
D20*
X127176000Y-101346000D03*
X125276000Y-101346000D03*
D21*
X138176000Y-80596500D03*
X138176000Y-82471500D03*
D22*
X122872500Y-90100000D03*
X123507500Y-90100000D03*
X124142500Y-90100000D03*
X124777500Y-90100000D03*
X125412500Y-90100000D03*
X126047500Y-90100000D03*
X126682500Y-90100000D03*
X127317500Y-90100000D03*
X127952500Y-90100000D03*
X128587500Y-90100000D03*
D23*
X128587500Y-85160000D03*
X127952500Y-85160000D03*
X127317500Y-85160000D03*
X126682500Y-85160000D03*
X126047500Y-85160000D03*
X125412500Y-85160000D03*
X124777500Y-85160000D03*
X124142500Y-85160000D03*
X123507500Y-85160000D03*
X122872500Y-85160000D03*
D24*
X133604000Y-75795500D03*
X133604000Y-77620500D03*
D20*
X127188000Y-99060000D03*
X125288000Y-99060000D03*
D25*
X122809000Y-97470000D03*
X122809000Y-95570000D03*
D26*
X138176000Y-90581000D03*
X138176000Y-88706000D03*
D27*
X135890000Y-86510500D03*
X135890000Y-84685500D03*
D18*
X130302000Y-101280000D03*
X130302000Y-99380000D03*
D27*
X135890000Y-82446500D03*
X135890000Y-80621500D03*
D18*
X124841000Y-81468000D03*
X124841000Y-79568000D03*
X118745000Y-77465000D03*
X118745000Y-75565000D03*
D21*
X135890000Y-75770500D03*
X135890000Y-77645500D03*
D26*
X138176000Y-86487000D03*
X138176000Y-84612000D03*
D18*
X121412000Y-82484000D03*
X121412000Y-80584000D03*
D28*
X125584000Y-96374000D03*
X125984000Y-96374000D03*
X126384000Y-96374000D03*
X125584000Y-96774000D03*
X126384000Y-96774000D03*
X125584000Y-97174000D03*
X125984000Y-97174000D03*
X126384000Y-97174000D03*
D27*
X127225000Y-82827500D03*
X127225000Y-81002500D03*
D29*
X117293511Y-86800511D03*
X119193511Y-86800511D03*
D27*
X129286000Y-82827500D03*
X129286000Y-81002500D03*
D25*
X122858000Y-105852000D03*
X122858000Y-103952000D03*
D20*
X126934000Y-92710000D03*
X125034000Y-92710000D03*
D30*
X133237999Y-122838486D03*
X133237999Y-121988485D03*
X133237999Y-121138485D03*
X133237999Y-120288486D03*
X133237999Y-119438485D03*
X133237999Y-118588485D03*
X133237999Y-117738486D03*
X133237999Y-116888485D03*
X133237999Y-116038485D03*
X133237999Y-115188486D03*
X133237999Y-114338485D03*
X133237999Y-113488485D03*
X133237999Y-112638486D03*
X133237999Y-111788485D03*
X133237999Y-110938485D03*
D31*
X132188001Y-109888487D03*
X131338000Y-109888487D03*
X130487999Y-109888487D03*
X129638001Y-109888487D03*
X128788000Y-109888487D03*
X127937999Y-109888487D03*
X127088001Y-109888487D03*
X126238000Y-109888487D03*
X125387999Y-109888487D03*
X124538001Y-109888487D03*
X123688000Y-109888487D03*
X122837999Y-109888487D03*
X121988001Y-109888487D03*
X121138000Y-109888487D03*
X120287999Y-109888487D03*
D30*
X119238001Y-110938485D03*
X119238001Y-111788485D03*
X119238001Y-112638486D03*
X119238001Y-113488485D03*
X119238001Y-114338485D03*
X119238001Y-115188486D03*
X119238001Y-116038485D03*
X119238001Y-116888485D03*
X119238001Y-117738486D03*
X119238001Y-118588485D03*
X119238001Y-119438485D03*
X119238001Y-120288486D03*
X119238001Y-121138485D03*
X119238001Y-121988485D03*
X119238001Y-122838486D03*
D31*
X120287999Y-123888484D03*
X121138000Y-123888484D03*
X121988001Y-123888484D03*
X122837999Y-123888484D03*
X123688000Y-123888484D03*
X124538001Y-123888484D03*
X125387999Y-123888484D03*
X126238000Y-123888484D03*
X127088001Y-123888484D03*
X127937999Y-123888484D03*
X128788000Y-123888484D03*
X129638001Y-123888484D03*
X130487999Y-123888484D03*
X131338000Y-123888484D03*
X132188001Y-123888484D03*
D32*
X126238000Y-116888485D03*
D33*
X133237999Y-123888484D03*
X133237999Y-109888484D03*
X119238001Y-109888484D03*
X119238001Y-123888484D03*
D32*
X127888000Y-118538485D03*
X126238000Y-118538485D03*
X124588000Y-118538485D03*
X127888000Y-116888485D03*
X124588000Y-116888485D03*
X127888000Y-115238485D03*
X126238000Y-115238485D03*
X124588000Y-115238485D03*
D27*
X135890000Y-90574500D03*
X135890000Y-88749500D03*
D34*
X119393511Y-84448511D03*
X119393511Y-83498511D03*
X119393511Y-82548511D03*
D35*
X117093511Y-82548511D03*
X117093511Y-84448511D03*
D36*
X135058000Y-100572000D03*
X135058000Y-100072000D03*
X135058000Y-99572000D03*
X135058000Y-99072000D03*
X132658000Y-99072000D03*
X132658000Y-99572000D03*
X132658000Y-100072000D03*
X132658000Y-100572000D03*
D37*
X133858000Y-99822000D03*
M02*
