%TF.GenerationSoftware,KiCad,Pcbnew,(6.0.2-0)*%
%TF.CreationDate,2022-06-16T14:33:15-07:00*%
%TF.ProjectId,delta,64656c74-612e-46b6-9963-61645f706362,v1*%
%TF.SameCoordinates,Original*%
%TF.FileFunction,Copper,L3,Inr*%
%TF.FilePolarity,Positive*%
%FSLAX46Y46*%
G04 Gerber Fmt 4.6, Leading zero omitted, Abs format (unit mm)*
G04 Created by KiCad (PCBNEW (6.0.2-0)) date 2022-06-16 14:33:15*
%MOMM*%
%LPD*%
G01*
G04 APERTURE LIST*
%TA.AperFunction,ComponentPad*%
%ADD10C,2.200000*%
%TD*%
%TA.AperFunction,ComponentPad*%
%ADD11R,2.200000X2.200000*%
%TD*%
%TA.AperFunction,ComponentPad*%
%ADD12C,4.400000*%
%TD*%
%TA.AperFunction,ComponentPad*%
%ADD13C,0.700000*%
%TD*%
%TA.AperFunction,ComponentPad*%
%ADD14O,0.900000X1.700000*%
%TD*%
%TA.AperFunction,ComponentPad*%
%ADD15O,0.900000X2.400000*%
%TD*%
%TA.AperFunction,ViaPad*%
%ADD16C,0.800000*%
%TD*%
G04 APERTURE END LIST*
D10*
X117566000Y-96924000D03*
X117566000Y-90424000D03*
X113066000Y-90424000D03*
D11*
X113066000Y-96924000D03*
X113066000Y-106628000D03*
D10*
X113066000Y-100128000D03*
X117566000Y-100128000D03*
X117566000Y-106628000D03*
D12*
X113600000Y-72600000D03*
D13*
X128705000Y-76415000D03*
X127855000Y-76415000D03*
X127005000Y-76415000D03*
X126155000Y-76415000D03*
X125305000Y-76415000D03*
X124455000Y-76415000D03*
X123605000Y-76415000D03*
X122755000Y-76415000D03*
X122755000Y-75065000D03*
X123605000Y-75065000D03*
X124455000Y-75065000D03*
X125305000Y-75065000D03*
X126155000Y-75065000D03*
X127005000Y-75065000D03*
X127855000Y-75065000D03*
X128705000Y-75065000D03*
D14*
X121405000Y-72055000D03*
X130055000Y-72055000D03*
D15*
X130055000Y-75435000D03*
X121405000Y-75435000D03*
D12*
X138400000Y-127400000D03*
X138400000Y-72600000D03*
X113600000Y-127400000D03*
D16*
X135382000Y-107188000D03*
X135382000Y-108712000D03*
X135382000Y-113284000D03*
X135382000Y-111760000D03*
X135382000Y-110236000D03*
X113792000Y-110363000D03*
X138684000Y-123444000D03*
X138684000Y-121412000D03*
X116078000Y-88138000D03*
X111760000Y-86868000D03*
X111760000Y-84582000D03*
X136652000Y-103798500D03*
X135128000Y-103798500D03*
X137160000Y-119634000D03*
X137414000Y-115316000D03*
X123190000Y-102870000D03*
X123190000Y-83312000D03*
X134366000Y-115062000D03*
X126365000Y-94742000D03*
X128524000Y-99060000D03*
X133604000Y-102870000D03*
X133096000Y-103798500D03*
X134366000Y-83058000D03*
X131445000Y-93345000D03*
X131445000Y-97536000D03*
X128651000Y-100330000D03*
X123190000Y-98806000D03*
X123063000Y-94488000D03*
X121666000Y-128016000D03*
X123190000Y-128016000D03*
X129286000Y-128016000D03*
X130810000Y-128016000D03*
X129286000Y-125984000D03*
X130810000Y-125984000D03*
X131572000Y-127000000D03*
X130048000Y-127000000D03*
X127762000Y-125984000D03*
X125476000Y-127000000D03*
X126238000Y-125984000D03*
X127000000Y-127000000D03*
X128524000Y-127000000D03*
X124714000Y-125984000D03*
X123952000Y-127000000D03*
X123190000Y-125984000D03*
X122428000Y-127000000D03*
X121666000Y-125984000D03*
X120904000Y-127000000D03*
X137922000Y-99060000D03*
X139954000Y-103886000D03*
X137922000Y-100838000D03*
X138938000Y-103886000D03*
X128778000Y-106680000D03*
X128778000Y-104394000D03*
X131318000Y-104648000D03*
X131318000Y-106172000D03*
X138938000Y-108204000D03*
X139954000Y-108204000D03*
X131318000Y-107442000D03*
X131318000Y-103378000D03*
X128524000Y-102870000D03*
X124206000Y-102616000D03*
X121200162Y-84027409D03*
X117602000Y-81026000D03*
X130302000Y-79756000D03*
X122880500Y-77724000D03*
X128270000Y-71755000D03*
X128143000Y-92964000D03*
X120529511Y-86546511D03*
X123190000Y-71755000D03*
X131572000Y-76200000D03*
X139700000Y-79502000D03*
X119888000Y-81026000D03*
X126238000Y-79756000D03*
X139954000Y-75438000D03*
X126242299Y-87117701D03*
X127762000Y-87122000D03*
X120529511Y-84768511D03*
X135382000Y-102362000D03*
X139700000Y-87630000D03*
X123825000Y-92964000D03*
X139700000Y-83566000D03*
X128524000Y-78232000D03*
X122174000Y-78486000D03*
X121666000Y-117856000D03*
X121683344Y-90975000D03*
X120650000Y-117094000D03*
X120650000Y-90932000D03*
%TA.AperFunction,Conductor*%
G36*
X121134639Y-70517951D02*
G01*
X121181132Y-70571607D01*
X121191236Y-70641881D01*
X121161742Y-70706461D01*
X121110026Y-70742199D01*
X120988641Y-70786860D01*
X120988639Y-70786861D01*
X120982654Y-70789063D01*
X120951212Y-70808558D01*
X120828192Y-70884834D01*
X120817160Y-70891674D01*
X120812527Y-70896055D01*
X120812526Y-70896056D01*
X120740802Y-70963882D01*
X120675678Y-71025466D01*
X120672016Y-71030696D01*
X120672015Y-71030697D01*
X120663414Y-71042981D01*
X120563989Y-71184975D01*
X120550759Y-71215548D01*
X120505038Y-71321204D01*
X120486655Y-71363684D01*
X120485350Y-71369931D01*
X120485349Y-71369934D01*
X120466268Y-71461273D01*
X120446835Y-71554293D01*
X120446500Y-71560685D01*
X120446500Y-72503663D01*
X120448376Y-72522128D01*
X120456286Y-72600000D01*
X120461235Y-72648727D01*
X120465435Y-72662128D01*
X120517556Y-72828451D01*
X120517558Y-72828456D01*
X120519465Y-72834541D01*
X120522558Y-72840120D01*
X120599284Y-72978536D01*
X120613870Y-73004850D01*
X120618019Y-73009691D01*
X120618022Y-73009695D01*
X120677684Y-73079303D01*
X120740591Y-73152698D01*
X120894453Y-73272046D01*
X120900176Y-73274862D01*
X120900179Y-73274864D01*
X121063444Y-73355200D01*
X121069171Y-73358018D01*
X121075349Y-73359627D01*
X121075351Y-73359628D01*
X121251425Y-73405492D01*
X121251428Y-73405492D01*
X121257607Y-73407102D01*
X121341597Y-73411504D01*
X121445683Y-73416959D01*
X121445687Y-73416959D01*
X121452064Y-73417293D01*
X121607413Y-73393799D01*
X121638285Y-73389130D01*
X121638286Y-73389130D01*
X121644599Y-73388175D01*
X121650585Y-73385972D01*
X121650591Y-73385971D01*
X121821360Y-73323140D01*
X121821365Y-73323138D01*
X121827346Y-73320937D01*
X121992840Y-73218326D01*
X122067362Y-73147855D01*
X122129685Y-73088919D01*
X122134322Y-73084534D01*
X122246011Y-72925025D01*
X122323345Y-72746316D01*
X122340933Y-72662128D01*
X122362176Y-72560443D01*
X122362177Y-72560438D01*
X122363165Y-72555707D01*
X122363500Y-72549315D01*
X122363500Y-72522128D01*
X122383502Y-72454007D01*
X122437158Y-72407514D01*
X122507432Y-72397410D01*
X122573812Y-72428493D01*
X122574325Y-72428955D01*
X122578747Y-72433866D01*
X122733248Y-72546118D01*
X122739276Y-72548802D01*
X122739278Y-72548803D01*
X122859258Y-72602221D01*
X122907712Y-72623794D01*
X123001113Y-72643647D01*
X123088056Y-72662128D01*
X123088061Y-72662128D01*
X123094513Y-72663500D01*
X123285487Y-72663500D01*
X123291939Y-72662128D01*
X123291944Y-72662128D01*
X123378887Y-72643647D01*
X123472288Y-72623794D01*
X123520742Y-72602221D01*
X123640722Y-72548803D01*
X123640724Y-72548802D01*
X123646752Y-72546118D01*
X123801253Y-72433866D01*
X123807002Y-72427481D01*
X123924621Y-72296852D01*
X123924622Y-72296851D01*
X123929040Y-72291944D01*
X124024527Y-72126556D01*
X124083542Y-71944928D01*
X124085617Y-71925192D01*
X124102814Y-71761565D01*
X124103504Y-71755000D01*
X124083542Y-71565072D01*
X124024527Y-71383444D01*
X123929040Y-71218056D01*
X123906218Y-71192709D01*
X123805675Y-71081045D01*
X123805674Y-71081044D01*
X123801253Y-71076134D01*
X123646752Y-70963882D01*
X123640724Y-70961198D01*
X123640722Y-70961197D01*
X123478319Y-70888891D01*
X123478318Y-70888891D01*
X123472288Y-70886206D01*
X123378888Y-70866353D01*
X123291944Y-70847872D01*
X123291939Y-70847872D01*
X123285487Y-70846500D01*
X123094513Y-70846500D01*
X123088061Y-70847872D01*
X123088056Y-70847872D01*
X123001112Y-70866353D01*
X122907712Y-70886206D01*
X122901682Y-70888891D01*
X122901681Y-70888891D01*
X122739278Y-70961197D01*
X122739276Y-70961198D01*
X122733248Y-70963882D01*
X122578747Y-71076134D01*
X122574326Y-71081044D01*
X122574325Y-71081045D01*
X122470971Y-71195831D01*
X122450960Y-71218056D01*
X122448922Y-71216221D01*
X122402298Y-71252165D01*
X122331561Y-71258232D01*
X122268773Y-71225093D01*
X122246396Y-71195831D01*
X122199225Y-71110733D01*
X122199224Y-71110731D01*
X122196130Y-71105150D01*
X122191981Y-71100309D01*
X122191978Y-71100305D01*
X122073560Y-70962145D01*
X122069409Y-70957302D01*
X121915547Y-70837954D01*
X121909824Y-70835138D01*
X121909821Y-70835136D01*
X121746556Y-70754800D01*
X121740829Y-70751982D01*
X121734651Y-70750373D01*
X121734649Y-70750372D01*
X121717403Y-70745880D01*
X121656524Y-70709353D01*
X121625057Y-70645711D01*
X121632994Y-70575159D01*
X121677813Y-70520098D01*
X121749164Y-70497949D01*
X129716518Y-70497949D01*
X129784639Y-70517951D01*
X129831132Y-70571607D01*
X129841236Y-70641881D01*
X129811742Y-70706461D01*
X129760026Y-70742199D01*
X129638641Y-70786860D01*
X129638639Y-70786861D01*
X129632654Y-70789063D01*
X129601212Y-70808558D01*
X129478192Y-70884834D01*
X129467160Y-70891674D01*
X129462527Y-70896055D01*
X129462526Y-70896056D01*
X129390802Y-70963882D01*
X129325678Y-71025466D01*
X129322016Y-71030696D01*
X129322015Y-71030697D01*
X129217654Y-71179741D01*
X129213989Y-71184975D01*
X129211453Y-71190836D01*
X129210406Y-71192709D01*
X129159711Y-71242415D01*
X129090192Y-71256822D01*
X129023919Y-71231358D01*
X129006782Y-71215548D01*
X128885675Y-71081045D01*
X128885674Y-71081044D01*
X128881253Y-71076134D01*
X128726752Y-70963882D01*
X128720724Y-70961198D01*
X128720722Y-70961197D01*
X128558319Y-70888891D01*
X128558318Y-70888891D01*
X128552288Y-70886206D01*
X128458888Y-70866353D01*
X128371944Y-70847872D01*
X128371939Y-70847872D01*
X128365487Y-70846500D01*
X128174513Y-70846500D01*
X128168061Y-70847872D01*
X128168056Y-70847872D01*
X128081112Y-70866353D01*
X127987712Y-70886206D01*
X127981682Y-70888891D01*
X127981681Y-70888891D01*
X127819278Y-70961197D01*
X127819276Y-70961198D01*
X127813248Y-70963882D01*
X127658747Y-71076134D01*
X127654326Y-71081044D01*
X127654325Y-71081045D01*
X127553783Y-71192709D01*
X127530960Y-71218056D01*
X127435473Y-71383444D01*
X127376458Y-71565072D01*
X127356496Y-71755000D01*
X127357186Y-71761565D01*
X127374384Y-71925192D01*
X127376458Y-71944928D01*
X127435473Y-72126556D01*
X127530960Y-72291944D01*
X127535378Y-72296851D01*
X127535379Y-72296852D01*
X127652998Y-72427481D01*
X127658747Y-72433866D01*
X127813248Y-72546118D01*
X127819276Y-72548802D01*
X127819278Y-72548803D01*
X127939258Y-72602221D01*
X127987712Y-72623794D01*
X128081113Y-72643647D01*
X128168056Y-72662128D01*
X128168061Y-72662128D01*
X128174513Y-72663500D01*
X128365487Y-72663500D01*
X128371939Y-72662128D01*
X128371944Y-72662128D01*
X128458887Y-72643647D01*
X128552288Y-72623794D01*
X128600742Y-72602221D01*
X128720722Y-72548803D01*
X128720724Y-72548802D01*
X128726752Y-72546118D01*
X128732094Y-72542237D01*
X128875909Y-72437749D01*
X128875911Y-72437747D01*
X128881253Y-72433866D01*
X128885675Y-72428955D01*
X128887312Y-72427481D01*
X128951319Y-72396763D01*
X129021773Y-72405526D01*
X129076305Y-72450988D01*
X129096979Y-72508383D01*
X129106511Y-72602221D01*
X129111235Y-72648727D01*
X129115435Y-72662128D01*
X129167556Y-72828451D01*
X129167558Y-72828456D01*
X129169465Y-72834541D01*
X129172558Y-72840120D01*
X129249284Y-72978536D01*
X129263870Y-73004850D01*
X129268019Y-73009691D01*
X129268022Y-73009695D01*
X129327684Y-73079303D01*
X129390591Y-73152698D01*
X129544453Y-73272046D01*
X129550176Y-73274862D01*
X129550179Y-73274864D01*
X129713444Y-73355200D01*
X129719171Y-73358018D01*
X129725349Y-73359627D01*
X129725351Y-73359628D01*
X129901425Y-73405492D01*
X129901428Y-73405492D01*
X129907607Y-73407102D01*
X129991597Y-73411504D01*
X130095683Y-73416959D01*
X130095687Y-73416959D01*
X130102064Y-73417293D01*
X130257413Y-73393799D01*
X130288285Y-73389130D01*
X130288286Y-73389130D01*
X130294599Y-73388175D01*
X130300585Y-73385972D01*
X130300591Y-73385971D01*
X130471360Y-73323140D01*
X130471365Y-73323138D01*
X130477346Y-73320937D01*
X130642840Y-73218326D01*
X130717362Y-73147855D01*
X130779685Y-73088919D01*
X130784322Y-73084534D01*
X130896011Y-72925025D01*
X130973345Y-72746316D01*
X130990933Y-72662128D01*
X131012176Y-72560443D01*
X131012177Y-72560438D01*
X131013165Y-72555707D01*
X131013500Y-72549315D01*
X131013500Y-71606337D01*
X130998765Y-71461273D01*
X130971854Y-71375398D01*
X130942444Y-71281549D01*
X130942442Y-71281544D01*
X130940535Y-71275459D01*
X130846130Y-71105150D01*
X130841981Y-71100309D01*
X130841978Y-71100305D01*
X130723560Y-70962145D01*
X130719409Y-70957302D01*
X130565547Y-70837954D01*
X130559824Y-70835138D01*
X130559821Y-70835136D01*
X130396556Y-70754800D01*
X130390829Y-70751982D01*
X130384651Y-70750373D01*
X130384649Y-70750372D01*
X130367403Y-70745880D01*
X130306524Y-70709353D01*
X130275057Y-70645711D01*
X130282994Y-70575159D01*
X130327813Y-70520098D01*
X130399164Y-70497949D01*
X136366844Y-70497949D01*
X136434965Y-70517951D01*
X136481458Y-70571607D01*
X136491562Y-70641881D01*
X136462068Y-70706461D01*
X136455252Y-70713726D01*
X136383513Y-70784347D01*
X136381149Y-70787314D01*
X136381146Y-70787317D01*
X136194868Y-71021081D01*
X136179991Y-71039751D01*
X136008626Y-71317757D01*
X135984572Y-71369934D01*
X135875590Y-71606337D01*
X135871902Y-71614336D01*
X135870741Y-71617940D01*
X135870741Y-71617941D01*
X135862196Y-71644477D01*
X135771797Y-71925192D01*
X135771079Y-71928903D01*
X135771078Y-71928907D01*
X135710482Y-72242105D01*
X135710481Y-72242114D01*
X135709763Y-72245824D01*
X135709496Y-72249600D01*
X135709495Y-72249605D01*
X135688311Y-72548803D01*
X135686698Y-72571585D01*
X135690222Y-72642378D01*
X135700067Y-72840120D01*
X135702936Y-72897759D01*
X135703577Y-72901490D01*
X135703578Y-72901498D01*
X135757266Y-73213944D01*
X135758241Y-73219619D01*
X135759329Y-73223258D01*
X135759330Y-73223261D01*
X135817259Y-73416959D01*
X135851814Y-73532504D01*
X135982297Y-73831881D01*
X135984220Y-73835152D01*
X135984222Y-73835156D01*
X136026584Y-73907215D01*
X136147802Y-74113414D01*
X136150103Y-74116429D01*
X136343631Y-74370012D01*
X136343636Y-74370017D01*
X136345931Y-74373025D01*
X136407931Y-74436670D01*
X136551740Y-74584293D01*
X136573814Y-74606953D01*
X136646635Y-74665607D01*
X136825196Y-74809431D01*
X136825201Y-74809435D01*
X136828149Y-74811809D01*
X137105253Y-74984627D01*
X137401112Y-75122903D01*
X137711440Y-75224634D01*
X138031742Y-75288346D01*
X138035514Y-75288633D01*
X138035522Y-75288634D01*
X138353602Y-75312829D01*
X138353607Y-75312829D01*
X138357379Y-75313116D01*
X138683633Y-75298586D01*
X138743425Y-75288634D01*
X139002037Y-75245590D01*
X139002042Y-75245589D01*
X139005778Y-75244967D01*
X139319149Y-75153034D01*
X139322616Y-75151544D01*
X139322620Y-75151543D01*
X139615721Y-75025616D01*
X139615723Y-75025615D01*
X139619205Y-75024119D01*
X139901601Y-74860091D01*
X140162245Y-74663324D01*
X140263030Y-74566167D01*
X140288603Y-74541515D01*
X140351529Y-74508637D01*
X140422240Y-74514999D01*
X140478286Y-74558580D01*
X140502051Y-74632228D01*
X140502051Y-78714468D01*
X140482049Y-78782589D01*
X140428393Y-78829082D01*
X140358119Y-78839186D01*
X140301990Y-78816404D01*
X140162094Y-78714763D01*
X140162093Y-78714762D01*
X140156752Y-78710882D01*
X140150724Y-78708198D01*
X140150722Y-78708197D01*
X139988319Y-78635891D01*
X139988318Y-78635891D01*
X139982288Y-78633206D01*
X139869721Y-78609279D01*
X139801944Y-78594872D01*
X139801939Y-78594872D01*
X139795487Y-78593500D01*
X139604513Y-78593500D01*
X139598061Y-78594872D01*
X139598056Y-78594872D01*
X139530279Y-78609279D01*
X139417712Y-78633206D01*
X139411682Y-78635891D01*
X139411681Y-78635891D01*
X139249278Y-78708197D01*
X139249276Y-78708198D01*
X139243248Y-78710882D01*
X139088747Y-78823134D01*
X139084326Y-78828044D01*
X139084325Y-78828045D01*
X139006257Y-78914749D01*
X138960960Y-78965056D01*
X138865473Y-79130444D01*
X138806458Y-79312072D01*
X138805768Y-79318633D01*
X138805768Y-79318635D01*
X138787186Y-79495435D01*
X138786496Y-79502000D01*
X138806458Y-79691928D01*
X138865473Y-79873556D01*
X138960960Y-80038944D01*
X138965378Y-80043851D01*
X138965379Y-80043852D01*
X139066208Y-80155834D01*
X139088747Y-80180866D01*
X139243248Y-80293118D01*
X139249276Y-80295802D01*
X139249278Y-80295803D01*
X139411681Y-80368109D01*
X139417712Y-80370794D01*
X139511112Y-80390647D01*
X139598056Y-80409128D01*
X139598061Y-80409128D01*
X139604513Y-80410500D01*
X139795487Y-80410500D01*
X139801939Y-80409128D01*
X139801944Y-80409128D01*
X139888888Y-80390647D01*
X139982288Y-80370794D01*
X139988319Y-80368109D01*
X140150722Y-80295803D01*
X140150724Y-80295802D01*
X140156752Y-80293118D01*
X140301990Y-80187596D01*
X140368858Y-80163738D01*
X140438009Y-80179818D01*
X140487489Y-80230732D01*
X140502051Y-80289532D01*
X140502051Y-102941508D01*
X140482049Y-103009629D01*
X140428393Y-103056122D01*
X140358119Y-103066226D01*
X140324802Y-103056615D01*
X140317503Y-103053365D01*
X140236288Y-103017206D01*
X140123721Y-102993279D01*
X140055944Y-102978872D01*
X140055939Y-102978872D01*
X140049487Y-102977500D01*
X139858513Y-102977500D01*
X139852061Y-102978872D01*
X139852056Y-102978872D01*
X139784279Y-102993279D01*
X139671712Y-103017206D01*
X139497248Y-103094882D01*
X139426882Y-103104316D01*
X139394753Y-103094882D01*
X139394752Y-103094882D01*
X139220288Y-103017206D01*
X139107721Y-102993279D01*
X139039944Y-102978872D01*
X139039939Y-102978872D01*
X139033487Y-102977500D01*
X138842513Y-102977500D01*
X138836061Y-102978872D01*
X138836056Y-102978872D01*
X138768279Y-102993279D01*
X138655712Y-103017206D01*
X138649682Y-103019891D01*
X138649681Y-103019891D01*
X138487278Y-103092197D01*
X138487276Y-103092198D01*
X138481248Y-103094882D01*
X138475907Y-103098762D01*
X138475906Y-103098763D01*
X138430000Y-103132116D01*
X138326747Y-103207134D01*
X138322326Y-103212044D01*
X138322325Y-103212045D01*
X138244257Y-103298749D01*
X138198960Y-103349056D01*
X138103473Y-103514444D01*
X138044458Y-103696072D01*
X138043768Y-103702633D01*
X138043768Y-103702635D01*
X138030363Y-103830176D01*
X138024496Y-103886000D01*
X138025186Y-103892565D01*
X138032826Y-103965251D01*
X138044458Y-104075928D01*
X138103473Y-104257556D01*
X138198960Y-104422944D01*
X138203378Y-104427851D01*
X138203379Y-104427852D01*
X138230589Y-104458072D01*
X138326747Y-104564866D01*
X138364511Y-104592303D01*
X138450207Y-104654565D01*
X138481248Y-104677118D01*
X138487276Y-104679802D01*
X138487278Y-104679803D01*
X138649681Y-104752109D01*
X138655712Y-104754794D01*
X138749112Y-104774647D01*
X138836056Y-104793128D01*
X138836061Y-104793128D01*
X138842513Y-104794500D01*
X139033487Y-104794500D01*
X139039939Y-104793128D01*
X139039944Y-104793128D01*
X139126888Y-104774647D01*
X139220288Y-104754794D01*
X139394752Y-104677118D01*
X139465118Y-104667684D01*
X139497247Y-104677118D01*
X139497248Y-104677118D01*
X139671712Y-104754794D01*
X139765112Y-104774647D01*
X139852056Y-104793128D01*
X139852061Y-104793128D01*
X139858513Y-104794500D01*
X140049487Y-104794500D01*
X140055939Y-104793128D01*
X140055944Y-104793128D01*
X140142888Y-104774647D01*
X140236288Y-104754794D01*
X140324803Y-104715385D01*
X140395169Y-104705951D01*
X140459466Y-104736057D01*
X140497280Y-104796146D01*
X140502051Y-104830492D01*
X140502051Y-107259508D01*
X140482049Y-107327629D01*
X140428393Y-107374122D01*
X140358119Y-107384226D01*
X140324802Y-107374615D01*
X140317503Y-107371365D01*
X140236288Y-107335206D01*
X140142888Y-107315353D01*
X140055944Y-107296872D01*
X140055939Y-107296872D01*
X140049487Y-107295500D01*
X139858513Y-107295500D01*
X139852061Y-107296872D01*
X139852056Y-107296872D01*
X139765113Y-107315353D01*
X139671712Y-107335206D01*
X139497248Y-107412882D01*
X139426882Y-107422316D01*
X139394753Y-107412882D01*
X139394752Y-107412882D01*
X139220288Y-107335206D01*
X139126888Y-107315353D01*
X139039944Y-107296872D01*
X139039939Y-107296872D01*
X139033487Y-107295500D01*
X138842513Y-107295500D01*
X138836061Y-107296872D01*
X138836056Y-107296872D01*
X138749113Y-107315353D01*
X138655712Y-107335206D01*
X138649682Y-107337891D01*
X138649681Y-107337891D01*
X138487278Y-107410197D01*
X138487276Y-107410198D01*
X138481248Y-107412882D01*
X138326747Y-107525134D01*
X138322326Y-107530044D01*
X138322325Y-107530045D01*
X138280609Y-107576376D01*
X138198960Y-107667056D01*
X138103473Y-107832444D01*
X138044458Y-108014072D01*
X138043768Y-108020633D01*
X138043768Y-108020635D01*
X138038841Y-108067511D01*
X138024496Y-108204000D01*
X138044458Y-108393928D01*
X138103473Y-108575556D01*
X138198960Y-108740944D01*
X138326747Y-108882866D01*
X138481248Y-108995118D01*
X138487276Y-108997802D01*
X138487278Y-108997803D01*
X138649681Y-109070109D01*
X138655712Y-109072794D01*
X138749113Y-109092647D01*
X138836056Y-109111128D01*
X138836061Y-109111128D01*
X138842513Y-109112500D01*
X139033487Y-109112500D01*
X139039939Y-109111128D01*
X139039944Y-109111128D01*
X139126888Y-109092647D01*
X139220288Y-109072794D01*
X139394752Y-108995118D01*
X139465118Y-108985684D01*
X139497247Y-108995118D01*
X139497248Y-108995118D01*
X139671712Y-109072794D01*
X139765113Y-109092647D01*
X139852056Y-109111128D01*
X139852061Y-109111128D01*
X139858513Y-109112500D01*
X140049487Y-109112500D01*
X140055939Y-109111128D01*
X140055944Y-109111128D01*
X140142888Y-109092647D01*
X140236288Y-109072794D01*
X140324803Y-109033385D01*
X140395169Y-109023951D01*
X140459466Y-109054057D01*
X140497280Y-109114146D01*
X140502051Y-109148492D01*
X140502051Y-125367254D01*
X140482049Y-125435375D01*
X140428393Y-125481868D01*
X140358119Y-125491972D01*
X140293539Y-125462478D01*
X140286741Y-125456134D01*
X140205070Y-125374034D01*
X139948603Y-125171852D01*
X139669705Y-125001945D01*
X139666261Y-125000379D01*
X139666257Y-125000377D01*
X139555667Y-124950095D01*
X139372414Y-124866775D01*
X139061037Y-124768300D01*
X138843492Y-124727390D01*
X138743809Y-124708645D01*
X138743807Y-124708645D01*
X138740086Y-124707945D01*
X138414208Y-124686586D01*
X138410428Y-124686794D01*
X138410427Y-124686794D01*
X138312897Y-124692162D01*
X138088124Y-124704532D01*
X138084397Y-124705193D01*
X138084393Y-124705193D01*
X137927340Y-124733027D01*
X137766557Y-124761522D01*
X137762941Y-124762624D01*
X137762933Y-124762626D01*
X137457789Y-124855627D01*
X137454167Y-124856731D01*
X137155477Y-124988781D01*
X137130041Y-125003914D01*
X136878074Y-125153817D01*
X136878068Y-125153821D01*
X136874814Y-125155757D01*
X136871812Y-125158073D01*
X136674829Y-125310045D01*
X136616244Y-125355243D01*
X136383513Y-125584347D01*
X136381149Y-125587314D01*
X136381146Y-125587317D01*
X136216391Y-125794072D01*
X136179991Y-125839751D01*
X136008626Y-126117757D01*
X136007037Y-126121204D01*
X135916659Y-126317251D01*
X135871902Y-126414336D01*
X135870741Y-126417940D01*
X135870741Y-126417941D01*
X135862196Y-126444477D01*
X135771797Y-126725192D01*
X135771079Y-126728903D01*
X135771078Y-126728907D01*
X135710482Y-127042105D01*
X135710481Y-127042114D01*
X135709763Y-127045824D01*
X135709496Y-127049600D01*
X135709495Y-127049605D01*
X135699560Y-127189928D01*
X135686698Y-127371585D01*
X135688003Y-127397790D01*
X135702189Y-127682749D01*
X135702936Y-127697759D01*
X135703577Y-127701490D01*
X135703578Y-127701498D01*
X135755356Y-128002829D01*
X135758241Y-128019619D01*
X135759329Y-128023258D01*
X135759330Y-128023261D01*
X135813960Y-128205928D01*
X135851814Y-128332504D01*
X135853327Y-128335975D01*
X135853329Y-128335981D01*
X135884929Y-128408482D01*
X135982297Y-128631881D01*
X135984220Y-128635152D01*
X135984222Y-128635156D01*
X136026584Y-128707215D01*
X136147802Y-128913414D01*
X136156263Y-128924500D01*
X136343631Y-129170012D01*
X136343636Y-129170017D01*
X136345931Y-129173025D01*
X136454672Y-129284650D01*
X136456894Y-129286931D01*
X136490100Y-129349683D01*
X136484109Y-129420427D01*
X136440823Y-129476701D01*
X136373983Y-129500639D01*
X136366593Y-129500853D01*
X115643462Y-129493198D01*
X115575349Y-129473171D01*
X115528876Y-129419498D01*
X115518798Y-129349220D01*
X115548315Y-129284650D01*
X115556061Y-129276485D01*
X115594632Y-129239303D01*
X115594635Y-129239300D01*
X115597363Y-129236670D01*
X115704610Y-129104938D01*
X115801155Y-128986351D01*
X115801158Y-128986347D01*
X115803549Y-128983410D01*
X115805570Y-128980207D01*
X115975788Y-128710428D01*
X115975790Y-128710425D01*
X115977815Y-128707215D01*
X116117638Y-128412084D01*
X116144188Y-128332504D01*
X116219790Y-128105897D01*
X116219792Y-128105891D01*
X116220992Y-128102293D01*
X116286381Y-127782329D01*
X116292956Y-127701498D01*
X116312674Y-127459061D01*
X116312856Y-127456826D01*
X116313451Y-127400000D01*
X116311510Y-127367796D01*
X116294026Y-127077793D01*
X116294026Y-127077789D01*
X116293798Y-127074015D01*
X116288650Y-127045824D01*
X116280281Y-127000000D01*
X119990496Y-127000000D01*
X120010458Y-127189928D01*
X120069473Y-127371556D01*
X120164960Y-127536944D01*
X120169378Y-127541851D01*
X120169379Y-127541852D01*
X120235635Y-127615437D01*
X120292747Y-127678866D01*
X120447248Y-127791118D01*
X120453276Y-127793802D01*
X120453278Y-127793803D01*
X120615681Y-127866109D01*
X120621712Y-127868794D01*
X120628173Y-127870167D01*
X120628172Y-127870167D01*
X120653798Y-127875614D01*
X120716272Y-127909341D01*
X120750594Y-127971490D01*
X120752387Y-128002829D01*
X120753186Y-128002829D01*
X120753186Y-128009435D01*
X120752496Y-128016000D01*
X120772458Y-128205928D01*
X120831473Y-128387556D01*
X120926960Y-128552944D01*
X120931378Y-128557851D01*
X120931379Y-128557852D01*
X120969330Y-128600001D01*
X121054747Y-128694866D01*
X121209248Y-128807118D01*
X121215276Y-128809802D01*
X121215278Y-128809803D01*
X121304617Y-128849579D01*
X121383712Y-128884794D01*
X121477112Y-128904647D01*
X121564056Y-128923128D01*
X121564061Y-128923128D01*
X121570513Y-128924500D01*
X121761487Y-128924500D01*
X121767939Y-128923128D01*
X121767944Y-128923128D01*
X121854888Y-128904647D01*
X121948288Y-128884794D01*
X122027383Y-128849579D01*
X122116722Y-128809803D01*
X122116724Y-128809802D01*
X122122752Y-128807118D01*
X122277253Y-128694866D01*
X122334365Y-128631436D01*
X122394810Y-128594198D01*
X122465794Y-128595550D01*
X122521634Y-128631436D01*
X122578747Y-128694866D01*
X122733248Y-128807118D01*
X122739276Y-128809802D01*
X122739278Y-128809803D01*
X122828617Y-128849579D01*
X122907712Y-128884794D01*
X123001112Y-128904647D01*
X123088056Y-128923128D01*
X123088061Y-128923128D01*
X123094513Y-128924500D01*
X123285487Y-128924500D01*
X123291939Y-128923128D01*
X123291944Y-128923128D01*
X123378888Y-128904647D01*
X123472288Y-128884794D01*
X123551383Y-128849579D01*
X123640722Y-128809803D01*
X123640724Y-128809802D01*
X123646752Y-128807118D01*
X123801253Y-128694866D01*
X123886670Y-128600001D01*
X123924621Y-128557852D01*
X123924622Y-128557851D01*
X123929040Y-128552944D01*
X124024527Y-128387556D01*
X124083542Y-128205928D01*
X124103504Y-128016000D01*
X124102814Y-128009435D01*
X124102814Y-128002829D01*
X124104770Y-128002829D01*
X124115860Y-127942192D01*
X124164363Y-127890346D01*
X124202202Y-127875614D01*
X124227828Y-127870167D01*
X124227827Y-127870167D01*
X124234288Y-127868794D01*
X124240319Y-127866109D01*
X124402722Y-127793803D01*
X124402724Y-127793802D01*
X124408752Y-127791118D01*
X124563253Y-127678866D01*
X124620365Y-127615436D01*
X124680810Y-127578198D01*
X124751794Y-127579550D01*
X124807634Y-127615436D01*
X124864747Y-127678866D01*
X125019248Y-127791118D01*
X125025276Y-127793802D01*
X125025278Y-127793803D01*
X125187681Y-127866109D01*
X125193712Y-127868794D01*
X125287112Y-127888647D01*
X125374056Y-127907128D01*
X125374061Y-127907128D01*
X125380513Y-127908500D01*
X125571487Y-127908500D01*
X125577939Y-127907128D01*
X125577944Y-127907128D01*
X125664888Y-127888647D01*
X125758288Y-127868794D01*
X125764319Y-127866109D01*
X125926722Y-127793803D01*
X125926724Y-127793802D01*
X125932752Y-127791118D01*
X126087253Y-127678866D01*
X126144365Y-127615436D01*
X126204810Y-127578198D01*
X126275794Y-127579550D01*
X126331634Y-127615436D01*
X126388747Y-127678866D01*
X126543248Y-127791118D01*
X126549276Y-127793802D01*
X126549278Y-127793803D01*
X126711681Y-127866109D01*
X126717712Y-127868794D01*
X126811112Y-127888647D01*
X126898056Y-127907128D01*
X126898061Y-127907128D01*
X126904513Y-127908500D01*
X127095487Y-127908500D01*
X127101939Y-127907128D01*
X127101944Y-127907128D01*
X127188888Y-127888647D01*
X127282288Y-127868794D01*
X127288319Y-127866109D01*
X127450722Y-127793803D01*
X127450724Y-127793802D01*
X127456752Y-127791118D01*
X127611253Y-127678866D01*
X127668365Y-127615436D01*
X127728810Y-127578198D01*
X127799794Y-127579550D01*
X127855634Y-127615436D01*
X127912747Y-127678866D01*
X128067248Y-127791118D01*
X128073276Y-127793802D01*
X128073278Y-127793803D01*
X128235681Y-127866109D01*
X128241712Y-127868794D01*
X128248173Y-127870167D01*
X128248172Y-127870167D01*
X128273798Y-127875614D01*
X128336272Y-127909341D01*
X128370594Y-127971490D01*
X128372387Y-128002829D01*
X128373186Y-128002829D01*
X128373186Y-128009435D01*
X128372496Y-128016000D01*
X128392458Y-128205928D01*
X128451473Y-128387556D01*
X128546960Y-128552944D01*
X128551378Y-128557851D01*
X128551379Y-128557852D01*
X128589330Y-128600001D01*
X128674747Y-128694866D01*
X128829248Y-128807118D01*
X128835276Y-128809802D01*
X128835278Y-128809803D01*
X128924617Y-128849579D01*
X129003712Y-128884794D01*
X129097112Y-128904647D01*
X129184056Y-128923128D01*
X129184061Y-128923128D01*
X129190513Y-128924500D01*
X129381487Y-128924500D01*
X129387939Y-128923128D01*
X129387944Y-128923128D01*
X129474888Y-128904647D01*
X129568288Y-128884794D01*
X129647383Y-128849579D01*
X129736722Y-128809803D01*
X129736724Y-128809802D01*
X129742752Y-128807118D01*
X129897253Y-128694866D01*
X129954365Y-128631436D01*
X130014810Y-128594198D01*
X130085794Y-128595550D01*
X130141634Y-128631436D01*
X130198747Y-128694866D01*
X130353248Y-128807118D01*
X130359276Y-128809802D01*
X130359278Y-128809803D01*
X130448617Y-128849579D01*
X130527712Y-128884794D01*
X130621112Y-128904647D01*
X130708056Y-128923128D01*
X130708061Y-128923128D01*
X130714513Y-128924500D01*
X130905487Y-128924500D01*
X130911939Y-128923128D01*
X130911944Y-128923128D01*
X130998888Y-128904647D01*
X131092288Y-128884794D01*
X131171383Y-128849579D01*
X131260722Y-128809803D01*
X131260724Y-128809802D01*
X131266752Y-128807118D01*
X131421253Y-128694866D01*
X131506670Y-128600001D01*
X131544621Y-128557852D01*
X131544622Y-128557851D01*
X131549040Y-128552944D01*
X131644527Y-128387556D01*
X131703542Y-128205928D01*
X131723504Y-128016000D01*
X131722814Y-128009435D01*
X131722814Y-128002829D01*
X131724770Y-128002829D01*
X131735860Y-127942192D01*
X131784363Y-127890346D01*
X131822202Y-127875614D01*
X131847828Y-127870167D01*
X131847827Y-127870167D01*
X131854288Y-127868794D01*
X131860319Y-127866109D01*
X132022722Y-127793803D01*
X132022724Y-127793802D01*
X132028752Y-127791118D01*
X132183253Y-127678866D01*
X132240365Y-127615437D01*
X132306621Y-127541852D01*
X132306622Y-127541851D01*
X132311040Y-127536944D01*
X132406527Y-127371556D01*
X132465542Y-127189928D01*
X132485504Y-127000000D01*
X132465542Y-126810072D01*
X132406527Y-126628444D01*
X132311040Y-126463056D01*
X132294312Y-126444477D01*
X132187675Y-126326045D01*
X132187674Y-126326044D01*
X132183253Y-126321134D01*
X132028752Y-126208882D01*
X132022724Y-126206198D01*
X132022722Y-126206197D01*
X131860319Y-126133891D01*
X131860318Y-126133891D01*
X131854288Y-126131206D01*
X131822202Y-126124386D01*
X131759728Y-126090659D01*
X131725406Y-126028510D01*
X131723613Y-125997171D01*
X131722814Y-125997171D01*
X131722814Y-125990565D01*
X131723504Y-125984000D01*
X131711137Y-125866337D01*
X131704232Y-125800635D01*
X131704232Y-125800633D01*
X131703542Y-125794072D01*
X131644527Y-125612444D01*
X131549040Y-125447056D01*
X131538523Y-125435375D01*
X131425675Y-125310045D01*
X131425671Y-125310041D01*
X131421253Y-125305134D01*
X131266752Y-125192882D01*
X131260724Y-125190198D01*
X131260722Y-125190197D01*
X131098319Y-125117891D01*
X131098318Y-125117891D01*
X131092288Y-125115206D01*
X130998887Y-125095353D01*
X130911944Y-125076872D01*
X130911939Y-125076872D01*
X130905487Y-125075500D01*
X130714513Y-125075500D01*
X130708061Y-125076872D01*
X130708056Y-125076872D01*
X130621113Y-125095353D01*
X130527712Y-125115206D01*
X130521682Y-125117891D01*
X130521681Y-125117891D01*
X130359278Y-125190197D01*
X130359276Y-125190198D01*
X130353248Y-125192882D01*
X130198747Y-125305134D01*
X130141635Y-125368564D01*
X130081190Y-125405802D01*
X130010206Y-125404450D01*
X129954366Y-125368564D01*
X129897253Y-125305134D01*
X129742752Y-125192882D01*
X129736724Y-125190198D01*
X129736722Y-125190197D01*
X129574319Y-125117891D01*
X129574318Y-125117891D01*
X129568288Y-125115206D01*
X129474887Y-125095353D01*
X129387944Y-125076872D01*
X129387939Y-125076872D01*
X129381487Y-125075500D01*
X129190513Y-125075500D01*
X129184061Y-125076872D01*
X129184056Y-125076872D01*
X129097113Y-125095353D01*
X129003712Y-125115206D01*
X128997682Y-125117891D01*
X128997681Y-125117891D01*
X128835278Y-125190197D01*
X128835276Y-125190198D01*
X128829248Y-125192882D01*
X128674747Y-125305134D01*
X128617635Y-125368564D01*
X128557190Y-125405802D01*
X128486206Y-125404450D01*
X128430366Y-125368564D01*
X128373253Y-125305134D01*
X128218752Y-125192882D01*
X128212724Y-125190198D01*
X128212722Y-125190197D01*
X128050319Y-125117891D01*
X128050318Y-125117891D01*
X128044288Y-125115206D01*
X127950887Y-125095353D01*
X127863944Y-125076872D01*
X127863939Y-125076872D01*
X127857487Y-125075500D01*
X127666513Y-125075500D01*
X127660061Y-125076872D01*
X127660056Y-125076872D01*
X127573113Y-125095353D01*
X127479712Y-125115206D01*
X127473682Y-125117891D01*
X127473681Y-125117891D01*
X127311278Y-125190197D01*
X127311276Y-125190198D01*
X127305248Y-125192882D01*
X127150747Y-125305134D01*
X127093635Y-125368564D01*
X127033190Y-125405802D01*
X126962206Y-125404450D01*
X126906366Y-125368564D01*
X126849253Y-125305134D01*
X126694752Y-125192882D01*
X126688724Y-125190198D01*
X126688722Y-125190197D01*
X126526319Y-125117891D01*
X126526318Y-125117891D01*
X126520288Y-125115206D01*
X126426887Y-125095353D01*
X126339944Y-125076872D01*
X126339939Y-125076872D01*
X126333487Y-125075500D01*
X126142513Y-125075500D01*
X126136061Y-125076872D01*
X126136056Y-125076872D01*
X126049113Y-125095353D01*
X125955712Y-125115206D01*
X125949682Y-125117891D01*
X125949681Y-125117891D01*
X125787278Y-125190197D01*
X125787276Y-125190198D01*
X125781248Y-125192882D01*
X125626747Y-125305134D01*
X125569635Y-125368564D01*
X125509190Y-125405802D01*
X125438206Y-125404450D01*
X125382366Y-125368564D01*
X125325253Y-125305134D01*
X125170752Y-125192882D01*
X125164724Y-125190198D01*
X125164722Y-125190197D01*
X125002319Y-125117891D01*
X125002318Y-125117891D01*
X124996288Y-125115206D01*
X124902887Y-125095353D01*
X124815944Y-125076872D01*
X124815939Y-125076872D01*
X124809487Y-125075500D01*
X124618513Y-125075500D01*
X124612061Y-125076872D01*
X124612056Y-125076872D01*
X124525113Y-125095353D01*
X124431712Y-125115206D01*
X124425682Y-125117891D01*
X124425681Y-125117891D01*
X124263278Y-125190197D01*
X124263276Y-125190198D01*
X124257248Y-125192882D01*
X124102747Y-125305134D01*
X124045635Y-125368564D01*
X123985190Y-125405802D01*
X123914206Y-125404450D01*
X123858366Y-125368564D01*
X123801253Y-125305134D01*
X123646752Y-125192882D01*
X123640724Y-125190198D01*
X123640722Y-125190197D01*
X123478319Y-125117891D01*
X123478318Y-125117891D01*
X123472288Y-125115206D01*
X123378887Y-125095353D01*
X123291944Y-125076872D01*
X123291939Y-125076872D01*
X123285487Y-125075500D01*
X123094513Y-125075500D01*
X123088061Y-125076872D01*
X123088056Y-125076872D01*
X123001113Y-125095353D01*
X122907712Y-125115206D01*
X122901682Y-125117891D01*
X122901681Y-125117891D01*
X122739278Y-125190197D01*
X122739276Y-125190198D01*
X122733248Y-125192882D01*
X122578747Y-125305134D01*
X122521635Y-125368564D01*
X122461190Y-125405802D01*
X122390206Y-125404450D01*
X122334366Y-125368564D01*
X122277253Y-125305134D01*
X122122752Y-125192882D01*
X122116724Y-125190198D01*
X122116722Y-125190197D01*
X121954319Y-125117891D01*
X121954318Y-125117891D01*
X121948288Y-125115206D01*
X121854887Y-125095353D01*
X121767944Y-125076872D01*
X121767939Y-125076872D01*
X121761487Y-125075500D01*
X121570513Y-125075500D01*
X121564061Y-125076872D01*
X121564056Y-125076872D01*
X121477113Y-125095353D01*
X121383712Y-125115206D01*
X121377682Y-125117891D01*
X121377681Y-125117891D01*
X121215278Y-125190197D01*
X121215276Y-125190198D01*
X121209248Y-125192882D01*
X121054747Y-125305134D01*
X121050329Y-125310041D01*
X121050325Y-125310045D01*
X120937478Y-125435375D01*
X120926960Y-125447056D01*
X120831473Y-125612444D01*
X120772458Y-125794072D01*
X120771768Y-125800633D01*
X120771768Y-125800635D01*
X120764863Y-125866337D01*
X120752496Y-125984000D01*
X120753186Y-125990565D01*
X120753186Y-125997171D01*
X120751230Y-125997171D01*
X120740140Y-126057808D01*
X120691637Y-126109654D01*
X120653798Y-126124386D01*
X120621712Y-126131206D01*
X120615682Y-126133891D01*
X120615681Y-126133891D01*
X120453278Y-126206197D01*
X120453276Y-126206198D01*
X120447248Y-126208882D01*
X120292747Y-126321134D01*
X120288326Y-126326044D01*
X120288325Y-126326045D01*
X120181689Y-126444477D01*
X120164960Y-126463056D01*
X120069473Y-126628444D01*
X120010458Y-126810072D01*
X119990496Y-127000000D01*
X116280281Y-127000000D01*
X116235805Y-126756473D01*
X116235804Y-126756469D01*
X116235125Y-126752751D01*
X116227722Y-126728907D01*
X116178679Y-126570964D01*
X116138282Y-126440863D01*
X116004670Y-126142869D01*
X115836226Y-125863084D01*
X115833899Y-125860100D01*
X115833894Y-125860093D01*
X115637726Y-125608558D01*
X115637724Y-125608556D01*
X115635390Y-125605563D01*
X115405070Y-125374034D01*
X115148603Y-125171852D01*
X114869705Y-125001945D01*
X114866261Y-125000379D01*
X114866257Y-125000377D01*
X114755667Y-124950095D01*
X114572414Y-124866775D01*
X114261037Y-124768300D01*
X114043492Y-124727390D01*
X113943809Y-124708645D01*
X113943807Y-124708645D01*
X113940086Y-124707945D01*
X113614208Y-124686586D01*
X113610428Y-124686794D01*
X113610427Y-124686794D01*
X113512897Y-124692162D01*
X113288124Y-124704532D01*
X113284397Y-124705193D01*
X113284393Y-124705193D01*
X113127340Y-124733027D01*
X112966557Y-124761522D01*
X112962941Y-124762624D01*
X112962933Y-124762626D01*
X112657789Y-124855627D01*
X112654167Y-124856731D01*
X112355477Y-124988781D01*
X112330041Y-125003914D01*
X112078074Y-125153817D01*
X112078068Y-125153821D01*
X112074814Y-125155757D01*
X112071812Y-125158073D01*
X111874829Y-125310045D01*
X111816244Y-125355243D01*
X111722978Y-125447056D01*
X111721824Y-125448192D01*
X111659247Y-125481727D01*
X111588473Y-125476106D01*
X111531973Y-125433115D01*
X111507685Y-125366402D01*
X111507431Y-125358422D01*
X111507095Y-123444000D01*
X137770496Y-123444000D01*
X137790458Y-123633928D01*
X137849473Y-123815556D01*
X137944960Y-123980944D01*
X138072747Y-124122866D01*
X138227248Y-124235118D01*
X138233276Y-124237802D01*
X138233278Y-124237803D01*
X138395681Y-124310109D01*
X138401712Y-124312794D01*
X138495113Y-124332647D01*
X138582056Y-124351128D01*
X138582061Y-124351128D01*
X138588513Y-124352500D01*
X138779487Y-124352500D01*
X138785939Y-124351128D01*
X138785944Y-124351128D01*
X138872887Y-124332647D01*
X138966288Y-124312794D01*
X138972319Y-124310109D01*
X139134722Y-124237803D01*
X139134724Y-124237802D01*
X139140752Y-124235118D01*
X139295253Y-124122866D01*
X139423040Y-123980944D01*
X139518527Y-123815556D01*
X139577542Y-123633928D01*
X139597504Y-123444000D01*
X139577542Y-123254072D01*
X139518527Y-123072444D01*
X139423040Y-122907056D01*
X139295253Y-122765134D01*
X139140752Y-122652882D01*
X139134724Y-122650198D01*
X139134722Y-122650197D01*
X138972319Y-122577891D01*
X138972318Y-122577891D01*
X138966288Y-122575206D01*
X138853570Y-122551247D01*
X138791097Y-122517518D01*
X138756775Y-122455369D01*
X138761503Y-122384530D01*
X138803779Y-122327492D01*
X138853570Y-122304753D01*
X138966288Y-122280794D01*
X138972319Y-122278109D01*
X139134722Y-122205803D01*
X139134724Y-122205802D01*
X139140752Y-122203118D01*
X139295253Y-122090866D01*
X139423040Y-121948944D01*
X139518527Y-121783556D01*
X139577542Y-121601928D01*
X139597504Y-121412000D01*
X139577542Y-121222072D01*
X139518527Y-121040444D01*
X139423040Y-120875056D01*
X139295253Y-120733134D01*
X139140752Y-120620882D01*
X139134724Y-120618198D01*
X139134722Y-120618197D01*
X138972319Y-120545891D01*
X138972318Y-120545891D01*
X138966288Y-120543206D01*
X138872887Y-120523353D01*
X138785944Y-120504872D01*
X138785939Y-120504872D01*
X138779487Y-120503500D01*
X138588513Y-120503500D01*
X138582061Y-120504872D01*
X138582056Y-120504872D01*
X138495113Y-120523353D01*
X138401712Y-120543206D01*
X138395682Y-120545891D01*
X138395681Y-120545891D01*
X138233278Y-120618197D01*
X138233276Y-120618198D01*
X138227248Y-120620882D01*
X138072747Y-120733134D01*
X137944960Y-120875056D01*
X137849473Y-121040444D01*
X137790458Y-121222072D01*
X137770496Y-121412000D01*
X137790458Y-121601928D01*
X137849473Y-121783556D01*
X137944960Y-121948944D01*
X138072747Y-122090866D01*
X138227248Y-122203118D01*
X138233276Y-122205802D01*
X138233278Y-122205803D01*
X138395681Y-122278109D01*
X138401712Y-122280794D01*
X138514430Y-122304753D01*
X138576903Y-122338482D01*
X138611225Y-122400631D01*
X138606497Y-122471470D01*
X138564221Y-122528508D01*
X138514430Y-122551247D01*
X138401712Y-122575206D01*
X138395682Y-122577891D01*
X138395681Y-122577891D01*
X138233278Y-122650197D01*
X138233276Y-122650198D01*
X138227248Y-122652882D01*
X138072747Y-122765134D01*
X137944960Y-122907056D01*
X137849473Y-123072444D01*
X137790458Y-123254072D01*
X137770496Y-123444000D01*
X111507095Y-123444000D01*
X111506425Y-119634000D01*
X136246496Y-119634000D01*
X136266458Y-119823928D01*
X136325473Y-120005556D01*
X136420960Y-120170944D01*
X136548747Y-120312866D01*
X136703248Y-120425118D01*
X136709276Y-120427802D01*
X136709278Y-120427803D01*
X136871681Y-120500109D01*
X136877712Y-120502794D01*
X136971113Y-120522647D01*
X137058056Y-120541128D01*
X137058061Y-120541128D01*
X137064513Y-120542500D01*
X137255487Y-120542500D01*
X137261939Y-120541128D01*
X137261944Y-120541128D01*
X137348887Y-120522647D01*
X137442288Y-120502794D01*
X137448319Y-120500109D01*
X137610722Y-120427803D01*
X137610724Y-120427802D01*
X137616752Y-120425118D01*
X137771253Y-120312866D01*
X137899040Y-120170944D01*
X137994527Y-120005556D01*
X138053542Y-119823928D01*
X138073504Y-119634000D01*
X138053542Y-119444072D01*
X137994527Y-119262444D01*
X137899040Y-119097056D01*
X137771253Y-118955134D01*
X137616752Y-118842882D01*
X137610724Y-118840198D01*
X137610722Y-118840197D01*
X137448319Y-118767891D01*
X137448318Y-118767891D01*
X137442288Y-118765206D01*
X137348888Y-118745353D01*
X137261944Y-118726872D01*
X137261939Y-118726872D01*
X137255487Y-118725500D01*
X137064513Y-118725500D01*
X137058061Y-118726872D01*
X137058056Y-118726872D01*
X136971112Y-118745353D01*
X136877712Y-118765206D01*
X136871682Y-118767891D01*
X136871681Y-118767891D01*
X136709278Y-118840197D01*
X136709276Y-118840198D01*
X136703248Y-118842882D01*
X136548747Y-118955134D01*
X136420960Y-119097056D01*
X136325473Y-119262444D01*
X136266458Y-119444072D01*
X136246496Y-119634000D01*
X111506425Y-119634000D01*
X111505979Y-117094000D01*
X119736496Y-117094000D01*
X119737186Y-117100565D01*
X119744826Y-117173251D01*
X119756458Y-117283928D01*
X119815473Y-117465556D01*
X119910960Y-117630944D01*
X119915378Y-117635851D01*
X119915379Y-117635852D01*
X119942589Y-117666072D01*
X120038747Y-117772866D01*
X120137843Y-117844864D01*
X120162207Y-117862565D01*
X120193248Y-117885118D01*
X120199276Y-117887802D01*
X120199278Y-117887803D01*
X120361681Y-117960109D01*
X120367712Y-117962794D01*
X120461112Y-117982647D01*
X120548056Y-118001128D01*
X120548061Y-118001128D01*
X120554513Y-118002500D01*
X120666803Y-118002500D01*
X120734924Y-118022502D01*
X120781417Y-118076158D01*
X120786636Y-118089563D01*
X120831473Y-118227556D01*
X120926960Y-118392944D01*
X121054747Y-118534866D01*
X121209248Y-118647118D01*
X121215276Y-118649802D01*
X121215278Y-118649803D01*
X121377681Y-118722109D01*
X121383712Y-118724794D01*
X121477113Y-118744647D01*
X121564056Y-118763128D01*
X121564061Y-118763128D01*
X121570513Y-118764500D01*
X121761487Y-118764500D01*
X121767939Y-118763128D01*
X121767944Y-118763128D01*
X121854887Y-118744647D01*
X121948288Y-118724794D01*
X121954319Y-118722109D01*
X122116722Y-118649803D01*
X122116724Y-118649802D01*
X122122752Y-118647118D01*
X122277253Y-118534866D01*
X122405040Y-118392944D01*
X122500527Y-118227556D01*
X122559542Y-118045928D01*
X122564107Y-118002500D01*
X122578814Y-117862565D01*
X122579504Y-117856000D01*
X122578814Y-117849435D01*
X122560232Y-117672635D01*
X122560232Y-117672633D01*
X122559542Y-117666072D01*
X122500527Y-117484444D01*
X122405040Y-117319056D01*
X122379064Y-117290206D01*
X122281675Y-117182045D01*
X122281674Y-117182044D01*
X122277253Y-117177134D01*
X122162829Y-117094000D01*
X122128094Y-117068763D01*
X122128093Y-117068762D01*
X122122752Y-117064882D01*
X122116724Y-117062198D01*
X122116722Y-117062197D01*
X121954319Y-116989891D01*
X121954318Y-116989891D01*
X121948288Y-116987206D01*
X121854888Y-116967353D01*
X121767944Y-116948872D01*
X121767939Y-116948872D01*
X121761487Y-116947500D01*
X121649197Y-116947500D01*
X121581076Y-116927498D01*
X121534583Y-116873842D01*
X121529364Y-116860437D01*
X121486568Y-116728726D01*
X121484527Y-116722444D01*
X121389040Y-116557056D01*
X121261253Y-116415134D01*
X121106752Y-116302882D01*
X121100724Y-116300198D01*
X121100722Y-116300197D01*
X120938319Y-116227891D01*
X120938318Y-116227891D01*
X120932288Y-116225206D01*
X120838887Y-116205353D01*
X120751944Y-116186872D01*
X120751939Y-116186872D01*
X120745487Y-116185500D01*
X120554513Y-116185500D01*
X120548061Y-116186872D01*
X120548056Y-116186872D01*
X120461113Y-116205353D01*
X120367712Y-116225206D01*
X120361682Y-116227891D01*
X120361681Y-116227891D01*
X120199278Y-116300197D01*
X120199276Y-116300198D01*
X120193248Y-116302882D01*
X120038747Y-116415134D01*
X119910960Y-116557056D01*
X119815473Y-116722444D01*
X119756458Y-116904072D01*
X119755768Y-116910633D01*
X119755768Y-116910635D01*
X119747720Y-116987206D01*
X119736496Y-117094000D01*
X111505979Y-117094000D01*
X111505622Y-115062000D01*
X133452496Y-115062000D01*
X133472458Y-115251928D01*
X133531473Y-115433556D01*
X133626960Y-115598944D01*
X133631378Y-115603851D01*
X133631379Y-115603852D01*
X133750325Y-115735955D01*
X133754747Y-115740866D01*
X133909248Y-115853118D01*
X133915276Y-115855802D01*
X133915278Y-115855803D01*
X134077681Y-115928109D01*
X134083712Y-115930794D01*
X134177112Y-115950647D01*
X134264056Y-115969128D01*
X134264061Y-115969128D01*
X134270513Y-115970500D01*
X134461487Y-115970500D01*
X134467939Y-115969128D01*
X134467944Y-115969128D01*
X134554888Y-115950647D01*
X134648288Y-115930794D01*
X134654319Y-115928109D01*
X134816722Y-115855803D01*
X134816724Y-115855802D01*
X134822752Y-115853118D01*
X134977253Y-115740866D01*
X134981675Y-115735955D01*
X135100621Y-115603852D01*
X135100622Y-115603851D01*
X135105040Y-115598944D01*
X135200527Y-115433556D01*
X135238724Y-115316000D01*
X136500496Y-115316000D01*
X136520458Y-115505928D01*
X136579473Y-115687556D01*
X136674960Y-115852944D01*
X136802747Y-115994866D01*
X136957248Y-116107118D01*
X136963276Y-116109802D01*
X136963278Y-116109803D01*
X137125681Y-116182109D01*
X137131712Y-116184794D01*
X137225112Y-116204647D01*
X137312056Y-116223128D01*
X137312061Y-116223128D01*
X137318513Y-116224500D01*
X137509487Y-116224500D01*
X137515939Y-116223128D01*
X137515944Y-116223128D01*
X137602888Y-116204647D01*
X137696288Y-116184794D01*
X137702319Y-116182109D01*
X137864722Y-116109803D01*
X137864724Y-116109802D01*
X137870752Y-116107118D01*
X138025253Y-115994866D01*
X138153040Y-115852944D01*
X138248527Y-115687556D01*
X138307542Y-115505928D01*
X138327504Y-115316000D01*
X138307542Y-115126072D01*
X138248527Y-114944444D01*
X138153040Y-114779056D01*
X138073254Y-114690444D01*
X138029675Y-114642045D01*
X138029674Y-114642044D01*
X138025253Y-114637134D01*
X137870752Y-114524882D01*
X137864724Y-114522198D01*
X137864722Y-114522197D01*
X137702319Y-114449891D01*
X137702318Y-114449891D01*
X137696288Y-114447206D01*
X137602887Y-114427353D01*
X137515944Y-114408872D01*
X137515939Y-114408872D01*
X137509487Y-114407500D01*
X137318513Y-114407500D01*
X137312061Y-114408872D01*
X137312056Y-114408872D01*
X137225113Y-114427353D01*
X137131712Y-114447206D01*
X137125682Y-114449891D01*
X137125681Y-114449891D01*
X136963278Y-114522197D01*
X136963276Y-114522198D01*
X136957248Y-114524882D01*
X136802747Y-114637134D01*
X136798326Y-114642044D01*
X136798325Y-114642045D01*
X136754747Y-114690444D01*
X136674960Y-114779056D01*
X136579473Y-114944444D01*
X136520458Y-115126072D01*
X136500496Y-115316000D01*
X135238724Y-115316000D01*
X135259542Y-115251928D01*
X135279504Y-115062000D01*
X135259542Y-114872072D01*
X135200527Y-114690444D01*
X135105040Y-114525056D01*
X134977253Y-114383134D01*
X134934498Y-114352070D01*
X134891144Y-114295849D01*
X134885068Y-114225113D01*
X134918200Y-114162321D01*
X134980020Y-114127410D01*
X135050901Y-114131462D01*
X135059807Y-114135028D01*
X135093677Y-114150108D01*
X135093685Y-114150111D01*
X135099712Y-114152794D01*
X135193112Y-114172647D01*
X135280056Y-114191128D01*
X135280061Y-114191128D01*
X135286513Y-114192500D01*
X135477487Y-114192500D01*
X135483939Y-114191128D01*
X135483944Y-114191128D01*
X135570888Y-114172647D01*
X135664288Y-114152794D01*
X135670321Y-114150108D01*
X135832722Y-114077803D01*
X135832724Y-114077802D01*
X135838752Y-114075118D01*
X135993253Y-113962866D01*
X136121040Y-113820944D01*
X136216527Y-113655556D01*
X136275542Y-113473928D01*
X136295504Y-113284000D01*
X136275542Y-113094072D01*
X136216527Y-112912444D01*
X136121040Y-112747056D01*
X135994312Y-112606310D01*
X135963594Y-112542303D01*
X135972359Y-112471849D01*
X135994312Y-112437690D01*
X136116621Y-112301852D01*
X136116622Y-112301851D01*
X136121040Y-112296944D01*
X136216527Y-112131556D01*
X136275542Y-111949928D01*
X136295504Y-111760000D01*
X136275542Y-111570072D01*
X136216527Y-111388444D01*
X136121040Y-111223056D01*
X135994312Y-111082310D01*
X135963594Y-111018303D01*
X135972359Y-110947849D01*
X135994312Y-110913690D01*
X136116621Y-110777852D01*
X136116622Y-110777851D01*
X136121040Y-110772944D01*
X136216527Y-110607556D01*
X136275542Y-110425928D01*
X136295504Y-110236000D01*
X136275542Y-110046072D01*
X136216527Y-109864444D01*
X136121040Y-109699056D01*
X135994312Y-109558310D01*
X135963594Y-109494303D01*
X135972359Y-109423849D01*
X135994312Y-109389690D01*
X136116621Y-109253852D01*
X136116622Y-109253851D01*
X136121040Y-109248944D01*
X136216527Y-109083556D01*
X136275542Y-108901928D01*
X136277138Y-108886749D01*
X136294814Y-108718565D01*
X136295504Y-108712000D01*
X136275542Y-108522072D01*
X136216527Y-108340444D01*
X136121040Y-108175056D01*
X136020172Y-108063030D01*
X135994312Y-108034310D01*
X135963594Y-107970303D01*
X135972359Y-107899849D01*
X135994312Y-107865690D01*
X136116621Y-107729852D01*
X136116622Y-107729851D01*
X136121040Y-107724944D01*
X136216527Y-107559556D01*
X136275542Y-107377928D01*
X136277138Y-107362749D01*
X136294814Y-107194565D01*
X136295504Y-107188000D01*
X136288544Y-107121779D01*
X136276232Y-107004635D01*
X136276232Y-107004633D01*
X136275542Y-106998072D01*
X136216527Y-106816444D01*
X136121040Y-106651056D01*
X135993253Y-106509134D01*
X135838752Y-106396882D01*
X135832724Y-106394198D01*
X135832722Y-106394197D01*
X135670319Y-106321891D01*
X135670318Y-106321891D01*
X135664288Y-106319206D01*
X135570888Y-106299353D01*
X135483944Y-106280872D01*
X135483939Y-106280872D01*
X135477487Y-106279500D01*
X135286513Y-106279500D01*
X135280061Y-106280872D01*
X135280056Y-106280872D01*
X135193112Y-106299353D01*
X135099712Y-106319206D01*
X135093682Y-106321891D01*
X135093681Y-106321891D01*
X134931278Y-106394197D01*
X134931276Y-106394198D01*
X134925248Y-106396882D01*
X134770747Y-106509134D01*
X134642960Y-106651056D01*
X134547473Y-106816444D01*
X134488458Y-106998072D01*
X134487768Y-107004633D01*
X134487768Y-107004635D01*
X134475456Y-107121779D01*
X134468496Y-107188000D01*
X134469186Y-107194565D01*
X134486863Y-107362749D01*
X134488458Y-107377928D01*
X134547473Y-107559556D01*
X134642960Y-107724944D01*
X134647378Y-107729851D01*
X134647379Y-107729852D01*
X134769688Y-107865690D01*
X134800406Y-107929697D01*
X134791641Y-108000151D01*
X134769688Y-108034310D01*
X134743829Y-108063030D01*
X134642960Y-108175056D01*
X134547473Y-108340444D01*
X134488458Y-108522072D01*
X134468496Y-108712000D01*
X134469186Y-108718565D01*
X134486863Y-108886749D01*
X134488458Y-108901928D01*
X134547473Y-109083556D01*
X134642960Y-109248944D01*
X134647378Y-109253851D01*
X134647379Y-109253852D01*
X134769688Y-109389690D01*
X134800406Y-109453697D01*
X134791641Y-109524151D01*
X134769688Y-109558310D01*
X134642960Y-109699056D01*
X134547473Y-109864444D01*
X134488458Y-110046072D01*
X134468496Y-110236000D01*
X134488458Y-110425928D01*
X134547473Y-110607556D01*
X134642960Y-110772944D01*
X134647378Y-110777851D01*
X134647379Y-110777852D01*
X134769688Y-110913690D01*
X134800406Y-110977697D01*
X134791641Y-111048151D01*
X134769688Y-111082310D01*
X134642960Y-111223056D01*
X134547473Y-111388444D01*
X134488458Y-111570072D01*
X134468496Y-111760000D01*
X134488458Y-111949928D01*
X134547473Y-112131556D01*
X134642960Y-112296944D01*
X134647378Y-112301851D01*
X134647379Y-112301852D01*
X134769688Y-112437690D01*
X134800406Y-112501697D01*
X134791641Y-112572151D01*
X134769688Y-112606310D01*
X134642960Y-112747056D01*
X134547473Y-112912444D01*
X134488458Y-113094072D01*
X134468496Y-113284000D01*
X134488458Y-113473928D01*
X134547473Y-113655556D01*
X134642960Y-113820944D01*
X134770747Y-113962866D01*
X134813502Y-113993930D01*
X134856856Y-114050151D01*
X134862932Y-114120887D01*
X134829800Y-114183679D01*
X134767980Y-114218590D01*
X134697099Y-114214538D01*
X134688193Y-114210972D01*
X134654323Y-114195892D01*
X134654315Y-114195889D01*
X134648288Y-114193206D01*
X134554887Y-114173353D01*
X134467944Y-114154872D01*
X134467939Y-114154872D01*
X134461487Y-114153500D01*
X134270513Y-114153500D01*
X134264061Y-114154872D01*
X134264056Y-114154872D01*
X134177113Y-114173353D01*
X134083712Y-114193206D01*
X134077682Y-114195891D01*
X134077681Y-114195891D01*
X133915278Y-114268197D01*
X133915276Y-114268198D01*
X133909248Y-114270882D01*
X133754747Y-114383134D01*
X133626960Y-114525056D01*
X133531473Y-114690444D01*
X133472458Y-114872072D01*
X133452496Y-115062000D01*
X111505622Y-115062000D01*
X111504428Y-108269494D01*
X111524418Y-108201370D01*
X111578066Y-108154868D01*
X111648338Y-108144751D01*
X111705992Y-108168645D01*
X111719295Y-108178615D01*
X111855684Y-108229745D01*
X111917866Y-108236500D01*
X114214134Y-108236500D01*
X114276316Y-108229745D01*
X114412705Y-108178615D01*
X114529261Y-108091261D01*
X114616615Y-107974705D01*
X114667745Y-107838316D01*
X114674500Y-107776134D01*
X114674500Y-106628000D01*
X115952526Y-106628000D01*
X115972391Y-106880403D01*
X115973545Y-106885210D01*
X115973546Y-106885216D01*
X116002216Y-107004635D01*
X116031495Y-107126591D01*
X116033388Y-107131162D01*
X116033389Y-107131164D01*
X116117338Y-107333834D01*
X116128384Y-107360502D01*
X116260672Y-107576376D01*
X116425102Y-107768898D01*
X116617624Y-107933328D01*
X116833498Y-108065616D01*
X116838068Y-108067509D01*
X116838072Y-108067511D01*
X117062836Y-108160611D01*
X117067409Y-108162505D01*
X117134513Y-108178615D01*
X117308784Y-108220454D01*
X117308790Y-108220455D01*
X117313597Y-108221609D01*
X117566000Y-108241474D01*
X117818403Y-108221609D01*
X117823210Y-108220455D01*
X117823216Y-108220454D01*
X117997487Y-108178615D01*
X118064591Y-108162505D01*
X118069164Y-108160611D01*
X118293928Y-108067511D01*
X118293932Y-108067509D01*
X118298502Y-108065616D01*
X118514376Y-107933328D01*
X118706898Y-107768898D01*
X118871328Y-107576376D01*
X119003616Y-107360502D01*
X119014663Y-107333834D01*
X119098611Y-107131164D01*
X119098612Y-107131162D01*
X119100505Y-107126591D01*
X119129784Y-107004635D01*
X119158454Y-106885216D01*
X119158455Y-106885210D01*
X119159609Y-106880403D01*
X119175381Y-106680000D01*
X127864496Y-106680000D01*
X127865186Y-106686565D01*
X127882863Y-106854749D01*
X127884458Y-106869928D01*
X127943473Y-107051556D01*
X128038960Y-107216944D01*
X128166747Y-107358866D01*
X128321248Y-107471118D01*
X128327276Y-107473802D01*
X128327278Y-107473803D01*
X128489681Y-107546109D01*
X128495712Y-107548794D01*
X128589113Y-107568647D01*
X128676056Y-107587128D01*
X128676061Y-107587128D01*
X128682513Y-107588500D01*
X128873487Y-107588500D01*
X128879939Y-107587128D01*
X128879944Y-107587128D01*
X128966888Y-107568647D01*
X129060288Y-107548794D01*
X129066319Y-107546109D01*
X129228722Y-107473803D01*
X129228724Y-107473802D01*
X129234752Y-107471118D01*
X129389253Y-107358866D01*
X129517040Y-107216944D01*
X129612527Y-107051556D01*
X129671542Y-106869928D01*
X129673138Y-106854749D01*
X129690814Y-106686565D01*
X129691504Y-106680000D01*
X129686039Y-106628000D01*
X129672232Y-106496635D01*
X129672232Y-106496633D01*
X129671542Y-106490072D01*
X129612527Y-106308444D01*
X129533751Y-106172000D01*
X130404496Y-106172000D01*
X130405186Y-106178565D01*
X130419824Y-106317834D01*
X130424458Y-106361928D01*
X130483473Y-106543556D01*
X130578960Y-106708944D01*
X130706747Y-106850866D01*
X130861248Y-106963118D01*
X130867276Y-106965802D01*
X130867278Y-106965803D01*
X130939756Y-106998072D01*
X131035712Y-107040794D01*
X131129113Y-107060647D01*
X131216056Y-107079128D01*
X131216061Y-107079128D01*
X131222513Y-107080500D01*
X131413487Y-107080500D01*
X131419939Y-107079128D01*
X131419944Y-107079128D01*
X131506888Y-107060647D01*
X131600288Y-107040794D01*
X131696244Y-106998072D01*
X131768722Y-106965803D01*
X131768724Y-106965802D01*
X131774752Y-106963118D01*
X131929253Y-106850866D01*
X132057040Y-106708944D01*
X132152527Y-106543556D01*
X132211542Y-106361928D01*
X132216177Y-106317834D01*
X132230814Y-106178565D01*
X132231504Y-106172000D01*
X132214062Y-106006045D01*
X132212232Y-105988635D01*
X132212232Y-105988633D01*
X132211542Y-105982072D01*
X132152527Y-105800444D01*
X132057040Y-105635056D01*
X131930312Y-105494310D01*
X131899594Y-105430303D01*
X131908359Y-105359849D01*
X131930312Y-105325690D01*
X132052621Y-105189852D01*
X132052622Y-105189851D01*
X132057040Y-105184944D01*
X132147058Y-105029029D01*
X132149223Y-105025279D01*
X132149224Y-105025278D01*
X132152527Y-105019556D01*
X132211542Y-104837928D01*
X132215934Y-104796146D01*
X132230814Y-104654565D01*
X132231504Y-104648000D01*
X132224080Y-104577365D01*
X132218267Y-104522054D01*
X132231039Y-104452216D01*
X132279541Y-104400369D01*
X132348374Y-104382975D01*
X132415684Y-104405557D01*
X132437213Y-104424574D01*
X132484747Y-104477366D01*
X132546255Y-104522054D01*
X132598421Y-104559955D01*
X132639248Y-104589618D01*
X132645276Y-104592302D01*
X132645278Y-104592303D01*
X132785122Y-104654565D01*
X132813712Y-104667294D01*
X132907112Y-104687147D01*
X132994056Y-104705628D01*
X132994061Y-104705628D01*
X133000513Y-104707000D01*
X133191487Y-104707000D01*
X133197939Y-104705628D01*
X133197944Y-104705628D01*
X133284888Y-104687147D01*
X133378288Y-104667294D01*
X133406878Y-104654565D01*
X133546722Y-104592303D01*
X133546724Y-104592302D01*
X133552752Y-104589618D01*
X133593580Y-104559955D01*
X133645745Y-104522054D01*
X133707253Y-104477366D01*
X133718716Y-104464635D01*
X133830621Y-104340352D01*
X133830622Y-104340351D01*
X133835040Y-104335444D01*
X133910888Y-104204072D01*
X133927223Y-104175779D01*
X133927224Y-104175778D01*
X133930527Y-104170056D01*
X133989542Y-103988428D01*
X133989682Y-103987099D01*
X134022482Y-103926344D01*
X134084632Y-103892023D01*
X134155471Y-103896752D01*
X134212508Y-103939028D01*
X134234276Y-103986692D01*
X134234458Y-103988428D01*
X134293473Y-104170056D01*
X134296776Y-104175778D01*
X134296777Y-104175779D01*
X134313112Y-104204072D01*
X134388960Y-104335444D01*
X134393378Y-104340351D01*
X134393379Y-104340352D01*
X134505284Y-104464635D01*
X134516747Y-104477366D01*
X134578255Y-104522054D01*
X134630421Y-104559955D01*
X134671248Y-104589618D01*
X134677276Y-104592302D01*
X134677278Y-104592303D01*
X134817122Y-104654565D01*
X134845712Y-104667294D01*
X134939112Y-104687147D01*
X135026056Y-104705628D01*
X135026061Y-104705628D01*
X135032513Y-104707000D01*
X135223487Y-104707000D01*
X135229939Y-104705628D01*
X135229944Y-104705628D01*
X135316888Y-104687147D01*
X135410288Y-104667294D01*
X135438878Y-104654565D01*
X135578722Y-104592303D01*
X135578724Y-104592302D01*
X135584752Y-104589618D01*
X135625580Y-104559955D01*
X135677745Y-104522054D01*
X135739253Y-104477366D01*
X135796365Y-104413936D01*
X135856810Y-104376698D01*
X135927794Y-104378050D01*
X135983634Y-104413936D01*
X136040747Y-104477366D01*
X136102255Y-104522054D01*
X136154421Y-104559955D01*
X136195248Y-104589618D01*
X136201276Y-104592302D01*
X136201278Y-104592303D01*
X136341122Y-104654565D01*
X136369712Y-104667294D01*
X136463112Y-104687147D01*
X136550056Y-104705628D01*
X136550061Y-104705628D01*
X136556513Y-104707000D01*
X136747487Y-104707000D01*
X136753939Y-104705628D01*
X136753944Y-104705628D01*
X136840888Y-104687147D01*
X136934288Y-104667294D01*
X136962878Y-104654565D01*
X137102722Y-104592303D01*
X137102724Y-104592302D01*
X137108752Y-104589618D01*
X137149580Y-104559955D01*
X137201745Y-104522054D01*
X137263253Y-104477366D01*
X137274716Y-104464635D01*
X137386621Y-104340352D01*
X137386622Y-104340351D01*
X137391040Y-104335444D01*
X137466888Y-104204072D01*
X137483223Y-104175779D01*
X137483224Y-104175778D01*
X137486527Y-104170056D01*
X137545542Y-103988428D01*
X137555178Y-103896752D01*
X137564814Y-103805065D01*
X137565504Y-103798500D01*
X137545542Y-103608572D01*
X137486527Y-103426944D01*
X137475081Y-103407118D01*
X137412513Y-103298749D01*
X137391040Y-103261556D01*
X137352678Y-103218950D01*
X137267675Y-103124545D01*
X137267671Y-103124541D01*
X137263253Y-103119634D01*
X137108752Y-103007382D01*
X137102724Y-103004698D01*
X137102722Y-103004697D01*
X136940319Y-102932391D01*
X136940318Y-102932391D01*
X136934288Y-102929706D01*
X136840888Y-102909853D01*
X136753944Y-102891372D01*
X136753939Y-102891372D01*
X136747487Y-102890000D01*
X136556513Y-102890000D01*
X136550061Y-102891372D01*
X136550056Y-102891372D01*
X136463112Y-102909853D01*
X136369712Y-102929706D01*
X136363682Y-102932391D01*
X136363681Y-102932391D01*
X136201278Y-103004697D01*
X136201276Y-103004698D01*
X136195248Y-103007382D01*
X136040747Y-103119634D01*
X135983635Y-103183064D01*
X135923190Y-103220302D01*
X135852206Y-103218950D01*
X135796366Y-103183064D01*
X135739253Y-103119634D01*
X135584752Y-103007382D01*
X135578724Y-103004698D01*
X135578722Y-103004697D01*
X135416319Y-102932391D01*
X135416318Y-102932391D01*
X135410288Y-102929706D01*
X135316888Y-102909853D01*
X135229944Y-102891372D01*
X135229939Y-102891372D01*
X135223487Y-102890000D01*
X135032513Y-102890000D01*
X135026061Y-102891372D01*
X135026056Y-102891372D01*
X134939112Y-102909853D01*
X134845712Y-102929706D01*
X134839682Y-102932391D01*
X134839681Y-102932391D01*
X134694063Y-102997224D01*
X134623696Y-103006658D01*
X134559399Y-102976551D01*
X134521585Y-102916462D01*
X134516814Y-102882117D01*
X134516814Y-102876565D01*
X134517504Y-102870000D01*
X134497542Y-102680072D01*
X134438527Y-102498444D01*
X134343040Y-102333056D01*
X134263254Y-102244444D01*
X134219675Y-102196045D01*
X134219674Y-102196044D01*
X134215253Y-102191134D01*
X134060752Y-102078882D01*
X134054724Y-102076198D01*
X134054722Y-102076197D01*
X133892319Y-102003891D01*
X133892318Y-102003891D01*
X133886288Y-102001206D01*
X133792887Y-101981353D01*
X133705944Y-101962872D01*
X133705939Y-101962872D01*
X133699487Y-101961500D01*
X133508513Y-101961500D01*
X133502061Y-101962872D01*
X133502056Y-101962872D01*
X133415112Y-101981353D01*
X133321712Y-102001206D01*
X133315682Y-102003891D01*
X133315681Y-102003891D01*
X133153278Y-102076197D01*
X133153276Y-102076198D01*
X133147248Y-102078882D01*
X132992747Y-102191134D01*
X132988326Y-102196044D01*
X132988325Y-102196045D01*
X132944747Y-102244444D01*
X132864960Y-102333056D01*
X132769473Y-102498444D01*
X132710458Y-102680072D01*
X132690496Y-102870000D01*
X132691186Y-102876565D01*
X132691186Y-102876568D01*
X132692703Y-102891003D01*
X132679930Y-102960841D01*
X132637827Y-103005426D01*
X132639248Y-103007382D01*
X132484747Y-103119634D01*
X132480329Y-103124541D01*
X132480325Y-103124545D01*
X132395323Y-103218950D01*
X132356960Y-103261556D01*
X132335487Y-103298749D01*
X132272920Y-103407118D01*
X132261473Y-103426944D01*
X132202458Y-103608572D01*
X132182496Y-103798500D01*
X132183186Y-103805065D01*
X132195733Y-103924446D01*
X132182961Y-103994284D01*
X132134459Y-104046131D01*
X132065626Y-104063525D01*
X131998316Y-104040943D01*
X131976787Y-104021926D01*
X131933675Y-103974045D01*
X131933674Y-103974044D01*
X131929253Y-103969134D01*
X131814829Y-103886000D01*
X131780094Y-103860763D01*
X131780093Y-103860762D01*
X131774752Y-103856882D01*
X131768724Y-103854198D01*
X131768722Y-103854197D01*
X131606319Y-103781891D01*
X131606318Y-103781891D01*
X131600288Y-103779206D01*
X131506887Y-103759353D01*
X131419944Y-103740872D01*
X131419939Y-103740872D01*
X131413487Y-103739500D01*
X131222513Y-103739500D01*
X131216061Y-103740872D01*
X131216056Y-103740872D01*
X131129113Y-103759353D01*
X131035712Y-103779206D01*
X131029682Y-103781891D01*
X131029681Y-103781891D01*
X130867278Y-103854197D01*
X130867276Y-103854198D01*
X130861248Y-103856882D01*
X130855907Y-103860762D01*
X130855906Y-103860763D01*
X130821171Y-103886000D01*
X130706747Y-103969134D01*
X130702326Y-103974044D01*
X130702325Y-103974045D01*
X130604937Y-104082206D01*
X130578960Y-104111056D01*
X130483473Y-104276444D01*
X130424458Y-104458072D01*
X130423768Y-104464633D01*
X130423768Y-104464635D01*
X130411920Y-104577365D01*
X130404496Y-104648000D01*
X130405186Y-104654565D01*
X130420067Y-104796146D01*
X130424458Y-104837928D01*
X130483473Y-105019556D01*
X130486776Y-105025278D01*
X130486777Y-105025279D01*
X130488942Y-105029029D01*
X130578960Y-105184944D01*
X130583378Y-105189851D01*
X130583379Y-105189852D01*
X130705688Y-105325690D01*
X130736406Y-105389697D01*
X130727641Y-105460151D01*
X130705688Y-105494310D01*
X130578960Y-105635056D01*
X130483473Y-105800444D01*
X130424458Y-105982072D01*
X130423768Y-105988633D01*
X130423768Y-105988635D01*
X130421938Y-106006045D01*
X130404496Y-106172000D01*
X129533751Y-106172000D01*
X129517040Y-106143056D01*
X129389253Y-106001134D01*
X129234752Y-105888882D01*
X129228724Y-105886198D01*
X129228722Y-105886197D01*
X129066319Y-105813891D01*
X129066318Y-105813891D01*
X129060288Y-105811206D01*
X128966888Y-105791353D01*
X128879944Y-105772872D01*
X128879939Y-105772872D01*
X128873487Y-105771500D01*
X128682513Y-105771500D01*
X128676061Y-105772872D01*
X128676056Y-105772872D01*
X128589113Y-105791353D01*
X128495712Y-105811206D01*
X128489682Y-105813891D01*
X128489681Y-105813891D01*
X128327278Y-105886197D01*
X128327276Y-105886198D01*
X128321248Y-105888882D01*
X128166747Y-106001134D01*
X128038960Y-106143056D01*
X127943473Y-106308444D01*
X127884458Y-106490072D01*
X127883768Y-106496633D01*
X127883768Y-106496635D01*
X127869961Y-106628000D01*
X127864496Y-106680000D01*
X119175381Y-106680000D01*
X119179474Y-106628000D01*
X119159609Y-106375597D01*
X119156328Y-106361928D01*
X119101660Y-106134221D01*
X119100505Y-106129409D01*
X119047372Y-106001134D01*
X119005511Y-105900072D01*
X119005509Y-105900068D01*
X119003616Y-105895498D01*
X118871328Y-105679624D01*
X118706898Y-105487102D01*
X118514376Y-105322672D01*
X118298502Y-105190384D01*
X118293932Y-105188491D01*
X118293928Y-105188489D01*
X118069164Y-105095389D01*
X118069162Y-105095388D01*
X118064591Y-105093495D01*
X117978664Y-105072866D01*
X117823216Y-105035546D01*
X117823210Y-105035545D01*
X117818403Y-105034391D01*
X117566000Y-105014526D01*
X117313597Y-105034391D01*
X117308790Y-105035545D01*
X117308784Y-105035546D01*
X117153336Y-105072866D01*
X117067409Y-105093495D01*
X117062838Y-105095388D01*
X117062836Y-105095389D01*
X116838072Y-105188489D01*
X116838068Y-105188491D01*
X116833498Y-105190384D01*
X116617624Y-105322672D01*
X116425102Y-105487102D01*
X116260672Y-105679624D01*
X116128384Y-105895498D01*
X116126491Y-105900068D01*
X116126489Y-105900072D01*
X116084628Y-106001134D01*
X116031495Y-106129409D01*
X116030340Y-106134221D01*
X115975673Y-106361928D01*
X115972391Y-106375597D01*
X115952526Y-106628000D01*
X114674500Y-106628000D01*
X114674500Y-105479866D01*
X114667745Y-105417684D01*
X114616615Y-105281295D01*
X114529261Y-105164739D01*
X114412705Y-105077385D01*
X114276316Y-105026255D01*
X114214134Y-105019500D01*
X111917866Y-105019500D01*
X111855684Y-105026255D01*
X111719295Y-105077385D01*
X111705417Y-105087786D01*
X111638911Y-105112634D01*
X111569528Y-105097581D01*
X111519298Y-105047407D01*
X111503852Y-104986982D01*
X111503480Y-102870000D01*
X122276496Y-102870000D01*
X122277186Y-102876565D01*
X122291824Y-103015834D01*
X122296458Y-103059928D01*
X122355473Y-103241556D01*
X122450960Y-103406944D01*
X122455378Y-103411851D01*
X122455379Y-103411852D01*
X122555572Y-103523128D01*
X122578747Y-103548866D01*
X122733248Y-103661118D01*
X122739276Y-103663802D01*
X122739278Y-103663803D01*
X122901681Y-103736109D01*
X122907712Y-103738794D01*
X123001112Y-103758647D01*
X123088056Y-103777128D01*
X123088061Y-103777128D01*
X123094513Y-103778500D01*
X123285487Y-103778500D01*
X123291939Y-103777128D01*
X123291944Y-103777128D01*
X123378887Y-103758647D01*
X123472288Y-103738794D01*
X123478319Y-103736109D01*
X123640722Y-103663803D01*
X123640724Y-103663802D01*
X123646752Y-103661118D01*
X123727716Y-103602294D01*
X123795909Y-103552749D01*
X123795911Y-103552747D01*
X123801253Y-103548866D01*
X123805671Y-103543959D01*
X123805678Y-103543953D01*
X123820672Y-103527300D01*
X123881117Y-103490060D01*
X123940505Y-103488364D01*
X124104047Y-103523127D01*
X124104060Y-103523128D01*
X124110513Y-103524500D01*
X124301487Y-103524500D01*
X124307939Y-103523128D01*
X124307944Y-103523128D01*
X124394888Y-103504647D01*
X124488288Y-103484794D01*
X124534523Y-103464209D01*
X124656722Y-103409803D01*
X124656724Y-103409802D01*
X124662752Y-103407118D01*
X124817253Y-103294866D01*
X124842097Y-103267274D01*
X124940621Y-103157852D01*
X124940622Y-103157851D01*
X124945040Y-103152944D01*
X125027783Y-103009629D01*
X125037223Y-102993279D01*
X125037224Y-102993278D01*
X125040527Y-102987556D01*
X125078724Y-102870000D01*
X127610496Y-102870000D01*
X127611186Y-102876565D01*
X127625824Y-103015834D01*
X127630458Y-103059928D01*
X127689473Y-103241556D01*
X127784960Y-103406944D01*
X127789378Y-103411851D01*
X127789379Y-103411852D01*
X127889572Y-103523128D01*
X127912747Y-103548866D01*
X127921040Y-103554891D01*
X128043589Y-103643929D01*
X128086943Y-103700152D01*
X128093018Y-103770888D01*
X128063165Y-103830173D01*
X128038960Y-103857056D01*
X127991633Y-103939028D01*
X127959488Y-103994706D01*
X127943473Y-104022444D01*
X127884458Y-104204072D01*
X127864496Y-104394000D01*
X127865186Y-104400565D01*
X127882863Y-104568749D01*
X127884458Y-104583928D01*
X127943473Y-104765556D01*
X128038960Y-104930944D01*
X128043378Y-104935851D01*
X128043379Y-104935852D01*
X128124010Y-105025402D01*
X128166747Y-105072866D01*
X128221483Y-105112634D01*
X128285793Y-105159358D01*
X128321248Y-105185118D01*
X128327276Y-105187802D01*
X128327278Y-105187803D01*
X128489681Y-105260109D01*
X128495712Y-105262794D01*
X128582752Y-105281295D01*
X128676056Y-105301128D01*
X128676061Y-105301128D01*
X128682513Y-105302500D01*
X128873487Y-105302500D01*
X128879939Y-105301128D01*
X128879944Y-105301128D01*
X128973248Y-105281295D01*
X129060288Y-105262794D01*
X129066319Y-105260109D01*
X129228722Y-105187803D01*
X129228724Y-105187802D01*
X129234752Y-105185118D01*
X129270208Y-105159358D01*
X129334517Y-105112634D01*
X129389253Y-105072866D01*
X129431990Y-105025402D01*
X129512621Y-104935852D01*
X129512622Y-104935851D01*
X129517040Y-104930944D01*
X129612527Y-104765556D01*
X129671542Y-104583928D01*
X129673138Y-104568749D01*
X129690814Y-104400565D01*
X129691504Y-104394000D01*
X129671542Y-104204072D01*
X129612527Y-104022444D01*
X129596513Y-103994706D01*
X129564367Y-103939028D01*
X129517040Y-103857056D01*
X129389253Y-103715134D01*
X129258411Y-103620071D01*
X129215057Y-103563848D01*
X129208982Y-103493112D01*
X129238835Y-103433827D01*
X129263040Y-103406944D01*
X129358527Y-103241556D01*
X129417542Y-103059928D01*
X129422177Y-103015834D01*
X129436814Y-102876565D01*
X129437504Y-102870000D01*
X129417542Y-102680072D01*
X129358527Y-102498444D01*
X129263040Y-102333056D01*
X129183254Y-102244444D01*
X129139675Y-102196045D01*
X129139674Y-102196044D01*
X129135253Y-102191134D01*
X128980752Y-102078882D01*
X128974724Y-102076198D01*
X128974722Y-102076197D01*
X128812319Y-102003891D01*
X128812318Y-102003891D01*
X128806288Y-102001206D01*
X128712887Y-101981353D01*
X128625944Y-101962872D01*
X128625939Y-101962872D01*
X128619487Y-101961500D01*
X128428513Y-101961500D01*
X128422061Y-101962872D01*
X128422056Y-101962872D01*
X128335112Y-101981353D01*
X128241712Y-102001206D01*
X128235682Y-102003891D01*
X128235681Y-102003891D01*
X128073278Y-102076197D01*
X128073276Y-102076198D01*
X128067248Y-102078882D01*
X127912747Y-102191134D01*
X127908326Y-102196044D01*
X127908325Y-102196045D01*
X127864747Y-102244444D01*
X127784960Y-102333056D01*
X127689473Y-102498444D01*
X127630458Y-102680072D01*
X127610496Y-102870000D01*
X125078724Y-102870000D01*
X125099542Y-102805928D01*
X125119504Y-102616000D01*
X125099542Y-102426072D01*
X125040527Y-102244444D01*
X124945040Y-102079056D01*
X124893479Y-102021791D01*
X124821675Y-101942045D01*
X124821674Y-101942044D01*
X124817253Y-101937134D01*
X124662752Y-101824882D01*
X124656724Y-101822198D01*
X124656722Y-101822197D01*
X124494319Y-101749891D01*
X124494318Y-101749891D01*
X124488288Y-101747206D01*
X124369690Y-101721997D01*
X124307944Y-101708872D01*
X124307939Y-101708872D01*
X124301487Y-101707500D01*
X124110513Y-101707500D01*
X124104061Y-101708872D01*
X124104056Y-101708872D01*
X124042310Y-101721997D01*
X123923712Y-101747206D01*
X123917682Y-101749891D01*
X123917681Y-101749891D01*
X123755278Y-101822197D01*
X123755276Y-101822198D01*
X123749248Y-101824882D01*
X123594747Y-101937134D01*
X123590329Y-101942041D01*
X123590322Y-101942047D01*
X123575328Y-101958700D01*
X123514883Y-101995940D01*
X123455495Y-101997636D01*
X123291953Y-101962873D01*
X123291940Y-101962872D01*
X123285487Y-101961500D01*
X123094513Y-101961500D01*
X123088061Y-101962872D01*
X123088056Y-101962872D01*
X123001112Y-101981353D01*
X122907712Y-102001206D01*
X122901682Y-102003891D01*
X122901681Y-102003891D01*
X122739278Y-102076197D01*
X122739276Y-102076198D01*
X122733248Y-102078882D01*
X122578747Y-102191134D01*
X122574326Y-102196044D01*
X122574325Y-102196045D01*
X122530747Y-102244444D01*
X122450960Y-102333056D01*
X122355473Y-102498444D01*
X122296458Y-102680072D01*
X122276496Y-102870000D01*
X111503480Y-102870000D01*
X111503170Y-101102955D01*
X111523160Y-101034831D01*
X111576808Y-100988329D01*
X111647080Y-100978212D01*
X111711666Y-101007694D01*
X111736603Y-101037099D01*
X111758086Y-101072157D01*
X111758090Y-101072162D01*
X111760672Y-101076376D01*
X111925102Y-101268898D01*
X112117624Y-101433328D01*
X112333498Y-101565616D01*
X112338068Y-101567509D01*
X112338072Y-101567511D01*
X112562836Y-101660611D01*
X112567409Y-101662505D01*
X112652032Y-101682821D01*
X112808784Y-101720454D01*
X112808790Y-101720455D01*
X112813597Y-101721609D01*
X113066000Y-101741474D01*
X113318403Y-101721609D01*
X113323210Y-101720455D01*
X113323216Y-101720454D01*
X113479968Y-101682821D01*
X113564591Y-101662505D01*
X113569164Y-101660611D01*
X113793928Y-101567511D01*
X113793932Y-101567509D01*
X113798502Y-101565616D01*
X114014376Y-101433328D01*
X114206898Y-101268898D01*
X114371328Y-101076376D01*
X114503616Y-100860502D01*
X114510218Y-100844565D01*
X114598611Y-100631164D01*
X114598612Y-100631162D01*
X114600505Y-100626591D01*
X114659609Y-100380403D01*
X114679474Y-100128000D01*
X115952526Y-100128000D01*
X115972391Y-100380403D01*
X116031495Y-100626591D01*
X116033388Y-100631162D01*
X116033389Y-100631164D01*
X116121783Y-100844565D01*
X116128384Y-100860502D01*
X116260672Y-101076376D01*
X116425102Y-101268898D01*
X116617624Y-101433328D01*
X116833498Y-101565616D01*
X116838068Y-101567509D01*
X116838072Y-101567511D01*
X117062836Y-101660611D01*
X117067409Y-101662505D01*
X117152032Y-101682821D01*
X117308784Y-101720454D01*
X117308790Y-101720455D01*
X117313597Y-101721609D01*
X117566000Y-101741474D01*
X117818403Y-101721609D01*
X117823210Y-101720455D01*
X117823216Y-101720454D01*
X117979968Y-101682821D01*
X118064591Y-101662505D01*
X118069164Y-101660611D01*
X118293928Y-101567511D01*
X118293932Y-101567509D01*
X118298502Y-101565616D01*
X118514376Y-101433328D01*
X118706898Y-101268898D01*
X118871328Y-101076376D01*
X119003616Y-100860502D01*
X119010218Y-100844565D01*
X119098611Y-100631164D01*
X119098612Y-100631162D01*
X119100505Y-100626591D01*
X119159609Y-100380403D01*
X119179474Y-100128000D01*
X119159609Y-99875597D01*
X119156150Y-99861186D01*
X119110756Y-99672109D01*
X119100505Y-99629409D01*
X119042242Y-99488749D01*
X119005511Y-99400072D01*
X119005509Y-99400068D01*
X119003616Y-99395498D01*
X118871328Y-99179624D01*
X118706898Y-98987102D01*
X118514376Y-98822672D01*
X118487170Y-98806000D01*
X122276496Y-98806000D01*
X122296458Y-98995928D01*
X122355473Y-99177556D01*
X122358776Y-99183278D01*
X122358777Y-99183279D01*
X122379667Y-99219461D01*
X122450960Y-99342944D01*
X122455378Y-99347851D01*
X122455379Y-99347852D01*
X122574325Y-99479955D01*
X122578747Y-99484866D01*
X122733248Y-99597118D01*
X122739276Y-99599802D01*
X122739278Y-99599803D01*
X122901681Y-99672109D01*
X122907712Y-99674794D01*
X123001113Y-99694647D01*
X123088056Y-99713128D01*
X123088061Y-99713128D01*
X123094513Y-99714500D01*
X123285487Y-99714500D01*
X123291939Y-99713128D01*
X123291944Y-99713128D01*
X123378887Y-99694647D01*
X123472288Y-99674794D01*
X123478319Y-99672109D01*
X123640722Y-99599803D01*
X123640724Y-99599802D01*
X123646752Y-99597118D01*
X123801253Y-99484866D01*
X123805675Y-99479955D01*
X123924621Y-99347852D01*
X123924622Y-99347851D01*
X123929040Y-99342944D01*
X124000333Y-99219461D01*
X124021223Y-99183279D01*
X124021224Y-99183278D01*
X124024527Y-99177556D01*
X124062724Y-99060000D01*
X127610496Y-99060000D01*
X127630458Y-99249928D01*
X127689473Y-99431556D01*
X127784960Y-99596944D01*
X127789378Y-99601851D01*
X127789379Y-99601852D01*
X127870076Y-99691475D01*
X127900794Y-99755482D01*
X127892029Y-99825936D01*
X127885568Y-99838769D01*
X127816473Y-99958444D01*
X127757458Y-100140072D01*
X127756768Y-100146633D01*
X127756768Y-100146635D01*
X127754938Y-100164045D01*
X127737496Y-100330000D01*
X127738186Y-100336565D01*
X127742794Y-100380403D01*
X127757458Y-100519928D01*
X127816473Y-100701556D01*
X127911960Y-100866944D01*
X128039747Y-101008866D01*
X128194248Y-101121118D01*
X128200276Y-101123802D01*
X128200278Y-101123803D01*
X128362681Y-101196109D01*
X128368712Y-101198794D01*
X128462112Y-101218647D01*
X128549056Y-101237128D01*
X128549061Y-101237128D01*
X128555513Y-101238500D01*
X128746487Y-101238500D01*
X128752939Y-101237128D01*
X128752944Y-101237128D01*
X128839887Y-101218647D01*
X128933288Y-101198794D01*
X128939319Y-101196109D01*
X129101722Y-101123803D01*
X129101724Y-101123802D01*
X129107752Y-101121118D01*
X129262253Y-101008866D01*
X129390040Y-100866944D01*
X129406751Y-100838000D01*
X137008496Y-100838000D01*
X137009186Y-100844565D01*
X137026863Y-101012749D01*
X137028458Y-101027928D01*
X137087473Y-101209556D01*
X137182960Y-101374944D01*
X137310747Y-101516866D01*
X137465248Y-101629118D01*
X137471276Y-101631802D01*
X137471278Y-101631803D01*
X137633681Y-101704109D01*
X137639712Y-101706794D01*
X137733112Y-101726647D01*
X137820056Y-101745128D01*
X137820061Y-101745128D01*
X137826513Y-101746500D01*
X138017487Y-101746500D01*
X138023939Y-101745128D01*
X138023944Y-101745128D01*
X138110887Y-101726647D01*
X138204288Y-101706794D01*
X138210319Y-101704109D01*
X138372722Y-101631803D01*
X138372724Y-101631802D01*
X138378752Y-101629118D01*
X138533253Y-101516866D01*
X138661040Y-101374944D01*
X138756527Y-101209556D01*
X138815542Y-101027928D01*
X138817138Y-101012749D01*
X138834814Y-100844565D01*
X138835504Y-100838000D01*
X138815542Y-100648072D01*
X138756527Y-100466444D01*
X138661040Y-100301056D01*
X138533253Y-100159134D01*
X138384332Y-100050936D01*
X138340978Y-99994713D01*
X138334903Y-99923977D01*
X138368035Y-99861186D01*
X138384332Y-99847064D01*
X138510383Y-99755482D01*
X138533253Y-99738866D01*
X138631232Y-99630049D01*
X138656621Y-99601852D01*
X138656622Y-99601851D01*
X138661040Y-99596944D01*
X138756527Y-99431556D01*
X138815542Y-99249928D01*
X138835504Y-99060000D01*
X138815542Y-98870072D01*
X138756527Y-98688444D01*
X138661040Y-98523056D01*
X138581254Y-98434444D01*
X138537675Y-98386045D01*
X138537674Y-98386044D01*
X138533253Y-98381134D01*
X138378752Y-98268882D01*
X138372724Y-98266198D01*
X138372722Y-98266197D01*
X138210319Y-98193891D01*
X138210318Y-98193891D01*
X138204288Y-98191206D01*
X138110888Y-98171353D01*
X138023944Y-98152872D01*
X138023939Y-98152872D01*
X138017487Y-98151500D01*
X137826513Y-98151500D01*
X137820061Y-98152872D01*
X137820056Y-98152872D01*
X137733112Y-98171353D01*
X137639712Y-98191206D01*
X137633682Y-98193891D01*
X137633681Y-98193891D01*
X137471278Y-98266197D01*
X137471276Y-98266198D01*
X137465248Y-98268882D01*
X137310747Y-98381134D01*
X137306326Y-98386044D01*
X137306325Y-98386045D01*
X137262747Y-98434444D01*
X137182960Y-98523056D01*
X137087473Y-98688444D01*
X137028458Y-98870072D01*
X137008496Y-99060000D01*
X137028458Y-99249928D01*
X137087473Y-99431556D01*
X137182960Y-99596944D01*
X137187378Y-99601851D01*
X137187379Y-99601852D01*
X137212768Y-99630049D01*
X137310747Y-99738866D01*
X137333617Y-99755482D01*
X137459668Y-99847064D01*
X137503022Y-99903287D01*
X137509097Y-99974023D01*
X137475965Y-100036814D01*
X137459668Y-100050936D01*
X137310747Y-100159134D01*
X137182960Y-100301056D01*
X137087473Y-100466444D01*
X137028458Y-100648072D01*
X137008496Y-100838000D01*
X129406751Y-100838000D01*
X129485527Y-100701556D01*
X129544542Y-100519928D01*
X129559207Y-100380403D01*
X129563814Y-100336565D01*
X129564504Y-100330000D01*
X129547062Y-100164045D01*
X129545232Y-100146635D01*
X129545232Y-100146633D01*
X129544542Y-100140072D01*
X129485527Y-99958444D01*
X129480075Y-99949000D01*
X129423562Y-99851118D01*
X129390040Y-99793056D01*
X129344744Y-99742749D01*
X129304924Y-99698525D01*
X129274206Y-99634518D01*
X129282971Y-99564064D01*
X129289432Y-99551231D01*
X129358527Y-99431556D01*
X129417542Y-99249928D01*
X129437504Y-99060000D01*
X129417542Y-98870072D01*
X129358527Y-98688444D01*
X129263040Y-98523056D01*
X129183254Y-98434444D01*
X129139675Y-98386045D01*
X129139674Y-98386044D01*
X129135253Y-98381134D01*
X128980752Y-98268882D01*
X128974724Y-98266198D01*
X128974722Y-98266197D01*
X128812319Y-98193891D01*
X128812318Y-98193891D01*
X128806288Y-98191206D01*
X128712888Y-98171353D01*
X128625944Y-98152872D01*
X128625939Y-98152872D01*
X128619487Y-98151500D01*
X128428513Y-98151500D01*
X128422061Y-98152872D01*
X128422056Y-98152872D01*
X128335112Y-98171353D01*
X128241712Y-98191206D01*
X128235682Y-98193891D01*
X128235681Y-98193891D01*
X128073278Y-98266197D01*
X128073276Y-98266198D01*
X128067248Y-98268882D01*
X127912747Y-98381134D01*
X127908326Y-98386044D01*
X127908325Y-98386045D01*
X127864747Y-98434444D01*
X127784960Y-98523056D01*
X127689473Y-98688444D01*
X127630458Y-98870072D01*
X127610496Y-99060000D01*
X124062724Y-99060000D01*
X124083542Y-98995928D01*
X124103504Y-98806000D01*
X124091624Y-98692970D01*
X124084232Y-98622635D01*
X124084232Y-98622633D01*
X124083542Y-98616072D01*
X124024527Y-98434444D01*
X123929040Y-98269056D01*
X123801253Y-98127134D01*
X123646752Y-98014882D01*
X123640724Y-98012198D01*
X123640722Y-98012197D01*
X123478319Y-97939891D01*
X123478318Y-97939891D01*
X123472288Y-97937206D01*
X123378887Y-97917353D01*
X123291944Y-97898872D01*
X123291939Y-97898872D01*
X123285487Y-97897500D01*
X123094513Y-97897500D01*
X123088061Y-97898872D01*
X123088056Y-97898872D01*
X123001112Y-97917353D01*
X122907712Y-97937206D01*
X122901682Y-97939891D01*
X122901681Y-97939891D01*
X122739278Y-98012197D01*
X122739276Y-98012198D01*
X122733248Y-98014882D01*
X122578747Y-98127134D01*
X122450960Y-98269056D01*
X122355473Y-98434444D01*
X122296458Y-98616072D01*
X122295768Y-98622633D01*
X122295768Y-98622635D01*
X122288376Y-98692970D01*
X122276496Y-98806000D01*
X118487170Y-98806000D01*
X118298502Y-98690384D01*
X118293932Y-98688491D01*
X118293928Y-98688489D01*
X118182680Y-98642409D01*
X118127399Y-98597861D01*
X118104978Y-98530497D01*
X118122536Y-98461706D01*
X118174498Y-98413328D01*
X118182680Y-98409591D01*
X118293928Y-98363511D01*
X118293932Y-98363509D01*
X118298502Y-98361616D01*
X118514376Y-98229328D01*
X118706898Y-98064898D01*
X118871328Y-97872376D01*
X119003616Y-97656502D01*
X119100505Y-97422591D01*
X119159609Y-97176403D01*
X119179474Y-96924000D01*
X119159609Y-96671597D01*
X119100505Y-96425409D01*
X119003616Y-96191498D01*
X118871328Y-95975624D01*
X118706898Y-95783102D01*
X118514376Y-95618672D01*
X118298502Y-95486384D01*
X118293932Y-95484491D01*
X118293928Y-95484489D01*
X118069164Y-95391389D01*
X118069162Y-95391388D01*
X118064591Y-95389495D01*
X117979968Y-95369179D01*
X117823216Y-95331546D01*
X117823210Y-95331545D01*
X117818403Y-95330391D01*
X117566000Y-95310526D01*
X117313597Y-95330391D01*
X117308790Y-95331545D01*
X117308784Y-95331546D01*
X117152032Y-95369179D01*
X117067409Y-95389495D01*
X117062838Y-95391388D01*
X117062836Y-95391389D01*
X116838072Y-95484489D01*
X116838068Y-95484491D01*
X116833498Y-95486384D01*
X116617624Y-95618672D01*
X116425102Y-95783102D01*
X116260672Y-95975624D01*
X116128384Y-96191498D01*
X116031495Y-96425409D01*
X115972391Y-96671597D01*
X115952526Y-96924000D01*
X115972391Y-97176403D01*
X116031495Y-97422591D01*
X116128384Y-97656502D01*
X116260672Y-97872376D01*
X116425102Y-98064898D01*
X116617624Y-98229328D01*
X116833498Y-98361616D01*
X116838068Y-98363509D01*
X116838072Y-98363511D01*
X116949320Y-98409591D01*
X117004601Y-98454139D01*
X117027022Y-98521503D01*
X117009464Y-98590294D01*
X116957502Y-98638672D01*
X116949320Y-98642409D01*
X116838072Y-98688489D01*
X116838068Y-98688491D01*
X116833498Y-98690384D01*
X116617624Y-98822672D01*
X116425102Y-98987102D01*
X116260672Y-99179624D01*
X116128384Y-99395498D01*
X116126491Y-99400068D01*
X116126489Y-99400072D01*
X116089758Y-99488749D01*
X116031495Y-99629409D01*
X116021244Y-99672109D01*
X115975851Y-99861186D01*
X115972391Y-99875597D01*
X115952526Y-100128000D01*
X114679474Y-100128000D01*
X114659609Y-99875597D01*
X114656150Y-99861186D01*
X114610756Y-99672109D01*
X114600505Y-99629409D01*
X114542242Y-99488749D01*
X114505511Y-99400072D01*
X114505509Y-99400068D01*
X114503616Y-99395498D01*
X114371328Y-99179624D01*
X114206898Y-98987102D01*
X114014376Y-98822672D01*
X114010163Y-98820090D01*
X114010153Y-98820083D01*
X113921787Y-98765932D01*
X113874156Y-98713285D01*
X113862549Y-98643243D01*
X113890652Y-98578046D01*
X113949543Y-98538392D01*
X113987622Y-98532500D01*
X114214134Y-98532500D01*
X114276316Y-98525745D01*
X114412705Y-98474615D01*
X114529261Y-98387261D01*
X114616615Y-98270705D01*
X114667745Y-98134316D01*
X114674500Y-98072134D01*
X114674500Y-95775866D01*
X114667745Y-95713684D01*
X114616615Y-95577295D01*
X114529261Y-95460739D01*
X114412705Y-95373385D01*
X114276316Y-95322255D01*
X114214134Y-95315500D01*
X111917866Y-95315500D01*
X111855684Y-95322255D01*
X111719295Y-95373385D01*
X111703711Y-95385065D01*
X111637207Y-95409912D01*
X111567824Y-95394860D01*
X111517594Y-95344686D01*
X111502147Y-95284260D01*
X111502087Y-94938206D01*
X111502052Y-94742000D01*
X125451496Y-94742000D01*
X125471458Y-94931928D01*
X125530473Y-95113556D01*
X125625960Y-95278944D01*
X125630378Y-95283851D01*
X125630379Y-95283852D01*
X125721511Y-95385064D01*
X125753747Y-95420866D01*
X125908248Y-95533118D01*
X125914276Y-95535802D01*
X125914278Y-95535803D01*
X126026356Y-95585703D01*
X126082712Y-95610794D01*
X126176112Y-95630647D01*
X126263056Y-95649128D01*
X126263061Y-95649128D01*
X126269513Y-95650500D01*
X126460487Y-95650500D01*
X126466939Y-95649128D01*
X126466944Y-95649128D01*
X126553887Y-95630647D01*
X126647288Y-95610794D01*
X126703644Y-95585703D01*
X126815722Y-95535803D01*
X126815724Y-95535802D01*
X126821752Y-95533118D01*
X126976253Y-95420866D01*
X127008489Y-95385064D01*
X127099621Y-95283852D01*
X127099622Y-95283851D01*
X127104040Y-95278944D01*
X127199527Y-95113556D01*
X127258542Y-94931928D01*
X127278504Y-94742000D01*
X127258542Y-94552072D01*
X127199527Y-94370444D01*
X127104040Y-94205056D01*
X126976253Y-94063134D01*
X126821752Y-93950882D01*
X126815724Y-93948198D01*
X126815722Y-93948197D01*
X126653319Y-93875891D01*
X126653318Y-93875891D01*
X126647288Y-93873206D01*
X126553888Y-93853353D01*
X126466944Y-93834872D01*
X126466939Y-93834872D01*
X126460487Y-93833500D01*
X126269513Y-93833500D01*
X126263061Y-93834872D01*
X126263056Y-93834872D01*
X126176112Y-93853353D01*
X126082712Y-93873206D01*
X126076682Y-93875891D01*
X126076681Y-93875891D01*
X125914278Y-93948197D01*
X125914276Y-93948198D01*
X125908248Y-93950882D01*
X125753747Y-94063134D01*
X125625960Y-94205056D01*
X125530473Y-94370444D01*
X125471458Y-94552072D01*
X125451496Y-94742000D01*
X111502052Y-94742000D01*
X111501740Y-92964000D01*
X127229496Y-92964000D01*
X127249458Y-93153928D01*
X127308473Y-93335556D01*
X127403960Y-93500944D01*
X127531747Y-93642866D01*
X127686248Y-93755118D01*
X127692276Y-93757802D01*
X127692278Y-93757803D01*
X127854681Y-93830109D01*
X127860712Y-93832794D01*
X127954113Y-93852647D01*
X128041056Y-93871128D01*
X128041061Y-93871128D01*
X128047513Y-93872500D01*
X128238487Y-93872500D01*
X128244939Y-93871128D01*
X128244944Y-93871128D01*
X128331887Y-93852647D01*
X128425288Y-93832794D01*
X128431319Y-93830109D01*
X128593722Y-93757803D01*
X128593724Y-93757802D01*
X128599752Y-93755118D01*
X128754253Y-93642866D01*
X128882040Y-93500944D01*
X128977527Y-93335556D01*
X129036542Y-93153928D01*
X129056504Y-92964000D01*
X129036542Y-92774072D01*
X128977527Y-92592444D01*
X128882040Y-92427056D01*
X128754253Y-92285134D01*
X128599752Y-92172882D01*
X128593724Y-92170198D01*
X128593722Y-92170197D01*
X128431319Y-92097891D01*
X128431318Y-92097891D01*
X128425288Y-92095206D01*
X128331887Y-92075353D01*
X128244944Y-92056872D01*
X128244939Y-92056872D01*
X128238487Y-92055500D01*
X128047513Y-92055500D01*
X128041061Y-92056872D01*
X128041056Y-92056872D01*
X127954112Y-92075353D01*
X127860712Y-92095206D01*
X127854682Y-92097891D01*
X127854681Y-92097891D01*
X127692278Y-92170197D01*
X127692276Y-92170198D01*
X127686248Y-92172882D01*
X127531747Y-92285134D01*
X127403960Y-92427056D01*
X127308473Y-92592444D01*
X127249458Y-92774072D01*
X127229496Y-92964000D01*
X111501740Y-92964000D01*
X111501464Y-91396172D01*
X111521454Y-91328049D01*
X111575102Y-91281547D01*
X111645374Y-91271430D01*
X111709960Y-91300912D01*
X111734896Y-91330315D01*
X111758087Y-91368158D01*
X111760672Y-91372376D01*
X111925102Y-91564898D01*
X112117624Y-91729328D01*
X112333498Y-91861616D01*
X112338068Y-91863509D01*
X112338072Y-91863511D01*
X112562836Y-91956611D01*
X112567409Y-91958505D01*
X112652032Y-91978821D01*
X112808784Y-92016454D01*
X112808790Y-92016455D01*
X112813597Y-92017609D01*
X113066000Y-92037474D01*
X113318403Y-92017609D01*
X113323210Y-92016455D01*
X113323216Y-92016454D01*
X113479968Y-91978821D01*
X113564591Y-91958505D01*
X113569164Y-91956611D01*
X113793928Y-91863511D01*
X113793932Y-91863509D01*
X113798502Y-91861616D01*
X114014376Y-91729328D01*
X114206898Y-91564898D01*
X114371328Y-91372376D01*
X114503616Y-91156502D01*
X114520656Y-91115365D01*
X114598611Y-90927164D01*
X114598612Y-90927162D01*
X114600505Y-90922591D01*
X114630641Y-90797064D01*
X114658454Y-90681216D01*
X114658455Y-90681210D01*
X114659609Y-90676403D01*
X114679474Y-90424000D01*
X114659609Y-90171597D01*
X114651591Y-90138197D01*
X114601660Y-89930221D01*
X114600505Y-89925409D01*
X114503616Y-89691498D01*
X114371328Y-89475624D01*
X114206898Y-89283102D01*
X114014376Y-89118672D01*
X113798502Y-88986384D01*
X113793932Y-88984491D01*
X113793928Y-88984489D01*
X113569164Y-88891389D01*
X113569162Y-88891388D01*
X113564591Y-88889495D01*
X113479968Y-88869179D01*
X113323216Y-88831546D01*
X113323210Y-88831545D01*
X113318403Y-88830391D01*
X113066000Y-88810526D01*
X112813597Y-88830391D01*
X112808790Y-88831545D01*
X112808784Y-88831546D01*
X112652032Y-88869179D01*
X112567409Y-88889495D01*
X112562838Y-88891388D01*
X112562836Y-88891389D01*
X112338072Y-88984489D01*
X112338068Y-88984491D01*
X112333498Y-88986384D01*
X112117624Y-89118672D01*
X111925102Y-89283102D01*
X111760672Y-89475624D01*
X111758090Y-89479838D01*
X111758086Y-89479843D01*
X111734556Y-89518241D01*
X111681909Y-89565873D01*
X111611867Y-89577480D01*
X111546670Y-89549377D01*
X111507015Y-89490487D01*
X111501123Y-89452429D01*
X111500892Y-88138000D01*
X115164496Y-88138000D01*
X115184458Y-88327928D01*
X115243473Y-88509556D01*
X115338960Y-88674944D01*
X115466747Y-88816866D01*
X115621248Y-88929118D01*
X115627276Y-88931802D01*
X115627278Y-88931803D01*
X115778381Y-88999078D01*
X115795712Y-89006794D01*
X115889113Y-89026647D01*
X115976056Y-89045128D01*
X115976061Y-89045128D01*
X115982513Y-89046500D01*
X116173487Y-89046500D01*
X116179939Y-89045128D01*
X116179944Y-89045128D01*
X116266887Y-89026647D01*
X116360288Y-89006794D01*
X116377618Y-88999078D01*
X116447986Y-88989645D01*
X116512283Y-89019753D01*
X116550095Y-89079842D01*
X116549418Y-89150836D01*
X116510696Y-89209997D01*
X116428863Y-89279889D01*
X116428858Y-89279894D01*
X116425102Y-89283102D01*
X116260672Y-89475624D01*
X116128384Y-89691498D01*
X116031495Y-89925409D01*
X116030340Y-89930221D01*
X115980410Y-90138197D01*
X115972391Y-90171597D01*
X115952526Y-90424000D01*
X115972391Y-90676403D01*
X115973545Y-90681210D01*
X115973546Y-90681216D01*
X116001359Y-90797064D01*
X116031495Y-90922591D01*
X116033388Y-90927162D01*
X116033389Y-90927164D01*
X116111345Y-91115365D01*
X116128384Y-91156502D01*
X116260672Y-91372376D01*
X116425102Y-91564898D01*
X116617624Y-91729328D01*
X116833498Y-91861616D01*
X116838068Y-91863509D01*
X116838072Y-91863511D01*
X117062836Y-91956611D01*
X117067409Y-91958505D01*
X117152032Y-91978821D01*
X117308784Y-92016454D01*
X117308790Y-92016455D01*
X117313597Y-92017609D01*
X117566000Y-92037474D01*
X117818403Y-92017609D01*
X117823210Y-92016455D01*
X117823216Y-92016454D01*
X117979968Y-91978821D01*
X118064591Y-91958505D01*
X118069164Y-91956611D01*
X118293928Y-91863511D01*
X118293932Y-91863509D01*
X118298502Y-91861616D01*
X118514376Y-91729328D01*
X118706898Y-91564898D01*
X118871328Y-91372376D01*
X119003616Y-91156502D01*
X119020656Y-91115365D01*
X119096608Y-90932000D01*
X119736496Y-90932000D01*
X119756458Y-91121928D01*
X119815473Y-91303556D01*
X119910960Y-91468944D01*
X119915378Y-91473851D01*
X119915379Y-91473852D01*
X119993975Y-91561142D01*
X120038747Y-91610866D01*
X120091172Y-91648955D01*
X120162920Y-91701083D01*
X120193248Y-91723118D01*
X120199276Y-91725802D01*
X120199278Y-91725803D01*
X120361681Y-91798109D01*
X120367712Y-91800794D01*
X120461112Y-91820647D01*
X120548056Y-91839128D01*
X120548061Y-91839128D01*
X120554513Y-91840500D01*
X120745487Y-91840500D01*
X120751939Y-91839128D01*
X120751944Y-91839128D01*
X120838887Y-91820647D01*
X120932288Y-91800794D01*
X121004142Y-91768803D01*
X121077904Y-91735962D01*
X121148271Y-91726528D01*
X121203215Y-91749133D01*
X121226592Y-91766118D01*
X121232620Y-91768802D01*
X121232622Y-91768803D01*
X121395025Y-91841109D01*
X121401056Y-91843794D01*
X121493817Y-91863511D01*
X121581400Y-91882128D01*
X121581405Y-91882128D01*
X121587857Y-91883500D01*
X121778831Y-91883500D01*
X121785283Y-91882128D01*
X121785288Y-91882128D01*
X121872871Y-91863511D01*
X121965632Y-91843794D01*
X121971663Y-91841109D01*
X122134066Y-91768803D01*
X122134068Y-91768802D01*
X122140096Y-91766118D01*
X122294597Y-91653866D01*
X122422384Y-91511944D01*
X122517871Y-91346556D01*
X122576886Y-91164928D01*
X122578253Y-91151928D01*
X122596158Y-90981565D01*
X122596848Y-90975000D01*
X122590834Y-90917779D01*
X122577576Y-90791635D01*
X122577576Y-90791633D01*
X122576886Y-90785072D01*
X122517871Y-90603444D01*
X122422384Y-90438056D01*
X122379248Y-90390148D01*
X122299019Y-90301045D01*
X122299018Y-90301044D01*
X122294597Y-90296134D01*
X122195501Y-90224136D01*
X122145438Y-90187763D01*
X122145437Y-90187762D01*
X122140096Y-90183882D01*
X122134068Y-90181198D01*
X122134066Y-90181197D01*
X121971663Y-90108891D01*
X121971662Y-90108891D01*
X121965632Y-90106206D01*
X121872231Y-90086353D01*
X121785288Y-90067872D01*
X121785283Y-90067872D01*
X121778831Y-90066500D01*
X121587857Y-90066500D01*
X121581405Y-90067872D01*
X121581400Y-90067872D01*
X121494457Y-90086353D01*
X121401056Y-90106206D01*
X121395026Y-90108891D01*
X121395025Y-90108891D01*
X121255440Y-90171038D01*
X121185073Y-90180472D01*
X121130130Y-90157867D01*
X121112094Y-90144763D01*
X121112092Y-90144762D01*
X121106752Y-90140882D01*
X121100724Y-90138198D01*
X121100722Y-90138197D01*
X120938319Y-90065891D01*
X120938318Y-90065891D01*
X120932288Y-90063206D01*
X120838887Y-90043353D01*
X120751944Y-90024872D01*
X120751939Y-90024872D01*
X120745487Y-90023500D01*
X120554513Y-90023500D01*
X120548061Y-90024872D01*
X120548056Y-90024872D01*
X120461112Y-90043353D01*
X120367712Y-90063206D01*
X120361682Y-90065891D01*
X120361681Y-90065891D01*
X120199278Y-90138197D01*
X120199276Y-90138198D01*
X120193248Y-90140882D01*
X120038747Y-90253134D01*
X119910960Y-90395056D01*
X119815473Y-90560444D01*
X119756458Y-90742072D01*
X119755768Y-90748633D01*
X119755768Y-90748635D01*
X119751249Y-90791635D01*
X119736496Y-90932000D01*
X119096608Y-90932000D01*
X119098611Y-90927164D01*
X119098612Y-90927162D01*
X119100505Y-90922591D01*
X119130641Y-90797064D01*
X119158454Y-90681216D01*
X119158455Y-90681210D01*
X119159609Y-90676403D01*
X119179474Y-90424000D01*
X119159609Y-90171597D01*
X119151591Y-90138197D01*
X119101660Y-89930221D01*
X119100505Y-89925409D01*
X119003616Y-89691498D01*
X118871328Y-89475624D01*
X118706898Y-89283102D01*
X118514376Y-89118672D01*
X118298502Y-88986384D01*
X118293932Y-88984491D01*
X118293928Y-88984489D01*
X118069164Y-88891389D01*
X118069162Y-88891388D01*
X118064591Y-88889495D01*
X117979968Y-88869179D01*
X117823216Y-88831546D01*
X117823210Y-88831545D01*
X117818403Y-88830391D01*
X117566000Y-88810526D01*
X117313597Y-88830391D01*
X117308790Y-88831545D01*
X117308784Y-88831546D01*
X117152032Y-88869179D01*
X117067409Y-88889495D01*
X117062838Y-88891388D01*
X117062836Y-88891389D01*
X116874488Y-88969405D01*
X116803898Y-88976994D01*
X116740411Y-88945215D01*
X116704184Y-88884156D01*
X116706718Y-88813205D01*
X116732632Y-88768689D01*
X116817040Y-88674944D01*
X116912527Y-88509556D01*
X116971542Y-88327928D01*
X116991504Y-88138000D01*
X116971542Y-87948072D01*
X116912527Y-87766444D01*
X116817040Y-87601056D01*
X116689253Y-87459134D01*
X116534752Y-87346882D01*
X116528724Y-87344198D01*
X116528722Y-87344197D01*
X116366319Y-87271891D01*
X116366318Y-87271891D01*
X116360288Y-87269206D01*
X116266887Y-87249353D01*
X116179944Y-87230872D01*
X116179939Y-87230872D01*
X116173487Y-87229500D01*
X115982513Y-87229500D01*
X115976061Y-87230872D01*
X115976056Y-87230872D01*
X115889113Y-87249353D01*
X115795712Y-87269206D01*
X115789682Y-87271891D01*
X115789681Y-87271891D01*
X115627278Y-87344197D01*
X115627276Y-87344198D01*
X115621248Y-87346882D01*
X115466747Y-87459134D01*
X115338960Y-87601056D01*
X115243473Y-87766444D01*
X115184458Y-87948072D01*
X115164496Y-88138000D01*
X111500892Y-88138000D01*
X111500772Y-87455251D01*
X111500612Y-86546511D01*
X119616007Y-86546511D01*
X119635969Y-86736439D01*
X119694984Y-86918067D01*
X119790471Y-87083455D01*
X119918258Y-87225377D01*
X120072759Y-87337629D01*
X120078787Y-87340313D01*
X120078789Y-87340314D01*
X120241192Y-87412620D01*
X120247223Y-87415305D01*
X120340623Y-87435158D01*
X120427567Y-87453639D01*
X120427572Y-87453639D01*
X120434024Y-87455011D01*
X120624998Y-87455011D01*
X120631450Y-87453639D01*
X120631455Y-87453639D01*
X120718399Y-87435158D01*
X120811799Y-87415305D01*
X120817830Y-87412620D01*
X120980233Y-87340314D01*
X120980235Y-87340313D01*
X120986263Y-87337629D01*
X121140764Y-87225377D01*
X121268551Y-87083455D01*
X121364038Y-86918067D01*
X121423053Y-86736439D01*
X121443015Y-86546511D01*
X121423053Y-86356583D01*
X121364038Y-86174955D01*
X121268551Y-86009567D01*
X121140764Y-85867645D01*
X120986263Y-85755393D01*
X120980235Y-85752709D01*
X120980233Y-85752708D01*
X120817830Y-85680402D01*
X120817829Y-85680402D01*
X120811799Y-85677717D01*
X120718398Y-85657864D01*
X120631455Y-85639383D01*
X120631450Y-85639383D01*
X120624998Y-85638011D01*
X120434024Y-85638011D01*
X120427572Y-85639383D01*
X120427567Y-85639383D01*
X120340624Y-85657864D01*
X120247223Y-85677717D01*
X120241193Y-85680402D01*
X120241192Y-85680402D01*
X120078789Y-85752708D01*
X120078787Y-85752709D01*
X120072759Y-85755393D01*
X119918258Y-85867645D01*
X119790471Y-86009567D01*
X119694984Y-86174955D01*
X119635969Y-86356583D01*
X119616007Y-86546511D01*
X111500612Y-86546511D01*
X111500447Y-85611245D01*
X111520437Y-85543122D01*
X111574085Y-85496620D01*
X111644357Y-85486503D01*
X111652646Y-85487978D01*
X111658052Y-85489127D01*
X111658055Y-85489127D01*
X111664513Y-85490500D01*
X111855487Y-85490500D01*
X111861939Y-85489128D01*
X111861944Y-85489128D01*
X111948888Y-85470647D01*
X112042288Y-85450794D01*
X112048319Y-85448109D01*
X112210722Y-85375803D01*
X112210724Y-85375802D01*
X112216752Y-85373118D01*
X112371253Y-85260866D01*
X112499040Y-85118944D01*
X112594527Y-84953556D01*
X112653542Y-84771928D01*
X112660959Y-84701364D01*
X112672814Y-84588565D01*
X112673504Y-84582000D01*
X112654868Y-84404688D01*
X112654232Y-84398635D01*
X112654232Y-84398633D01*
X112653542Y-84392072D01*
X112594527Y-84210444D01*
X112499040Y-84045056D01*
X112483151Y-84027409D01*
X120286658Y-84027409D01*
X120287348Y-84033974D01*
X120305896Y-84210444D01*
X120306620Y-84217337D01*
X120365635Y-84398965D01*
X120461122Y-84564353D01*
X120465540Y-84569260D01*
X120465541Y-84569261D01*
X120584487Y-84701364D01*
X120588909Y-84706275D01*
X120743410Y-84818527D01*
X120749438Y-84821211D01*
X120749440Y-84821212D01*
X120911843Y-84893518D01*
X120917874Y-84896203D01*
X121011274Y-84916056D01*
X121098218Y-84934537D01*
X121098223Y-84934537D01*
X121104675Y-84935909D01*
X121295649Y-84935909D01*
X121302101Y-84934537D01*
X121302106Y-84934537D01*
X121389050Y-84916056D01*
X121482450Y-84896203D01*
X121488481Y-84893518D01*
X121650884Y-84821212D01*
X121650886Y-84821211D01*
X121656914Y-84818527D01*
X121811415Y-84706275D01*
X121815837Y-84701364D01*
X121934783Y-84569261D01*
X121934784Y-84569260D01*
X121939202Y-84564353D01*
X122034689Y-84398965D01*
X122093704Y-84217337D01*
X122094429Y-84210444D01*
X122112976Y-84033974D01*
X122113666Y-84027409D01*
X122102809Y-83924109D01*
X122094394Y-83844044D01*
X122094394Y-83844042D01*
X122093704Y-83837481D01*
X122034689Y-83655853D01*
X121939202Y-83490465D01*
X121889513Y-83435279D01*
X121815837Y-83353454D01*
X121815836Y-83353453D01*
X121811415Y-83348543D01*
X121761118Y-83312000D01*
X122276496Y-83312000D01*
X122296458Y-83501928D01*
X122355473Y-83683556D01*
X122450960Y-83848944D01*
X122455378Y-83853851D01*
X122455379Y-83853852D01*
X122499753Y-83903134D01*
X122578747Y-83990866D01*
X122733248Y-84103118D01*
X122739276Y-84105802D01*
X122739278Y-84105803D01*
X122901681Y-84178109D01*
X122907712Y-84180794D01*
X123001113Y-84200647D01*
X123088056Y-84219128D01*
X123088061Y-84219128D01*
X123094513Y-84220500D01*
X123285487Y-84220500D01*
X123291939Y-84219128D01*
X123291944Y-84219128D01*
X123378887Y-84200647D01*
X123472288Y-84180794D01*
X123478319Y-84178109D01*
X123640722Y-84105803D01*
X123640724Y-84105802D01*
X123646752Y-84103118D01*
X123801253Y-83990866D01*
X123880247Y-83903134D01*
X123924621Y-83853852D01*
X123924622Y-83853851D01*
X123929040Y-83848944D01*
X124024527Y-83683556D01*
X124083542Y-83501928D01*
X124103504Y-83312000D01*
X124083542Y-83122072D01*
X124062724Y-83058000D01*
X133452496Y-83058000D01*
X133472458Y-83247928D01*
X133531473Y-83429556D01*
X133626960Y-83594944D01*
X133631378Y-83599851D01*
X133631379Y-83599852D01*
X133729156Y-83708444D01*
X133754747Y-83736866D01*
X133909248Y-83849118D01*
X133915276Y-83851802D01*
X133915278Y-83851803D01*
X134077681Y-83924109D01*
X134083712Y-83926794D01*
X134177112Y-83946647D01*
X134264056Y-83965128D01*
X134264061Y-83965128D01*
X134270513Y-83966500D01*
X134461487Y-83966500D01*
X134467939Y-83965128D01*
X134467944Y-83965128D01*
X134554888Y-83946647D01*
X134648288Y-83926794D01*
X134654319Y-83924109D01*
X134816722Y-83851803D01*
X134816724Y-83851802D01*
X134822752Y-83849118D01*
X134977253Y-83736866D01*
X135002844Y-83708444D01*
X135100621Y-83599852D01*
X135100622Y-83599851D01*
X135105040Y-83594944D01*
X135200527Y-83429556D01*
X135259542Y-83247928D01*
X135279504Y-83058000D01*
X135259542Y-82868072D01*
X135200527Y-82686444D01*
X135105040Y-82521056D01*
X134977253Y-82379134D01*
X134822752Y-82266882D01*
X134816724Y-82264198D01*
X134816722Y-82264197D01*
X134654319Y-82191891D01*
X134654318Y-82191891D01*
X134648288Y-82189206D01*
X134554888Y-82169353D01*
X134467944Y-82150872D01*
X134467939Y-82150872D01*
X134461487Y-82149500D01*
X134270513Y-82149500D01*
X134264061Y-82150872D01*
X134264056Y-82150872D01*
X134177112Y-82169353D01*
X134083712Y-82189206D01*
X134077682Y-82191891D01*
X134077681Y-82191891D01*
X133915278Y-82264197D01*
X133915276Y-82264198D01*
X133909248Y-82266882D01*
X133754747Y-82379134D01*
X133626960Y-82521056D01*
X133531473Y-82686444D01*
X133472458Y-82868072D01*
X133452496Y-83058000D01*
X124062724Y-83058000D01*
X124024527Y-82940444D01*
X123929040Y-82775056D01*
X123849254Y-82686444D01*
X123805675Y-82638045D01*
X123805674Y-82638044D01*
X123801253Y-82633134D01*
X123646752Y-82520882D01*
X123640724Y-82518198D01*
X123640722Y-82518197D01*
X123478319Y-82445891D01*
X123478318Y-82445891D01*
X123472288Y-82443206D01*
X123378888Y-82423353D01*
X123291944Y-82404872D01*
X123291939Y-82404872D01*
X123285487Y-82403500D01*
X123094513Y-82403500D01*
X123088061Y-82404872D01*
X123088056Y-82404872D01*
X123001112Y-82423353D01*
X122907712Y-82443206D01*
X122901682Y-82445891D01*
X122901681Y-82445891D01*
X122739278Y-82518197D01*
X122739276Y-82518198D01*
X122733248Y-82520882D01*
X122578747Y-82633134D01*
X122574326Y-82638044D01*
X122574325Y-82638045D01*
X122530747Y-82686444D01*
X122450960Y-82775056D01*
X122355473Y-82940444D01*
X122296458Y-83122072D01*
X122276496Y-83312000D01*
X121761118Y-83312000D01*
X121656914Y-83236291D01*
X121650886Y-83233607D01*
X121650884Y-83233606D01*
X121488481Y-83161300D01*
X121488480Y-83161300D01*
X121482450Y-83158615D01*
X121389050Y-83138762D01*
X121302106Y-83120281D01*
X121302101Y-83120281D01*
X121295649Y-83118909D01*
X121104675Y-83118909D01*
X121098223Y-83120281D01*
X121098218Y-83120281D01*
X121011274Y-83138762D01*
X120917874Y-83158615D01*
X120911844Y-83161300D01*
X120911843Y-83161300D01*
X120749440Y-83233606D01*
X120749438Y-83233607D01*
X120743410Y-83236291D01*
X120588909Y-83348543D01*
X120584488Y-83353453D01*
X120584487Y-83353454D01*
X120510812Y-83435279D01*
X120461122Y-83490465D01*
X120365635Y-83655853D01*
X120306620Y-83837481D01*
X120305930Y-83844042D01*
X120305930Y-83844044D01*
X120297515Y-83924109D01*
X120286658Y-84027409D01*
X112483151Y-84027409D01*
X112477240Y-84020844D01*
X112375675Y-83908045D01*
X112375674Y-83908044D01*
X112371253Y-83903134D01*
X112216752Y-83790882D01*
X112210724Y-83788198D01*
X112210722Y-83788197D01*
X112048319Y-83715891D01*
X112048318Y-83715891D01*
X112042288Y-83713206D01*
X111929721Y-83689279D01*
X111861944Y-83674872D01*
X111861939Y-83674872D01*
X111855487Y-83673500D01*
X111664513Y-83673500D01*
X111658061Y-83674871D01*
X111658046Y-83674873D01*
X111652280Y-83676099D01*
X111581490Y-83670695D01*
X111524858Y-83627877D01*
X111500366Y-83561239D01*
X111500087Y-83552874D01*
X111499643Y-81026000D01*
X116688496Y-81026000D01*
X116708458Y-81215928D01*
X116767473Y-81397556D01*
X116862960Y-81562944D01*
X116990747Y-81704866D01*
X117145248Y-81817118D01*
X117151276Y-81819802D01*
X117151278Y-81819803D01*
X117313681Y-81892109D01*
X117319712Y-81894794D01*
X117413112Y-81914647D01*
X117500056Y-81933128D01*
X117500061Y-81933128D01*
X117506513Y-81934500D01*
X117697487Y-81934500D01*
X117703939Y-81933128D01*
X117703944Y-81933128D01*
X117790888Y-81914647D01*
X117884288Y-81894794D01*
X117890319Y-81892109D01*
X118052722Y-81819803D01*
X118052724Y-81819802D01*
X118058752Y-81817118D01*
X118213253Y-81704866D01*
X118341040Y-81562944D01*
X118436527Y-81397556D01*
X118495542Y-81215928D01*
X118515504Y-81026000D01*
X118974496Y-81026000D01*
X118994458Y-81215928D01*
X119053473Y-81397556D01*
X119148960Y-81562944D01*
X119276747Y-81704866D01*
X119431248Y-81817118D01*
X119437276Y-81819802D01*
X119437278Y-81819803D01*
X119599681Y-81892109D01*
X119605712Y-81894794D01*
X119699112Y-81914647D01*
X119786056Y-81933128D01*
X119786061Y-81933128D01*
X119792513Y-81934500D01*
X119983487Y-81934500D01*
X119989939Y-81933128D01*
X119989944Y-81933128D01*
X120076888Y-81914647D01*
X120170288Y-81894794D01*
X120176319Y-81892109D01*
X120338722Y-81819803D01*
X120338724Y-81819802D01*
X120344752Y-81817118D01*
X120499253Y-81704866D01*
X120627040Y-81562944D01*
X120722527Y-81397556D01*
X120781542Y-81215928D01*
X120801504Y-81026000D01*
X120781542Y-80836072D01*
X120722527Y-80654444D01*
X120627040Y-80489056D01*
X120581744Y-80438749D01*
X120503675Y-80352045D01*
X120503674Y-80352044D01*
X120499253Y-80347134D01*
X120344752Y-80234882D01*
X120338724Y-80232198D01*
X120338722Y-80232197D01*
X120176319Y-80159891D01*
X120176318Y-80159891D01*
X120170288Y-80157206D01*
X120057721Y-80133279D01*
X119989944Y-80118872D01*
X119989939Y-80118872D01*
X119983487Y-80117500D01*
X119792513Y-80117500D01*
X119786061Y-80118872D01*
X119786056Y-80118872D01*
X119718279Y-80133279D01*
X119605712Y-80157206D01*
X119599682Y-80159891D01*
X119599681Y-80159891D01*
X119437278Y-80232197D01*
X119437276Y-80232198D01*
X119431248Y-80234882D01*
X119276747Y-80347134D01*
X119272326Y-80352044D01*
X119272325Y-80352045D01*
X119194257Y-80438749D01*
X119148960Y-80489056D01*
X119053473Y-80654444D01*
X118994458Y-80836072D01*
X118974496Y-81026000D01*
X118515504Y-81026000D01*
X118495542Y-80836072D01*
X118436527Y-80654444D01*
X118341040Y-80489056D01*
X118295744Y-80438749D01*
X118217675Y-80352045D01*
X118217674Y-80352044D01*
X118213253Y-80347134D01*
X118058752Y-80234882D01*
X118052724Y-80232198D01*
X118052722Y-80232197D01*
X117890319Y-80159891D01*
X117890318Y-80159891D01*
X117884288Y-80157206D01*
X117771721Y-80133279D01*
X117703944Y-80118872D01*
X117703939Y-80118872D01*
X117697487Y-80117500D01*
X117506513Y-80117500D01*
X117500061Y-80118872D01*
X117500056Y-80118872D01*
X117432279Y-80133279D01*
X117319712Y-80157206D01*
X117313682Y-80159891D01*
X117313681Y-80159891D01*
X117151278Y-80232197D01*
X117151276Y-80232198D01*
X117145248Y-80234882D01*
X116990747Y-80347134D01*
X116986326Y-80352044D01*
X116986325Y-80352045D01*
X116908257Y-80438749D01*
X116862960Y-80489056D01*
X116767473Y-80654444D01*
X116708458Y-80836072D01*
X116688496Y-81026000D01*
X111499643Y-81026000D01*
X111499420Y-79756000D01*
X125324496Y-79756000D01*
X125325186Y-79762565D01*
X125342764Y-79929806D01*
X125344458Y-79945928D01*
X125403473Y-80127556D01*
X125498960Y-80292944D01*
X125503378Y-80297851D01*
X125503379Y-80297852D01*
X125547753Y-80347134D01*
X125626747Y-80434866D01*
X125781248Y-80547118D01*
X125787276Y-80549802D01*
X125787278Y-80549803D01*
X125949681Y-80622109D01*
X125955712Y-80624794D01*
X126049112Y-80644647D01*
X126136056Y-80663128D01*
X126136061Y-80663128D01*
X126142513Y-80664500D01*
X126333487Y-80664500D01*
X126339939Y-80663128D01*
X126339944Y-80663128D01*
X126426888Y-80644647D01*
X126520288Y-80624794D01*
X126526319Y-80622109D01*
X126688722Y-80549803D01*
X126688724Y-80549802D01*
X126694752Y-80547118D01*
X126849253Y-80434866D01*
X126928247Y-80347134D01*
X126972621Y-80297852D01*
X126972622Y-80297851D01*
X126977040Y-80292944D01*
X127072527Y-80127556D01*
X127131542Y-79945928D01*
X127133237Y-79929806D01*
X127150814Y-79762565D01*
X127151504Y-79756000D01*
X129388496Y-79756000D01*
X129389186Y-79762565D01*
X129406764Y-79929806D01*
X129408458Y-79945928D01*
X129467473Y-80127556D01*
X129562960Y-80292944D01*
X129567378Y-80297851D01*
X129567379Y-80297852D01*
X129611753Y-80347134D01*
X129690747Y-80434866D01*
X129845248Y-80547118D01*
X129851276Y-80549802D01*
X129851278Y-80549803D01*
X130013681Y-80622109D01*
X130019712Y-80624794D01*
X130113112Y-80644647D01*
X130200056Y-80663128D01*
X130200061Y-80663128D01*
X130206513Y-80664500D01*
X130397487Y-80664500D01*
X130403939Y-80663128D01*
X130403944Y-80663128D01*
X130490888Y-80644647D01*
X130584288Y-80624794D01*
X130590319Y-80622109D01*
X130752722Y-80549803D01*
X130752724Y-80549802D01*
X130758752Y-80547118D01*
X130913253Y-80434866D01*
X130992247Y-80347134D01*
X131036621Y-80297852D01*
X131036622Y-80297851D01*
X131041040Y-80292944D01*
X131136527Y-80127556D01*
X131195542Y-79945928D01*
X131197237Y-79929806D01*
X131214814Y-79762565D01*
X131215504Y-79756000D01*
X131195542Y-79566072D01*
X131136527Y-79384444D01*
X131041040Y-79219056D01*
X130995744Y-79168749D01*
X130917675Y-79082045D01*
X130917674Y-79082044D01*
X130913253Y-79077134D01*
X130758752Y-78964882D01*
X130752724Y-78962198D01*
X130752722Y-78962197D01*
X130590319Y-78889891D01*
X130590318Y-78889891D01*
X130584288Y-78887206D01*
X130471721Y-78863279D01*
X130403944Y-78848872D01*
X130403939Y-78848872D01*
X130397487Y-78847500D01*
X130206513Y-78847500D01*
X130200061Y-78848872D01*
X130200056Y-78848872D01*
X130132279Y-78863279D01*
X130019712Y-78887206D01*
X130013682Y-78889891D01*
X130013681Y-78889891D01*
X129851278Y-78962197D01*
X129851276Y-78962198D01*
X129845248Y-78964882D01*
X129690747Y-79077134D01*
X129686326Y-79082044D01*
X129686325Y-79082045D01*
X129608257Y-79168749D01*
X129562960Y-79219056D01*
X129467473Y-79384444D01*
X129408458Y-79566072D01*
X129388496Y-79756000D01*
X127151504Y-79756000D01*
X127131542Y-79566072D01*
X127072527Y-79384444D01*
X126977040Y-79219056D01*
X126931744Y-79168749D01*
X126853675Y-79082045D01*
X126853674Y-79082044D01*
X126849253Y-79077134D01*
X126694752Y-78964882D01*
X126688724Y-78962198D01*
X126688722Y-78962197D01*
X126526319Y-78889891D01*
X126526318Y-78889891D01*
X126520288Y-78887206D01*
X126407721Y-78863279D01*
X126339944Y-78848872D01*
X126339939Y-78848872D01*
X126333487Y-78847500D01*
X126142513Y-78847500D01*
X126136061Y-78848872D01*
X126136056Y-78848872D01*
X126068279Y-78863279D01*
X125955712Y-78887206D01*
X125949682Y-78889891D01*
X125949681Y-78889891D01*
X125787278Y-78962197D01*
X125787276Y-78962198D01*
X125781248Y-78964882D01*
X125626747Y-79077134D01*
X125622326Y-79082044D01*
X125622325Y-79082045D01*
X125544257Y-79168749D01*
X125498960Y-79219056D01*
X125403473Y-79384444D01*
X125344458Y-79566072D01*
X125324496Y-79756000D01*
X111499420Y-79756000D01*
X111498801Y-76233663D01*
X120446500Y-76233663D01*
X120461235Y-76378727D01*
X120463144Y-76384818D01*
X120517556Y-76558451D01*
X120517558Y-76558456D01*
X120519465Y-76564541D01*
X120613870Y-76734850D01*
X120618019Y-76739691D01*
X120618022Y-76739695D01*
X120706328Y-76842723D01*
X120740591Y-76882698D01*
X120894453Y-77002046D01*
X120900176Y-77004862D01*
X120900179Y-77004864D01*
X121032891Y-77070166D01*
X121069171Y-77088018D01*
X121075349Y-77089627D01*
X121075351Y-77089628D01*
X121251425Y-77135492D01*
X121251428Y-77135492D01*
X121257607Y-77137102D01*
X121341597Y-77141504D01*
X121445683Y-77146959D01*
X121445687Y-77146959D01*
X121452064Y-77147293D01*
X121607413Y-77123799D01*
X121638285Y-77119130D01*
X121638286Y-77119130D01*
X121644599Y-77118175D01*
X121650585Y-77115972D01*
X121650591Y-77115971D01*
X121821360Y-77053140D01*
X121821365Y-77053138D01*
X121827346Y-77050937D01*
X121959224Y-76969169D01*
X122027660Y-76950271D01*
X122095448Y-76971373D01*
X122119255Y-76991942D01*
X122142284Y-77017518D01*
X122173002Y-77081523D01*
X122164240Y-77151977D01*
X122148757Y-77176080D01*
X122149759Y-77176808D01*
X122145880Y-77182148D01*
X122141460Y-77187056D01*
X122045973Y-77352444D01*
X121997562Y-77501436D01*
X121987488Y-77532441D01*
X121947414Y-77591046D01*
X121903854Y-77611952D01*
X121904452Y-77613792D01*
X121898168Y-77615834D01*
X121891712Y-77617206D01*
X121885682Y-77619891D01*
X121885681Y-77619891D01*
X121723278Y-77692197D01*
X121723276Y-77692198D01*
X121717248Y-77694882D01*
X121711907Y-77698762D01*
X121711906Y-77698763D01*
X121677171Y-77724000D01*
X121562747Y-77807134D01*
X121558326Y-77812044D01*
X121558325Y-77812045D01*
X121460937Y-77920206D01*
X121434960Y-77949056D01*
X121339473Y-78114444D01*
X121280458Y-78296072D01*
X121279768Y-78302633D01*
X121279768Y-78302635D01*
X121267920Y-78415365D01*
X121260496Y-78486000D01*
X121261186Y-78492565D01*
X121275824Y-78631834D01*
X121280458Y-78675928D01*
X121339473Y-78857556D01*
X121434960Y-79022944D01*
X121439378Y-79027851D01*
X121439379Y-79027852D01*
X121483753Y-79077134D01*
X121562747Y-79164866D01*
X121717248Y-79277118D01*
X121723276Y-79279802D01*
X121723278Y-79279803D01*
X121795756Y-79312072D01*
X121891712Y-79354794D01*
X121985113Y-79374647D01*
X122072056Y-79393128D01*
X122072061Y-79393128D01*
X122078513Y-79394500D01*
X122269487Y-79394500D01*
X122275939Y-79393128D01*
X122275944Y-79393128D01*
X122362887Y-79374647D01*
X122456288Y-79354794D01*
X122552244Y-79312072D01*
X122624722Y-79279803D01*
X122624724Y-79279802D01*
X122630752Y-79277118D01*
X122785253Y-79164866D01*
X122864247Y-79077134D01*
X122908621Y-79027852D01*
X122908622Y-79027851D01*
X122913040Y-79022944D01*
X123008527Y-78857556D01*
X123067012Y-78677559D01*
X123107086Y-78618954D01*
X123150646Y-78598048D01*
X123150048Y-78596208D01*
X123156332Y-78594166D01*
X123162788Y-78592794D01*
X123168819Y-78590109D01*
X123331222Y-78517803D01*
X123331224Y-78517802D01*
X123337252Y-78515118D01*
X123368294Y-78492565D01*
X123392657Y-78474864D01*
X123491753Y-78402866D01*
X123587911Y-78296072D01*
X123615121Y-78265852D01*
X123615122Y-78265851D01*
X123619540Y-78260944D01*
X123715027Y-78095556D01*
X123774042Y-77913928D01*
X123785675Y-77803251D01*
X123793314Y-77730565D01*
X123794004Y-77724000D01*
X123782421Y-77613792D01*
X123774732Y-77540635D01*
X123774732Y-77540633D01*
X123774042Y-77534072D01*
X123732998Y-77407752D01*
X123730970Y-77336786D01*
X123767633Y-77275988D01*
X123826634Y-77245570D01*
X123871752Y-77235980D01*
X123968794Y-77192774D01*
X123978751Y-77188341D01*
X124049118Y-77178907D01*
X124081249Y-77188341D01*
X124091206Y-77192774D01*
X124188248Y-77235980D01*
X124276508Y-77254740D01*
X124358311Y-77272128D01*
X124358315Y-77272128D01*
X124364768Y-77273500D01*
X124545232Y-77273500D01*
X124551685Y-77272128D01*
X124551689Y-77272128D01*
X124633492Y-77254740D01*
X124721752Y-77235980D01*
X124818794Y-77192774D01*
X124828751Y-77188341D01*
X124899118Y-77178907D01*
X124931249Y-77188341D01*
X124941206Y-77192774D01*
X125038248Y-77235980D01*
X125126508Y-77254740D01*
X125208311Y-77272128D01*
X125208315Y-77272128D01*
X125214768Y-77273500D01*
X125395232Y-77273500D01*
X125401685Y-77272128D01*
X125401689Y-77272128D01*
X125483492Y-77254740D01*
X125571752Y-77235980D01*
X125668794Y-77192774D01*
X125678751Y-77188341D01*
X125749118Y-77178907D01*
X125781249Y-77188341D01*
X125791206Y-77192774D01*
X125888248Y-77235980D01*
X125976508Y-77254740D01*
X126058311Y-77272128D01*
X126058315Y-77272128D01*
X126064768Y-77273500D01*
X126245232Y-77273500D01*
X126251685Y-77272128D01*
X126251689Y-77272128D01*
X126333492Y-77254740D01*
X126421752Y-77235980D01*
X126518794Y-77192774D01*
X126528751Y-77188341D01*
X126599118Y-77178907D01*
X126631249Y-77188341D01*
X126641206Y-77192774D01*
X126738248Y-77235980D01*
X126826508Y-77254740D01*
X126908311Y-77272128D01*
X126908315Y-77272128D01*
X126914768Y-77273500D01*
X127095232Y-77273500D01*
X127101685Y-77272128D01*
X127101689Y-77272128D01*
X127183492Y-77254740D01*
X127271752Y-77235980D01*
X127368794Y-77192774D01*
X127378751Y-77188341D01*
X127449118Y-77178907D01*
X127481249Y-77188341D01*
X127491206Y-77192774D01*
X127588248Y-77235980D01*
X127676508Y-77254740D01*
X127758311Y-77272128D01*
X127758315Y-77272128D01*
X127764768Y-77273500D01*
X127909842Y-77273500D01*
X127977963Y-77293502D01*
X128024456Y-77347158D01*
X128034560Y-77417432D01*
X128005066Y-77482012D01*
X127983903Y-77501436D01*
X127912747Y-77553134D01*
X127784960Y-77695056D01*
X127689473Y-77860444D01*
X127630458Y-78042072D01*
X127610496Y-78232000D01*
X127611186Y-78238565D01*
X127628863Y-78406749D01*
X127630458Y-78421928D01*
X127689473Y-78603556D01*
X127784960Y-78768944D01*
X127789378Y-78773851D01*
X127789379Y-78773852D01*
X127890208Y-78885834D01*
X127912747Y-78910866D01*
X128067248Y-79023118D01*
X128073276Y-79025802D01*
X128073278Y-79025803D01*
X128235681Y-79098109D01*
X128241712Y-79100794D01*
X128335113Y-79120647D01*
X128422056Y-79139128D01*
X128422061Y-79139128D01*
X128428513Y-79140500D01*
X128619487Y-79140500D01*
X128625939Y-79139128D01*
X128625944Y-79139128D01*
X128712887Y-79120647D01*
X128806288Y-79100794D01*
X128812319Y-79098109D01*
X128974722Y-79025803D01*
X128974724Y-79025802D01*
X128980752Y-79023118D01*
X129135253Y-78910866D01*
X129157792Y-78885834D01*
X129258621Y-78773852D01*
X129258622Y-78773851D01*
X129263040Y-78768944D01*
X129358527Y-78603556D01*
X129417542Y-78421928D01*
X129419138Y-78406749D01*
X129436814Y-78238565D01*
X129437504Y-78232000D01*
X129417542Y-78042072D01*
X129358527Y-77860444D01*
X129263040Y-77695056D01*
X129135253Y-77553134D01*
X128980752Y-77440882D01*
X128982189Y-77438904D01*
X128940842Y-77395540D01*
X128927406Y-77325827D01*
X128953792Y-77259916D01*
X129001586Y-77222697D01*
X129130585Y-77165263D01*
X129130587Y-77165262D01*
X129136615Y-77162578D01*
X129196416Y-77119130D01*
X129277269Y-77060387D01*
X129277271Y-77060385D01*
X129282613Y-77056504D01*
X129340813Y-76991866D01*
X129401256Y-76954628D01*
X129472240Y-76955979D01*
X129511670Y-76976617D01*
X129544453Y-77002046D01*
X129550176Y-77004862D01*
X129550179Y-77004864D01*
X129682891Y-77070166D01*
X129719171Y-77088018D01*
X129725349Y-77089627D01*
X129725351Y-77089628D01*
X129901425Y-77135492D01*
X129901428Y-77135492D01*
X129907607Y-77137102D01*
X129991597Y-77141504D01*
X130095683Y-77146959D01*
X130095687Y-77146959D01*
X130102064Y-77147293D01*
X130257413Y-77123799D01*
X130288285Y-77119130D01*
X130288286Y-77119130D01*
X130294599Y-77118175D01*
X130300585Y-77115972D01*
X130300591Y-77115971D01*
X130471360Y-77053140D01*
X130471365Y-77053138D01*
X130477346Y-77050937D01*
X130642840Y-76948326D01*
X130712240Y-76882698D01*
X130754513Y-76842723D01*
X130817751Y-76810452D01*
X130888398Y-76817492D01*
X130934720Y-76849960D01*
X130960747Y-76878866D01*
X130992342Y-76901821D01*
X131066884Y-76955979D01*
X131115248Y-76991118D01*
X131121276Y-76993802D01*
X131121278Y-76993803D01*
X131146122Y-77004864D01*
X131289712Y-77068794D01*
X131366896Y-77085200D01*
X131470056Y-77107128D01*
X131470061Y-77107128D01*
X131476513Y-77108500D01*
X131667487Y-77108500D01*
X131673939Y-77107128D01*
X131673944Y-77107128D01*
X131777104Y-77085200D01*
X131854288Y-77068794D01*
X131997878Y-77004864D01*
X132022722Y-76993803D01*
X132022724Y-76993802D01*
X132028752Y-76991118D01*
X132077117Y-76955979D01*
X132151658Y-76901821D01*
X132183253Y-76878866D01*
X132311040Y-76736944D01*
X132406527Y-76571556D01*
X132465542Y-76389928D01*
X132485504Y-76200000D01*
X132465542Y-76010072D01*
X132406527Y-75828444D01*
X132311040Y-75663056D01*
X132183253Y-75521134D01*
X132028752Y-75408882D01*
X132022724Y-75406198D01*
X132022722Y-75406197D01*
X131860319Y-75333891D01*
X131860318Y-75333891D01*
X131854288Y-75331206D01*
X131760887Y-75311353D01*
X131673944Y-75292872D01*
X131673939Y-75292872D01*
X131667487Y-75291500D01*
X131476513Y-75291500D01*
X131470061Y-75292872D01*
X131470056Y-75292872D01*
X131383113Y-75311353D01*
X131289712Y-75331206D01*
X131283682Y-75333891D01*
X131283681Y-75333891D01*
X131190749Y-75375267D01*
X131120382Y-75384701D01*
X131056085Y-75354595D01*
X131018271Y-75294506D01*
X131013500Y-75260160D01*
X131013500Y-74636337D01*
X130998765Y-74491273D01*
X130980730Y-74433723D01*
X130942444Y-74311549D01*
X130942442Y-74311544D01*
X130940535Y-74305459D01*
X130886441Y-74207872D01*
X130849223Y-74140729D01*
X130849221Y-74140726D01*
X130846130Y-74135150D01*
X130841981Y-74130309D01*
X130841978Y-74130305D01*
X130723560Y-73992145D01*
X130719409Y-73987302D01*
X130565547Y-73867954D01*
X130559824Y-73865138D01*
X130559821Y-73865136D01*
X130396556Y-73784800D01*
X130390829Y-73781982D01*
X130384651Y-73780373D01*
X130384649Y-73780372D01*
X130208575Y-73734508D01*
X130208572Y-73734508D01*
X130202393Y-73732898D01*
X130118403Y-73728496D01*
X130014317Y-73723041D01*
X130014313Y-73723041D01*
X130007936Y-73722707D01*
X129852587Y-73746201D01*
X129821715Y-73750870D01*
X129821714Y-73750870D01*
X129815401Y-73751825D01*
X129809415Y-73754028D01*
X129809409Y-73754029D01*
X129638640Y-73816860D01*
X129638635Y-73816862D01*
X129632654Y-73819063D01*
X129467160Y-73921674D01*
X129462527Y-73926055D01*
X129462526Y-73926056D01*
X129330315Y-74051081D01*
X129325678Y-74055466D01*
X129322016Y-74060696D01*
X129322015Y-74060697D01*
X129217654Y-74209741D01*
X129213989Y-74214975D01*
X129211452Y-74220837D01*
X129209447Y-74224425D01*
X129158753Y-74274131D01*
X129089233Y-74288538D01*
X129048211Y-74278061D01*
X128977787Y-74246706D01*
X128977779Y-74246703D01*
X128971752Y-74244020D01*
X128862688Y-74220838D01*
X128801689Y-74207872D01*
X128801685Y-74207872D01*
X128795232Y-74206500D01*
X128614768Y-74206500D01*
X128608315Y-74207872D01*
X128608311Y-74207872D01*
X128547312Y-74220838D01*
X128438248Y-74244020D01*
X128432219Y-74246704D01*
X128432217Y-74246705D01*
X128331249Y-74291659D01*
X128260882Y-74301093D01*
X128228751Y-74291659D01*
X128127783Y-74246705D01*
X128127781Y-74246704D01*
X128121752Y-74244020D01*
X128012688Y-74220838D01*
X127951689Y-74207872D01*
X127951685Y-74207872D01*
X127945232Y-74206500D01*
X127764768Y-74206500D01*
X127758315Y-74207872D01*
X127758311Y-74207872D01*
X127697312Y-74220838D01*
X127588248Y-74244020D01*
X127582219Y-74246704D01*
X127582217Y-74246705D01*
X127481249Y-74291659D01*
X127410882Y-74301093D01*
X127378751Y-74291659D01*
X127277783Y-74246705D01*
X127277781Y-74246704D01*
X127271752Y-74244020D01*
X127162688Y-74220838D01*
X127101689Y-74207872D01*
X127101685Y-74207872D01*
X127095232Y-74206500D01*
X126914768Y-74206500D01*
X126908315Y-74207872D01*
X126908311Y-74207872D01*
X126847312Y-74220838D01*
X126738248Y-74244020D01*
X126732219Y-74246704D01*
X126732217Y-74246705D01*
X126631249Y-74291659D01*
X126560882Y-74301093D01*
X126528751Y-74291659D01*
X126427783Y-74246705D01*
X126427781Y-74246704D01*
X126421752Y-74244020D01*
X126312688Y-74220838D01*
X126251689Y-74207872D01*
X126251685Y-74207872D01*
X126245232Y-74206500D01*
X126064768Y-74206500D01*
X126058315Y-74207872D01*
X126058311Y-74207872D01*
X125997312Y-74220838D01*
X125888248Y-74244020D01*
X125882219Y-74246704D01*
X125882217Y-74246705D01*
X125781249Y-74291659D01*
X125710882Y-74301093D01*
X125678751Y-74291659D01*
X125577783Y-74246705D01*
X125577781Y-74246704D01*
X125571752Y-74244020D01*
X125462688Y-74220838D01*
X125401689Y-74207872D01*
X125401685Y-74207872D01*
X125395232Y-74206500D01*
X125214768Y-74206500D01*
X125208315Y-74207872D01*
X125208311Y-74207872D01*
X125147312Y-74220838D01*
X125038248Y-74244020D01*
X125032219Y-74246704D01*
X125032217Y-74246705D01*
X124931249Y-74291659D01*
X124860882Y-74301093D01*
X124828751Y-74291659D01*
X124727783Y-74246705D01*
X124727781Y-74246704D01*
X124721752Y-74244020D01*
X124612688Y-74220838D01*
X124551689Y-74207872D01*
X124551685Y-74207872D01*
X124545232Y-74206500D01*
X124364768Y-74206500D01*
X124358315Y-74207872D01*
X124358311Y-74207872D01*
X124297312Y-74220838D01*
X124188248Y-74244020D01*
X124182219Y-74246704D01*
X124182217Y-74246705D01*
X124081249Y-74291659D01*
X124010882Y-74301093D01*
X123978751Y-74291659D01*
X123877783Y-74246705D01*
X123877781Y-74246704D01*
X123871752Y-74244020D01*
X123762688Y-74220838D01*
X123701689Y-74207872D01*
X123701685Y-74207872D01*
X123695232Y-74206500D01*
X123514768Y-74206500D01*
X123508315Y-74207872D01*
X123508311Y-74207872D01*
X123447312Y-74220838D01*
X123338248Y-74244020D01*
X123332219Y-74246704D01*
X123332217Y-74246705D01*
X123231249Y-74291659D01*
X123160882Y-74301093D01*
X123128751Y-74291659D01*
X123027783Y-74246705D01*
X123027781Y-74246704D01*
X123021752Y-74244020D01*
X122912688Y-74220838D01*
X122851689Y-74207872D01*
X122851685Y-74207872D01*
X122845232Y-74206500D01*
X122664768Y-74206500D01*
X122658315Y-74207872D01*
X122658311Y-74207872D01*
X122597312Y-74220838D01*
X122488248Y-74244020D01*
X122482215Y-74246706D01*
X122482209Y-74246708D01*
X122407832Y-74279823D01*
X122337465Y-74289258D01*
X122273168Y-74259152D01*
X122246381Y-74225804D01*
X122199223Y-74140729D01*
X122199221Y-74140726D01*
X122196130Y-74135150D01*
X122191981Y-74130309D01*
X122191978Y-74130305D01*
X122073560Y-73992145D01*
X122069409Y-73987302D01*
X121915547Y-73867954D01*
X121909824Y-73865138D01*
X121909821Y-73865136D01*
X121746556Y-73784800D01*
X121740829Y-73781982D01*
X121734651Y-73780373D01*
X121734649Y-73780372D01*
X121558575Y-73734508D01*
X121558572Y-73734508D01*
X121552393Y-73732898D01*
X121468403Y-73728496D01*
X121364317Y-73723041D01*
X121364313Y-73723041D01*
X121357936Y-73722707D01*
X121202587Y-73746201D01*
X121171715Y-73750870D01*
X121171714Y-73750870D01*
X121165401Y-73751825D01*
X121159415Y-73754028D01*
X121159409Y-73754029D01*
X120988640Y-73816860D01*
X120988635Y-73816862D01*
X120982654Y-73819063D01*
X120817160Y-73921674D01*
X120812527Y-73926055D01*
X120812526Y-73926056D01*
X120680315Y-74051081D01*
X120675678Y-74055466D01*
X120672016Y-74060696D01*
X120672015Y-74060697D01*
X120632991Y-74116429D01*
X120563989Y-74214975D01*
X120561452Y-74220838D01*
X120496899Y-74370012D01*
X120486655Y-74393684D01*
X120485350Y-74399931D01*
X120485349Y-74399934D01*
X120450622Y-74566167D01*
X120446835Y-74584293D01*
X120446500Y-74590685D01*
X120446500Y-76233663D01*
X111498801Y-76233663D01*
X111498520Y-74634291D01*
X111518510Y-74566167D01*
X111572158Y-74519665D01*
X111642430Y-74509548D01*
X111707016Y-74539030D01*
X111714774Y-74546347D01*
X111751740Y-74584293D01*
X111773814Y-74606953D01*
X111846635Y-74665607D01*
X112025196Y-74809431D01*
X112025201Y-74809435D01*
X112028149Y-74811809D01*
X112305253Y-74984627D01*
X112601112Y-75122903D01*
X112911440Y-75224634D01*
X113231742Y-75288346D01*
X113235514Y-75288633D01*
X113235522Y-75288634D01*
X113553602Y-75312829D01*
X113553607Y-75312829D01*
X113557379Y-75313116D01*
X113883633Y-75298586D01*
X113943425Y-75288634D01*
X114202037Y-75245590D01*
X114202042Y-75245589D01*
X114205778Y-75244967D01*
X114519149Y-75153034D01*
X114522616Y-75151544D01*
X114522620Y-75151543D01*
X114815721Y-75025616D01*
X114815723Y-75025615D01*
X114819205Y-75024119D01*
X115101601Y-74860091D01*
X115362245Y-74663324D01*
X115516109Y-74514999D01*
X115594632Y-74439303D01*
X115594635Y-74439300D01*
X115597363Y-74436670D01*
X115696844Y-74314477D01*
X115801155Y-74186351D01*
X115801158Y-74186347D01*
X115803549Y-74183410D01*
X115968692Y-73921674D01*
X115975788Y-73910428D01*
X115975790Y-73910425D01*
X115977815Y-73907215D01*
X116117638Y-73612084D01*
X116144188Y-73532504D01*
X116219790Y-73305897D01*
X116219792Y-73305891D01*
X116220992Y-73302293D01*
X116286381Y-72982329D01*
X116290617Y-72930259D01*
X116312674Y-72659061D01*
X116312856Y-72656826D01*
X116313451Y-72600000D01*
X116311510Y-72567796D01*
X116294026Y-72277793D01*
X116294026Y-72277789D01*
X116293798Y-72274015D01*
X116288650Y-72245824D01*
X116235805Y-71956473D01*
X116235804Y-71956469D01*
X116235125Y-71952751D01*
X116227722Y-71928907D01*
X116139404Y-71644477D01*
X116138282Y-71640863D01*
X116004670Y-71342869D01*
X115836226Y-71063084D01*
X115833899Y-71060100D01*
X115833894Y-71060093D01*
X115637726Y-70808558D01*
X115637724Y-70808556D01*
X115635390Y-70805563D01*
X115543122Y-70712810D01*
X115509260Y-70650410D01*
X115514510Y-70579608D01*
X115557205Y-70522884D01*
X115623790Y-70498247D01*
X115632450Y-70497949D01*
X121066518Y-70497949D01*
X121134639Y-70517951D01*
G37*
%TD.AperFunction*%
M02*
